%TF.GenerationSoftware,KiCad,Pcbnew,8.0.6*%
%TF.CreationDate,2025-05-12T11:17:16+07:00*%
%TF.ProjectId,DATN,4441544e-2e6b-4696-9361-645f70636258,rev?*%
%TF.SameCoordinates,Original*%
%TF.FileFunction,Copper,L2,Bot*%
%TF.FilePolarity,Positive*%
%FSLAX46Y46*%
G04 Gerber Fmt 4.6, Leading zero omitted, Abs format (unit mm)*
G04 Created by KiCad (PCBNEW 8.0.6) date 2025-05-12 11:17:16*
%MOMM*%
%LPD*%
G01*
G04 APERTURE LIST*
G04 Aperture macros list*
%AMRoundRect*
0 Rectangle with rounded corners*
0 $1 Rounding radius*
0 $2 $3 $4 $5 $6 $7 $8 $9 X,Y pos of 4 corners*
0 Add a 4 corners polygon primitive as box body*
4,1,4,$2,$3,$4,$5,$6,$7,$8,$9,$2,$3,0*
0 Add four circle primitives for the rounded corners*
1,1,$1+$1,$2,$3*
1,1,$1+$1,$4,$5*
1,1,$1+$1,$6,$7*
1,1,$1+$1,$8,$9*
0 Add four rect primitives between the rounded corners*
20,1,$1+$1,$2,$3,$4,$5,0*
20,1,$1+$1,$4,$5,$6,$7,0*
20,1,$1+$1,$6,$7,$8,$9,0*
20,1,$1+$1,$8,$9,$2,$3,0*%
G04 Aperture macros list end*
%TA.AperFunction,ComponentPad*%
%ADD10C,0.500000*%
%TD*%
%TA.AperFunction,SMDPad,CuDef*%
%ADD11R,1.600000X1.600000*%
%TD*%
%TA.AperFunction,ComponentPad*%
%ADD12C,6.000000*%
%TD*%
%TA.AperFunction,ComponentPad*%
%ADD13C,1.524000*%
%TD*%
%TA.AperFunction,ComponentPad*%
%ADD14R,1.700000X1.700000*%
%TD*%
%TA.AperFunction,ComponentPad*%
%ADD15O,1.700000X1.700000*%
%TD*%
%TA.AperFunction,ComponentPad*%
%ADD16R,4.400000X1.800000*%
%TD*%
%TA.AperFunction,ComponentPad*%
%ADD17O,4.000000X1.800000*%
%TD*%
%TA.AperFunction,ComponentPad*%
%ADD18O,1.800000X4.000000*%
%TD*%
%TA.AperFunction,ComponentPad*%
%ADD19RoundRect,0.200100X0.949900X0.949900X-0.949900X0.949900X-0.949900X-0.949900X0.949900X-0.949900X0*%
%TD*%
%TA.AperFunction,ComponentPad*%
%ADD20C,2.500000*%
%TD*%
%TA.AperFunction,ComponentPad*%
%ADD21C,1.800000*%
%TD*%
%TA.AperFunction,ComponentPad*%
%ADD22C,1.600000*%
%TD*%
%TA.AperFunction,ComponentPad*%
%ADD23C,0.600000*%
%TD*%
%TA.AperFunction,ComponentPad*%
%ADD24C,2.000000*%
%TD*%
%TA.AperFunction,ComponentPad*%
%ADD25RoundRect,0.250500X-0.499500X-0.499500X0.499500X-0.499500X0.499500X0.499500X-0.499500X0.499500X0*%
%TD*%
%TA.AperFunction,ComponentPad*%
%ADD26C,1.500000*%
%TD*%
%TA.AperFunction,ViaPad*%
%ADD27C,0.600000*%
%TD*%
%TA.AperFunction,Conductor*%
%ADD28C,0.200000*%
%TD*%
%TA.AperFunction,Conductor*%
%ADD29C,0.250000*%
%TD*%
%TA.AperFunction,Conductor*%
%ADD30C,0.500000*%
%TD*%
%TA.AperFunction,Conductor*%
%ADD31C,0.300000*%
%TD*%
%TA.AperFunction,Conductor*%
%ADD32C,0.400000*%
%TD*%
G04 APERTURE END LIST*
D10*
%TO.P,U2,17,VSS*%
%TO.N,GND*%
X93137500Y-69900000D03*
X92037500Y-69900000D03*
D11*
X92587500Y-70450000D03*
D10*
X93137500Y-71000000D03*
X92037500Y-71000000D03*
%TD*%
D12*
%TO.P,,1*%
%TO.N,N/C*%
X75230000Y-115460000D03*
%TD*%
D13*
%TO.P,D1,1,A1*%
%TO.N,Net-(D1-A1)*%
X105900000Y-112900000D03*
%TO.P,D1,2,K1*%
%TO.N,Net-(D1-K1)*%
X108440000Y-112900000D03*
%TO.P,D1,3,A2*%
%TO.N,Net-(D1-A2)*%
X105900000Y-110360000D03*
%TO.P,D1,4,K2*%
%TO.N,/LED_ACT*%
X108440000Y-110360000D03*
%TD*%
D14*
%TO.P,BT1,1,+*%
%TO.N,+BATT*%
X85887500Y-66300000D03*
D15*
%TO.P,BT1,2,-*%
%TO.N,GND*%
X83347500Y-66300000D03*
%TD*%
D16*
%TO.P,J1,1*%
%TO.N,/Vin*%
X86237500Y-103650000D03*
D17*
%TO.P,J1,2*%
%TO.N,GND*%
X86237500Y-109450000D03*
D18*
%TO.P,J1,3*%
%TO.N,N/C*%
X91037500Y-106650000D03*
%TD*%
D19*
%TO.P,U8,1*%
%TO.N,Net-(U7-Anaten)*%
X146343020Y-113643020D03*
D20*
%TO.P,U8,2*%
%TO.N,GND*%
X148883020Y-116183020D03*
X148883020Y-111103020D03*
X143803020Y-116183020D03*
X143803020Y-111103020D03*
%TD*%
D14*
%TO.P,J3,1,Pin_1*%
%TO.N,+3V3*%
X129800000Y-66060000D03*
D15*
%TO.P,J3,2,Pin_2*%
%TO.N,/ESP_BOOT*%
X127260000Y-66060000D03*
%TO.P,J3,3,Pin_3*%
%TO.N,/ESP_RX*%
X124720000Y-66060000D03*
%TO.P,J3,4,Pin_4*%
%TO.N,/ESP_TX*%
X122180000Y-66060000D03*
%TO.P,J3,5,Pin_5*%
%TO.N,/ESP_RST*%
X119640000Y-66060000D03*
%TO.P,J3,6,Pin_6*%
%TO.N,GND*%
X117100000Y-66060000D03*
%TD*%
D13*
%TO.P,SW1,1,C*%
%TO.N,+3V3*%
X106300000Y-97600000D03*
%TO.P,SW1,2,B*%
%TO.N,VCC*%
X106300000Y-100100000D03*
%TO.P,SW1,3,A*%
%TO.N,Net-(SW1-A)*%
X106300000Y-102600000D03*
%TD*%
D12*
%TO.P,,1*%
%TO.N,N/C*%
X75150000Y-62840000D03*
%TD*%
D21*
%TO.P,RV1,1*%
%TO.N,VDC*%
X94012500Y-97095000D03*
%TO.P,RV1,2*%
%TO.N,GND*%
X101512500Y-98728330D03*
%TD*%
D22*
%TO.P,C33,1*%
%TO.N,GND*%
X123100000Y-89000000D03*
%TO.P,C33,2*%
%TO.N,/CGND*%
X128100000Y-89000000D03*
%TD*%
D12*
%TO.P,,1*%
%TO.N,N/C*%
X154970000Y-115430000D03*
%TD*%
D23*
%TO.P,U5,39,GND*%
%TO.N,GND*%
X145070000Y-73560000D03*
X144070000Y-73560000D03*
X143070000Y-73560000D03*
X142070000Y-73560000D03*
X145070000Y-74560000D03*
X144070000Y-74560000D03*
X143070000Y-74560000D03*
X142070000Y-74560000D03*
X145070000Y-75560000D03*
X144070000Y-75560000D03*
X143070000Y-75560000D03*
X142070000Y-75560000D03*
X145070000Y-76560000D03*
X144070000Y-76560000D03*
X143070000Y-76560000D03*
X142070000Y-76560000D03*
%TD*%
D24*
%TO.P,SW3,1,1*%
%TO.N,GND*%
X139518020Y-115318020D03*
%TO.P,SW3,2,2*%
%TO.N,/ESP_BOOT*%
X135018020Y-115318020D03*
%TO.P,SW3,S*%
%TO.N,N/C*%
X140768020Y-112818020D03*
%TO.P,SW3,s*%
X133768020Y-112818020D03*
%TD*%
D25*
%TO.P,J6,1,TD+*%
%TO.N,Net-(J6-TD+)*%
X116975000Y-100440000D03*
D26*
%TO.P,J6,2,TD-*%
%TO.N,Net-(J6-TD-)*%
X118235000Y-97900000D03*
%TO.P,J6,3,RD+*%
%TO.N,Net-(J6-RD+)*%
X119515000Y-100440000D03*
%TO.P,J6,4,TCT*%
%TO.N,Net-(J6-TCT)*%
X120775000Y-97900000D03*
%TO.P,J6,5,RCT*%
%TO.N,Net-(J6-RCT)*%
X122055000Y-100440000D03*
%TO.P,J6,6,RD-*%
%TO.N,Net-(J6-RD-)*%
X123315000Y-97900000D03*
%TO.P,J6,7,NC*%
%TO.N,unconnected-(J6-NC-Pad7)*%
X124595000Y-100440000D03*
%TO.P,J6,8*%
%TO.N,/CGND*%
X125855000Y-97900000D03*
%TO.P,J6,9*%
%TO.N,+3V3*%
X114790000Y-111700000D03*
%TO.P,J6,10*%
%TO.N,Net-(J6-Pad10)*%
X117330000Y-111700000D03*
%TO.P,J6,11*%
%TO.N,Net-(J6-Pad11)*%
X125500000Y-111700000D03*
%TO.P,J6,12*%
%TO.N,+3V3*%
X128040000Y-111700000D03*
D20*
%TO.P,J6,SH*%
%TO.N,/CGND*%
X113670000Y-103750000D03*
X129160000Y-103750000D03*
%TD*%
%TO.P,J2,1,Pin_1*%
%TO.N,/Vin*%
X95292500Y-107635000D03*
%TO.P,J2,2,Pin_2*%
%TO.N,GND*%
X100372500Y-107635000D03*
%TD*%
D27*
%TO.N,GND*%
X92330000Y-90260000D03*
X126400000Y-73400000D03*
X103330000Y-79630000D03*
X79050000Y-82890000D03*
X78860000Y-81670000D03*
X80660000Y-81020000D03*
X80620000Y-82480000D03*
X115330000Y-77660000D03*
X94970000Y-110400000D03*
X101540000Y-110120000D03*
X102310000Y-103910000D03*
X127170000Y-102110000D03*
X118520000Y-102590000D03*
X118930000Y-105110000D03*
X123050000Y-106960000D03*
X112330000Y-70510000D03*
X108970000Y-66970000D03*
X98480000Y-61800000D03*
X105420000Y-61740000D03*
%TO.N,/3v3A*%
X108530000Y-84442500D03*
%TO.N,GND*%
X89140000Y-97980000D03*
X111020000Y-114720000D03*
X81140000Y-87870000D03*
X74370000Y-69420000D03*
X106180000Y-104850000D03*
X82710000Y-76250000D03*
X135840000Y-104730000D03*
X138800000Y-96840000D03*
X87160000Y-79780000D03*
X95500000Y-102070000D03*
X79330000Y-87030000D03*
X111190000Y-81720000D03*
X81920000Y-74470000D03*
X89080000Y-96090000D03*
X105100000Y-83650000D03*
X105230000Y-95310000D03*
X111820000Y-97770000D03*
X109950000Y-81340000D03*
X76590000Y-69220000D03*
X109980000Y-88350000D03*
X87790000Y-97910000D03*
X130840000Y-90700000D03*
X131310000Y-115280000D03*
X103670000Y-66180000D03*
X79080000Y-96300000D03*
X98300000Y-94500000D03*
X93240000Y-60740000D03*
X156050000Y-95760000D03*
X96600000Y-94500000D03*
X104800000Y-70900000D03*
X100844004Y-101190620D03*
X95520000Y-77900000D03*
X90690000Y-64490000D03*
X99810000Y-65400000D03*
X79370000Y-70940000D03*
X119360000Y-91120000D03*
X78290000Y-67580000D03*
X90590000Y-99070000D03*
X82750000Y-85170000D03*
X115610000Y-86290000D03*
X91950000Y-101690000D03*
X90810000Y-96350000D03*
X128890000Y-85140000D03*
X108990000Y-81620000D03*
X83200000Y-83630000D03*
X80010000Y-91510000D03*
X117170000Y-87200000D03*
X78110000Y-88950000D03*
X109830000Y-91700000D03*
X90080000Y-82070000D03*
X88340000Y-82780000D03*
X109550000Y-106880000D03*
X98800000Y-68380000D03*
X90550000Y-78670000D03*
X89890000Y-96900000D03*
X105320000Y-93510000D03*
X99480000Y-83170000D03*
X110400000Y-71120000D03*
X83620000Y-94030000D03*
X140260000Y-78910000D03*
X102528412Y-61410002D03*
X107110000Y-93020000D03*
X155730000Y-107960000D03*
X119520000Y-84320000D03*
X126530000Y-85350000D03*
X90630000Y-86570000D03*
X89420000Y-69830000D03*
X83440000Y-100120000D03*
X84210000Y-92610000D03*
X136530000Y-75050000D03*
X82710000Y-94890000D03*
X109920000Y-86320000D03*
X90260000Y-88360000D03*
X118240000Y-74840000D03*
X105270000Y-82350000D03*
X90820000Y-80570000D03*
X105520000Y-88690000D03*
X101000000Y-102600000D03*
X80040000Y-95270000D03*
X87220000Y-91750000D03*
X88310000Y-70400000D03*
X82680000Y-88520000D03*
X89540000Y-83080000D03*
X110600000Y-78070000D03*
X86070000Y-77140000D03*
X90870000Y-83050000D03*
X87200000Y-82000000D03*
X86600000Y-93060000D03*
X102100000Y-96840000D03*
X81230000Y-85340000D03*
X81220000Y-86570000D03*
X79160000Y-98140000D03*
X89390000Y-81080000D03*
X94630000Y-89470000D03*
X89765812Y-77512008D03*
X122820000Y-69480000D03*
X82795400Y-104371350D03*
X133590000Y-92100000D03*
X82140000Y-99130000D03*
X120270000Y-114360000D03*
X82270000Y-70920000D03*
X85930000Y-82400000D03*
X89090000Y-78340000D03*
X81680000Y-76470000D03*
X96600000Y-70025000D03*
X143870000Y-105460000D03*
X80100000Y-84030000D03*
X84300000Y-61740000D03*
X89600000Y-79220000D03*
X88810000Y-76270000D03*
X111140000Y-66780000D03*
X114020000Y-76220000D03*
X78420000Y-91250000D03*
X146230000Y-94120000D03*
X152920000Y-92200000D03*
X98800000Y-70530000D03*
X82810000Y-89960000D03*
X87720000Y-81110000D03*
X94520000Y-83880000D03*
X123490000Y-95970000D03*
X80460000Y-99090000D03*
X98180000Y-89720000D03*
X91110000Y-77440000D03*
X116030000Y-97930000D03*
X81990000Y-91250000D03*
X82610000Y-86860000D03*
X99620000Y-71050000D03*
X146260000Y-92410000D03*
X97375000Y-68525000D03*
X83630000Y-99170000D03*
X94480000Y-88250000D03*
X130820000Y-85490000D03*
X102100000Y-79930000D03*
X109970000Y-84230000D03*
X108660000Y-69150000D03*
X128400000Y-73260000D03*
X143200000Y-87530000D03*
X155450000Y-93190000D03*
X93930000Y-86130000D03*
X143090000Y-92550000D03*
X114410000Y-69650000D03*
X80400000Y-103770000D03*
X105640000Y-89660000D03*
X105560000Y-79560000D03*
X92340000Y-95610000D03*
X100560000Y-67160000D03*
X128780000Y-81330000D03*
X85840000Y-99590000D03*
X107780000Y-70940000D03*
X140810000Y-100950000D03*
X79030000Y-88480000D03*
X90400000Y-75850000D03*
X113540000Y-66180000D03*
X125010000Y-91240000D03*
X85850000Y-83490000D03*
X94010000Y-84870000D03*
X124310000Y-95640000D03*
X105400000Y-87270000D03*
X139902657Y-97713524D03*
X122400000Y-86550000D03*
X100650000Y-83130000D03*
X101750000Y-67780000D03*
X87630000Y-83860000D03*
X105440000Y-85740000D03*
X133090000Y-88970000D03*
X96150000Y-64680000D03*
X105510000Y-91860000D03*
X131340000Y-77460000D03*
X94760000Y-64420000D03*
X95040000Y-91030000D03*
X122050000Y-109880000D03*
X128530000Y-78610000D03*
X107050000Y-72410000D03*
X106520000Y-73840000D03*
X119140000Y-88570000D03*
X100080000Y-104320000D03*
X102710000Y-65690000D03*
X93590000Y-99550000D03*
X142450000Y-80110000D03*
X81110000Y-94740000D03*
X83260000Y-91730000D03*
X88770000Y-80200000D03*
X125260000Y-92820000D03*
X86140000Y-75910000D03*
X82540000Y-77560000D03*
X87190000Y-106550000D03*
X78419291Y-106729253D03*
X99510000Y-69240000D03*
X134650000Y-87620000D03*
X84387500Y-76700000D03*
X83810000Y-106710000D03*
X79110000Y-84590000D03*
X124470000Y-85440000D03*
X86780000Y-74680000D03*
X106090000Y-71000000D03*
X108580000Y-92220000D03*
X89520000Y-68020000D03*
X146180000Y-89050000D03*
X99130000Y-98520000D03*
X79180000Y-89820000D03*
X86930000Y-81100000D03*
X76040000Y-106730000D03*
X115640000Y-84490000D03*
X123520000Y-73260000D03*
X110120000Y-98130000D03*
X104550000Y-79650000D03*
X84770000Y-82930000D03*
X108030000Y-91200000D03*
X81720000Y-79090000D03*
X81150000Y-89150000D03*
X93560000Y-64550000D03*
X115720000Y-79830000D03*
X87050000Y-82880000D03*
X82650000Y-75120000D03*
%TO.N,+BATT*%
X141645000Y-63635000D03*
%TO.N,/PPMIC_VOUT*%
X96880000Y-76810000D03*
X104570000Y-104610000D03*
X94280000Y-74845000D03*
%TO.N,+5V*%
X96580000Y-71560000D03*
X77580000Y-87430000D03*
X87860000Y-71760000D03*
X88862500Y-73230000D03*
X97820000Y-71520000D03*
X97930000Y-72320000D03*
X85870000Y-71760000D03*
X95370000Y-72360000D03*
X86240000Y-72760000D03*
X89490000Y-72530000D03*
X84387500Y-73900000D03*
X91130000Y-69070000D03*
%TO.N,+3V3*%
X115150000Y-90920000D03*
X111487500Y-94262500D03*
X117780000Y-88760000D03*
X129800000Y-70810000D03*
X121120000Y-70480000D03*
X112690000Y-91020000D03*
%TO.N,/ESP_RST*%
X128970000Y-68150000D03*
X148290000Y-67060000D03*
%TO.N,/ESP_BOOT*%
X134300000Y-69000000D03*
X137140000Y-89110000D03*
X136968020Y-109893020D03*
X134320000Y-84560000D03*
%TO.N,Net-(D1-K1)*%
X91850000Y-75460000D03*
%TO.N,/LED_ACT*%
X121310000Y-105630000D03*
%TO.N,VDC*%
X102600000Y-87970000D03*
%TO.N,/ESP_TX*%
X147330000Y-70200000D03*
%TO.N,/ESP_RX*%
X146130000Y-69610000D03*
%TO.N,/power_detec*%
X135100000Y-83050000D03*
X146560000Y-83040000D03*
X143710000Y-83020000D03*
X116187500Y-83070000D03*
%TO.N,/LORA_EN*%
X143740000Y-97990000D03*
X146550000Y-100800000D03*
X154943020Y-100780520D03*
X139365000Y-93535000D03*
%TO.N,/BOOT_VCC_SENSOR_EN*%
X134920000Y-82220000D03*
X115564220Y-82454220D03*
%TO.N,/LORA.SCK*%
X121990000Y-75700000D03*
X133700000Y-98100000D03*
X135590000Y-84560000D03*
%TO.N,/LORA.MISO*%
X140670000Y-84560000D03*
X123060000Y-74990000D03*
%TO.N,/TCP.CS*%
X122710000Y-76434887D03*
X133070000Y-80250000D03*
%TO.N,/TCP.RST*%
X119600000Y-72340000D03*
X138260000Y-72310000D03*
%TO.N,/LORA.MOSI*%
X121820000Y-74380000D03*
X141940000Y-84560000D03*
%TO.N,/TCP.INT*%
X141910000Y-71490000D03*
X121460000Y-71680000D03*
%TO.N,Net-(J6-TCT)*%
X118820000Y-94275000D03*
%TO.N,Net-(C35-Pad1)*%
X107930000Y-78230000D03*
X120940000Y-90270000D03*
X109820000Y-90230000D03*
X121025000Y-92400000D03*
%TO.N,Net-(C38-Pad1)*%
X108440735Y-89699265D03*
X107887500Y-76875000D03*
X127060000Y-92370000D03*
X127060000Y-90420000D03*
%TO.N,/3v3A*%
X111487500Y-92437500D03*
X111887500Y-84350000D03*
X111890000Y-88340000D03*
X113620000Y-84500000D03*
X112926852Y-79200000D03*
X111920000Y-86290000D03*
%TO.N,Net-(J6-TD+)*%
X108560000Y-93440000D03*
X107887500Y-75525000D03*
X113487500Y-94200000D03*
X113487500Y-96920000D03*
%TO.N,Net-(J6-TD-)*%
X107810000Y-74210000D03*
X107400000Y-94150000D03*
%TO.N,/LINKLED*%
X121120000Y-80280000D03*
X131490000Y-81700000D03*
%TO.N,/ACTLED*%
X114209918Y-78705574D03*
X111290000Y-100550000D03*
X111680000Y-108075000D03*
X114430000Y-100520000D03*
%TO.N,+3V3*%
X151793020Y-96955520D03*
X149480000Y-82590000D03*
%TD*%
D28*
%TO.N,+5V*%
X94070000Y-69070000D02*
X95370000Y-70370000D01*
X91130000Y-69070000D02*
X94070000Y-69070000D01*
X95370000Y-70370000D02*
X95370000Y-72360000D01*
D29*
%TO.N,VDC*%
X98195000Y-97095000D02*
X94012500Y-97095000D01*
X102600000Y-92690000D02*
X98195000Y-97095000D01*
X102600000Y-87970000D02*
X102600000Y-92690000D01*
D28*
%TO.N,/ESP_RX*%
X124720000Y-66520000D02*
X124720000Y-66060000D01*
X127840000Y-69640000D02*
X124720000Y-66520000D01*
X146100000Y-69640000D02*
X127840000Y-69640000D01*
X146130000Y-69610000D02*
X146100000Y-69640000D01*
D30*
%TO.N,+3V3*%
X151793020Y-94523020D02*
X151793020Y-96955520D01*
X149580000Y-82690000D02*
X149580000Y-92310000D01*
X149480000Y-82590000D02*
X149580000Y-82690000D01*
X149580000Y-92310000D02*
X151793020Y-94523020D01*
D28*
%TO.N,/power_detec*%
X146550000Y-83030000D02*
X143720000Y-83030000D01*
X146560000Y-83040000D02*
X146550000Y-83030000D01*
X143720000Y-83030000D02*
X143710000Y-83020000D01*
X135100000Y-83050000D02*
X135060000Y-83090000D01*
X135060000Y-83090000D02*
X116207500Y-83090000D01*
X116207500Y-83090000D02*
X116187500Y-83070000D01*
%TO.N,/BOOT_VCC_SENSOR_EN*%
X134670000Y-82470000D02*
X115580000Y-82470000D01*
X134920000Y-82220000D02*
X134670000Y-82470000D01*
X115580000Y-82470000D02*
X115564220Y-82454220D01*
D31*
%TO.N,+3V3*%
X116390000Y-113300000D02*
X114790000Y-111700000D01*
X126440000Y-113300000D02*
X116390000Y-113300000D01*
X128040000Y-111700000D02*
X126440000Y-113300000D01*
D28*
%TO.N,+5V*%
X87860000Y-71760000D02*
X87870000Y-71770000D01*
X87870000Y-71770000D02*
X87870000Y-77140000D01*
X87870000Y-77140000D02*
X77580000Y-87430000D01*
%TO.N,Net-(J6-TD-)*%
X106330000Y-75690000D02*
X107810000Y-74210000D01*
X107391471Y-94150000D02*
X106330000Y-93088529D01*
X106330000Y-93088529D02*
X106330000Y-75690000D01*
X107400000Y-94150000D02*
X107391471Y-94150000D01*
%TO.N,Net-(J6-TD+)*%
X106830000Y-91710000D02*
X106830000Y-76582500D01*
X108560000Y-93440000D02*
X106830000Y-91710000D01*
X106830000Y-76582500D02*
X107887500Y-75525000D01*
X113487500Y-96920000D02*
X113487500Y-94200000D01*
D32*
%TO.N,/3v3A*%
X111181250Y-85183750D02*
X111407500Y-85410000D01*
X111407500Y-84830000D02*
X111407500Y-85410000D01*
X111407500Y-85410000D02*
X111407500Y-85777500D01*
X110970000Y-85267500D02*
X111053750Y-85183750D01*
X111053750Y-85183750D02*
X111181250Y-85183750D01*
X110970000Y-85340000D02*
X111407500Y-85777500D01*
X110970000Y-85267500D02*
X110970000Y-85340000D01*
X110970000Y-85350000D02*
X110970000Y-85267500D01*
X109437500Y-85350000D02*
X110970000Y-85350000D01*
X110970000Y-85267500D02*
X111407500Y-84830000D01*
X108530000Y-84442500D02*
X109437500Y-85350000D01*
X111407500Y-85777500D02*
X111920000Y-86290000D01*
X111407500Y-84830000D02*
X111887500Y-84350000D01*
D28*
%TO.N,/PPMIC_VOUT*%
X104570000Y-84500000D02*
X96880000Y-76810000D01*
X104570000Y-104610000D02*
X104570000Y-84500000D01*
%TO.N,Net-(D1-K1)*%
X105010000Y-111620000D02*
X107160000Y-111620000D01*
X103440000Y-110050000D02*
X105010000Y-111620000D01*
X103440000Y-84668529D02*
X103440000Y-110050000D01*
X107160000Y-111620000D02*
X108440000Y-112900000D01*
X94231471Y-75460000D02*
X103440000Y-84668529D01*
X91850000Y-75460000D02*
X94231471Y-75460000D01*
%TO.N,+BATT*%
X85887500Y-66300000D02*
X88552500Y-63635000D01*
X88552500Y-63635000D02*
X141645000Y-63635000D01*
%TO.N,/PPMIC_VOUT*%
X96245000Y-76810000D02*
X96880000Y-76810000D01*
X94280000Y-74845000D02*
X96245000Y-76810000D01*
D31*
%TO.N,+3V3*%
X109637500Y-94262500D02*
X106300000Y-97600000D01*
X112690000Y-93060000D02*
X111487500Y-94262500D01*
X111460000Y-94290000D02*
X111487500Y-94262500D01*
X115620000Y-90920000D02*
X117780000Y-88760000D01*
X115150000Y-90920000D02*
X115620000Y-90920000D01*
X129790000Y-70820000D02*
X121460000Y-70820000D01*
X111487500Y-94262500D02*
X109637500Y-94262500D01*
X129800000Y-70810000D02*
X129790000Y-70820000D01*
X121460000Y-70820000D02*
X121120000Y-70480000D01*
X112690000Y-91020000D02*
X112690000Y-93060000D01*
D28*
%TO.N,/ESP_RST*%
X147670000Y-68140000D02*
X128980000Y-68140000D01*
X148290000Y-67060000D02*
X148290000Y-67520000D01*
X128980000Y-68140000D02*
X128970000Y-68150000D01*
X148290000Y-67520000D02*
X147670000Y-68140000D01*
%TO.N,/ESP_BOOT*%
X127260000Y-67560000D02*
X128700000Y-69000000D01*
X127260000Y-66060000D02*
X127260000Y-67560000D01*
X137140000Y-89110000D02*
X137130000Y-89120000D01*
X137130000Y-109731040D02*
X136968020Y-109893020D01*
X137130000Y-89120000D02*
X137130000Y-109731040D01*
X128700000Y-69000000D02*
X134300000Y-69000000D01*
%TO.N,/ESP_TX*%
X126330000Y-70210000D02*
X122180000Y-66060000D01*
X147320000Y-70210000D02*
X126330000Y-70210000D01*
X147330000Y-70200000D02*
X147320000Y-70210000D01*
%TO.N,/LORA_EN*%
X143740000Y-97910000D02*
X143740000Y-97990000D01*
X146790000Y-101040000D02*
X154683540Y-101040000D01*
X139365000Y-93535000D02*
X143740000Y-97910000D01*
X154683540Y-101040000D02*
X154943020Y-100780520D01*
X146550000Y-100800000D02*
X146790000Y-101040000D01*
%TO.N,/LORA.SCK*%
X135790000Y-80030000D02*
X135790000Y-84360000D01*
X122124887Y-75834887D02*
X131594887Y-75834887D01*
X135590000Y-84560000D02*
X135590000Y-96210000D01*
X131594887Y-75834887D02*
X135790000Y-80030000D01*
X121990000Y-75700000D02*
X122124887Y-75834887D01*
X135590000Y-96210000D02*
X133700000Y-98100000D01*
X135790000Y-84360000D02*
X135590000Y-84560000D01*
%TO.N,/LORA.MISO*%
X140670000Y-83270000D02*
X140670000Y-84560000D01*
X123060000Y-74990000D02*
X123120000Y-74930000D01*
X123120000Y-74930000D02*
X132330000Y-74930000D01*
X132330000Y-74930000D02*
X140670000Y-83270000D01*
%TO.N,/TCP.CS*%
X122710000Y-76434887D02*
X128204887Y-76434887D01*
X128204887Y-76434887D02*
X132020000Y-80250000D01*
X132020000Y-80250000D02*
X133070000Y-80250000D01*
%TO.N,/TCP.RST*%
X138260000Y-72310000D02*
X119630000Y-72310000D01*
X119630000Y-72310000D02*
X119600000Y-72340000D01*
%TO.N,/LORA.MOSI*%
X121830000Y-74390000D02*
X133528529Y-74390000D01*
X141940000Y-82801471D02*
X141940000Y-84560000D01*
X121820000Y-74380000D02*
X121830000Y-74390000D01*
X133528529Y-74390000D02*
X141940000Y-82801471D01*
%TO.N,/TCP.INT*%
X121650000Y-71490000D02*
X121460000Y-71680000D01*
X141910000Y-71490000D02*
X121650000Y-71490000D01*
%TO.N,Net-(J6-TCT)*%
X120775000Y-96230000D02*
X120775000Y-97900000D01*
X118820000Y-94275000D02*
X120775000Y-96230000D01*
%TO.N,Net-(C35-Pad1)*%
X120940000Y-92315000D02*
X121025000Y-92400000D01*
X109820000Y-90230000D02*
X107930000Y-88340000D01*
X120940000Y-90270000D02*
X120940000Y-92315000D01*
X107930000Y-88340000D02*
X107930000Y-78230000D01*
%TO.N,Net-(C38-Pad1)*%
X108440735Y-89699265D02*
X107330000Y-88588530D01*
X107330000Y-88588530D02*
X107330000Y-77432500D01*
X107330000Y-77432500D02*
X107887500Y-76875000D01*
X127060000Y-92370000D02*
X127060000Y-90420000D01*
%TO.N,/3v3A*%
X112930000Y-83762500D02*
X112930000Y-79203148D01*
D32*
X111920000Y-92005000D02*
X111487500Y-92437500D01*
X111880000Y-84270000D02*
X111920000Y-84310000D01*
X111920000Y-84310000D02*
X111920000Y-92005000D01*
D28*
X113637500Y-84470000D02*
X112930000Y-83762500D01*
X112930000Y-79203148D02*
X112926852Y-79200000D01*
%TO.N,/LINKLED*%
X130070000Y-80280000D02*
X131490000Y-81700000D01*
X121120000Y-80280000D02*
X130070000Y-80280000D01*
%TO.N,/ACTLED*%
X114090000Y-78825492D02*
X114090000Y-83953971D01*
X114209918Y-78705574D02*
X114090000Y-78825492D01*
X114090000Y-83953971D02*
X114430000Y-84293971D01*
X111680000Y-108075000D02*
X111340000Y-107735000D01*
X114430000Y-84293971D02*
X114430000Y-100520000D01*
X111340000Y-107735000D02*
X111340000Y-100600000D01*
X111340000Y-100600000D02*
X111290000Y-100550000D01*
%TO.N,/CGND*%
X125855000Y-97900000D02*
X125855000Y-98965000D01*
X128100000Y-96340000D02*
X126540000Y-97900000D01*
X126540000Y-97900000D02*
X125855000Y-97900000D01*
X129160000Y-102270000D02*
X129160000Y-103750000D01*
X128100000Y-89000000D02*
X128100000Y-96340000D01*
X113670000Y-103750000D02*
X129160000Y-103750000D01*
X125855000Y-98965000D02*
X129160000Y-102270000D01*
%TO.N,/LED_ACT*%
X108640000Y-110560000D02*
X108440000Y-110360000D01*
X116380000Y-110560000D02*
X108640000Y-110560000D01*
X121310000Y-105630000D02*
X116380000Y-110560000D01*
%TD*%
%TA.AperFunction,Conductor*%
%TO.N,GND*%
G36*
X154403032Y-59850648D02*
G01*
X154736929Y-59867052D01*
X154749037Y-59868245D01*
X154852146Y-59883539D01*
X155076699Y-59916849D01*
X155088617Y-59919219D01*
X155409951Y-59999709D01*
X155421588Y-60003240D01*
X155492806Y-60028722D01*
X155733467Y-60114832D01*
X155744688Y-60119479D01*
X156044163Y-60261120D01*
X156054871Y-60266844D01*
X156338988Y-60437137D01*
X156349106Y-60443897D01*
X156615170Y-60641224D01*
X156624576Y-60648944D01*
X156870013Y-60871395D01*
X156878604Y-60879986D01*
X157065755Y-61086475D01*
X157101055Y-61125423D01*
X157108775Y-61134829D01*
X157306102Y-61400893D01*
X157312862Y-61411011D01*
X157439474Y-61622251D01*
X157457056Y-61689873D01*
X157435287Y-61756265D01*
X157381079Y-61800348D01*
X157333116Y-61810000D01*
X152220000Y-61810000D01*
X152220000Y-89810000D01*
X157775500Y-89810000D01*
X157842539Y-89829685D01*
X157888294Y-89882489D01*
X157899500Y-89934000D01*
X157899500Y-113638923D01*
X157879815Y-113705962D01*
X157827011Y-113751717D01*
X157757853Y-113761661D01*
X157694297Y-113732636D01*
X157674371Y-113710679D01*
X157476194Y-113431377D01*
X157236661Y-113163339D01*
X156968623Y-112923806D01*
X156935072Y-112900000D01*
X156675454Y-112715790D01*
X156407663Y-112567788D01*
X156360833Y-112541906D01*
X156028724Y-112404341D01*
X156028720Y-112404339D01*
X156028718Y-112404339D01*
X155683305Y-112304828D01*
X155683296Y-112304826D01*
X155328914Y-112244614D01*
X155328902Y-112244612D01*
X154970000Y-112224457D01*
X154611097Y-112244612D01*
X154611085Y-112244614D01*
X154256703Y-112304826D01*
X154256694Y-112304828D01*
X153911281Y-112404339D01*
X153579168Y-112541905D01*
X153264545Y-112715790D01*
X152971377Y-112923805D01*
X152703339Y-113163339D01*
X152463805Y-113431377D01*
X152255790Y-113724545D01*
X152081905Y-114039168D01*
X151959225Y-114335341D01*
X151950713Y-114355894D01*
X151944339Y-114371281D01*
X151844828Y-114716694D01*
X151844826Y-114716703D01*
X151784614Y-115071085D01*
X151784612Y-115071097D01*
X151764457Y-115430000D01*
X151784612Y-115788902D01*
X151784614Y-115788914D01*
X151844826Y-116143296D01*
X151844828Y-116143305D01*
X151884251Y-116280145D01*
X151944341Y-116488724D01*
X152045974Y-116734086D01*
X152081905Y-116820831D01*
X152255790Y-117135454D01*
X152463805Y-117428622D01*
X152463806Y-117428623D01*
X152703339Y-117696661D01*
X152971377Y-117936194D01*
X153222492Y-118114371D01*
X153265775Y-118169219D01*
X153272535Y-118238761D01*
X153240624Y-118300917D01*
X153180174Y-118335955D01*
X153150736Y-118339500D01*
X77091544Y-118339500D01*
X77024505Y-118319815D01*
X76978750Y-118267011D01*
X76968806Y-118197853D01*
X76997831Y-118134297D01*
X77019789Y-118114371D01*
X77129311Y-118036659D01*
X77228623Y-117966194D01*
X77496661Y-117726661D01*
X77736194Y-117458623D01*
X77944211Y-117165452D01*
X78118094Y-116850833D01*
X78255659Y-116518724D01*
X78355173Y-116173300D01*
X78415387Y-115818907D01*
X78435543Y-115460000D01*
X78427569Y-115318019D01*
X133812377Y-115318019D01*
X133812377Y-115318020D01*
X133832904Y-115539555D01*
X133832905Y-115539557D01*
X133893789Y-115753543D01*
X133893795Y-115753558D01*
X133992958Y-115952703D01*
X133992963Y-115952711D01*
X134127040Y-116130258D01*
X134291457Y-116280143D01*
X134291459Y-116280145D01*
X134480615Y-116397265D01*
X134480616Y-116397265D01*
X134480619Y-116397267D01*
X134688080Y-116477638D01*
X134906777Y-116518520D01*
X134906779Y-116518520D01*
X135129261Y-116518520D01*
X135129263Y-116518520D01*
X135347960Y-116477638D01*
X135555421Y-116397267D01*
X135744582Y-116280144D01*
X135894687Y-116143305D01*
X135908999Y-116130258D01*
X136043076Y-115952711D01*
X136043078Y-115952709D01*
X136142249Y-115753548D01*
X136203135Y-115539556D01*
X136223663Y-115318020D01*
X136203135Y-115096484D01*
X136142249Y-114882492D01*
X136142244Y-114882481D01*
X136043081Y-114683336D01*
X136043076Y-114683328D01*
X135908999Y-114505781D01*
X135744582Y-114355896D01*
X135744580Y-114355894D01*
X135555424Y-114238774D01*
X135555418Y-114238772D01*
X135347960Y-114158402D01*
X135129263Y-114117520D01*
X134906777Y-114117520D01*
X134688080Y-114158402D01*
X134556884Y-114209227D01*
X134480621Y-114238772D01*
X134480615Y-114238774D01*
X134291459Y-114355894D01*
X134291457Y-114355896D01*
X134127040Y-114505781D01*
X133992963Y-114683328D01*
X133992958Y-114683336D01*
X133893795Y-114882481D01*
X133893789Y-114882496D01*
X133832905Y-115096482D01*
X133832904Y-115096484D01*
X133812377Y-115318019D01*
X78427569Y-115318019D01*
X78415387Y-115101093D01*
X78355173Y-114746700D01*
X78255659Y-114401276D01*
X78118094Y-114069167D01*
X77944211Y-113754548D01*
X77736194Y-113461377D01*
X77496661Y-113193339D01*
X77228623Y-112953806D01*
X77228622Y-112953805D01*
X76935454Y-112745790D01*
X76668785Y-112598408D01*
X76620833Y-112571906D01*
X76610891Y-112567788D01*
X76433083Y-112494137D01*
X76288724Y-112434341D01*
X76288720Y-112434339D01*
X76288718Y-112434339D01*
X75943305Y-112334828D01*
X75943296Y-112334826D01*
X75588914Y-112274614D01*
X75588902Y-112274612D01*
X75230000Y-112254457D01*
X74871097Y-112274612D01*
X74871085Y-112274614D01*
X74516703Y-112334826D01*
X74516694Y-112334828D01*
X74171281Y-112434339D01*
X73839168Y-112571905D01*
X73524545Y-112745790D01*
X73231377Y-112953805D01*
X72963339Y-113193339D01*
X72723805Y-113461377D01*
X72515790Y-113754545D01*
X72453028Y-113868106D01*
X72403371Y-113917259D01*
X72335023Y-113931762D01*
X72269684Y-113907012D01*
X72228099Y-113850866D01*
X72220500Y-113808125D01*
X72220500Y-105463389D01*
X89937000Y-105463389D01*
X89937000Y-107836611D01*
X89964098Y-108007701D01*
X90017627Y-108172445D01*
X90096268Y-108326788D01*
X90198086Y-108466928D01*
X90320572Y-108589414D01*
X90460712Y-108691232D01*
X90615055Y-108769873D01*
X90779799Y-108823402D01*
X90950889Y-108850500D01*
X90950890Y-108850500D01*
X91124110Y-108850500D01*
X91124111Y-108850500D01*
X91295201Y-108823402D01*
X91459945Y-108769873D01*
X91614288Y-108691232D01*
X91754428Y-108589414D01*
X91876914Y-108466928D01*
X91978732Y-108326788D01*
X92057373Y-108172445D01*
X92110902Y-108007701D01*
X92138000Y-107836611D01*
X92138000Y-107634994D01*
X93837029Y-107634994D01*
X93837029Y-107635005D01*
X93856879Y-107874559D01*
X93915889Y-108107589D01*
X94012451Y-108327729D01*
X94115656Y-108485694D01*
X94143929Y-108528969D01*
X94306736Y-108705825D01*
X94306739Y-108705827D01*
X94306742Y-108705830D01*
X94496424Y-108853466D01*
X94496430Y-108853470D01*
X94496433Y-108853472D01*
X94707844Y-108967882D01*
X94707847Y-108967883D01*
X94935199Y-109045933D01*
X94935201Y-109045933D01*
X94935203Y-109045934D01*
X95172308Y-109085500D01*
X95172309Y-109085500D01*
X95412691Y-109085500D01*
X95412692Y-109085500D01*
X95649797Y-109045934D01*
X95877156Y-108967882D01*
X96088567Y-108853472D01*
X96092386Y-108850500D01*
X96195975Y-108769873D01*
X96278264Y-108705825D01*
X96441071Y-108528969D01*
X96572549Y-108327728D01*
X96669110Y-108107591D01*
X96728120Y-107874563D01*
X96747971Y-107635000D01*
X96747663Y-107631285D01*
X96728120Y-107395440D01*
X96728120Y-107395437D01*
X96669110Y-107162409D01*
X96572549Y-106942272D01*
X96441071Y-106741031D01*
X96278264Y-106564175D01*
X96278259Y-106564171D01*
X96278257Y-106564169D01*
X96088575Y-106416533D01*
X96088569Y-106416529D01*
X95877157Y-106302118D01*
X95877152Y-106302116D01*
X95649800Y-106224066D01*
X95471968Y-106194391D01*
X95412692Y-106184500D01*
X95172308Y-106184500D01*
X95124887Y-106192413D01*
X94935199Y-106224066D01*
X94707847Y-106302116D01*
X94707842Y-106302118D01*
X94496430Y-106416529D01*
X94496424Y-106416533D01*
X94306742Y-106564169D01*
X94306739Y-106564172D01*
X94143930Y-106741029D01*
X94143927Y-106741033D01*
X94012451Y-106942270D01*
X93915889Y-107162410D01*
X93856879Y-107395440D01*
X93837029Y-107634994D01*
X92138000Y-107634994D01*
X92138000Y-105463389D01*
X92110902Y-105292299D01*
X92057373Y-105127555D01*
X91978732Y-104973212D01*
X91876914Y-104833072D01*
X91754428Y-104710586D01*
X91614288Y-104608768D01*
X91459945Y-104530127D01*
X91295201Y-104476598D01*
X91295199Y-104476597D01*
X91295198Y-104476597D01*
X91163771Y-104455781D01*
X91124111Y-104449500D01*
X90950889Y-104449500D01*
X90911228Y-104455781D01*
X90779802Y-104476597D01*
X90615052Y-104530128D01*
X90460711Y-104608768D01*
X90380756Y-104666859D01*
X90320572Y-104710586D01*
X90320570Y-104710588D01*
X90320569Y-104710588D01*
X90198088Y-104833069D01*
X90198088Y-104833070D01*
X90198086Y-104833072D01*
X90161542Y-104883371D01*
X90096268Y-104973211D01*
X90017628Y-105127552D01*
X89964097Y-105292302D01*
X89953909Y-105356627D01*
X89937000Y-105463389D01*
X72220500Y-105463389D01*
X72220500Y-102730247D01*
X83837000Y-102730247D01*
X83837000Y-104569752D01*
X83848631Y-104628229D01*
X83848632Y-104628230D01*
X83892947Y-104694552D01*
X83959269Y-104738867D01*
X83959270Y-104738868D01*
X84017747Y-104750499D01*
X84017750Y-104750500D01*
X84017752Y-104750500D01*
X88457250Y-104750500D01*
X88457251Y-104750499D01*
X88472068Y-104747552D01*
X88515729Y-104738868D01*
X88515729Y-104738867D01*
X88515731Y-104738867D01*
X88582052Y-104694552D01*
X88626367Y-104628231D01*
X88626367Y-104628229D01*
X88626368Y-104628229D01*
X88637999Y-104569752D01*
X88638000Y-104569750D01*
X88638000Y-102730249D01*
X88637999Y-102730247D01*
X88626368Y-102671770D01*
X88626367Y-102671769D01*
X88582052Y-102605447D01*
X88515730Y-102561132D01*
X88515729Y-102561131D01*
X88457252Y-102549500D01*
X88457248Y-102549500D01*
X84017752Y-102549500D01*
X84017747Y-102549500D01*
X83959270Y-102561131D01*
X83959269Y-102561132D01*
X83892947Y-102605447D01*
X83848632Y-102671769D01*
X83848631Y-102671770D01*
X83837000Y-102730247D01*
X72220500Y-102730247D01*
X72220500Y-87430000D01*
X77074353Y-87430000D01*
X77094834Y-87572456D01*
X77151542Y-87696626D01*
X77154623Y-87703373D01*
X77248872Y-87812143D01*
X77369947Y-87889953D01*
X77369950Y-87889954D01*
X77369949Y-87889954D01*
X77508036Y-87930499D01*
X77508038Y-87930500D01*
X77508039Y-87930500D01*
X77651962Y-87930500D01*
X77651962Y-87930499D01*
X77790053Y-87889953D01*
X77911128Y-87812143D01*
X78005377Y-87703373D01*
X78065165Y-87572457D01*
X78085647Y-87430000D01*
X78084339Y-87420905D01*
X78094279Y-87351749D01*
X78119392Y-87315577D01*
X88110460Y-77324511D01*
X88150022Y-77255988D01*
X88170500Y-77179562D01*
X88170500Y-77100438D01*
X88170500Y-75460000D01*
X91344353Y-75460000D01*
X91364834Y-75602456D01*
X91365202Y-75603261D01*
X91424623Y-75733373D01*
X91518872Y-75842143D01*
X91639947Y-75919953D01*
X91639950Y-75919954D01*
X91639949Y-75919954D01*
X91778036Y-75960499D01*
X91778038Y-75960500D01*
X91778039Y-75960500D01*
X91921962Y-75960500D01*
X91921962Y-75960499D01*
X92060053Y-75919953D01*
X92181128Y-75842143D01*
X92214788Y-75803296D01*
X92273567Y-75765523D01*
X92308501Y-75760500D01*
X94055638Y-75760500D01*
X94122677Y-75780185D01*
X94143319Y-75796819D01*
X103103181Y-84756681D01*
X103136666Y-84818004D01*
X103139500Y-84844362D01*
X103139500Y-87496890D01*
X103119815Y-87563929D01*
X103067011Y-87609684D01*
X102997853Y-87619628D01*
X102938632Y-87592583D01*
X102938589Y-87592652D01*
X102938113Y-87592346D01*
X102934298Y-87590604D01*
X102931127Y-87587856D01*
X102884502Y-87557892D01*
X102810053Y-87510047D01*
X102810051Y-87510046D01*
X102810049Y-87510045D01*
X102810050Y-87510045D01*
X102671963Y-87469500D01*
X102671961Y-87469500D01*
X102528039Y-87469500D01*
X102528036Y-87469500D01*
X102389949Y-87510045D01*
X102268873Y-87587856D01*
X102174623Y-87696626D01*
X102174622Y-87696628D01*
X102114834Y-87827543D01*
X102094353Y-87970000D01*
X102114834Y-88112456D01*
X102161907Y-88215529D01*
X102174623Y-88243373D01*
X102244213Y-88323685D01*
X102273238Y-88387240D01*
X102274500Y-88404887D01*
X102274500Y-92503811D01*
X102254815Y-92570850D01*
X102238181Y-92591492D01*
X98096492Y-96733181D01*
X98035169Y-96766666D01*
X98008811Y-96769500D01*
X95156583Y-96769500D01*
X95089544Y-96749815D01*
X95045583Y-96700771D01*
X94952174Y-96513180D01*
X94829262Y-96350418D01*
X94678541Y-96213019D01*
X94678539Y-96213017D01*
X94505142Y-96105655D01*
X94505135Y-96105651D01*
X94349837Y-96045489D01*
X94314956Y-96031976D01*
X94114476Y-95994500D01*
X93910524Y-95994500D01*
X93710044Y-96031976D01*
X93710041Y-96031976D01*
X93710041Y-96031977D01*
X93519864Y-96105651D01*
X93519857Y-96105655D01*
X93346460Y-96213017D01*
X93346458Y-96213019D01*
X93195737Y-96350418D01*
X93072827Y-96513178D01*
X92981922Y-96695739D01*
X92981917Y-96695752D01*
X92926102Y-96891917D01*
X92907285Y-97094999D01*
X92907285Y-97095000D01*
X92926102Y-97298082D01*
X92981917Y-97494247D01*
X92981922Y-97494260D01*
X93072827Y-97676821D01*
X93195737Y-97839581D01*
X93346458Y-97976980D01*
X93346460Y-97976982D01*
X93367485Y-97990000D01*
X93519863Y-98084348D01*
X93710044Y-98158024D01*
X93910524Y-98195500D01*
X93910526Y-98195500D01*
X94114474Y-98195500D01*
X94114476Y-98195500D01*
X94314956Y-98158024D01*
X94505137Y-98084348D01*
X94678541Y-97976981D01*
X94829264Y-97839579D01*
X94952173Y-97676821D01*
X94986513Y-97607857D01*
X95045583Y-97489229D01*
X95093086Y-97437991D01*
X95156583Y-97420500D01*
X98237851Y-97420500D01*
X98237853Y-97420500D01*
X98320639Y-97398318D01*
X98394862Y-97355465D01*
X102789652Y-92960672D01*
X102789657Y-92960669D01*
X102799860Y-92950465D01*
X102799862Y-92950465D01*
X102860465Y-92889862D01*
X102887525Y-92842992D01*
X102903318Y-92815639D01*
X102903318Y-92815638D01*
X102907384Y-92808597D01*
X102910018Y-92810118D01*
X102944764Y-92766989D01*
X103011054Y-92744914D01*
X103078757Y-92762182D01*
X103126375Y-92813312D01*
X103139500Y-92868834D01*
X103139500Y-110089562D01*
X103157559Y-110156960D01*
X103159980Y-110165993D01*
X103159981Y-110165994D01*
X103175873Y-110193519D01*
X103175875Y-110193521D01*
X103192998Y-110223181D01*
X103199540Y-110234511D01*
X104769540Y-111804511D01*
X104825489Y-111860460D01*
X104825491Y-111860461D01*
X104825495Y-111860464D01*
X104894004Y-111900017D01*
X104894011Y-111900021D01*
X104970438Y-111920500D01*
X105049562Y-111920500D01*
X105229769Y-111920500D01*
X105296808Y-111940185D01*
X105342563Y-111992989D01*
X105352507Y-112062147D01*
X105323482Y-112125703D01*
X105308434Y-112140353D01*
X105216116Y-112216116D01*
X105095838Y-112362674D01*
X105095834Y-112362681D01*
X105006466Y-112529877D01*
X105006465Y-112529880D01*
X105006464Y-112529882D01*
X105006463Y-112529885D01*
X104983921Y-112604194D01*
X104951426Y-112711318D01*
X104932843Y-112900000D01*
X104951426Y-113088681D01*
X104951427Y-113088683D01*
X105006463Y-113270115D01*
X105006464Y-113270118D01*
X105006465Y-113270119D01*
X105006466Y-113270122D01*
X105095834Y-113437318D01*
X105095838Y-113437325D01*
X105216116Y-113583883D01*
X105362674Y-113704161D01*
X105362681Y-113704165D01*
X105529877Y-113793533D01*
X105529878Y-113793533D01*
X105529885Y-113793537D01*
X105711317Y-113848573D01*
X105711316Y-113848573D01*
X105728233Y-113850239D01*
X105900000Y-113867157D01*
X106088683Y-113848573D01*
X106270115Y-113793537D01*
X106437324Y-113704162D01*
X106583883Y-113583883D01*
X106704162Y-113437324D01*
X106793537Y-113270115D01*
X106848573Y-113088683D01*
X106867157Y-112900000D01*
X106848573Y-112711317D01*
X106793537Y-112529885D01*
X106791177Y-112525470D01*
X106704165Y-112362681D01*
X106704161Y-112362674D01*
X106583883Y-112216116D01*
X106491566Y-112140353D01*
X106452232Y-112082607D01*
X106450361Y-112012762D01*
X106486549Y-111952994D01*
X106549305Y-111922278D01*
X106570231Y-111920500D01*
X106984167Y-111920500D01*
X107051206Y-111940185D01*
X107071848Y-111956819D01*
X107516823Y-112401794D01*
X107550308Y-112463117D01*
X107547803Y-112525470D01*
X107546464Y-112529881D01*
X107546463Y-112529885D01*
X107518692Y-112621432D01*
X107491426Y-112711318D01*
X107472843Y-112900000D01*
X107491426Y-113088681D01*
X107491427Y-113088683D01*
X107546463Y-113270115D01*
X107546464Y-113270118D01*
X107546465Y-113270119D01*
X107546466Y-113270122D01*
X107635834Y-113437318D01*
X107635838Y-113437325D01*
X107756116Y-113583883D01*
X107902674Y-113704161D01*
X107902681Y-113704165D01*
X108069877Y-113793533D01*
X108069878Y-113793533D01*
X108069885Y-113793537D01*
X108251317Y-113848573D01*
X108251316Y-113848573D01*
X108268233Y-113850239D01*
X108440000Y-113867157D01*
X108628683Y-113848573D01*
X108810115Y-113793537D01*
X108977324Y-113704162D01*
X109123883Y-113583883D01*
X109244162Y-113437324D01*
X109333537Y-113270115D01*
X109388573Y-113088683D01*
X109407157Y-112900000D01*
X109388573Y-112711317D01*
X109333537Y-112529885D01*
X109331177Y-112525470D01*
X109244165Y-112362681D01*
X109244161Y-112362674D01*
X109123883Y-112216116D01*
X108977325Y-112095838D01*
X108977318Y-112095834D01*
X108810122Y-112006466D01*
X108810119Y-112006465D01*
X108810118Y-112006464D01*
X108810115Y-112006463D01*
X108628683Y-111951427D01*
X108628681Y-111951426D01*
X108628683Y-111951426D01*
X108440000Y-111932843D01*
X108251318Y-111951426D01*
X108167596Y-111976823D01*
X108069885Y-112006463D01*
X108069881Y-112006464D01*
X108065470Y-112007803D01*
X107995603Y-112008426D01*
X107941794Y-111976823D01*
X107344513Y-111379542D01*
X107344511Y-111379540D01*
X107333852Y-111373386D01*
X107275991Y-111339980D01*
X107275990Y-111339979D01*
X107250513Y-111333152D01*
X107199562Y-111319500D01*
X107199560Y-111319500D01*
X106594601Y-111319500D01*
X106527562Y-111299815D01*
X106481807Y-111247011D01*
X106471863Y-111177853D01*
X106500888Y-111114297D01*
X106515936Y-111099647D01*
X106583883Y-111043883D01*
X106620837Y-110998855D01*
X106704162Y-110897324D01*
X106793537Y-110730115D01*
X106848573Y-110548683D01*
X106867157Y-110360000D01*
X107472843Y-110360000D01*
X107491426Y-110548681D01*
X107491427Y-110548683D01*
X107546463Y-110730115D01*
X107546464Y-110730118D01*
X107546465Y-110730119D01*
X107546466Y-110730122D01*
X107635834Y-110897318D01*
X107635838Y-110897325D01*
X107756116Y-111043883D01*
X107902674Y-111164161D01*
X107902681Y-111164165D01*
X108069877Y-111253533D01*
X108069878Y-111253533D01*
X108069885Y-111253537D01*
X108251317Y-111308573D01*
X108251316Y-111308573D01*
X108268233Y-111310239D01*
X108440000Y-111327157D01*
X108628683Y-111308573D01*
X108810115Y-111253537D01*
X108977324Y-111164162D01*
X109123883Y-111043883D01*
X109183476Y-110971270D01*
X109237178Y-110905835D01*
X109294924Y-110866501D01*
X109333031Y-110860500D01*
X113987175Y-110860500D01*
X114054214Y-110880185D01*
X114099969Y-110932989D01*
X114109913Y-111002147D01*
X114083028Y-111063165D01*
X113995864Y-111169373D01*
X113995862Y-111169376D01*
X113907604Y-111334497D01*
X113853253Y-111513666D01*
X113853252Y-111513668D01*
X113834901Y-111700000D01*
X113853252Y-111886331D01*
X113853253Y-111886333D01*
X113907604Y-112065502D01*
X113995862Y-112230623D01*
X113995864Y-112230626D01*
X114114642Y-112375357D01*
X114259373Y-112494135D01*
X114259376Y-112494137D01*
X114404873Y-112571906D01*
X114424499Y-112582396D01*
X114581467Y-112630012D01*
X114603666Y-112636746D01*
X114603668Y-112636747D01*
X114620374Y-112638392D01*
X114790000Y-112655099D01*
X114976331Y-112636747D01*
X115100656Y-112599032D01*
X115170519Y-112598408D01*
X115224330Y-112630012D01*
X116174788Y-113580470D01*
X116174789Y-113580471D01*
X116174791Y-113580472D01*
X116214750Y-113603542D01*
X116254712Y-113626614D01*
X116343856Y-113650500D01*
X116343857Y-113650500D01*
X116343858Y-113650500D01*
X126486142Y-113650500D01*
X126486144Y-113650500D01*
X126575288Y-113626614D01*
X126655212Y-113580470D01*
X127417661Y-112818019D01*
X132562377Y-112818019D01*
X132562377Y-112818020D01*
X132582904Y-113039555D01*
X132582905Y-113039557D01*
X132643789Y-113253543D01*
X132643795Y-113253558D01*
X132742958Y-113452703D01*
X132742963Y-113452711D01*
X132877040Y-113630258D01*
X133041457Y-113780143D01*
X133041459Y-113780145D01*
X133230615Y-113897265D01*
X133230616Y-113897265D01*
X133230619Y-113897267D01*
X133438080Y-113977638D01*
X133656777Y-114018520D01*
X133656779Y-114018520D01*
X133879261Y-114018520D01*
X133879263Y-114018520D01*
X134097960Y-113977638D01*
X134305421Y-113897267D01*
X134494582Y-113780144D01*
X134659001Y-113630256D01*
X134793078Y-113452709D01*
X134892249Y-113253548D01*
X134953135Y-113039556D01*
X134973663Y-112818020D01*
X134973663Y-112818019D01*
X139562377Y-112818019D01*
X139562377Y-112818020D01*
X139582904Y-113039555D01*
X139582905Y-113039557D01*
X139643789Y-113253543D01*
X139643795Y-113253558D01*
X139742958Y-113452703D01*
X139742963Y-113452711D01*
X139877040Y-113630258D01*
X140041457Y-113780143D01*
X140041459Y-113780145D01*
X140230615Y-113897265D01*
X140230616Y-113897265D01*
X140230619Y-113897267D01*
X140438080Y-113977638D01*
X140656777Y-114018520D01*
X140656779Y-114018520D01*
X140879261Y-114018520D01*
X140879263Y-114018520D01*
X141097960Y-113977638D01*
X141305421Y-113897267D01*
X141494582Y-113780144D01*
X141659001Y-113630256D01*
X141793078Y-113452709D01*
X141892249Y-113253548D01*
X141953135Y-113039556D01*
X141973663Y-112818020D01*
X141959167Y-112661583D01*
X144992520Y-112661583D01*
X144992520Y-114624449D01*
X145001846Y-114683331D01*
X145007377Y-114718255D01*
X145064988Y-114831322D01*
X145064990Y-114831324D01*
X145064992Y-114831327D01*
X145154712Y-114921047D01*
X145154714Y-114921048D01*
X145154718Y-114921052D01*
X145267785Y-114978663D01*
X145267786Y-114978663D01*
X145267788Y-114978664D01*
X145267787Y-114978664D01*
X145361583Y-114993519D01*
X145361589Y-114993520D01*
X147324450Y-114993519D01*
X147418255Y-114978663D01*
X147531322Y-114921052D01*
X147621052Y-114831322D01*
X147678663Y-114718255D01*
X147678910Y-114716700D01*
X147693519Y-114624456D01*
X147693520Y-114624451D01*
X147693519Y-112661590D01*
X147678663Y-112567785D01*
X147621052Y-112454718D01*
X147621048Y-112454714D01*
X147621047Y-112454712D01*
X147531327Y-112364992D01*
X147531324Y-112364990D01*
X147531322Y-112364988D01*
X147418255Y-112307377D01*
X147418254Y-112307376D01*
X147418251Y-112307375D01*
X147418252Y-112307375D01*
X147324456Y-112292520D01*
X145361590Y-112292520D01*
X145283886Y-112304827D01*
X145267785Y-112307377D01*
X145154718Y-112364988D01*
X145154717Y-112364989D01*
X145154712Y-112364992D01*
X145064992Y-112454712D01*
X145064989Y-112454717D01*
X145064988Y-112454718D01*
X145044903Y-112494137D01*
X145007375Y-112567788D01*
X144992520Y-112661583D01*
X141959167Y-112661583D01*
X141953135Y-112596484D01*
X141892249Y-112382492D01*
X141892244Y-112382481D01*
X141793081Y-112183336D01*
X141793076Y-112183328D01*
X141658999Y-112005781D01*
X141494582Y-111855896D01*
X141494580Y-111855894D01*
X141305424Y-111738774D01*
X141305418Y-111738772D01*
X141097960Y-111658402D01*
X140879263Y-111617520D01*
X140656777Y-111617520D01*
X140438080Y-111658402D01*
X140306884Y-111709227D01*
X140230621Y-111738772D01*
X140230615Y-111738774D01*
X140041459Y-111855894D01*
X140041457Y-111855896D01*
X139877040Y-112005781D01*
X139742963Y-112183328D01*
X139742958Y-112183336D01*
X139643795Y-112382481D01*
X139643789Y-112382496D01*
X139582905Y-112596482D01*
X139582904Y-112596484D01*
X139562377Y-112818019D01*
X134973663Y-112818019D01*
X134953135Y-112596484D01*
X134892249Y-112382492D01*
X134892244Y-112382481D01*
X134793081Y-112183336D01*
X134793076Y-112183328D01*
X134658999Y-112005781D01*
X134494582Y-111855896D01*
X134494580Y-111855894D01*
X134305424Y-111738774D01*
X134305418Y-111738772D01*
X134097960Y-111658402D01*
X133879263Y-111617520D01*
X133656777Y-111617520D01*
X133438080Y-111658402D01*
X133306884Y-111709227D01*
X133230621Y-111738772D01*
X133230615Y-111738774D01*
X133041459Y-111855894D01*
X133041457Y-111855896D01*
X132877040Y-112005781D01*
X132742963Y-112183328D01*
X132742958Y-112183336D01*
X132643795Y-112382481D01*
X132643789Y-112382496D01*
X132582905Y-112596482D01*
X132582904Y-112596484D01*
X132562377Y-112818019D01*
X127417661Y-112818019D01*
X127605670Y-112630010D01*
X127666991Y-112596527D01*
X127729343Y-112599032D01*
X127831467Y-112630012D01*
X127853666Y-112636746D01*
X127853668Y-112636747D01*
X127870374Y-112638392D01*
X128040000Y-112655099D01*
X128226331Y-112636747D01*
X128405501Y-112582396D01*
X128570625Y-112494136D01*
X128715357Y-112375357D01*
X128834136Y-112230625D01*
X128922396Y-112065501D01*
X128976747Y-111886331D01*
X128995099Y-111700000D01*
X128976747Y-111513669D01*
X128922396Y-111334499D01*
X128875633Y-111247011D01*
X128834137Y-111169376D01*
X128834135Y-111169373D01*
X128715357Y-111024642D01*
X128570626Y-110905864D01*
X128570623Y-110905862D01*
X128405502Y-110817604D01*
X128226333Y-110763253D01*
X128226331Y-110763252D01*
X128040000Y-110744901D01*
X127853668Y-110763252D01*
X127853666Y-110763253D01*
X127674497Y-110817604D01*
X127509376Y-110905862D01*
X127509373Y-110905864D01*
X127364642Y-111024642D01*
X127245864Y-111169373D01*
X127245862Y-111169376D01*
X127157604Y-111334497D01*
X127103253Y-111513666D01*
X127103252Y-111513668D01*
X127084901Y-111700000D01*
X127103252Y-111886329D01*
X127140966Y-112010654D01*
X127141589Y-112080521D01*
X127109986Y-112134330D01*
X126331137Y-112913181D01*
X126269814Y-112946666D01*
X126243456Y-112949500D01*
X116586544Y-112949500D01*
X116519505Y-112929815D01*
X116498863Y-112913181D01*
X115720012Y-112134330D01*
X115686527Y-112073007D01*
X115689032Y-112010657D01*
X115726747Y-111886331D01*
X115745099Y-111700000D01*
X115726747Y-111513669D01*
X115672396Y-111334499D01*
X115625633Y-111247011D01*
X115584137Y-111169376D01*
X115584135Y-111169373D01*
X115496972Y-111063165D01*
X115469659Y-110998855D01*
X115481450Y-110929987D01*
X115528602Y-110878427D01*
X115592825Y-110860500D01*
X116419560Y-110860500D01*
X116419562Y-110860500D01*
X116495989Y-110840021D01*
X116495992Y-110840018D01*
X116503499Y-110836910D01*
X116504074Y-110838299D01*
X116563165Y-110823957D01*
X116629195Y-110846801D01*
X116672391Y-110901718D01*
X116679041Y-110971270D01*
X116653133Y-111026481D01*
X116535864Y-111169374D01*
X116535862Y-111169376D01*
X116447604Y-111334497D01*
X116393253Y-111513666D01*
X116393252Y-111513668D01*
X116374901Y-111700000D01*
X116393252Y-111886331D01*
X116393253Y-111886333D01*
X116447604Y-112065502D01*
X116535862Y-112230623D01*
X116535864Y-112230626D01*
X116654642Y-112375357D01*
X116799373Y-112494135D01*
X116799376Y-112494137D01*
X116944873Y-112571906D01*
X116964499Y-112582396D01*
X117121467Y-112630012D01*
X117143666Y-112636746D01*
X117143668Y-112636747D01*
X117160374Y-112638392D01*
X117330000Y-112655099D01*
X117516331Y-112636747D01*
X117695501Y-112582396D01*
X117860625Y-112494136D01*
X118005357Y-112375357D01*
X118124136Y-112230625D01*
X118212396Y-112065501D01*
X118266747Y-111886331D01*
X118285099Y-111700000D01*
X124544901Y-111700000D01*
X124563252Y-111886331D01*
X124563253Y-111886333D01*
X124617604Y-112065502D01*
X124705862Y-112230623D01*
X124705864Y-112230626D01*
X124824642Y-112375357D01*
X124969373Y-112494135D01*
X124969376Y-112494137D01*
X125114873Y-112571906D01*
X125134499Y-112582396D01*
X125291467Y-112630012D01*
X125313666Y-112636746D01*
X125313668Y-112636747D01*
X125330374Y-112638392D01*
X125500000Y-112655099D01*
X125686331Y-112636747D01*
X125865501Y-112582396D01*
X126030625Y-112494136D01*
X126175357Y-112375357D01*
X126294136Y-112230625D01*
X126382396Y-112065501D01*
X126436747Y-111886331D01*
X126455099Y-111700000D01*
X126436747Y-111513669D01*
X126382396Y-111334499D01*
X126335633Y-111247011D01*
X126294137Y-111169376D01*
X126294135Y-111169373D01*
X126175357Y-111024642D01*
X126030626Y-110905864D01*
X126030623Y-110905862D01*
X125865502Y-110817604D01*
X125686333Y-110763253D01*
X125686331Y-110763252D01*
X125500000Y-110744901D01*
X125313668Y-110763252D01*
X125313666Y-110763253D01*
X125134497Y-110817604D01*
X124969376Y-110905862D01*
X124969373Y-110905864D01*
X124824642Y-111024642D01*
X124705864Y-111169373D01*
X124705862Y-111169376D01*
X124617604Y-111334497D01*
X124563253Y-111513666D01*
X124563252Y-111513668D01*
X124544901Y-111700000D01*
X118285099Y-111700000D01*
X118266747Y-111513669D01*
X118212396Y-111334499D01*
X118165633Y-111247011D01*
X118124137Y-111169376D01*
X118124135Y-111169373D01*
X118005357Y-111024642D01*
X117860626Y-110905864D01*
X117860623Y-110905862D01*
X117695502Y-110817604D01*
X117516333Y-110763253D01*
X117516331Y-110763252D01*
X117330000Y-110744901D01*
X117143668Y-110763252D01*
X117143666Y-110763253D01*
X116964501Y-110817603D01*
X116805616Y-110902528D01*
X116737213Y-110916769D01*
X116671969Y-110891769D01*
X116630599Y-110835463D01*
X116626237Y-110765730D01*
X116659480Y-110705490D01*
X117471950Y-109893020D01*
X136462373Y-109893020D01*
X136482854Y-110035476D01*
X136507554Y-110089560D01*
X136542643Y-110166393D01*
X136636892Y-110275163D01*
X136757967Y-110352973D01*
X136757970Y-110352974D01*
X136757969Y-110352974D01*
X136896056Y-110393519D01*
X136896058Y-110393520D01*
X136896059Y-110393520D01*
X137039982Y-110393520D01*
X137039982Y-110393519D01*
X137178073Y-110352973D01*
X137299148Y-110275163D01*
X137393397Y-110166393D01*
X137453185Y-110035477D01*
X137473667Y-109893020D01*
X137453185Y-109750563D01*
X137441706Y-109725427D01*
X137430500Y-109673915D01*
X137430500Y-100800000D01*
X146044353Y-100800000D01*
X146064834Y-100942456D01*
X146115726Y-101053891D01*
X146124623Y-101073373D01*
X146218872Y-101182143D01*
X146339947Y-101259953D01*
X146339950Y-101259954D01*
X146339949Y-101259954D01*
X146478036Y-101300499D01*
X146478038Y-101300500D01*
X146606974Y-101300500D01*
X146668973Y-101317113D01*
X146674004Y-101320017D01*
X146674007Y-101320019D01*
X146674011Y-101320021D01*
X146750438Y-101340500D01*
X146750440Y-101340500D01*
X154723100Y-101340500D01*
X154723102Y-101340500D01*
X154799529Y-101320021D01*
X154838306Y-101297632D01*
X154900306Y-101281020D01*
X155014982Y-101281020D01*
X155014982Y-101281019D01*
X155153073Y-101240473D01*
X155274148Y-101162663D01*
X155368397Y-101053893D01*
X155428185Y-100922977D01*
X155448667Y-100780520D01*
X155428185Y-100638063D01*
X155368397Y-100507147D01*
X155274148Y-100398377D01*
X155153073Y-100320567D01*
X155153071Y-100320566D01*
X155153069Y-100320565D01*
X155153070Y-100320565D01*
X155014983Y-100280020D01*
X155014981Y-100280020D01*
X154871059Y-100280020D01*
X154871056Y-100280020D01*
X154732969Y-100320565D01*
X154611893Y-100398376D01*
X154517643Y-100507146D01*
X154517642Y-100507148D01*
X154457854Y-100638064D01*
X154455355Y-100646576D01*
X154452773Y-100645818D01*
X154429543Y-100696696D01*
X154370767Y-100734475D01*
X154335824Y-100739500D01*
X147152055Y-100739500D01*
X147085016Y-100719815D01*
X147039261Y-100667011D01*
X147038243Y-100664285D01*
X147035165Y-100657546D01*
X147035165Y-100657543D01*
X146975377Y-100526627D01*
X146881128Y-100417857D01*
X146760053Y-100340047D01*
X146760051Y-100340046D01*
X146760049Y-100340045D01*
X146760050Y-100340045D01*
X146621963Y-100299500D01*
X146621961Y-100299500D01*
X146478039Y-100299500D01*
X146478036Y-100299500D01*
X146339949Y-100340045D01*
X146218873Y-100417856D01*
X146124623Y-100526626D01*
X146124622Y-100526628D01*
X146064834Y-100657543D01*
X146044353Y-100800000D01*
X137430500Y-100800000D01*
X137430500Y-93535000D01*
X138859353Y-93535000D01*
X138879834Y-93677456D01*
X138936961Y-93802545D01*
X138939623Y-93808373D01*
X139033872Y-93917143D01*
X139154947Y-93994953D01*
X139154950Y-93994954D01*
X139154949Y-93994954D01*
X139262107Y-94026417D01*
X139290280Y-94034690D01*
X139293036Y-94035499D01*
X139293038Y-94035500D01*
X139389167Y-94035500D01*
X139456206Y-94055185D01*
X139476848Y-94071819D01*
X143210660Y-97805631D01*
X143244145Y-97866954D01*
X143245717Y-97910958D01*
X143234353Y-97989999D01*
X143254834Y-98132456D01*
X143257058Y-98137325D01*
X143314623Y-98263373D01*
X143408872Y-98372143D01*
X143529947Y-98449953D01*
X143529950Y-98449954D01*
X143529949Y-98449954D01*
X143668036Y-98490499D01*
X143668038Y-98490500D01*
X143668039Y-98490500D01*
X143811962Y-98490500D01*
X143811962Y-98490499D01*
X143950053Y-98449953D01*
X144071128Y-98372143D01*
X144165377Y-98263373D01*
X144225165Y-98132457D01*
X144245647Y-97990000D01*
X144225165Y-97847543D01*
X144165377Y-97716627D01*
X144071128Y-97607857D01*
X143950053Y-97530047D01*
X143950051Y-97530046D01*
X143950049Y-97530045D01*
X143950050Y-97530045D01*
X143811963Y-97489500D01*
X143811961Y-97489500D01*
X143795833Y-97489500D01*
X143728794Y-97469815D01*
X143708152Y-97453181D01*
X139904395Y-93649424D01*
X139870910Y-93588101D01*
X139869339Y-93544094D01*
X139870647Y-93535000D01*
X139850165Y-93392543D01*
X139790377Y-93261627D01*
X139696128Y-93152857D01*
X139575053Y-93075047D01*
X139575051Y-93075046D01*
X139575049Y-93075045D01*
X139575050Y-93075045D01*
X139436963Y-93034500D01*
X139436961Y-93034500D01*
X139293039Y-93034500D01*
X139293036Y-93034500D01*
X139154949Y-93075045D01*
X139033873Y-93152856D01*
X138939623Y-93261626D01*
X138939622Y-93261628D01*
X138879834Y-93392543D01*
X138859353Y-93535000D01*
X137430500Y-93535000D01*
X137430500Y-89583976D01*
X137450185Y-89516937D01*
X137465628Y-89499112D01*
X137465320Y-89498845D01*
X137471126Y-89492144D01*
X137471128Y-89492143D01*
X137565377Y-89383373D01*
X137625165Y-89252457D01*
X137645647Y-89110000D01*
X137625165Y-88967543D01*
X137565377Y-88836627D01*
X137471128Y-88727857D01*
X137350053Y-88650047D01*
X137350051Y-88650046D01*
X137350049Y-88650045D01*
X137350050Y-88650045D01*
X137211963Y-88609500D01*
X137211961Y-88609500D01*
X137068039Y-88609500D01*
X137068036Y-88609500D01*
X136929949Y-88650045D01*
X136808873Y-88727856D01*
X136808872Y-88727856D01*
X136808872Y-88727857D01*
X136796290Y-88742377D01*
X136714623Y-88836626D01*
X136714622Y-88836628D01*
X136654834Y-88967543D01*
X136634353Y-89110000D01*
X136654834Y-89252456D01*
X136714622Y-89383371D01*
X136714623Y-89383373D01*
X136799213Y-89480996D01*
X136828238Y-89544551D01*
X136829500Y-89562198D01*
X136829500Y-109320708D01*
X136809815Y-109387747D01*
X136764577Y-109426950D01*
X136765427Y-109428273D01*
X136636893Y-109510876D01*
X136542643Y-109619646D01*
X136542642Y-109619648D01*
X136482854Y-109750563D01*
X136462373Y-109893020D01*
X117471950Y-109893020D01*
X120687904Y-106677065D01*
X125254500Y-106677065D01*
X125254500Y-106922934D01*
X125281227Y-107125939D01*
X125286591Y-107166677D01*
X125350222Y-107404152D01*
X125350225Y-107404162D01*
X125420477Y-107573764D01*
X125444306Y-107631292D01*
X125567233Y-107844208D01*
X125567235Y-107844211D01*
X125567236Y-107844212D01*
X125716897Y-108039254D01*
X125716903Y-108039261D01*
X125890738Y-108213096D01*
X125890745Y-108213102D01*
X125896421Y-108217457D01*
X126085792Y-108362767D01*
X126298708Y-108485694D01*
X126474384Y-108558461D01*
X126515516Y-108575499D01*
X126525847Y-108579778D01*
X126763323Y-108643409D01*
X127007073Y-108675500D01*
X127007080Y-108675500D01*
X127252920Y-108675500D01*
X127252927Y-108675500D01*
X127496677Y-108643409D01*
X127734153Y-108579778D01*
X127961292Y-108485694D01*
X128174208Y-108362767D01*
X128369256Y-108213101D01*
X128543101Y-108039256D01*
X128692767Y-107844208D01*
X128815694Y-107631292D01*
X128909778Y-107404153D01*
X128973409Y-107166677D01*
X129005500Y-106922927D01*
X129005500Y-106677073D01*
X128973409Y-106433323D01*
X128909778Y-106195847D01*
X128815694Y-105968708D01*
X128692767Y-105755792D01*
X128543101Y-105560744D01*
X128543096Y-105560738D01*
X128369261Y-105386903D01*
X128369254Y-105386897D01*
X128174212Y-105237236D01*
X128174211Y-105237235D01*
X128174208Y-105237233D01*
X127961292Y-105114306D01*
X127961285Y-105114303D01*
X127734162Y-105020225D01*
X127734155Y-105020223D01*
X127734153Y-105020222D01*
X127496677Y-104956591D01*
X127455939Y-104951227D01*
X127252934Y-104924500D01*
X127252927Y-104924500D01*
X127007073Y-104924500D01*
X127007065Y-104924500D01*
X126775059Y-104955045D01*
X126763323Y-104956591D01*
X126630640Y-104992143D01*
X126525847Y-105020222D01*
X126525837Y-105020225D01*
X126298714Y-105114303D01*
X126298705Y-105114307D01*
X126085787Y-105237236D01*
X125890745Y-105386897D01*
X125890738Y-105386903D01*
X125716903Y-105560738D01*
X125716897Y-105560745D01*
X125567236Y-105755787D01*
X125567233Y-105755791D01*
X125567233Y-105755792D01*
X125550766Y-105784313D01*
X125444307Y-105968705D01*
X125444303Y-105968714D01*
X125350225Y-106195837D01*
X125350222Y-106195847D01*
X125286592Y-106433320D01*
X125286590Y-106433331D01*
X125254500Y-106677065D01*
X120687904Y-106677065D01*
X121198151Y-106166818D01*
X121259474Y-106133334D01*
X121285832Y-106130500D01*
X121381962Y-106130500D01*
X121381962Y-106130499D01*
X121520053Y-106089953D01*
X121641128Y-106012143D01*
X121735377Y-105903373D01*
X121795165Y-105772457D01*
X121815647Y-105630000D01*
X121795165Y-105487543D01*
X121735377Y-105356627D01*
X121641128Y-105247857D01*
X121520053Y-105170047D01*
X121520051Y-105170046D01*
X121520049Y-105170045D01*
X121520050Y-105170045D01*
X121381963Y-105129500D01*
X121381961Y-105129500D01*
X121238039Y-105129500D01*
X121238036Y-105129500D01*
X121099949Y-105170045D01*
X120978873Y-105247856D01*
X120884623Y-105356626D01*
X120884622Y-105356628D01*
X120824834Y-105487543D01*
X120804353Y-105630000D01*
X120804353Y-105630001D01*
X120805661Y-105639103D01*
X120795713Y-105708261D01*
X120770603Y-105744424D01*
X116291848Y-110223181D01*
X116230525Y-110256666D01*
X116204167Y-110259500D01*
X109507287Y-110259500D01*
X109440248Y-110239815D01*
X109394493Y-110187011D01*
X109388626Y-110171495D01*
X109388573Y-110171321D01*
X109388573Y-110171317D01*
X109333537Y-109989885D01*
X109281762Y-109893020D01*
X109244165Y-109822681D01*
X109244161Y-109822674D01*
X109123883Y-109676116D01*
X108977325Y-109555838D01*
X108977318Y-109555834D01*
X108810122Y-109466466D01*
X108810119Y-109466465D01*
X108810118Y-109466464D01*
X108810115Y-109466463D01*
X108628683Y-109411427D01*
X108628681Y-109411426D01*
X108628683Y-109411426D01*
X108440000Y-109392843D01*
X108251318Y-109411426D01*
X108179978Y-109433067D01*
X108069885Y-109466463D01*
X108069882Y-109466464D01*
X108069880Y-109466465D01*
X108069877Y-109466466D01*
X107902681Y-109555834D01*
X107902674Y-109555838D01*
X107756116Y-109676116D01*
X107635838Y-109822674D01*
X107635834Y-109822681D01*
X107546466Y-109989877D01*
X107546465Y-109989880D01*
X107546464Y-109989882D01*
X107546463Y-109989885D01*
X107532633Y-110035477D01*
X107491426Y-110171318D01*
X107472843Y-110360000D01*
X106867157Y-110360000D01*
X106848573Y-110171317D01*
X106793537Y-109989885D01*
X106741762Y-109893020D01*
X106704165Y-109822681D01*
X106704161Y-109822674D01*
X106583883Y-109676116D01*
X106437325Y-109555838D01*
X106437318Y-109555834D01*
X106270122Y-109466466D01*
X106270119Y-109466465D01*
X106270118Y-109466464D01*
X106270115Y-109466463D01*
X106088683Y-109411427D01*
X106088681Y-109411426D01*
X106088683Y-109411426D01*
X105900000Y-109392843D01*
X105711318Y-109411426D01*
X105639978Y-109433067D01*
X105529885Y-109466463D01*
X105529882Y-109466464D01*
X105529880Y-109466465D01*
X105529877Y-109466466D01*
X105362681Y-109555834D01*
X105362674Y-109555838D01*
X105216116Y-109676116D01*
X105095838Y-109822674D01*
X105095834Y-109822681D01*
X105006466Y-109989877D01*
X105006465Y-109989880D01*
X105006464Y-109989882D01*
X105006463Y-109989885D01*
X104992633Y-110035477D01*
X104951426Y-110171318D01*
X104932843Y-110360000D01*
X104951426Y-110548681D01*
X104951427Y-110548683D01*
X105006463Y-110730115D01*
X105006464Y-110730118D01*
X105006465Y-110730119D01*
X105006466Y-110730122D01*
X105095834Y-110897318D01*
X105095838Y-110897325D01*
X105216116Y-111043883D01*
X105284064Y-111099647D01*
X105323398Y-111157393D01*
X105325269Y-111227238D01*
X105289081Y-111287006D01*
X105226325Y-111317722D01*
X105205399Y-111319500D01*
X105185833Y-111319500D01*
X105118794Y-111299815D01*
X105098152Y-111283181D01*
X103776819Y-109961848D01*
X103743334Y-109900525D01*
X103740500Y-109874167D01*
X103740500Y-84628969D01*
X103740500Y-84628967D01*
X103720022Y-84552541D01*
X103680460Y-84484018D01*
X96718623Y-77522181D01*
X96685138Y-77460858D01*
X96690122Y-77391166D01*
X96731994Y-77335233D01*
X96797458Y-77310816D01*
X96806304Y-77310500D01*
X96904167Y-77310500D01*
X96971206Y-77330185D01*
X96991848Y-77346819D01*
X104233181Y-84588152D01*
X104266666Y-84649475D01*
X104269500Y-84675833D01*
X104269500Y-104146260D01*
X104249815Y-104213299D01*
X104239213Y-104227462D01*
X104144625Y-104336622D01*
X104144622Y-104336628D01*
X104084834Y-104467543D01*
X104064353Y-104610000D01*
X104084834Y-104752456D01*
X104121650Y-104833070D01*
X104144623Y-104883373D01*
X104238872Y-104992143D01*
X104359947Y-105069953D01*
X104359950Y-105069954D01*
X104359949Y-105069954D01*
X104498036Y-105110499D01*
X104498038Y-105110500D01*
X104498039Y-105110500D01*
X104641962Y-105110500D01*
X104641962Y-105110499D01*
X104780053Y-105069953D01*
X104901128Y-104992143D01*
X104995377Y-104883373D01*
X105055165Y-104752457D01*
X105075647Y-104610000D01*
X105055165Y-104467543D01*
X104995377Y-104336627D01*
X104995375Y-104336625D01*
X104995374Y-104336622D01*
X104900787Y-104227462D01*
X104871762Y-104163906D01*
X104870500Y-104146260D01*
X104870500Y-102600000D01*
X105332843Y-102600000D01*
X105351426Y-102788681D01*
X105351427Y-102788683D01*
X105406463Y-102970115D01*
X105406464Y-102970118D01*
X105406465Y-102970119D01*
X105406466Y-102970122D01*
X105495834Y-103137318D01*
X105495838Y-103137325D01*
X105616116Y-103283883D01*
X105762674Y-103404161D01*
X105762681Y-103404165D01*
X105929877Y-103493533D01*
X105929878Y-103493533D01*
X105929885Y-103493537D01*
X106111317Y-103548573D01*
X106111316Y-103548573D01*
X106128233Y-103550239D01*
X106300000Y-103567157D01*
X106488683Y-103548573D01*
X106670115Y-103493537D01*
X106837324Y-103404162D01*
X106983883Y-103283883D01*
X107104162Y-103137324D01*
X107193537Y-102970115D01*
X107248573Y-102788683D01*
X107267157Y-102600000D01*
X107248573Y-102411317D01*
X107193537Y-102229885D01*
X107152982Y-102154011D01*
X107104165Y-102062681D01*
X107104161Y-102062674D01*
X106983883Y-101916116D01*
X106837325Y-101795838D01*
X106837318Y-101795834D01*
X106670122Y-101706466D01*
X106670119Y-101706465D01*
X106670118Y-101706464D01*
X106670115Y-101706463D01*
X106488683Y-101651427D01*
X106488681Y-101651426D01*
X106488683Y-101651426D01*
X106300000Y-101632843D01*
X106111318Y-101651426D01*
X106004194Y-101683921D01*
X105929885Y-101706463D01*
X105929882Y-101706464D01*
X105929880Y-101706465D01*
X105929877Y-101706466D01*
X105762681Y-101795834D01*
X105762674Y-101795838D01*
X105616116Y-101916116D01*
X105495838Y-102062674D01*
X105495834Y-102062681D01*
X105406466Y-102229877D01*
X105406465Y-102229880D01*
X105406464Y-102229882D01*
X105406463Y-102229885D01*
X105385346Y-102299500D01*
X105351426Y-102411318D01*
X105332843Y-102600000D01*
X104870500Y-102600000D01*
X104870500Y-100100000D01*
X105332843Y-100100000D01*
X105351426Y-100288681D01*
X105351427Y-100288683D01*
X105406463Y-100470115D01*
X105406464Y-100470118D01*
X105406465Y-100470119D01*
X105406466Y-100470122D01*
X105495834Y-100637318D01*
X105495838Y-100637325D01*
X105616116Y-100783883D01*
X105762674Y-100904161D01*
X105762681Y-100904165D01*
X105929877Y-100993533D01*
X105929878Y-100993533D01*
X105929885Y-100993537D01*
X106111317Y-101048573D01*
X106111316Y-101048573D01*
X106128233Y-101050239D01*
X106300000Y-101067157D01*
X106488683Y-101048573D01*
X106670115Y-100993537D01*
X106837324Y-100904162D01*
X106983883Y-100783883D01*
X107104162Y-100637324D01*
X107150838Y-100550000D01*
X110784353Y-100550000D01*
X110804834Y-100692456D01*
X110817329Y-100719815D01*
X110864623Y-100823373D01*
X110958872Y-100932143D01*
X110982540Y-100947353D01*
X111028293Y-101000155D01*
X111039500Y-101051668D01*
X111039500Y-107774562D01*
X111053152Y-107825513D01*
X111059979Y-107850990D01*
X111078506Y-107883078D01*
X111078507Y-107883081D01*
X111099537Y-107919507D01*
X111099541Y-107919512D01*
X111140604Y-107960575D01*
X111174089Y-108021898D01*
X111175661Y-108065902D01*
X111174353Y-108074999D01*
X111194834Y-108217456D01*
X111245195Y-108327729D01*
X111254623Y-108348373D01*
X111348872Y-108457143D01*
X111469947Y-108534953D01*
X111469950Y-108534954D01*
X111469949Y-108534954D01*
X111608036Y-108575499D01*
X111608038Y-108575500D01*
X111608039Y-108575500D01*
X111751962Y-108575500D01*
X111751962Y-108575499D01*
X111890053Y-108534953D01*
X112011128Y-108457143D01*
X112105377Y-108348373D01*
X112165165Y-108217457D01*
X112185647Y-108075000D01*
X112165165Y-107932543D01*
X112105377Y-107801627D01*
X112011128Y-107692857D01*
X111890053Y-107615047D01*
X111890051Y-107615046D01*
X111890049Y-107615045D01*
X111890050Y-107615045D01*
X111751959Y-107574498D01*
X111746849Y-107573764D01*
X111683294Y-107544737D01*
X111645522Y-107485958D01*
X111640500Y-107451027D01*
X111640500Y-106677065D01*
X113824500Y-106677065D01*
X113824500Y-106922934D01*
X113851227Y-107125939D01*
X113856591Y-107166677D01*
X113920222Y-107404152D01*
X113920225Y-107404162D01*
X113990477Y-107573764D01*
X114014306Y-107631292D01*
X114137233Y-107844208D01*
X114137235Y-107844211D01*
X114137236Y-107844212D01*
X114286897Y-108039254D01*
X114286903Y-108039261D01*
X114460738Y-108213096D01*
X114460745Y-108213102D01*
X114466421Y-108217457D01*
X114655792Y-108362767D01*
X114868708Y-108485694D01*
X115044384Y-108558461D01*
X115085516Y-108575499D01*
X115095847Y-108579778D01*
X115333323Y-108643409D01*
X115577073Y-108675500D01*
X115577080Y-108675500D01*
X115822920Y-108675500D01*
X115822927Y-108675500D01*
X116066677Y-108643409D01*
X116304153Y-108579778D01*
X116531292Y-108485694D01*
X116744208Y-108362767D01*
X116939256Y-108213101D01*
X117113101Y-108039256D01*
X117262767Y-107844208D01*
X117385694Y-107631292D01*
X117479778Y-107404153D01*
X117543409Y-107166677D01*
X117575500Y-106922927D01*
X117575500Y-106677073D01*
X117543409Y-106433323D01*
X117479778Y-106195847D01*
X117385694Y-105968708D01*
X117262767Y-105755792D01*
X117113101Y-105560744D01*
X117113096Y-105560738D01*
X116939261Y-105386903D01*
X116939254Y-105386897D01*
X116744212Y-105237236D01*
X116744211Y-105237235D01*
X116744208Y-105237233D01*
X116531292Y-105114306D01*
X116531285Y-105114303D01*
X116304162Y-105020225D01*
X116304155Y-105020223D01*
X116304153Y-105020222D01*
X116066677Y-104956591D01*
X116025939Y-104951227D01*
X115822934Y-104924500D01*
X115822927Y-104924500D01*
X115577073Y-104924500D01*
X115577065Y-104924500D01*
X115345059Y-104955045D01*
X115333323Y-104956591D01*
X115200640Y-104992143D01*
X115095847Y-105020222D01*
X115095837Y-105020225D01*
X114868714Y-105114303D01*
X114868705Y-105114307D01*
X114655787Y-105237236D01*
X114460745Y-105386897D01*
X114460738Y-105386903D01*
X114286903Y-105560738D01*
X114286897Y-105560745D01*
X114137236Y-105755787D01*
X114137233Y-105755791D01*
X114137233Y-105755792D01*
X114120766Y-105784313D01*
X114014307Y-105968705D01*
X114014303Y-105968714D01*
X113920225Y-106195837D01*
X113920222Y-106195847D01*
X113856592Y-106433320D01*
X113856590Y-106433331D01*
X113824500Y-106677065D01*
X111640500Y-106677065D01*
X111640500Y-103749994D01*
X112214529Y-103749994D01*
X112214529Y-103750005D01*
X112234379Y-103989559D01*
X112293389Y-104222589D01*
X112389951Y-104442729D01*
X112472939Y-104569750D01*
X112521429Y-104643969D01*
X112684236Y-104820825D01*
X112684239Y-104820827D01*
X112684242Y-104820830D01*
X112873924Y-104968466D01*
X112873930Y-104968470D01*
X112873933Y-104968472D01*
X113085344Y-105082882D01*
X113085347Y-105082883D01*
X113312699Y-105160933D01*
X113312701Y-105160933D01*
X113312703Y-105160934D01*
X113549808Y-105200500D01*
X113549809Y-105200500D01*
X113790191Y-105200500D01*
X113790192Y-105200500D01*
X114027297Y-105160934D01*
X114254656Y-105082882D01*
X114466067Y-104968472D01*
X114481331Y-104956592D01*
X114640029Y-104833072D01*
X114655764Y-104820825D01*
X114818571Y-104643969D01*
X114950049Y-104442728D01*
X115046610Y-104222591D01*
X115061471Y-104163906D01*
X115066497Y-104144060D01*
X115102037Y-104083904D01*
X115164457Y-104052512D01*
X115186703Y-104050500D01*
X127643297Y-104050500D01*
X127710336Y-104070185D01*
X127756091Y-104122989D01*
X127763503Y-104144060D01*
X127783389Y-104222588D01*
X127879951Y-104442729D01*
X127962939Y-104569750D01*
X128011429Y-104643969D01*
X128174236Y-104820825D01*
X128174239Y-104820827D01*
X128174242Y-104820830D01*
X128363924Y-104968466D01*
X128363930Y-104968470D01*
X128363933Y-104968472D01*
X128575344Y-105082882D01*
X128575347Y-105082883D01*
X128802699Y-105160933D01*
X128802701Y-105160933D01*
X128802703Y-105160934D01*
X129039808Y-105200500D01*
X129039809Y-105200500D01*
X129280191Y-105200500D01*
X129280192Y-105200500D01*
X129517297Y-105160934D01*
X129744656Y-105082882D01*
X129956067Y-104968472D01*
X129971331Y-104956592D01*
X130130029Y-104833072D01*
X130145764Y-104820825D01*
X130308571Y-104643969D01*
X130440049Y-104442728D01*
X130536610Y-104222591D01*
X130595620Y-103989563D01*
X130615471Y-103750000D01*
X130595620Y-103510437D01*
X130536610Y-103277409D01*
X130440049Y-103057272D01*
X130308571Y-102856031D01*
X130145764Y-102679175D01*
X130145759Y-102679171D01*
X130145757Y-102679169D01*
X129956075Y-102531533D01*
X129956069Y-102531529D01*
X129744657Y-102417118D01*
X129744651Y-102417116D01*
X129544237Y-102348313D01*
X129487221Y-102307927D01*
X129461091Y-102243128D01*
X129460500Y-102231032D01*
X129460500Y-102230439D01*
X129460350Y-102229880D01*
X129440021Y-102154011D01*
X129440017Y-102154004D01*
X129400464Y-102085495D01*
X129400458Y-102085487D01*
X126258482Y-98943511D01*
X126224997Y-98882188D01*
X126229981Y-98812496D01*
X126271853Y-98756563D01*
X126287703Y-98746475D01*
X126385625Y-98694136D01*
X126530357Y-98575357D01*
X126649136Y-98430625D01*
X126737396Y-98265501D01*
X126788439Y-98097233D01*
X126819415Y-98045554D01*
X128340460Y-96524511D01*
X128346235Y-96514508D01*
X128380021Y-96455989D01*
X128400500Y-96379562D01*
X128400500Y-90046328D01*
X128420185Y-89979289D01*
X128472989Y-89933534D01*
X128479131Y-89931212D01*
X128479103Y-89931144D01*
X128484723Y-89928815D01*
X128484727Y-89928814D01*
X128658538Y-89835910D01*
X128810883Y-89710883D01*
X128935910Y-89558538D01*
X129028814Y-89384727D01*
X129086024Y-89196132D01*
X129105341Y-89000000D01*
X129086024Y-88803868D01*
X129028814Y-88615273D01*
X129028811Y-88615269D01*
X129028811Y-88615266D01*
X128935913Y-88441467D01*
X128935909Y-88441460D01*
X128810883Y-88289116D01*
X128658539Y-88164090D01*
X128658532Y-88164086D01*
X128484733Y-88071188D01*
X128484727Y-88071186D01*
X128358997Y-88033046D01*
X128296129Y-88013975D01*
X128100000Y-87994659D01*
X127903870Y-88013975D01*
X127715266Y-88071188D01*
X127541467Y-88164086D01*
X127541460Y-88164090D01*
X127389116Y-88289116D01*
X127264090Y-88441460D01*
X127264086Y-88441467D01*
X127171188Y-88615266D01*
X127113975Y-88803870D01*
X127094659Y-89000000D01*
X127113975Y-89196129D01*
X127171188Y-89384733D01*
X127264086Y-89558532D01*
X127264090Y-89558539D01*
X127389116Y-89710883D01*
X127541460Y-89835909D01*
X127541467Y-89835913D01*
X127715273Y-89928814D01*
X127720897Y-89931144D01*
X127720020Y-89933260D01*
X127769917Y-89965945D01*
X127798387Y-90029751D01*
X127799500Y-90046328D01*
X127799500Y-90312734D01*
X127779815Y-90379773D01*
X127731375Y-90421746D01*
X127769213Y-90446062D01*
X127798238Y-90509618D01*
X127799500Y-90527265D01*
X127799500Y-92262734D01*
X127779815Y-92329773D01*
X127731375Y-92371746D01*
X127769213Y-92396062D01*
X127798238Y-92459618D01*
X127799500Y-92477265D01*
X127799500Y-96164166D01*
X127779815Y-96231205D01*
X127763181Y-96251847D01*
X126744307Y-97270720D01*
X126682984Y-97304205D01*
X126613292Y-97299221D01*
X126560773Y-97261704D01*
X126530357Y-97224642D01*
X126385626Y-97105864D01*
X126385623Y-97105862D01*
X126220502Y-97017604D01*
X126041333Y-96963253D01*
X126041331Y-96963252D01*
X125855000Y-96944901D01*
X125668668Y-96963252D01*
X125668666Y-96963253D01*
X125489497Y-97017604D01*
X125324376Y-97105862D01*
X125324373Y-97105864D01*
X125179642Y-97224642D01*
X125060864Y-97369373D01*
X125060862Y-97369376D01*
X124972604Y-97534497D01*
X124918253Y-97713666D01*
X124918252Y-97713668D01*
X124899901Y-97900000D01*
X124918252Y-98086331D01*
X124918253Y-98086333D01*
X124972604Y-98265502D01*
X125060862Y-98430623D01*
X125060864Y-98430626D01*
X125179642Y-98575357D01*
X125324371Y-98694133D01*
X125324375Y-98694136D01*
X125488955Y-98782105D01*
X125538797Y-98831066D01*
X125554500Y-98891462D01*
X125554500Y-99004562D01*
X125564739Y-99042775D01*
X125574979Y-99080991D01*
X125574981Y-99080994D01*
X125604915Y-99132840D01*
X125604915Y-99132843D01*
X125604917Y-99132843D01*
X125614539Y-99149509D01*
X125614541Y-99149512D01*
X128663276Y-102198247D01*
X128696761Y-102259570D01*
X128691777Y-102329262D01*
X128649905Y-102385195D01*
X128615859Y-102403209D01*
X128575344Y-102417117D01*
X128575342Y-102417118D01*
X128363930Y-102531529D01*
X128363924Y-102531533D01*
X128174242Y-102679169D01*
X128174239Y-102679172D01*
X128011430Y-102856029D01*
X128011427Y-102856033D01*
X127879951Y-103057270D01*
X127783389Y-103277411D01*
X127763503Y-103355940D01*
X127727963Y-103416096D01*
X127665543Y-103447488D01*
X127643297Y-103449500D01*
X115186703Y-103449500D01*
X115119664Y-103429815D01*
X115073909Y-103377011D01*
X115066497Y-103355940D01*
X115048249Y-103283883D01*
X115046610Y-103277409D01*
X114950049Y-103057272D01*
X114818571Y-102856031D01*
X114655764Y-102679175D01*
X114655759Y-102679171D01*
X114655757Y-102679169D01*
X114466075Y-102531533D01*
X114466069Y-102531529D01*
X114254657Y-102417118D01*
X114254652Y-102417116D01*
X114027300Y-102339066D01*
X113840692Y-102307927D01*
X113790192Y-102299500D01*
X113549808Y-102299500D01*
X113502387Y-102307413D01*
X113312699Y-102339066D01*
X113085347Y-102417116D01*
X113085342Y-102417118D01*
X112873930Y-102531529D01*
X112873924Y-102531533D01*
X112684242Y-102679169D01*
X112684239Y-102679172D01*
X112521430Y-102856029D01*
X112521427Y-102856033D01*
X112389951Y-103057270D01*
X112293389Y-103277410D01*
X112234379Y-103510440D01*
X112214529Y-103749994D01*
X111640500Y-103749994D01*
X111640500Y-100956035D01*
X111660185Y-100888996D01*
X111670782Y-100874837D01*
X111715377Y-100823373D01*
X111775165Y-100692457D01*
X111795647Y-100550000D01*
X111775165Y-100407543D01*
X111715377Y-100276627D01*
X111621128Y-100167857D01*
X111500053Y-100090047D01*
X111500051Y-100090046D01*
X111500049Y-100090045D01*
X111500050Y-100090045D01*
X111361963Y-100049500D01*
X111361961Y-100049500D01*
X111218039Y-100049500D01*
X111218036Y-100049500D01*
X111079949Y-100090045D01*
X110958873Y-100167856D01*
X110864623Y-100276626D01*
X110864622Y-100276628D01*
X110804834Y-100407543D01*
X110784353Y-100550000D01*
X107150838Y-100550000D01*
X107193537Y-100470115D01*
X107248573Y-100288683D01*
X107267157Y-100100000D01*
X107248573Y-99911317D01*
X107193537Y-99729885D01*
X107104162Y-99562676D01*
X107104161Y-99562674D01*
X106983883Y-99416116D01*
X106837325Y-99295838D01*
X106837318Y-99295834D01*
X106670122Y-99206466D01*
X106670119Y-99206465D01*
X106670118Y-99206464D01*
X106670115Y-99206463D01*
X106488683Y-99151427D01*
X106488681Y-99151426D01*
X106488683Y-99151426D01*
X106300000Y-99132843D01*
X106111318Y-99151426D01*
X106004194Y-99183921D01*
X105929885Y-99206463D01*
X105929882Y-99206464D01*
X105929880Y-99206465D01*
X105929877Y-99206466D01*
X105762681Y-99295834D01*
X105762674Y-99295838D01*
X105616116Y-99416116D01*
X105495838Y-99562674D01*
X105495834Y-99562681D01*
X105406466Y-99729877D01*
X105406465Y-99729880D01*
X105406464Y-99729882D01*
X105406463Y-99729885D01*
X105383921Y-99804194D01*
X105351426Y-99911318D01*
X105332843Y-100100000D01*
X104870500Y-100100000D01*
X104870500Y-97600000D01*
X105332843Y-97600000D01*
X105351426Y-97788681D01*
X105369282Y-97847543D01*
X105406463Y-97970115D01*
X105406464Y-97970118D01*
X105406465Y-97970119D01*
X105406466Y-97970122D01*
X105495834Y-98137318D01*
X105495838Y-98137325D01*
X105616116Y-98283883D01*
X105762674Y-98404161D01*
X105762681Y-98404165D01*
X105929877Y-98493533D01*
X105929878Y-98493533D01*
X105929885Y-98493537D01*
X106111317Y-98548573D01*
X106111316Y-98548573D01*
X106128233Y-98550239D01*
X106300000Y-98567157D01*
X106488683Y-98548573D01*
X106670115Y-98493537D01*
X106837324Y-98404162D01*
X106983883Y-98283883D01*
X107104162Y-98137324D01*
X107193537Y-97970115D01*
X107248573Y-97788683D01*
X107267157Y-97600000D01*
X107248573Y-97411317D01*
X107208653Y-97279719D01*
X107208031Y-97209855D01*
X107239632Y-97156048D01*
X109746363Y-94649319D01*
X109807686Y-94615834D01*
X109834044Y-94613000D01*
X111073605Y-94613000D01*
X111140644Y-94632685D01*
X111154812Y-94643290D01*
X111156366Y-94644637D01*
X111156372Y-94644643D01*
X111277447Y-94722453D01*
X111277450Y-94722454D01*
X111277449Y-94722454D01*
X111384607Y-94753917D01*
X111408676Y-94760985D01*
X111415536Y-94762999D01*
X111415538Y-94763000D01*
X111415539Y-94763000D01*
X111559462Y-94763000D01*
X111559462Y-94762999D01*
X111697553Y-94722453D01*
X111818628Y-94644643D01*
X111912877Y-94535873D01*
X111972665Y-94404957D01*
X111988947Y-94291708D01*
X112017970Y-94228156D01*
X112023989Y-94221692D01*
X112970470Y-93275212D01*
X113016614Y-93195288D01*
X113040500Y-93106144D01*
X113040500Y-93013856D01*
X113040500Y-91426035D01*
X113060185Y-91358996D01*
X113070782Y-91344837D01*
X113115377Y-91293373D01*
X113175165Y-91162457D01*
X113195647Y-91020000D01*
X113175165Y-90877543D01*
X113115377Y-90746627D01*
X113021128Y-90637857D01*
X112900053Y-90560047D01*
X112900051Y-90560046D01*
X112900049Y-90560045D01*
X112900050Y-90560045D01*
X112761963Y-90519500D01*
X112761961Y-90519500D01*
X112618039Y-90519500D01*
X112618035Y-90519500D01*
X112479434Y-90560196D01*
X112409564Y-90560196D01*
X112350786Y-90522421D01*
X112321762Y-90458865D01*
X112320500Y-90441219D01*
X112320500Y-88629129D01*
X112331706Y-88577617D01*
X112373260Y-88486628D01*
X112375165Y-88482457D01*
X112395647Y-88340000D01*
X112375165Y-88197543D01*
X112331704Y-88102378D01*
X112320500Y-88050869D01*
X112320500Y-86638332D01*
X112340185Y-86571293D01*
X112340901Y-86570336D01*
X112345368Y-86563382D01*
X112345377Y-86563373D01*
X112405165Y-86432457D01*
X112425647Y-86290000D01*
X112405165Y-86147543D01*
X112345377Y-86016627D01*
X112345374Y-86016624D01*
X112340582Y-86009166D01*
X112343621Y-86007212D01*
X112321749Y-85959224D01*
X112320500Y-85941667D01*
X112320500Y-84633655D01*
X112331706Y-84582143D01*
X112372665Y-84492457D01*
X112393147Y-84350000D01*
X112372665Y-84207543D01*
X112312877Y-84076627D01*
X112218628Y-83967857D01*
X112097553Y-83890047D01*
X112097551Y-83890046D01*
X112097549Y-83890045D01*
X112097550Y-83890045D01*
X111959463Y-83849500D01*
X111959461Y-83849500D01*
X111815539Y-83849500D01*
X111815536Y-83849500D01*
X111677449Y-83890045D01*
X111556373Y-83967856D01*
X111462123Y-84076626D01*
X111462122Y-84076628D01*
X111402335Y-84207541D01*
X111402334Y-84207545D01*
X111397926Y-84238205D01*
X111368900Y-84301760D01*
X111362869Y-84308237D01*
X111144146Y-84526959D01*
X111144144Y-84526962D01*
X110757926Y-84913181D01*
X110696603Y-84946666D01*
X110670245Y-84949500D01*
X109654755Y-84949500D01*
X109587716Y-84929815D01*
X109567074Y-84913181D01*
X109054629Y-84400736D01*
X109021144Y-84339413D01*
X109019572Y-84330698D01*
X109018097Y-84320438D01*
X109015165Y-84300043D01*
X108994324Y-84254409D01*
X108959421Y-84177983D01*
X108955377Y-84169127D01*
X108861128Y-84060357D01*
X108740053Y-83982547D01*
X108740051Y-83982546D01*
X108740049Y-83982545D01*
X108740050Y-83982545D01*
X108601963Y-83942000D01*
X108601961Y-83942000D01*
X108458039Y-83942000D01*
X108458035Y-83942000D01*
X108389434Y-83962143D01*
X108319564Y-83962143D01*
X108260786Y-83924368D01*
X108231762Y-83860812D01*
X108230500Y-83843166D01*
X108230500Y-79200000D01*
X112421205Y-79200000D01*
X112441686Y-79342456D01*
X112501474Y-79473371D01*
X112501475Y-79473373D01*
X112595724Y-79582143D01*
X112595726Y-79582144D01*
X112599213Y-79586168D01*
X112628238Y-79649724D01*
X112629500Y-79667371D01*
X112629500Y-83802062D01*
X112636852Y-83829500D01*
X112649979Y-83878491D01*
X112649981Y-83878494D01*
X112683638Y-83936788D01*
X112683639Y-83936792D01*
X112683640Y-83936792D01*
X112689539Y-83947011D01*
X112689541Y-83947013D01*
X113086574Y-84344045D01*
X113120059Y-84405368D01*
X113121631Y-84449370D01*
X113114353Y-84499997D01*
X113114353Y-84499999D01*
X113134834Y-84642456D01*
X113138040Y-84649475D01*
X113194623Y-84773373D01*
X113288872Y-84882143D01*
X113409947Y-84959953D01*
X113409950Y-84959954D01*
X113409949Y-84959954D01*
X113548036Y-85000499D01*
X113548038Y-85000500D01*
X113548039Y-85000500D01*
X113691962Y-85000500D01*
X113691962Y-85000499D01*
X113830050Y-84959954D01*
X113830051Y-84959954D01*
X113866382Y-84936606D01*
X113938460Y-84890283D01*
X114005500Y-84870599D01*
X114072539Y-84890283D01*
X114118294Y-84943087D01*
X114129500Y-84994599D01*
X114129500Y-93844166D01*
X114109815Y-93911205D01*
X114057011Y-93956960D01*
X113987853Y-93966904D01*
X113924297Y-93937879D01*
X113911787Y-93925369D01*
X113876438Y-93884574D01*
X113818628Y-93817857D01*
X113697553Y-93740047D01*
X113697551Y-93740046D01*
X113697549Y-93740045D01*
X113697550Y-93740045D01*
X113559463Y-93699500D01*
X113559461Y-93699500D01*
X113415539Y-93699500D01*
X113415536Y-93699500D01*
X113277449Y-93740045D01*
X113156373Y-93817856D01*
X113062123Y-93926626D01*
X113062122Y-93926628D01*
X113002334Y-94057543D01*
X112981853Y-94200000D01*
X113002334Y-94342456D01*
X113045446Y-94436856D01*
X113062123Y-94473373D01*
X113156372Y-94582143D01*
X113156375Y-94582144D01*
X113156713Y-94582535D01*
X113185738Y-94646091D01*
X113187000Y-94663738D01*
X113187000Y-96456260D01*
X113167315Y-96523299D01*
X113156713Y-96537462D01*
X113062125Y-96646622D01*
X113062122Y-96646628D01*
X113002334Y-96777543D01*
X112981853Y-96920000D01*
X113002334Y-97062456D01*
X113045076Y-97156046D01*
X113062123Y-97193373D01*
X113156372Y-97302143D01*
X113277447Y-97379953D01*
X113277450Y-97379954D01*
X113277449Y-97379954D01*
X113339993Y-97398318D01*
X113398418Y-97415473D01*
X113415536Y-97420499D01*
X113415538Y-97420500D01*
X113415539Y-97420500D01*
X113559462Y-97420500D01*
X113559462Y-97420499D01*
X113697553Y-97379953D01*
X113818628Y-97302143D01*
X113911787Y-97194631D01*
X113970565Y-97156856D01*
X114040434Y-97156856D01*
X114099213Y-97194630D01*
X114128238Y-97258185D01*
X114129500Y-97275833D01*
X114129500Y-100056260D01*
X114109815Y-100123299D01*
X114099213Y-100137462D01*
X114004625Y-100246622D01*
X114004622Y-100246628D01*
X113944834Y-100377543D01*
X113924353Y-100520000D01*
X113944834Y-100662456D01*
X113998753Y-100780520D01*
X114004623Y-100793373D01*
X114098872Y-100902143D01*
X114219947Y-100979953D01*
X114219950Y-100979954D01*
X114219949Y-100979954D01*
X114358036Y-101020499D01*
X114358038Y-101020500D01*
X114358039Y-101020500D01*
X114501962Y-101020500D01*
X114501962Y-101020499D01*
X114640053Y-100979953D01*
X114761128Y-100902143D01*
X114855377Y-100793373D01*
X114915165Y-100662457D01*
X114935647Y-100520000D01*
X114915165Y-100377543D01*
X114855377Y-100246627D01*
X114855375Y-100246625D01*
X114855374Y-100246622D01*
X114760787Y-100137462D01*
X114731762Y-100073906D01*
X114730500Y-100056260D01*
X114730500Y-99886170D01*
X116024500Y-99886170D01*
X116024500Y-100993822D01*
X116027356Y-101024288D01*
X116027358Y-101024298D01*
X116072259Y-101152616D01*
X116152992Y-101262007D01*
X116200339Y-101296950D01*
X116262382Y-101342740D01*
X116301451Y-101356411D01*
X116390699Y-101387641D01*
X116390703Y-101387641D01*
X116390707Y-101387643D01*
X116421175Y-101390500D01*
X117528824Y-101390499D01*
X117559293Y-101387643D01*
X117687618Y-101342740D01*
X117797007Y-101262007D01*
X117877740Y-101152618D01*
X117907645Y-101067156D01*
X117922641Y-101024300D01*
X117922641Y-101024297D01*
X117922643Y-101024293D01*
X117925500Y-100993825D01*
X117925499Y-100440000D01*
X118559901Y-100440000D01*
X118578252Y-100626331D01*
X118578253Y-100626333D01*
X118632604Y-100805502D01*
X118720862Y-100970623D01*
X118720864Y-100970626D01*
X118839642Y-101115357D01*
X118984373Y-101234135D01*
X118984376Y-101234137D01*
X119103170Y-101297633D01*
X119149499Y-101322396D01*
X119328666Y-101376746D01*
X119328668Y-101376747D01*
X119345374Y-101378392D01*
X119515000Y-101395099D01*
X119701331Y-101376747D01*
X119880501Y-101322396D01*
X120045625Y-101234136D01*
X120190357Y-101115357D01*
X120309136Y-100970625D01*
X120397396Y-100805501D01*
X120451747Y-100626331D01*
X120470099Y-100440000D01*
X121099901Y-100440000D01*
X121118252Y-100626331D01*
X121118253Y-100626333D01*
X121172604Y-100805502D01*
X121260862Y-100970623D01*
X121260864Y-100970626D01*
X121379642Y-101115357D01*
X121524373Y-101234135D01*
X121524376Y-101234137D01*
X121643170Y-101297633D01*
X121689499Y-101322396D01*
X121868666Y-101376746D01*
X121868668Y-101376747D01*
X121885374Y-101378392D01*
X122055000Y-101395099D01*
X122241331Y-101376747D01*
X122420501Y-101322396D01*
X122585625Y-101234136D01*
X122730357Y-101115357D01*
X122849136Y-100970625D01*
X122937396Y-100805501D01*
X122991747Y-100626331D01*
X123010099Y-100440000D01*
X123639901Y-100440000D01*
X123658252Y-100626331D01*
X123658253Y-100626333D01*
X123712604Y-100805502D01*
X123800862Y-100970623D01*
X123800864Y-100970626D01*
X123919642Y-101115357D01*
X124064373Y-101234135D01*
X124064376Y-101234137D01*
X124183170Y-101297633D01*
X124229499Y-101322396D01*
X124408666Y-101376746D01*
X124408668Y-101376747D01*
X124425374Y-101378392D01*
X124595000Y-101395099D01*
X124781331Y-101376747D01*
X124960501Y-101322396D01*
X125125625Y-101234136D01*
X125270357Y-101115357D01*
X125389136Y-100970625D01*
X125477396Y-100805501D01*
X125531747Y-100626331D01*
X125550099Y-100440000D01*
X125531747Y-100253669D01*
X125477396Y-100074499D01*
X125389136Y-99909375D01*
X125389135Y-99909373D01*
X125270357Y-99764642D01*
X125125626Y-99645864D01*
X125125623Y-99645862D01*
X124960502Y-99557604D01*
X124781333Y-99503253D01*
X124781331Y-99503252D01*
X124595000Y-99484901D01*
X124408668Y-99503252D01*
X124408666Y-99503253D01*
X124229497Y-99557604D01*
X124064376Y-99645862D01*
X124064373Y-99645864D01*
X123919642Y-99764642D01*
X123800864Y-99909373D01*
X123800862Y-99909376D01*
X123712604Y-100074497D01*
X123658253Y-100253666D01*
X123658252Y-100253668D01*
X123639901Y-100440000D01*
X123010099Y-100440000D01*
X122991747Y-100253669D01*
X122937396Y-100074499D01*
X122849136Y-99909375D01*
X122849135Y-99909373D01*
X122730357Y-99764642D01*
X122585626Y-99645864D01*
X122585623Y-99645862D01*
X122420502Y-99557604D01*
X122241333Y-99503253D01*
X122241331Y-99503252D01*
X122055000Y-99484901D01*
X121868668Y-99503252D01*
X121868666Y-99503253D01*
X121689497Y-99557604D01*
X121524376Y-99645862D01*
X121524373Y-99645864D01*
X121379642Y-99764642D01*
X121260864Y-99909373D01*
X121260862Y-99909376D01*
X121172604Y-100074497D01*
X121118253Y-100253666D01*
X121118252Y-100253668D01*
X121099901Y-100440000D01*
X120470099Y-100440000D01*
X120451747Y-100253669D01*
X120397396Y-100074499D01*
X120309136Y-99909375D01*
X120309135Y-99909373D01*
X120190357Y-99764642D01*
X120045626Y-99645864D01*
X120045623Y-99645862D01*
X119880502Y-99557604D01*
X119701333Y-99503253D01*
X119701331Y-99503252D01*
X119515000Y-99484901D01*
X119328668Y-99503252D01*
X119328666Y-99503253D01*
X119149497Y-99557604D01*
X118984376Y-99645862D01*
X118984373Y-99645864D01*
X118839642Y-99764642D01*
X118720864Y-99909373D01*
X118720862Y-99909376D01*
X118632604Y-100074497D01*
X118578253Y-100253666D01*
X118578252Y-100253668D01*
X118559901Y-100440000D01*
X117925499Y-100440000D01*
X117925499Y-99886176D01*
X117922643Y-99855707D01*
X117877740Y-99727382D01*
X117817577Y-99645864D01*
X117797007Y-99617992D01*
X117715183Y-99557604D01*
X117687618Y-99537260D01*
X117687616Y-99537259D01*
X117559300Y-99492358D01*
X117559288Y-99492356D01*
X117528829Y-99489500D01*
X116421177Y-99489500D01*
X116390711Y-99492356D01*
X116390701Y-99492358D01*
X116262383Y-99537259D01*
X116152992Y-99617992D01*
X116072259Y-99727383D01*
X116027358Y-99855699D01*
X116027356Y-99855711D01*
X116024500Y-99886170D01*
X114730500Y-99886170D01*
X114730500Y-97900000D01*
X117279901Y-97900000D01*
X117298252Y-98086331D01*
X117298253Y-98086333D01*
X117352604Y-98265502D01*
X117440862Y-98430623D01*
X117440864Y-98430626D01*
X117559642Y-98575357D01*
X117704373Y-98694135D01*
X117704376Y-98694137D01*
X117868951Y-98782103D01*
X117869499Y-98782396D01*
X118048666Y-98836746D01*
X118048668Y-98836747D01*
X118065374Y-98838392D01*
X118235000Y-98855099D01*
X118421331Y-98836747D01*
X118600501Y-98782396D01*
X118765625Y-98694136D01*
X118910357Y-98575357D01*
X119029136Y-98430625D01*
X119117396Y-98265501D01*
X119171747Y-98086331D01*
X119190099Y-97900000D01*
X119173392Y-97730374D01*
X119171747Y-97713668D01*
X119171746Y-97713666D01*
X119160569Y-97676821D01*
X119117396Y-97534499D01*
X119082822Y-97469815D01*
X119029137Y-97369376D01*
X119029135Y-97369373D01*
X118910357Y-97224642D01*
X118765626Y-97105864D01*
X118765623Y-97105862D01*
X118600502Y-97017604D01*
X118421333Y-96963253D01*
X118421331Y-96963252D01*
X118235000Y-96944901D01*
X118048668Y-96963252D01*
X118048666Y-96963253D01*
X117869497Y-97017604D01*
X117704376Y-97105862D01*
X117704373Y-97105864D01*
X117559642Y-97224642D01*
X117440864Y-97369373D01*
X117440862Y-97369376D01*
X117352604Y-97534497D01*
X117298253Y-97713666D01*
X117298252Y-97713668D01*
X117279901Y-97900000D01*
X114730500Y-97900000D01*
X114730500Y-94275000D01*
X118314353Y-94275000D01*
X118334834Y-94417456D01*
X118360371Y-94473373D01*
X118394623Y-94548373D01*
X118488872Y-94657143D01*
X118609947Y-94734953D01*
X118609950Y-94734954D01*
X118609949Y-94734954D01*
X118698605Y-94760985D01*
X118745280Y-94774690D01*
X118748036Y-94775499D01*
X118748038Y-94775500D01*
X118844167Y-94775500D01*
X118911206Y-94795185D01*
X118931848Y-94811819D01*
X120438181Y-96318152D01*
X120471666Y-96379475D01*
X120474500Y-96405833D01*
X120474500Y-96908537D01*
X120454815Y-96975576D01*
X120408953Y-97017895D01*
X120244376Y-97105862D01*
X120244373Y-97105864D01*
X120099642Y-97224642D01*
X119980864Y-97369373D01*
X119980862Y-97369376D01*
X119892604Y-97534497D01*
X119838253Y-97713666D01*
X119838252Y-97713668D01*
X119819901Y-97900000D01*
X119838252Y-98086331D01*
X119838253Y-98086333D01*
X119892604Y-98265502D01*
X119980862Y-98430623D01*
X119980864Y-98430626D01*
X120099642Y-98575357D01*
X120244373Y-98694135D01*
X120244376Y-98694137D01*
X120408951Y-98782103D01*
X120409499Y-98782396D01*
X120588666Y-98836746D01*
X120588668Y-98836747D01*
X120605374Y-98838392D01*
X120775000Y-98855099D01*
X120961331Y-98836747D01*
X121140501Y-98782396D01*
X121305625Y-98694136D01*
X121450357Y-98575357D01*
X121569136Y-98430625D01*
X121657396Y-98265501D01*
X121711747Y-98086331D01*
X121730099Y-97900000D01*
X122359901Y-97900000D01*
X122378252Y-98086331D01*
X122378253Y-98086333D01*
X122432604Y-98265502D01*
X122520862Y-98430623D01*
X122520864Y-98430626D01*
X122639642Y-98575357D01*
X122784373Y-98694135D01*
X122784376Y-98694137D01*
X122948951Y-98782103D01*
X122949499Y-98782396D01*
X123128666Y-98836746D01*
X123128668Y-98836747D01*
X123145374Y-98838392D01*
X123315000Y-98855099D01*
X123501331Y-98836747D01*
X123680501Y-98782396D01*
X123845625Y-98694136D01*
X123990357Y-98575357D01*
X124109136Y-98430625D01*
X124197396Y-98265501D01*
X124251747Y-98086331D01*
X124270099Y-97900000D01*
X124253392Y-97730374D01*
X124251747Y-97713668D01*
X124251746Y-97713666D01*
X124240569Y-97676821D01*
X124197396Y-97534499D01*
X124162822Y-97469815D01*
X124109137Y-97369376D01*
X124109135Y-97369373D01*
X123990357Y-97224642D01*
X123845626Y-97105864D01*
X123845623Y-97105862D01*
X123680502Y-97017604D01*
X123501333Y-96963253D01*
X123501331Y-96963252D01*
X123315000Y-96944901D01*
X123128668Y-96963252D01*
X123128666Y-96963253D01*
X122949497Y-97017604D01*
X122784376Y-97105862D01*
X122784373Y-97105864D01*
X122639642Y-97224642D01*
X122520864Y-97369373D01*
X122520862Y-97369376D01*
X122432604Y-97534497D01*
X122378253Y-97713666D01*
X122378252Y-97713668D01*
X122359901Y-97900000D01*
X121730099Y-97900000D01*
X121713392Y-97730374D01*
X121711747Y-97713668D01*
X121711746Y-97713666D01*
X121700569Y-97676821D01*
X121657396Y-97534499D01*
X121622822Y-97469815D01*
X121569137Y-97369376D01*
X121569135Y-97369373D01*
X121450357Y-97224642D01*
X121305626Y-97105864D01*
X121305623Y-97105862D01*
X121141047Y-97017895D01*
X121091203Y-96968933D01*
X121075500Y-96908537D01*
X121075500Y-96190440D01*
X121075500Y-96190438D01*
X121070141Y-96170438D01*
X121055022Y-96114012D01*
X121015460Y-96045489D01*
X119359395Y-94389424D01*
X119325910Y-94328101D01*
X119324339Y-94284094D01*
X119325647Y-94275000D01*
X119305165Y-94132543D01*
X119245377Y-94001627D01*
X119151128Y-93892857D01*
X119030053Y-93815047D01*
X119030051Y-93815046D01*
X119030049Y-93815045D01*
X119030050Y-93815045D01*
X118891963Y-93774500D01*
X118891961Y-93774500D01*
X118748039Y-93774500D01*
X118748036Y-93774500D01*
X118609949Y-93815045D01*
X118488873Y-93892856D01*
X118488872Y-93892856D01*
X118488872Y-93892857D01*
X118476290Y-93907377D01*
X118394623Y-94001626D01*
X118394622Y-94001628D01*
X118334834Y-94132543D01*
X118314353Y-94275000D01*
X114730500Y-94275000D01*
X114730500Y-91472438D01*
X114750185Y-91405399D01*
X114802989Y-91359644D01*
X114872147Y-91349700D01*
X114921541Y-91368124D01*
X114939947Y-91379953D01*
X114939949Y-91379954D01*
X115078036Y-91420499D01*
X115078038Y-91420500D01*
X115078039Y-91420500D01*
X115221962Y-91420500D01*
X115221962Y-91420499D01*
X115360053Y-91379953D01*
X115481128Y-91302143D01*
X115481136Y-91302133D01*
X115482688Y-91300790D01*
X115484572Y-91299929D01*
X115488589Y-91297348D01*
X115488960Y-91297925D01*
X115546243Y-91271763D01*
X115563895Y-91270500D01*
X115666142Y-91270500D01*
X115666144Y-91270500D01*
X115755288Y-91246614D01*
X115835212Y-91200470D01*
X116765681Y-90270000D01*
X120434353Y-90270000D01*
X120454834Y-90412456D01*
X120512104Y-90537857D01*
X120514623Y-90543373D01*
X120608872Y-90652143D01*
X120608875Y-90652144D01*
X120609213Y-90652535D01*
X120638238Y-90716091D01*
X120639500Y-90733738D01*
X120639500Y-92034356D01*
X120619815Y-92101395D01*
X120609215Y-92115557D01*
X120599623Y-92126627D01*
X120599622Y-92126628D01*
X120539834Y-92257543D01*
X120519353Y-92400000D01*
X120539834Y-92542456D01*
X120585921Y-92643371D01*
X120599623Y-92673373D01*
X120693872Y-92782143D01*
X120814947Y-92859953D01*
X120814950Y-92859954D01*
X120814949Y-92859954D01*
X120953036Y-92900499D01*
X120953038Y-92900500D01*
X120953039Y-92900500D01*
X121096962Y-92900500D01*
X121096962Y-92900499D01*
X121235053Y-92859953D01*
X121356128Y-92782143D01*
X121450377Y-92673373D01*
X121510165Y-92542457D01*
X121530647Y-92400000D01*
X121510165Y-92257543D01*
X121450377Y-92126627D01*
X121450375Y-92126625D01*
X121450374Y-92126622D01*
X121356133Y-92017862D01*
X121356130Y-92017859D01*
X121356128Y-92017857D01*
X121297460Y-91980153D01*
X121251705Y-91927349D01*
X121240500Y-91875838D01*
X121240500Y-90733738D01*
X121260185Y-90666699D01*
X121270787Y-90652535D01*
X121271124Y-90652144D01*
X121271128Y-90652143D01*
X121365377Y-90543373D01*
X121421720Y-90420000D01*
X126554353Y-90420000D01*
X126574834Y-90562456D01*
X126634622Y-90693371D01*
X126634623Y-90693373D01*
X126728872Y-90802143D01*
X126728875Y-90802144D01*
X126729213Y-90802535D01*
X126758238Y-90866091D01*
X126759500Y-90883738D01*
X126759500Y-91906260D01*
X126739815Y-91973299D01*
X126729213Y-91987462D01*
X126634625Y-92096622D01*
X126634622Y-92096628D01*
X126574834Y-92227543D01*
X126554353Y-92370000D01*
X126574834Y-92512456D01*
X126610929Y-92591492D01*
X126634623Y-92643373D01*
X126728872Y-92752143D01*
X126849947Y-92829953D01*
X126849950Y-92829954D01*
X126849949Y-92829954D01*
X126988036Y-92870499D01*
X126988038Y-92870500D01*
X126988039Y-92870500D01*
X127131962Y-92870500D01*
X127131962Y-92870499D01*
X127270053Y-92829953D01*
X127391128Y-92752143D01*
X127485377Y-92643373D01*
X127545165Y-92512457D01*
X127552762Y-92459617D01*
X127581787Y-92396063D01*
X127623019Y-92369564D01*
X127594297Y-92356447D01*
X127556523Y-92297669D01*
X127552762Y-92280381D01*
X127545165Y-92227543D01*
X127516204Y-92164128D01*
X127485377Y-92096627D01*
X127485375Y-92096625D01*
X127485374Y-92096622D01*
X127390787Y-91987462D01*
X127361762Y-91923906D01*
X127360500Y-91906260D01*
X127360500Y-90883738D01*
X127380185Y-90816699D01*
X127390787Y-90802535D01*
X127391124Y-90802144D01*
X127391128Y-90802143D01*
X127485377Y-90693373D01*
X127545165Y-90562457D01*
X127552762Y-90509617D01*
X127581787Y-90446063D01*
X127623019Y-90419564D01*
X127594297Y-90406447D01*
X127556523Y-90347669D01*
X127552762Y-90330381D01*
X127545165Y-90277543D01*
X127541720Y-90270000D01*
X127485377Y-90146627D01*
X127391128Y-90037857D01*
X127270053Y-89960047D01*
X127270051Y-89960046D01*
X127270049Y-89960045D01*
X127270050Y-89960045D01*
X127131963Y-89919500D01*
X127131961Y-89919500D01*
X126988039Y-89919500D01*
X126988036Y-89919500D01*
X126849949Y-89960045D01*
X126728873Y-90037856D01*
X126634623Y-90146626D01*
X126634622Y-90146628D01*
X126574834Y-90277543D01*
X126554353Y-90420000D01*
X121421720Y-90420000D01*
X121425165Y-90412457D01*
X121445647Y-90270000D01*
X121425165Y-90127543D01*
X121365377Y-89996627D01*
X121271128Y-89887857D01*
X121150053Y-89810047D01*
X121150051Y-89810046D01*
X121150049Y-89810045D01*
X121150050Y-89810045D01*
X121011963Y-89769500D01*
X121011961Y-89769500D01*
X120868039Y-89769500D01*
X120868036Y-89769500D01*
X120729949Y-89810045D01*
X120608873Y-89887856D01*
X120514623Y-89996626D01*
X120514622Y-89996628D01*
X120454834Y-90127543D01*
X120434353Y-90270000D01*
X116765681Y-90270000D01*
X117738862Y-89296818D01*
X117800185Y-89263334D01*
X117826543Y-89260500D01*
X117851962Y-89260500D01*
X117851962Y-89260499D01*
X117990053Y-89219953D01*
X118111128Y-89142143D01*
X118205377Y-89033373D01*
X118265165Y-88902457D01*
X118285647Y-88760000D01*
X118265165Y-88617543D01*
X118205377Y-88486627D01*
X118111128Y-88377857D01*
X117990053Y-88300047D01*
X117990051Y-88300046D01*
X117990049Y-88300045D01*
X117990050Y-88300045D01*
X117851963Y-88259500D01*
X117851961Y-88259500D01*
X117708039Y-88259500D01*
X117708036Y-88259500D01*
X117569949Y-88300045D01*
X117448873Y-88377856D01*
X117354623Y-88486626D01*
X117354622Y-88486628D01*
X117294834Y-88617543D01*
X117278552Y-88730789D01*
X117249526Y-88794344D01*
X117243495Y-88800822D01*
X115567207Y-90477109D01*
X115505884Y-90510594D01*
X115436192Y-90505610D01*
X115412487Y-90493744D01*
X115360050Y-90460045D01*
X115221963Y-90419500D01*
X115221961Y-90419500D01*
X115078039Y-90419500D01*
X115078036Y-90419500D01*
X114939949Y-90460045D01*
X114939946Y-90460046D01*
X114921538Y-90471877D01*
X114854499Y-90491561D01*
X114787460Y-90471876D01*
X114741705Y-90419071D01*
X114730500Y-90367561D01*
X114730500Y-84560000D01*
X133814353Y-84560000D01*
X133834834Y-84702456D01*
X133876185Y-84793000D01*
X133894623Y-84833373D01*
X133988872Y-84942143D01*
X134109947Y-85019953D01*
X134109950Y-85019954D01*
X134109949Y-85019954D01*
X134248036Y-85060499D01*
X134248038Y-85060500D01*
X134248039Y-85060500D01*
X134391962Y-85060500D01*
X134391962Y-85060499D01*
X134499121Y-85029035D01*
X134530050Y-85019954D01*
X134530050Y-85019953D01*
X134530053Y-85019953D01*
X134651128Y-84942143D01*
X134745377Y-84833373D01*
X134805165Y-84702457D01*
X134825647Y-84560000D01*
X134805165Y-84417543D01*
X134745377Y-84286627D01*
X134651128Y-84177857D01*
X134530053Y-84100047D01*
X134530051Y-84100046D01*
X134530049Y-84100045D01*
X134530050Y-84100045D01*
X134391963Y-84059500D01*
X134391961Y-84059500D01*
X134248039Y-84059500D01*
X134248036Y-84059500D01*
X134109949Y-84100045D01*
X133988873Y-84177856D01*
X133894623Y-84286626D01*
X133894622Y-84286628D01*
X133834834Y-84417543D01*
X133814353Y-84560000D01*
X114730500Y-84560000D01*
X114730500Y-84254411D01*
X114730499Y-84254407D01*
X114723056Y-84226627D01*
X114710022Y-84177983D01*
X114670460Y-84109460D01*
X114426819Y-83865819D01*
X114393334Y-83804496D01*
X114390500Y-83778138D01*
X114390500Y-82454220D01*
X115058573Y-82454220D01*
X115079054Y-82596676D01*
X115106995Y-82657857D01*
X115138843Y-82727593D01*
X115233092Y-82836363D01*
X115354167Y-82914173D01*
X115354170Y-82914174D01*
X115354169Y-82914174D01*
X115492256Y-82954719D01*
X115492258Y-82954720D01*
X115557853Y-82954720D01*
X115624892Y-82974405D01*
X115670647Y-83027209D01*
X115678123Y-83061576D01*
X115680591Y-83061222D01*
X115702334Y-83212456D01*
X115748421Y-83313371D01*
X115762123Y-83343373D01*
X115856372Y-83452143D01*
X115977447Y-83529953D01*
X115977450Y-83529954D01*
X115977449Y-83529954D01*
X116115536Y-83570499D01*
X116115538Y-83570500D01*
X116115539Y-83570500D01*
X116259462Y-83570500D01*
X116259462Y-83570499D01*
X116397553Y-83529953D01*
X116518628Y-83452143D01*
X116534959Y-83433295D01*
X116593738Y-83395522D01*
X116628671Y-83390500D01*
X134676160Y-83390500D01*
X134743199Y-83410185D01*
X134762029Y-83426501D01*
X134762172Y-83426337D01*
X134768868Y-83432138D01*
X134768872Y-83432143D01*
X134889947Y-83509953D01*
X134889950Y-83509954D01*
X134889949Y-83509954D01*
X135028036Y-83550499D01*
X135028038Y-83550500D01*
X135028039Y-83550500D01*
X135171962Y-83550500D01*
X135171962Y-83550499D01*
X135274136Y-83520499D01*
X135310047Y-83509955D01*
X135310048Y-83509954D01*
X135310053Y-83509953D01*
X135310056Y-83509950D01*
X135313985Y-83508157D01*
X135318271Y-83507540D01*
X135318563Y-83507455D01*
X135318575Y-83507496D01*
X135383144Y-83498212D01*
X135446700Y-83527235D01*
X135484476Y-83586012D01*
X135489500Y-83620950D01*
X135489500Y-83975054D01*
X135469815Y-84042093D01*
X135417011Y-84087848D01*
X135400438Y-84094030D01*
X135379948Y-84100046D01*
X135379946Y-84100047D01*
X135258873Y-84177856D01*
X135164623Y-84286626D01*
X135164622Y-84286628D01*
X135104834Y-84417543D01*
X135084353Y-84560000D01*
X135104834Y-84702456D01*
X135146185Y-84793000D01*
X135164623Y-84833373D01*
X135258872Y-84942143D01*
X135258875Y-84942144D01*
X135259213Y-84942535D01*
X135288238Y-85006091D01*
X135289500Y-85023738D01*
X135289500Y-96034166D01*
X135269815Y-96101205D01*
X135253181Y-96121847D01*
X133811847Y-97563181D01*
X133750524Y-97596666D01*
X133724166Y-97599500D01*
X133628036Y-97599500D01*
X133489949Y-97640045D01*
X133368873Y-97717856D01*
X133274623Y-97826626D01*
X133274622Y-97826628D01*
X133214834Y-97957543D01*
X133194353Y-98100000D01*
X133214834Y-98242456D01*
X133274061Y-98372143D01*
X133274623Y-98373373D01*
X133368872Y-98482143D01*
X133489947Y-98559953D01*
X133489950Y-98559954D01*
X133489949Y-98559954D01*
X133628036Y-98600499D01*
X133628038Y-98600500D01*
X133628039Y-98600500D01*
X133771962Y-98600500D01*
X133771962Y-98600499D01*
X133910053Y-98559953D01*
X134031128Y-98482143D01*
X134125377Y-98373373D01*
X134185165Y-98242457D01*
X134205647Y-98100000D01*
X134204339Y-98090905D01*
X134214279Y-98021749D01*
X134239392Y-97985577D01*
X135830460Y-96394511D01*
X135870022Y-96325988D01*
X135890500Y-96249562D01*
X135890500Y-96170438D01*
X135890500Y-85023738D01*
X135910185Y-84956699D01*
X135920787Y-84942535D01*
X135921124Y-84942144D01*
X135921128Y-84942143D01*
X136015377Y-84833373D01*
X136075165Y-84702457D01*
X136095647Y-84560000D01*
X136082456Y-84468258D01*
X136085419Y-84418521D01*
X136090500Y-84399562D01*
X136090500Y-84320438D01*
X136090500Y-79990438D01*
X136080187Y-79951950D01*
X136070022Y-79914012D01*
X136030460Y-79845489D01*
X131779398Y-75594427D01*
X131779395Y-75594425D01*
X131779392Y-75594423D01*
X131763594Y-75585302D01*
X131763593Y-75585302D01*
X131710881Y-75554868D01*
X131710878Y-75554866D01*
X131672662Y-75544626D01*
X131634449Y-75534387D01*
X131634447Y-75534387D01*
X123522064Y-75534387D01*
X123455025Y-75514702D01*
X123409270Y-75461898D01*
X123399326Y-75392740D01*
X123428350Y-75329186D01*
X123428352Y-75329184D01*
X123476779Y-75273297D01*
X123535557Y-75235523D01*
X123570491Y-75230500D01*
X132154167Y-75230500D01*
X132221206Y-75250185D01*
X132241848Y-75266819D01*
X140333181Y-83358152D01*
X140366666Y-83419475D01*
X140369500Y-83445833D01*
X140369500Y-84096260D01*
X140349815Y-84163299D01*
X140339213Y-84177462D01*
X140244625Y-84286622D01*
X140244622Y-84286628D01*
X140184834Y-84417543D01*
X140164353Y-84560000D01*
X140184834Y-84702456D01*
X140226185Y-84793000D01*
X140244623Y-84833373D01*
X140338872Y-84942143D01*
X140459947Y-85019953D01*
X140459950Y-85019954D01*
X140459949Y-85019954D01*
X140598036Y-85060499D01*
X140598038Y-85060500D01*
X140598039Y-85060500D01*
X140741962Y-85060500D01*
X140741962Y-85060499D01*
X140849121Y-85029035D01*
X140880050Y-85019954D01*
X140880050Y-85019953D01*
X140880053Y-85019953D01*
X141001128Y-84942143D01*
X141095377Y-84833373D01*
X141155165Y-84702457D01*
X141175647Y-84560000D01*
X141155165Y-84417543D01*
X141095377Y-84286627D01*
X141095375Y-84286625D01*
X141095374Y-84286622D01*
X141000787Y-84177462D01*
X140971762Y-84113906D01*
X140970500Y-84096260D01*
X140970500Y-83230439D01*
X140965682Y-83212457D01*
X140950021Y-83154011D01*
X140950017Y-83154004D01*
X140910464Y-83085495D01*
X140910458Y-83085487D01*
X132727152Y-74902181D01*
X132693667Y-74840858D01*
X132698651Y-74771166D01*
X132740523Y-74715233D01*
X132805987Y-74690816D01*
X132814833Y-74690500D01*
X133352696Y-74690500D01*
X133419735Y-74710185D01*
X133440377Y-74726819D01*
X141603181Y-82889623D01*
X141636666Y-82950946D01*
X141639500Y-82977304D01*
X141639500Y-84096260D01*
X141619815Y-84163299D01*
X141609213Y-84177462D01*
X141514625Y-84286622D01*
X141514622Y-84286628D01*
X141454834Y-84417543D01*
X141434353Y-84560000D01*
X141454834Y-84702456D01*
X141496185Y-84793000D01*
X141514623Y-84833373D01*
X141608872Y-84942143D01*
X141729947Y-85019953D01*
X141729950Y-85019954D01*
X141729949Y-85019954D01*
X141868036Y-85060499D01*
X141868038Y-85060500D01*
X141868039Y-85060500D01*
X142011962Y-85060500D01*
X142011962Y-85060499D01*
X142119121Y-85029035D01*
X142150050Y-85019954D01*
X142150050Y-85019953D01*
X142150053Y-85019953D01*
X142271128Y-84942143D01*
X142365377Y-84833373D01*
X142425165Y-84702457D01*
X142445647Y-84560000D01*
X142425165Y-84417543D01*
X142365377Y-84286627D01*
X142365375Y-84286625D01*
X142365374Y-84286622D01*
X142270787Y-84177462D01*
X142241762Y-84113906D01*
X142240500Y-84096260D01*
X142240500Y-83020000D01*
X143204353Y-83020000D01*
X143224834Y-83162456D01*
X143284622Y-83293371D01*
X143284623Y-83293373D01*
X143378872Y-83402143D01*
X143499947Y-83479953D01*
X143499950Y-83479954D01*
X143499949Y-83479954D01*
X143638036Y-83520499D01*
X143638038Y-83520500D01*
X143638039Y-83520500D01*
X143781962Y-83520500D01*
X143781962Y-83520499D01*
X143920053Y-83479953D01*
X144041128Y-83402143D01*
X144051806Y-83389818D01*
X144066124Y-83373297D01*
X144124902Y-83335523D01*
X144159836Y-83330500D01*
X146092834Y-83330500D01*
X146159873Y-83350185D01*
X146186547Y-83373298D01*
X146228869Y-83422141D01*
X146228871Y-83422142D01*
X146228872Y-83422143D01*
X146349947Y-83499953D01*
X146349950Y-83499954D01*
X146349949Y-83499954D01*
X146488036Y-83540499D01*
X146488038Y-83540500D01*
X146488039Y-83540500D01*
X146631962Y-83540500D01*
X146631962Y-83540499D01*
X146770053Y-83499953D01*
X146891128Y-83422143D01*
X146985377Y-83313373D01*
X147045165Y-83182457D01*
X147065647Y-83040000D01*
X147045165Y-82897543D01*
X146985377Y-82766627D01*
X146891128Y-82657857D01*
X146785540Y-82590000D01*
X148974353Y-82590000D01*
X148994834Y-82732456D01*
X149015007Y-82776627D01*
X149054623Y-82863373D01*
X149099213Y-82914833D01*
X149128238Y-82978388D01*
X149129500Y-82996035D01*
X149129500Y-92369309D01*
X149129685Y-92370000D01*
X149153712Y-92459672D01*
X149160200Y-92483885D01*
X149160200Y-92483886D01*
X149160201Y-92483887D01*
X149219511Y-92586614D01*
X149219513Y-92586616D01*
X151306201Y-94673304D01*
X151339686Y-94734627D01*
X151342520Y-94760985D01*
X151342520Y-96710183D01*
X151331314Y-96761694D01*
X151307855Y-96813061D01*
X151307854Y-96813062D01*
X151287373Y-96955520D01*
X151307854Y-97097976D01*
X151359840Y-97211807D01*
X151367643Y-97228893D01*
X151461892Y-97337663D01*
X151582967Y-97415473D01*
X151582970Y-97415474D01*
X151582969Y-97415474D01*
X151721056Y-97456019D01*
X151721058Y-97456020D01*
X151721059Y-97456020D01*
X151864982Y-97456020D01*
X151864982Y-97456019D01*
X151972141Y-97424555D01*
X152003070Y-97415474D01*
X152003070Y-97415473D01*
X152003073Y-97415473D01*
X152124148Y-97337663D01*
X152218397Y-97228893D01*
X152278185Y-97097977D01*
X152298667Y-96955520D01*
X152278185Y-96813063D01*
X152270317Y-96795834D01*
X152254726Y-96761694D01*
X152243520Y-96710183D01*
X152243520Y-94463713D01*
X152243520Y-94463711D01*
X152212819Y-94349134D01*
X152212819Y-94349133D01*
X152153509Y-94246406D01*
X150066819Y-92159716D01*
X150033334Y-92098393D01*
X150030500Y-92072035D01*
X150030500Y-82630693D01*
X150030500Y-82630691D01*
X149999799Y-82516114D01*
X149977703Y-82477844D01*
X149966113Y-82450773D01*
X149965165Y-82447548D01*
X149965165Y-82447543D01*
X149905377Y-82316627D01*
X149811128Y-82207857D01*
X149690053Y-82130047D01*
X149690051Y-82130046D01*
X149690049Y-82130045D01*
X149690050Y-82130045D01*
X149551963Y-82089500D01*
X149551961Y-82089500D01*
X149408039Y-82089500D01*
X149408036Y-82089500D01*
X149269949Y-82130045D01*
X149148873Y-82207856D01*
X149054623Y-82316626D01*
X149054622Y-82316628D01*
X148994834Y-82447543D01*
X148974353Y-82590000D01*
X146785540Y-82590000D01*
X146770053Y-82580047D01*
X146770051Y-82580046D01*
X146770049Y-82580045D01*
X146770050Y-82580045D01*
X146631963Y-82539500D01*
X146631961Y-82539500D01*
X146488039Y-82539500D01*
X146488036Y-82539500D01*
X146349949Y-82580045D01*
X146228872Y-82657857D01*
X146228869Y-82657859D01*
X146203876Y-82686703D01*
X146145098Y-82724477D01*
X146110164Y-82729500D01*
X144177166Y-82729500D01*
X144110127Y-82709815D01*
X144083453Y-82686702D01*
X144041130Y-82637858D01*
X144000769Y-82611920D01*
X143920053Y-82560047D01*
X143920051Y-82560046D01*
X143920049Y-82560045D01*
X143920050Y-82560045D01*
X143781963Y-82519500D01*
X143781961Y-82519500D01*
X143638039Y-82519500D01*
X143638036Y-82519500D01*
X143499949Y-82560045D01*
X143378873Y-82637856D01*
X143284623Y-82746626D01*
X143284622Y-82746628D01*
X143224834Y-82877543D01*
X143204353Y-83020000D01*
X142240500Y-83020000D01*
X142240500Y-82761910D01*
X142232608Y-82732456D01*
X142220021Y-82685482D01*
X142204071Y-82657856D01*
X142180464Y-82616966D01*
X142180458Y-82616958D01*
X133713041Y-74149541D01*
X133713040Y-74149540D01*
X133693644Y-74138342D01*
X133693644Y-74138340D01*
X133693641Y-74138340D01*
X133644523Y-74109981D01*
X133644520Y-74109979D01*
X133606304Y-74099739D01*
X133568091Y-74089500D01*
X133568089Y-74089500D01*
X122287166Y-74089500D01*
X122220127Y-74069815D01*
X122193453Y-74046702D01*
X122151130Y-73997858D01*
X122110769Y-73971920D01*
X122030053Y-73920047D01*
X122030051Y-73920046D01*
X122030049Y-73920045D01*
X122030050Y-73920045D01*
X121891963Y-73879500D01*
X121891961Y-73879500D01*
X121748039Y-73879500D01*
X121748036Y-73879500D01*
X121609949Y-73920045D01*
X121488873Y-73997856D01*
X121394623Y-74106626D01*
X121394622Y-74106628D01*
X121334834Y-74237543D01*
X121314353Y-74380000D01*
X121334834Y-74522456D01*
X121357290Y-74571626D01*
X121394623Y-74653373D01*
X121488872Y-74762143D01*
X121609947Y-74839953D01*
X121609950Y-74839954D01*
X121609949Y-74839954D01*
X121748036Y-74880499D01*
X121748038Y-74880500D01*
X121748039Y-74880500D01*
X121891962Y-74880500D01*
X121891962Y-74880499D01*
X122030053Y-74839953D01*
X122151128Y-74762143D01*
X122164407Y-74746818D01*
X122176124Y-74733297D01*
X122234902Y-74695523D01*
X122269836Y-74690500D01*
X122455302Y-74690500D01*
X122522341Y-74710185D01*
X122568096Y-74762989D01*
X122578040Y-74832147D01*
X122575116Y-74845587D01*
X122554353Y-74990000D01*
X122574834Y-75132456D01*
X122619610Y-75230500D01*
X122634623Y-75263373D01*
X122691649Y-75329186D01*
X122720674Y-75392740D01*
X122710730Y-75461898D01*
X122664976Y-75514702D01*
X122597936Y-75534387D01*
X122544279Y-75534387D01*
X122477240Y-75514702D01*
X122431485Y-75461898D01*
X122415377Y-75426627D01*
X122321128Y-75317857D01*
X122200053Y-75240047D01*
X122200051Y-75240046D01*
X122200049Y-75240045D01*
X122200050Y-75240045D01*
X122061963Y-75199500D01*
X122061961Y-75199500D01*
X121918039Y-75199500D01*
X121918036Y-75199500D01*
X121779949Y-75240045D01*
X121658873Y-75317856D01*
X121564623Y-75426626D01*
X121564622Y-75426628D01*
X121504834Y-75557543D01*
X121484353Y-75700000D01*
X121504834Y-75842456D01*
X121558744Y-75960500D01*
X121564623Y-75973373D01*
X121658872Y-76082143D01*
X121779947Y-76159953D01*
X121779950Y-76159954D01*
X121779949Y-76159954D01*
X121918036Y-76200499D01*
X121918038Y-76200500D01*
X121918039Y-76200500D01*
X122061962Y-76200500D01*
X122070740Y-76199238D01*
X122070975Y-76200878D01*
X122130534Y-76200870D01*
X122189318Y-76238636D01*
X122218351Y-76302188D01*
X122218354Y-76337497D01*
X122204353Y-76434884D01*
X122204353Y-76434886D01*
X122224834Y-76577343D01*
X122235925Y-76601628D01*
X122284623Y-76708260D01*
X122378872Y-76817030D01*
X122499947Y-76894840D01*
X122499950Y-76894841D01*
X122499949Y-76894841D01*
X122638036Y-76935386D01*
X122638038Y-76935387D01*
X122638039Y-76935387D01*
X122781962Y-76935387D01*
X122781962Y-76935386D01*
X122920053Y-76894840D01*
X123041128Y-76817030D01*
X123074788Y-76778183D01*
X123133567Y-76740410D01*
X123168501Y-76735387D01*
X128029054Y-76735387D01*
X128096093Y-76755072D01*
X128116735Y-76771706D01*
X131835489Y-80490460D01*
X131904012Y-80530022D01*
X131980438Y-80550500D01*
X132611499Y-80550500D01*
X132678538Y-80570185D01*
X132705211Y-80593296D01*
X132738872Y-80632143D01*
X132859947Y-80709953D01*
X132859950Y-80709954D01*
X132859949Y-80709954D01*
X132998036Y-80750499D01*
X132998038Y-80750500D01*
X132998039Y-80750500D01*
X133141962Y-80750500D01*
X133141962Y-80750499D01*
X133280053Y-80709953D01*
X133401128Y-80632143D01*
X133495377Y-80523373D01*
X133555165Y-80392457D01*
X133575647Y-80250000D01*
X133555165Y-80107543D01*
X133495377Y-79976627D01*
X133401128Y-79867857D01*
X133280053Y-79790047D01*
X133280051Y-79790046D01*
X133280049Y-79790045D01*
X133280050Y-79790045D01*
X133141963Y-79749500D01*
X133141961Y-79749500D01*
X132998039Y-79749500D01*
X132998036Y-79749500D01*
X132859949Y-79790045D01*
X132738873Y-79867856D01*
X132705212Y-79906703D01*
X132646433Y-79944477D01*
X132611499Y-79949500D01*
X132195833Y-79949500D01*
X132128794Y-79929815D01*
X132108152Y-79913181D01*
X128542039Y-76347068D01*
X128508554Y-76285745D01*
X128513538Y-76216053D01*
X128555410Y-76160120D01*
X128620874Y-76135703D01*
X128629720Y-76135387D01*
X131419054Y-76135387D01*
X131486093Y-76155072D01*
X131506735Y-76171706D01*
X135453181Y-80118152D01*
X135486666Y-80179475D01*
X135489500Y-80205833D01*
X135489500Y-81780496D01*
X135469815Y-81847535D01*
X135417011Y-81893290D01*
X135347853Y-81903234D01*
X135284297Y-81874209D01*
X135271788Y-81861700D01*
X135251127Y-81837856D01*
X135161872Y-81780496D01*
X135130053Y-81760047D01*
X135130051Y-81760046D01*
X135130049Y-81760045D01*
X135130050Y-81760045D01*
X134991963Y-81719500D01*
X134991961Y-81719500D01*
X134848039Y-81719500D01*
X134848036Y-81719500D01*
X134709949Y-81760045D01*
X134588873Y-81837856D01*
X134494623Y-81946626D01*
X134494620Y-81946630D01*
X134434835Y-82077542D01*
X134433985Y-82080438D01*
X134432354Y-82082975D01*
X134431151Y-82085610D01*
X134430772Y-82085436D01*
X134396209Y-82139215D01*
X134332652Y-82168238D01*
X134315009Y-82169500D01*
X132016423Y-82169500D01*
X131949384Y-82149815D01*
X131903629Y-82097011D01*
X131893685Y-82027853D01*
X131912107Y-81978461D01*
X131915372Y-81973378D01*
X131915377Y-81973373D01*
X131975165Y-81842457D01*
X131995647Y-81700000D01*
X131975165Y-81557543D01*
X131915377Y-81426627D01*
X131821128Y-81317857D01*
X131700053Y-81240047D01*
X131700051Y-81240046D01*
X131700049Y-81240045D01*
X131700050Y-81240045D01*
X131561963Y-81199500D01*
X131561961Y-81199500D01*
X131465833Y-81199500D01*
X131398794Y-81179815D01*
X131378152Y-81163181D01*
X130254512Y-80039541D01*
X130254504Y-80039535D01*
X130185995Y-79999982D01*
X130185990Y-79999979D01*
X130160513Y-79993152D01*
X130109562Y-79979500D01*
X130109560Y-79979500D01*
X121578501Y-79979500D01*
X121511462Y-79959815D01*
X121484788Y-79936703D01*
X121451128Y-79897857D01*
X121330053Y-79820047D01*
X121330051Y-79820046D01*
X121330049Y-79820045D01*
X121330050Y-79820045D01*
X121191963Y-79779500D01*
X121191961Y-79779500D01*
X121048039Y-79779500D01*
X121048036Y-79779500D01*
X120909949Y-79820045D01*
X120788873Y-79897856D01*
X120694623Y-80006626D01*
X120694622Y-80006628D01*
X120634834Y-80137543D01*
X120614353Y-80280000D01*
X120634834Y-80422456D01*
X120665890Y-80490457D01*
X120694623Y-80553373D01*
X120788872Y-80662143D01*
X120909947Y-80739953D01*
X120909950Y-80739954D01*
X120909949Y-80739954D01*
X121048036Y-80780499D01*
X121048038Y-80780500D01*
X121048039Y-80780500D01*
X121191962Y-80780500D01*
X121191962Y-80780499D01*
X121330053Y-80739953D01*
X121451128Y-80662143D01*
X121484788Y-80623296D01*
X121543567Y-80585523D01*
X121578501Y-80580500D01*
X129894167Y-80580500D01*
X129961206Y-80600185D01*
X129981848Y-80616819D01*
X130950604Y-81585575D01*
X130984089Y-81646898D01*
X130985661Y-81690902D01*
X130984353Y-81699999D01*
X131004834Y-81842456D01*
X131064622Y-81973371D01*
X131067893Y-81978461D01*
X131087577Y-82045501D01*
X131067892Y-82112540D01*
X131015088Y-82158295D01*
X130963577Y-82169500D01*
X116036394Y-82169500D01*
X115969355Y-82149815D01*
X115942681Y-82126703D01*
X115930409Y-82112540D01*
X115895348Y-82072077D01*
X115774273Y-81994267D01*
X115774271Y-81994266D01*
X115774269Y-81994265D01*
X115774270Y-81994265D01*
X115636183Y-81953720D01*
X115636181Y-81953720D01*
X115492259Y-81953720D01*
X115492256Y-81953720D01*
X115354169Y-81994265D01*
X115233093Y-82072076D01*
X115138843Y-82180846D01*
X115138842Y-82180848D01*
X115079054Y-82311763D01*
X115058573Y-82454220D01*
X114390500Y-82454220D01*
X114390500Y-79252175D01*
X114410185Y-79185136D01*
X114447460Y-79147860D01*
X114541046Y-79087717D01*
X114635295Y-78978947D01*
X114695083Y-78848031D01*
X114715565Y-78705574D01*
X114695083Y-78563117D01*
X114635295Y-78432201D01*
X114541046Y-78323431D01*
X114419971Y-78245621D01*
X114419969Y-78245620D01*
X114419967Y-78245619D01*
X114419968Y-78245619D01*
X114281881Y-78205074D01*
X114281879Y-78205074D01*
X114137957Y-78205074D01*
X114137954Y-78205074D01*
X113999867Y-78245619D01*
X113878791Y-78323430D01*
X113784541Y-78432200D01*
X113784540Y-78432202D01*
X113724752Y-78563117D01*
X113704271Y-78705574D01*
X113724752Y-78848030D01*
X113778294Y-78965268D01*
X113789500Y-79016780D01*
X113789500Y-83875500D01*
X113769815Y-83942539D01*
X113717011Y-83988294D01*
X113665500Y-83999500D01*
X113643333Y-83999500D01*
X113576294Y-83979815D01*
X113555652Y-83963181D01*
X113266819Y-83674348D01*
X113233334Y-83613025D01*
X113230500Y-83586667D01*
X113230500Y-79660105D01*
X113250185Y-79593066D01*
X113260778Y-79578913D01*
X113352229Y-79473373D01*
X113412017Y-79342457D01*
X113432499Y-79200000D01*
X113412017Y-79057543D01*
X113352229Y-78926627D01*
X113257980Y-78817857D01*
X113136905Y-78740047D01*
X113136903Y-78740046D01*
X113136901Y-78740045D01*
X113136902Y-78740045D01*
X112998815Y-78699500D01*
X112998813Y-78699500D01*
X112854891Y-78699500D01*
X112854888Y-78699500D01*
X112716801Y-78740045D01*
X112595725Y-78817856D01*
X112501475Y-78926626D01*
X112501474Y-78926628D01*
X112441686Y-79057543D01*
X112421205Y-79200000D01*
X108230500Y-79200000D01*
X108230500Y-78693738D01*
X108250185Y-78626699D01*
X108260787Y-78612535D01*
X108261124Y-78612144D01*
X108261128Y-78612143D01*
X108355377Y-78503373D01*
X108415165Y-78372457D01*
X108435647Y-78230000D01*
X108415165Y-78087543D01*
X108355377Y-77956627D01*
X108261128Y-77847857D01*
X108140053Y-77770047D01*
X108140051Y-77770046D01*
X108140049Y-77770045D01*
X108140050Y-77770045D01*
X108001963Y-77729500D01*
X108001961Y-77729500D01*
X107858039Y-77729500D01*
X107858035Y-77729500D01*
X107789434Y-77749643D01*
X107719564Y-77749643D01*
X107660786Y-77711868D01*
X107631762Y-77648312D01*
X107630500Y-77630666D01*
X107630500Y-77608332D01*
X107650185Y-77541293D01*
X107666815Y-77520655D01*
X107775651Y-77411818D01*
X107836974Y-77378334D01*
X107863332Y-77375500D01*
X107959462Y-77375500D01*
X107959462Y-77375499D01*
X108066621Y-77344035D01*
X108097550Y-77334954D01*
X108097550Y-77334953D01*
X108097553Y-77334953D01*
X108218628Y-77257143D01*
X108312877Y-77148373D01*
X108372665Y-77017457D01*
X108393147Y-76875000D01*
X108372665Y-76732543D01*
X108312877Y-76601627D01*
X108218628Y-76492857D01*
X108097553Y-76415047D01*
X108097551Y-76415046D01*
X108097549Y-76415045D01*
X108097550Y-76415045D01*
X107959463Y-76374500D01*
X107959461Y-76374500D01*
X107815539Y-76374500D01*
X107815538Y-76374500D01*
X107782558Y-76384183D01*
X107712689Y-76384181D01*
X107653911Y-76346406D01*
X107624888Y-76282849D01*
X107634833Y-76213691D01*
X107659939Y-76177530D01*
X107775653Y-76061816D01*
X107836974Y-76028334D01*
X107863332Y-76025500D01*
X107959462Y-76025500D01*
X107959462Y-76025499D01*
X108097553Y-75984953D01*
X108218628Y-75907143D01*
X108312877Y-75798373D01*
X108372665Y-75667457D01*
X108393147Y-75525000D01*
X108372665Y-75382543D01*
X108312877Y-75251627D01*
X108218628Y-75142857D01*
X108097553Y-75065047D01*
X108097551Y-75065046D01*
X108097549Y-75065045D01*
X108097550Y-75065045D01*
X107959463Y-75024500D01*
X107959461Y-75024500D01*
X107815539Y-75024500D01*
X107722393Y-75051849D01*
X107652524Y-75051848D01*
X107593746Y-75014073D01*
X107564722Y-74950517D01*
X107574666Y-74881358D01*
X107599774Y-74845195D01*
X107698153Y-74746816D01*
X107759475Y-74713334D01*
X107785832Y-74710500D01*
X107881962Y-74710500D01*
X107881962Y-74710499D01*
X108020053Y-74669953D01*
X108141128Y-74592143D01*
X108235377Y-74483373D01*
X108295165Y-74352457D01*
X108315647Y-74210000D01*
X108295165Y-74067543D01*
X108235377Y-73936627D01*
X108141128Y-73827857D01*
X108020053Y-73750047D01*
X108020051Y-73750046D01*
X108020049Y-73750045D01*
X108020050Y-73750045D01*
X107881963Y-73709500D01*
X107881961Y-73709500D01*
X107738039Y-73709500D01*
X107738036Y-73709500D01*
X107599949Y-73750045D01*
X107478873Y-73827856D01*
X107384623Y-73936626D01*
X107384622Y-73936628D01*
X107324834Y-74067543D01*
X107304353Y-74210000D01*
X107304353Y-74210001D01*
X107305661Y-74219103D01*
X107295713Y-74288261D01*
X107270603Y-74324424D01*
X106145489Y-75449540D01*
X106089541Y-75505487D01*
X106089535Y-75505495D01*
X106049982Y-75574004D01*
X106049979Y-75574009D01*
X106042357Y-75602456D01*
X106029500Y-75650438D01*
X106029500Y-93128091D01*
X106036136Y-93152856D01*
X106049979Y-93204519D01*
X106049980Y-93204520D01*
X106067289Y-93234500D01*
X106089539Y-93273038D01*
X106089541Y-93273041D01*
X106859531Y-94043031D01*
X106893016Y-94104354D01*
X106894332Y-94141132D01*
X106894353Y-94141132D01*
X106894353Y-94141722D01*
X106894590Y-94148346D01*
X106894353Y-94149995D01*
X106894353Y-94149999D01*
X106914834Y-94292456D01*
X106971921Y-94417456D01*
X106974623Y-94423373D01*
X107068872Y-94532143D01*
X107189947Y-94609953D01*
X107189950Y-94609954D01*
X107189949Y-94609954D01*
X107267366Y-94632685D01*
X107308098Y-94644645D01*
X107328036Y-94650499D01*
X107328038Y-94650500D01*
X107328039Y-94650500D01*
X107471962Y-94650500D01*
X107471962Y-94650499D01*
X107610053Y-94609953D01*
X107731128Y-94532143D01*
X107825377Y-94423373D01*
X107885165Y-94292457D01*
X107905647Y-94150000D01*
X107885165Y-94007543D01*
X107825377Y-93876627D01*
X107731128Y-93767857D01*
X107610053Y-93690047D01*
X107610051Y-93690046D01*
X107610049Y-93690045D01*
X107610050Y-93690045D01*
X107471963Y-93649500D01*
X107471961Y-93649500D01*
X107367304Y-93649500D01*
X107300265Y-93629815D01*
X107279623Y-93613181D01*
X106666819Y-93000377D01*
X106633334Y-92939054D01*
X106630500Y-92912696D01*
X106630500Y-92234833D01*
X106650185Y-92167794D01*
X106702989Y-92122039D01*
X106772147Y-92112095D01*
X106835703Y-92141120D01*
X106842181Y-92147152D01*
X108020604Y-93325575D01*
X108054089Y-93386898D01*
X108055661Y-93430902D01*
X108054353Y-93439999D01*
X108074834Y-93582456D01*
X108123969Y-93690045D01*
X108134623Y-93713373D01*
X108228872Y-93822143D01*
X108349947Y-93899953D01*
X108349950Y-93899954D01*
X108349949Y-93899954D01*
X108408491Y-93917143D01*
X108472328Y-93935887D01*
X108488036Y-93940499D01*
X108488038Y-93940500D01*
X108488039Y-93940500D01*
X108631962Y-93940500D01*
X108631962Y-93940499D01*
X108770053Y-93899953D01*
X108891128Y-93822143D01*
X108985377Y-93713373D01*
X109045165Y-93582457D01*
X109065647Y-93440000D01*
X109045165Y-93297543D01*
X108985377Y-93166627D01*
X108891128Y-93057857D01*
X108770053Y-92980047D01*
X108770051Y-92980046D01*
X108770049Y-92980045D01*
X108770050Y-92980045D01*
X108631963Y-92939500D01*
X108631961Y-92939500D01*
X108535833Y-92939500D01*
X108468794Y-92919815D01*
X108448152Y-92903181D01*
X107166819Y-91621848D01*
X107133334Y-91560525D01*
X107130500Y-91534167D01*
X107130500Y-89113363D01*
X107150185Y-89046324D01*
X107202989Y-89000569D01*
X107272147Y-88990625D01*
X107335703Y-89019650D01*
X107342181Y-89025682D01*
X107901339Y-89584840D01*
X107934824Y-89646163D01*
X107936396Y-89690167D01*
X107935088Y-89699264D01*
X107955569Y-89841721D01*
X107997712Y-89934000D01*
X108015358Y-89972638D01*
X108109607Y-90081408D01*
X108230682Y-90159218D01*
X108230685Y-90159219D01*
X108230684Y-90159219D01*
X108368771Y-90199764D01*
X108368773Y-90199765D01*
X108368774Y-90199765D01*
X108512697Y-90199765D01*
X108512697Y-90199764D01*
X108650788Y-90159218D01*
X108771863Y-90081408D01*
X108866112Y-89972638D01*
X108877056Y-89948673D01*
X108922807Y-89895870D01*
X108989845Y-89876183D01*
X109056886Y-89895865D01*
X109077531Y-89912502D01*
X109280604Y-90115575D01*
X109314089Y-90176898D01*
X109315661Y-90220902D01*
X109314353Y-90229999D01*
X109334834Y-90372456D01*
X109394622Y-90503371D01*
X109394623Y-90503373D01*
X109488872Y-90612143D01*
X109609947Y-90689953D01*
X109609950Y-90689954D01*
X109609949Y-90689954D01*
X109748036Y-90730499D01*
X109748038Y-90730500D01*
X109748039Y-90730500D01*
X109891962Y-90730500D01*
X109891962Y-90730499D01*
X109999121Y-90699035D01*
X110030050Y-90689954D01*
X110030050Y-90689953D01*
X110030053Y-90689953D01*
X110151128Y-90612143D01*
X110245377Y-90503373D01*
X110305165Y-90372457D01*
X110325647Y-90230000D01*
X110305165Y-90087543D01*
X110245377Y-89956627D01*
X110151128Y-89847857D01*
X110030053Y-89770047D01*
X110030051Y-89770046D01*
X110030049Y-89770045D01*
X110030050Y-89770045D01*
X109891963Y-89729500D01*
X109891961Y-89729500D01*
X109795833Y-89729500D01*
X109728794Y-89709815D01*
X109708152Y-89693181D01*
X108266819Y-88251848D01*
X108233334Y-88190525D01*
X108230500Y-88164167D01*
X108230500Y-85041833D01*
X108250185Y-84974794D01*
X108302989Y-84929039D01*
X108372147Y-84919095D01*
X108389431Y-84922855D01*
X108436263Y-84936606D01*
X108489009Y-84967902D01*
X109191587Y-85670480D01*
X109282912Y-85723207D01*
X109384773Y-85750500D01*
X109490227Y-85750500D01*
X110762745Y-85750500D01*
X110829784Y-85770185D01*
X110850426Y-85786819D01*
X111395369Y-86331762D01*
X111428854Y-86393085D01*
X111430426Y-86401795D01*
X111434835Y-86432457D01*
X111494623Y-86563373D01*
X111494627Y-86563378D01*
X111499418Y-86570833D01*
X111496364Y-86572795D01*
X111518235Y-86620663D01*
X111519500Y-86638332D01*
X111519500Y-87957045D01*
X111499815Y-88024084D01*
X111489214Y-88038247D01*
X111464623Y-88066626D01*
X111464622Y-88066628D01*
X111404834Y-88197543D01*
X111384353Y-88340000D01*
X111404834Y-88482456D01*
X111422515Y-88521170D01*
X111464623Y-88613373D01*
X111489212Y-88641751D01*
X111518238Y-88705304D01*
X111519500Y-88722953D01*
X111519500Y-91787745D01*
X111499815Y-91854784D01*
X111483180Y-91875427D01*
X111446508Y-91912098D01*
X111393763Y-91943393D01*
X111277449Y-91977545D01*
X111156373Y-92055356D01*
X111156372Y-92055356D01*
X111156372Y-92055357D01*
X111143790Y-92069877D01*
X111062123Y-92164126D01*
X111062122Y-92164128D01*
X111002334Y-92295043D01*
X110981853Y-92437500D01*
X111002334Y-92579956D01*
X111031296Y-92643373D01*
X111062123Y-92710873D01*
X111156372Y-92819643D01*
X111277447Y-92897453D01*
X111277450Y-92897454D01*
X111277449Y-92897454D01*
X111415536Y-92937999D01*
X111415538Y-92938000D01*
X111415539Y-92938000D01*
X111559462Y-92938000D01*
X111559462Y-92937999D01*
X111697553Y-92897453D01*
X111818628Y-92819643D01*
X111912877Y-92710873D01*
X111972665Y-92579957D01*
X111977073Y-92549295D01*
X112006094Y-92485744D01*
X112012100Y-92479291D01*
X112127822Y-92363570D01*
X112189142Y-92330088D01*
X112258834Y-92335072D01*
X112314767Y-92376944D01*
X112339184Y-92442408D01*
X112339500Y-92451254D01*
X112339500Y-92863456D01*
X112319815Y-92930495D01*
X112303181Y-92951137D01*
X111528637Y-93725681D01*
X111467314Y-93759166D01*
X111440956Y-93762000D01*
X111415536Y-93762000D01*
X111277449Y-93802545D01*
X111156376Y-93880354D01*
X111156374Y-93880355D01*
X111156372Y-93880357D01*
X111156370Y-93880358D01*
X111154812Y-93881710D01*
X111152927Y-93882570D01*
X111148911Y-93885152D01*
X111148539Y-93884574D01*
X111091257Y-93910737D01*
X111073605Y-93912000D01*
X109591356Y-93912000D01*
X109502212Y-93935886D01*
X109502209Y-93935887D01*
X109422291Y-93982027D01*
X109422286Y-93982031D01*
X106743952Y-96660364D01*
X106682629Y-96693849D01*
X106620277Y-96691344D01*
X106488682Y-96651426D01*
X106488683Y-96651426D01*
X106300000Y-96632843D01*
X106111318Y-96651426D01*
X106004194Y-96683921D01*
X105929885Y-96706463D01*
X105929882Y-96706464D01*
X105929880Y-96706465D01*
X105929877Y-96706466D01*
X105762681Y-96795834D01*
X105762674Y-96795838D01*
X105616116Y-96916116D01*
X105495838Y-97062674D01*
X105495834Y-97062681D01*
X105406466Y-97229877D01*
X105406465Y-97229880D01*
X105406464Y-97229882D01*
X105406463Y-97229885D01*
X105396811Y-97261704D01*
X105351426Y-97411318D01*
X105332843Y-97600000D01*
X104870500Y-97600000D01*
X104870500Y-84460439D01*
X104867534Y-84449370D01*
X104850021Y-84384011D01*
X104850017Y-84384004D01*
X104810464Y-84315495D01*
X104810458Y-84315487D01*
X97419395Y-76924424D01*
X97385910Y-76863101D01*
X97384339Y-76819094D01*
X97385647Y-76810000D01*
X97365165Y-76667543D01*
X97305377Y-76536627D01*
X97211128Y-76427857D01*
X97090053Y-76350047D01*
X97090051Y-76350046D01*
X97090049Y-76350045D01*
X97090050Y-76350045D01*
X96951963Y-76309500D01*
X96951961Y-76309500D01*
X96808039Y-76309500D01*
X96808036Y-76309500D01*
X96669949Y-76350045D01*
X96548873Y-76427856D01*
X96548872Y-76427856D01*
X96548872Y-76427857D01*
X96542781Y-76434887D01*
X96515212Y-76466703D01*
X96456433Y-76504477D01*
X96421499Y-76509500D01*
X96420833Y-76509500D01*
X96353794Y-76489815D01*
X96333152Y-76473181D01*
X94819395Y-74959424D01*
X94785910Y-74898101D01*
X94784339Y-74854094D01*
X94785647Y-74845000D01*
X94765165Y-74702543D01*
X94705377Y-74571627D01*
X94611128Y-74462857D01*
X94490053Y-74385047D01*
X94490051Y-74385046D01*
X94490049Y-74385045D01*
X94490050Y-74385045D01*
X94351963Y-74344500D01*
X94351961Y-74344500D01*
X94208039Y-74344500D01*
X94208036Y-74344500D01*
X94069949Y-74385045D01*
X93948873Y-74462856D01*
X93854623Y-74571626D01*
X93854622Y-74571628D01*
X93794834Y-74702543D01*
X93774353Y-74845000D01*
X93794834Y-74987457D01*
X93797333Y-74995964D01*
X93795068Y-74996629D01*
X93803195Y-75053143D01*
X93774172Y-75116700D01*
X93715395Y-75154476D01*
X93680457Y-75159500D01*
X92308501Y-75159500D01*
X92241462Y-75139815D01*
X92214788Y-75116703D01*
X92181128Y-75077857D01*
X92060053Y-75000047D01*
X92060051Y-75000046D01*
X92060049Y-75000045D01*
X92060050Y-75000045D01*
X91921963Y-74959500D01*
X91921961Y-74959500D01*
X91778039Y-74959500D01*
X91778036Y-74959500D01*
X91639949Y-75000045D01*
X91518873Y-75077856D01*
X91424623Y-75186626D01*
X91424622Y-75186628D01*
X91364834Y-75317543D01*
X91344353Y-75460000D01*
X88170500Y-75460000D01*
X88170500Y-73494448D01*
X88190185Y-73427409D01*
X88242989Y-73381654D01*
X88294332Y-73370448D01*
X88296562Y-73370445D01*
X88363625Y-73390039D01*
X88409451Y-73442782D01*
X88409520Y-73442932D01*
X88433047Y-73494448D01*
X88437123Y-73503373D01*
X88531372Y-73612143D01*
X88652447Y-73689953D01*
X88652450Y-73689954D01*
X88652449Y-73689954D01*
X88790536Y-73730499D01*
X88790538Y-73730500D01*
X88790539Y-73730500D01*
X88934462Y-73730500D01*
X88934462Y-73730499D01*
X89072553Y-73689953D01*
X89193628Y-73612143D01*
X89287877Y-73503373D01*
X89315966Y-73441865D01*
X89361719Y-73389065D01*
X89428641Y-73369380D01*
X94049205Y-73365029D01*
X96529019Y-73362695D01*
X96529500Y-73362693D01*
X96529630Y-73362693D01*
X96529664Y-73362693D01*
X96529972Y-73362692D01*
X96530092Y-73362691D01*
X96530171Y-73362691D01*
X96530581Y-73362689D01*
X98488612Y-73352302D01*
X98551327Y-73344142D01*
X98592883Y-73333377D01*
X98610288Y-73328869D01*
X98610290Y-73328868D01*
X98610295Y-73328867D01*
X98644433Y-73317403D01*
X98727221Y-73261866D01*
X98776536Y-73212370D01*
X98805679Y-73177368D01*
X98845300Y-73085889D01*
X98860027Y-73017589D01*
X98865082Y-72945041D01*
X98820695Y-72340000D01*
X119094353Y-72340000D01*
X119114834Y-72482456D01*
X119160921Y-72583371D01*
X119174623Y-72613373D01*
X119268872Y-72722143D01*
X119389947Y-72799953D01*
X119389950Y-72799954D01*
X119389949Y-72799954D01*
X119528036Y-72840499D01*
X119528038Y-72840500D01*
X119528039Y-72840500D01*
X119671962Y-72840500D01*
X119671962Y-72840499D01*
X119810053Y-72799953D01*
X119931128Y-72722143D01*
X119990783Y-72653297D01*
X120049561Y-72615523D01*
X120084496Y-72610500D01*
X137801499Y-72610500D01*
X137868538Y-72630185D01*
X137895211Y-72653296D01*
X137928872Y-72692143D01*
X138049947Y-72769953D01*
X138049950Y-72769954D01*
X138049949Y-72769954D01*
X138188036Y-72810499D01*
X138188038Y-72810500D01*
X138188039Y-72810500D01*
X138331962Y-72810500D01*
X138331962Y-72810499D01*
X138470053Y-72769953D01*
X138591128Y-72692143D01*
X138685377Y-72583373D01*
X138745165Y-72452457D01*
X138765647Y-72310000D01*
X138745165Y-72167543D01*
X138685377Y-72036627D01*
X138649915Y-71995701D01*
X138620891Y-71932147D01*
X138630835Y-71862988D01*
X138676590Y-71810185D01*
X138743629Y-71790500D01*
X141451499Y-71790500D01*
X141518538Y-71810185D01*
X141545211Y-71833296D01*
X141578872Y-71872143D01*
X141699947Y-71949953D01*
X141699950Y-71949954D01*
X141699949Y-71949954D01*
X141838036Y-71990499D01*
X141838038Y-71990500D01*
X141838039Y-71990500D01*
X141981962Y-71990500D01*
X141981962Y-71990499D01*
X142093138Y-71957856D01*
X142120050Y-71949954D01*
X142120050Y-71949953D01*
X142120053Y-71949953D01*
X142241128Y-71872143D01*
X142335377Y-71763373D01*
X142395165Y-71632457D01*
X142415647Y-71490000D01*
X142395165Y-71347543D01*
X142335377Y-71216627D01*
X142241128Y-71107857D01*
X142120053Y-71030047D01*
X142120051Y-71030046D01*
X142120049Y-71030045D01*
X142120050Y-71030045D01*
X141981963Y-70989500D01*
X141981961Y-70989500D01*
X141838039Y-70989500D01*
X141838036Y-70989500D01*
X141699949Y-71030045D01*
X141578873Y-71107856D01*
X141578872Y-71107856D01*
X141578872Y-71107857D01*
X141546539Y-71145172D01*
X141545212Y-71146703D01*
X141486433Y-71184477D01*
X141451499Y-71189500D01*
X130369858Y-71189500D01*
X130302819Y-71169815D01*
X130257064Y-71117011D01*
X130247120Y-71047853D01*
X130257064Y-71013988D01*
X130285165Y-70952457D01*
X130305647Y-70810000D01*
X130285165Y-70667543D01*
X130283903Y-70658765D01*
X130285720Y-70658503D01*
X130285722Y-70599562D01*
X130323498Y-70540785D01*
X130387055Y-70511762D01*
X130404698Y-70510500D01*
X146880164Y-70510500D01*
X146947203Y-70530185D01*
X146973876Y-70553297D01*
X146998869Y-70582140D01*
X146998872Y-70582143D01*
X147119947Y-70659953D01*
X147119950Y-70659954D01*
X147119949Y-70659954D01*
X147258036Y-70700499D01*
X147258038Y-70700500D01*
X147258039Y-70700500D01*
X147401962Y-70700500D01*
X147401962Y-70700499D01*
X147540053Y-70659953D01*
X147661128Y-70582143D01*
X147755377Y-70473373D01*
X147815165Y-70342457D01*
X147835647Y-70200000D01*
X147815165Y-70057543D01*
X147755377Y-69926627D01*
X147661128Y-69817857D01*
X147540053Y-69740047D01*
X147540051Y-69740046D01*
X147540049Y-69740045D01*
X147540050Y-69740045D01*
X147401963Y-69699500D01*
X147401961Y-69699500D01*
X147258039Y-69699500D01*
X147258036Y-69699500D01*
X147119949Y-69740045D01*
X146998869Y-69817858D01*
X146956547Y-69866702D01*
X146897770Y-69904477D01*
X146862834Y-69909500D01*
X146734698Y-69909500D01*
X146667659Y-69889815D01*
X146621904Y-69837011D01*
X146611960Y-69767853D01*
X146614883Y-69754412D01*
X146615163Y-69752459D01*
X146615165Y-69752457D01*
X146635647Y-69610000D01*
X146615165Y-69467543D01*
X146555377Y-69336627D01*
X146461128Y-69227857D01*
X146340053Y-69150047D01*
X146340051Y-69150046D01*
X146340049Y-69150045D01*
X146340050Y-69150045D01*
X146201963Y-69109500D01*
X146201961Y-69109500D01*
X146058039Y-69109500D01*
X146058036Y-69109500D01*
X145919949Y-69150045D01*
X145798873Y-69227856D01*
X145798872Y-69227856D01*
X145798872Y-69227857D01*
X145764945Y-69267011D01*
X145739217Y-69296703D01*
X145680439Y-69334477D01*
X145645504Y-69339500D01*
X134888126Y-69339500D01*
X134821087Y-69319815D01*
X134775332Y-69267011D01*
X134765388Y-69197853D01*
X134775332Y-69163988D01*
X134785165Y-69142457D01*
X134805647Y-69000000D01*
X134785165Y-68857543D01*
X134725377Y-68726627D01*
X134655255Y-68645701D01*
X134626231Y-68582147D01*
X134636175Y-68512988D01*
X134681930Y-68460184D01*
X134748969Y-68440500D01*
X147709560Y-68440500D01*
X147709562Y-68440500D01*
X147785989Y-68420021D01*
X147854511Y-68380460D01*
X147910460Y-68324511D01*
X148530460Y-67704511D01*
X148546927Y-67675989D01*
X148570021Y-67635989D01*
X148590500Y-67559562D01*
X148590500Y-67523738D01*
X148610185Y-67456699D01*
X148620787Y-67442535D01*
X148621124Y-67442144D01*
X148621128Y-67442143D01*
X148715377Y-67333373D01*
X148775165Y-67202457D01*
X148795647Y-67060000D01*
X148775165Y-66917543D01*
X148715377Y-66786627D01*
X148621128Y-66677857D01*
X148500053Y-66600047D01*
X148500051Y-66600046D01*
X148500049Y-66600045D01*
X148500050Y-66600045D01*
X148361963Y-66559500D01*
X148361961Y-66559500D01*
X148218039Y-66559500D01*
X148218036Y-66559500D01*
X148079949Y-66600045D01*
X147958873Y-66677856D01*
X147864623Y-66786626D01*
X147864622Y-66786628D01*
X147804834Y-66917543D01*
X147784353Y-67060000D01*
X147804834Y-67202456D01*
X147846894Y-67294552D01*
X147864623Y-67333373D01*
X147875848Y-67346327D01*
X147904873Y-67409883D01*
X147894930Y-67479041D01*
X147869816Y-67515211D01*
X147581846Y-67803182D01*
X147520526Y-67836666D01*
X147494167Y-67839500D01*
X129419836Y-67839500D01*
X129352797Y-67819815D01*
X129326124Y-67796703D01*
X129301130Y-67767859D01*
X129301129Y-67767858D01*
X129301128Y-67767857D01*
X129180053Y-67690047D01*
X129180051Y-67690046D01*
X129180049Y-67690045D01*
X129180050Y-67690045D01*
X129041963Y-67649500D01*
X129041961Y-67649500D01*
X128898039Y-67649500D01*
X128898036Y-67649500D01*
X128759949Y-67690045D01*
X128638873Y-67767856D01*
X128544623Y-67876626D01*
X128544622Y-67876628D01*
X128484835Y-68007543D01*
X128475800Y-68070378D01*
X128446774Y-68133933D01*
X128387995Y-68171707D01*
X128318126Y-68171706D01*
X128265381Y-68140410D01*
X127596819Y-67471848D01*
X127563334Y-67410525D01*
X127560500Y-67384167D01*
X127560500Y-67158578D01*
X127580185Y-67091539D01*
X127632989Y-67045784D01*
X127648488Y-67039923D01*
X127663954Y-67035232D01*
X127846450Y-66937685D01*
X128006410Y-66806410D01*
X128137685Y-66646450D01*
X128235232Y-66463954D01*
X128295300Y-66265934D01*
X128315583Y-66060000D01*
X128295300Y-65854066D01*
X128235232Y-65656046D01*
X128137685Y-65473550D01*
X128054156Y-65371769D01*
X128006410Y-65313589D01*
X127856121Y-65190252D01*
X127856115Y-65190247D01*
X128749500Y-65190247D01*
X128749500Y-66929752D01*
X128761131Y-66988229D01*
X128761132Y-66988230D01*
X128805447Y-67054552D01*
X128871769Y-67098867D01*
X128871770Y-67098868D01*
X128930247Y-67110499D01*
X128930250Y-67110500D01*
X128930252Y-67110500D01*
X130669750Y-67110500D01*
X130669751Y-67110499D01*
X130684568Y-67107552D01*
X130728229Y-67098868D01*
X130728229Y-67098867D01*
X130728231Y-67098867D01*
X130794552Y-67054552D01*
X130838867Y-66988231D01*
X130838867Y-66988229D01*
X130838868Y-66988229D01*
X130850499Y-66929752D01*
X130850500Y-66929750D01*
X130850500Y-65190249D01*
X130850499Y-65190247D01*
X130838868Y-65131770D01*
X130838867Y-65131769D01*
X130794552Y-65065447D01*
X130728230Y-65021132D01*
X130728229Y-65021131D01*
X130669752Y-65009500D01*
X130669748Y-65009500D01*
X128930252Y-65009500D01*
X128930247Y-65009500D01*
X128871770Y-65021131D01*
X128871769Y-65021132D01*
X128805447Y-65065447D01*
X128761132Y-65131769D01*
X128761131Y-65131770D01*
X128749500Y-65190247D01*
X127856115Y-65190247D01*
X127846450Y-65182315D01*
X127663954Y-65084768D01*
X127465934Y-65024700D01*
X127465932Y-65024699D01*
X127465934Y-65024699D01*
X127260000Y-65004417D01*
X127054067Y-65024699D01*
X126856043Y-65084769D01*
X126815089Y-65106660D01*
X126673550Y-65182315D01*
X126673548Y-65182316D01*
X126673547Y-65182317D01*
X126513589Y-65313589D01*
X126382317Y-65473547D01*
X126284769Y-65656043D01*
X126224699Y-65854067D01*
X126204417Y-66060000D01*
X126224699Y-66265932D01*
X126224700Y-66265934D01*
X126284768Y-66463954D01*
X126382315Y-66646450D01*
X126408089Y-66677856D01*
X126513589Y-66806410D01*
X126610209Y-66885702D01*
X126673550Y-66937685D01*
X126856046Y-67035232D01*
X126871496Y-67039918D01*
X126929932Y-67078212D01*
X126958390Y-67142024D01*
X126959500Y-67158578D01*
X126959500Y-67599562D01*
X126979979Y-67675989D01*
X126996446Y-67704511D01*
X127019540Y-67744511D01*
X127019542Y-67744513D01*
X128402848Y-69127819D01*
X128436333Y-69189142D01*
X128431349Y-69258834D01*
X128389477Y-69314767D01*
X128324013Y-69339184D01*
X128315167Y-69339500D01*
X128015833Y-69339500D01*
X127948794Y-69319815D01*
X127928152Y-69303181D01*
X125530089Y-66905118D01*
X125496604Y-66843795D01*
X125501588Y-66774103D01*
X125521914Y-66738777D01*
X125597685Y-66646450D01*
X125695232Y-66463954D01*
X125755300Y-66265934D01*
X125775583Y-66060000D01*
X125755300Y-65854066D01*
X125695232Y-65656046D01*
X125597685Y-65473550D01*
X125514156Y-65371769D01*
X125466410Y-65313589D01*
X125316121Y-65190252D01*
X125306450Y-65182315D01*
X125123954Y-65084768D01*
X124925934Y-65024700D01*
X124925932Y-65024699D01*
X124925934Y-65024699D01*
X124720000Y-65004417D01*
X124514067Y-65024699D01*
X124316043Y-65084769D01*
X124275089Y-65106660D01*
X124133550Y-65182315D01*
X124133548Y-65182316D01*
X124133547Y-65182317D01*
X123973589Y-65313589D01*
X123842317Y-65473547D01*
X123744769Y-65656043D01*
X123684699Y-65854067D01*
X123664417Y-66060000D01*
X123684699Y-66265932D01*
X123684700Y-66265934D01*
X123744768Y-66463954D01*
X123842315Y-66646450D01*
X123868089Y-66677856D01*
X123973589Y-66806410D01*
X124070209Y-66885702D01*
X124133550Y-66937685D01*
X124316046Y-67035232D01*
X124514066Y-67095300D01*
X124514065Y-67095300D01*
X124536563Y-67097515D01*
X124720000Y-67115583D01*
X124816950Y-67106033D01*
X124885594Y-67119051D01*
X124916784Y-67141755D01*
X127472848Y-69697819D01*
X127506333Y-69759142D01*
X127501349Y-69828834D01*
X127459477Y-69884767D01*
X127394013Y-69909184D01*
X127385167Y-69909500D01*
X126505833Y-69909500D01*
X126438794Y-69889815D01*
X126418152Y-69873181D01*
X123169298Y-66624327D01*
X123135813Y-66563004D01*
X123140797Y-66493312D01*
X123147618Y-66478197D01*
X123155232Y-66463954D01*
X123215300Y-66265934D01*
X123235583Y-66060000D01*
X123215300Y-65854066D01*
X123155232Y-65656046D01*
X123057685Y-65473550D01*
X122974156Y-65371769D01*
X122926410Y-65313589D01*
X122776121Y-65190252D01*
X122766450Y-65182315D01*
X122583954Y-65084768D01*
X122385934Y-65024700D01*
X122385932Y-65024699D01*
X122385934Y-65024699D01*
X122180000Y-65004417D01*
X121974067Y-65024699D01*
X121776043Y-65084769D01*
X121735089Y-65106660D01*
X121593550Y-65182315D01*
X121593548Y-65182316D01*
X121593547Y-65182317D01*
X121433589Y-65313589D01*
X121302317Y-65473547D01*
X121204769Y-65656043D01*
X121144699Y-65854067D01*
X121124417Y-66060000D01*
X121144699Y-66265932D01*
X121144700Y-66265934D01*
X121204768Y-66463954D01*
X121302315Y-66646450D01*
X121328089Y-66677856D01*
X121433589Y-66806410D01*
X121530209Y-66885702D01*
X121593550Y-66937685D01*
X121776046Y-67035232D01*
X121974066Y-67095300D01*
X121974065Y-67095300D01*
X121992529Y-67097118D01*
X122180000Y-67115583D01*
X122385934Y-67095300D01*
X122583954Y-67035232D01*
X122598191Y-67027621D01*
X122666592Y-67013379D01*
X122731837Y-67038377D01*
X122744327Y-67049298D01*
X125952848Y-70257819D01*
X125986333Y-70319142D01*
X125981349Y-70388834D01*
X125939477Y-70444767D01*
X125874013Y-70469184D01*
X125865167Y-70469500D01*
X121731584Y-70469500D01*
X121664545Y-70449815D01*
X121618790Y-70397011D01*
X121608846Y-70363146D01*
X121605871Y-70342457D01*
X121605165Y-70337543D01*
X121545377Y-70206627D01*
X121451128Y-70097857D01*
X121330053Y-70020047D01*
X121330051Y-70020046D01*
X121330049Y-70020045D01*
X121330050Y-70020045D01*
X121191963Y-69979500D01*
X121191961Y-69979500D01*
X121048039Y-69979500D01*
X121048036Y-69979500D01*
X120909949Y-70020045D01*
X120788873Y-70097856D01*
X120694623Y-70206626D01*
X120694622Y-70206628D01*
X120634834Y-70337543D01*
X120614353Y-70480000D01*
X120634834Y-70622456D01*
X120651416Y-70658765D01*
X120694623Y-70753373D01*
X120788872Y-70862143D01*
X120909947Y-70939953D01*
X120909950Y-70939954D01*
X120909949Y-70939954D01*
X121048036Y-70980499D01*
X121048038Y-70980500D01*
X121048039Y-70980500D01*
X121073456Y-70980500D01*
X121140495Y-71000185D01*
X121161137Y-71016819D01*
X121210795Y-71066477D01*
X121244280Y-71127800D01*
X121239296Y-71197492D01*
X121197424Y-71253425D01*
X121190154Y-71258473D01*
X121128874Y-71297855D01*
X121128872Y-71297856D01*
X121128872Y-71297857D01*
X121106672Y-71323476D01*
X121034623Y-71406626D01*
X121034622Y-71406628D01*
X120974834Y-71537543D01*
X120954353Y-71680000D01*
X120974834Y-71822454D01*
X120980102Y-71833989D01*
X120990045Y-71903148D01*
X120961020Y-71966703D01*
X120902241Y-72004477D01*
X120867307Y-72009500D01*
X120032506Y-72009500D01*
X119965467Y-71989815D01*
X119938795Y-71966705D01*
X119936627Y-71964203D01*
X119931128Y-71957857D01*
X119810053Y-71880047D01*
X119810051Y-71880046D01*
X119810049Y-71880045D01*
X119810050Y-71880045D01*
X119671963Y-71839500D01*
X119671961Y-71839500D01*
X119528039Y-71839500D01*
X119528036Y-71839500D01*
X119389949Y-71880045D01*
X119268873Y-71957856D01*
X119174623Y-72066626D01*
X119174622Y-72066628D01*
X119114834Y-72197543D01*
X119094353Y-72340000D01*
X98820695Y-72340000D01*
X98740016Y-71240266D01*
X98733514Y-71198786D01*
X98733200Y-71197492D01*
X98731206Y-71189262D01*
X98723949Y-71159315D01*
X98720089Y-71145172D01*
X98720087Y-71145169D01*
X98720087Y-71145167D01*
X98687008Y-71083373D01*
X98673041Y-71057281D01*
X98628683Y-71003298D01*
X98596745Y-70970824D01*
X98557232Y-70948820D01*
X98509651Y-70922323D01*
X98509648Y-70922322D01*
X98443147Y-70900891D01*
X98443145Y-70900890D01*
X98443140Y-70900889D01*
X98443138Y-70900888D01*
X98371461Y-70888662D01*
X98371464Y-70888662D01*
X97817830Y-70874178D01*
X96710574Y-70845212D01*
X96710571Y-70845212D01*
X96710564Y-70845212D01*
X96662057Y-70848573D01*
X96615707Y-70856267D01*
X96568718Y-70868756D01*
X96568707Y-70868760D01*
X95837612Y-71139860D01*
X95767911Y-71144712D01*
X95706652Y-71111110D01*
X95673284Y-71049723D01*
X95670500Y-71023596D01*
X95670500Y-70330440D01*
X95670500Y-70330438D01*
X95652909Y-70264788D01*
X95650022Y-70254012D01*
X95610460Y-70185489D01*
X94254511Y-68829540D01*
X94254509Y-68829539D01*
X94254504Y-68829535D01*
X94185995Y-68789982D01*
X94185990Y-68789979D01*
X94160513Y-68783152D01*
X94109562Y-68769500D01*
X94109560Y-68769500D01*
X91588501Y-68769500D01*
X91521462Y-68749815D01*
X91494788Y-68726703D01*
X91494722Y-68726627D01*
X91461128Y-68687857D01*
X91340053Y-68610047D01*
X91340051Y-68610046D01*
X91340049Y-68610045D01*
X91340050Y-68610045D01*
X91201963Y-68569500D01*
X91201961Y-68569500D01*
X91058039Y-68569500D01*
X91058036Y-68569500D01*
X90919949Y-68610045D01*
X90798873Y-68687856D01*
X90704623Y-68796626D01*
X90704622Y-68796628D01*
X90644834Y-68927543D01*
X90624353Y-69070000D01*
X90644834Y-69212456D01*
X90691559Y-69314767D01*
X90704623Y-69343373D01*
X90798872Y-69452143D01*
X90919947Y-69529953D01*
X90919950Y-69529954D01*
X90919949Y-69529954D01*
X91058036Y-69570499D01*
X91058038Y-69570500D01*
X91058039Y-69570500D01*
X91201962Y-69570500D01*
X91201962Y-69570499D01*
X91340053Y-69529953D01*
X91461128Y-69452143D01*
X91494788Y-69413296D01*
X91553567Y-69375523D01*
X91588501Y-69370500D01*
X93894167Y-69370500D01*
X93961206Y-69390185D01*
X93981848Y-69406819D01*
X95033181Y-70458152D01*
X95066666Y-70519475D01*
X95069500Y-70545833D01*
X95069500Y-71533885D01*
X95049815Y-71600924D01*
X95033181Y-71621566D01*
X94620465Y-72034283D01*
X94559142Y-72067768D01*
X94532784Y-72070602D01*
X89719773Y-72070602D01*
X89684839Y-72065579D01*
X89561963Y-72029500D01*
X89561961Y-72029500D01*
X89418039Y-72029500D01*
X89418036Y-72029500D01*
X89295161Y-72065579D01*
X89260227Y-72070602D01*
X88461323Y-72070602D01*
X88394284Y-72050917D01*
X88348529Y-71998113D01*
X88338585Y-71928955D01*
X88343775Y-71911289D01*
X88342667Y-71910964D01*
X88345165Y-71902457D01*
X88349523Y-71872143D01*
X88365647Y-71760000D01*
X88345165Y-71617543D01*
X88285377Y-71486627D01*
X88191128Y-71377857D01*
X88070053Y-71300047D01*
X88070051Y-71300046D01*
X88070049Y-71300045D01*
X88070050Y-71300045D01*
X87931963Y-71259500D01*
X87931961Y-71259500D01*
X87788039Y-71259500D01*
X87788036Y-71259500D01*
X87649949Y-71300045D01*
X87528873Y-71377856D01*
X87434623Y-71486626D01*
X87434622Y-71486628D01*
X87374834Y-71617543D01*
X87354353Y-71760000D01*
X87374834Y-71902457D01*
X87377333Y-71910964D01*
X87373892Y-71911974D01*
X87381422Y-71964203D01*
X87352421Y-72027769D01*
X87293657Y-72065566D01*
X87258677Y-72070602D01*
X86471323Y-72070602D01*
X86404284Y-72050917D01*
X86358529Y-71998113D01*
X86348585Y-71928955D01*
X86353775Y-71911289D01*
X86352667Y-71910964D01*
X86355165Y-71902457D01*
X86359523Y-71872143D01*
X86375647Y-71760000D01*
X86355165Y-71617543D01*
X86295377Y-71486627D01*
X86201128Y-71377857D01*
X86080053Y-71300047D01*
X86080051Y-71300046D01*
X86080049Y-71300045D01*
X86080050Y-71300045D01*
X85941963Y-71259500D01*
X85941961Y-71259500D01*
X85798039Y-71259500D01*
X85798036Y-71259500D01*
X85659949Y-71300045D01*
X85538873Y-71377856D01*
X85444623Y-71486626D01*
X85444622Y-71486628D01*
X85384834Y-71617543D01*
X85364353Y-71760000D01*
X85384834Y-71902456D01*
X85444622Y-72033371D01*
X85444625Y-72033377D01*
X85544679Y-72148846D01*
X85542564Y-72150677D01*
X85572602Y-72197416D01*
X85572602Y-72267286D01*
X85563492Y-72288337D01*
X85563781Y-72288471D01*
X85561225Y-72293996D01*
X85538254Y-72359987D01*
X85538254Y-72359989D01*
X85524364Y-72431366D01*
X85497523Y-72974488D01*
X85501809Y-73035355D01*
X85501809Y-73035356D01*
X85512910Y-73093082D01*
X85512916Y-73093107D01*
X85521464Y-73125752D01*
X85521468Y-73125761D01*
X85570874Y-73212333D01*
X85570882Y-73212345D01*
X85616683Y-73265100D01*
X85616684Y-73265101D01*
X85649488Y-73296695D01*
X85737866Y-73342820D01*
X85737867Y-73342820D01*
X85737870Y-73342822D01*
X85804910Y-73362439D01*
X85804921Y-73362441D01*
X85804924Y-73362442D01*
X85876918Y-73372724D01*
X86610867Y-73372034D01*
X86610868Y-73372034D01*
X87445386Y-73371247D01*
X87512441Y-73390868D01*
X87558246Y-73443629D01*
X87569500Y-73495247D01*
X87569500Y-76964166D01*
X87549815Y-77031205D01*
X87533181Y-77051847D01*
X77691847Y-86893181D01*
X77630524Y-86926666D01*
X77604166Y-86929500D01*
X77508036Y-86929500D01*
X77369949Y-86970045D01*
X77248873Y-87047856D01*
X77154623Y-87156626D01*
X77154622Y-87156628D01*
X77094834Y-87287543D01*
X77074353Y-87430000D01*
X72220500Y-87430000D01*
X72220500Y-73900000D01*
X83881853Y-73900000D01*
X83902334Y-74042456D01*
X83951238Y-74149539D01*
X83962123Y-74173373D01*
X84056372Y-74282143D01*
X84177447Y-74359953D01*
X84177450Y-74359954D01*
X84177449Y-74359954D01*
X84315536Y-74400499D01*
X84315538Y-74400500D01*
X84315539Y-74400500D01*
X84459462Y-74400500D01*
X84459462Y-74400499D01*
X84597553Y-74359953D01*
X84718628Y-74282143D01*
X84812877Y-74173373D01*
X84872665Y-74042457D01*
X84893147Y-73900000D01*
X84872665Y-73757543D01*
X84812877Y-73626627D01*
X84718628Y-73517857D01*
X84597553Y-73440047D01*
X84597551Y-73440046D01*
X84597549Y-73440045D01*
X84597550Y-73440045D01*
X84459463Y-73399500D01*
X84459461Y-73399500D01*
X84315539Y-73399500D01*
X84315536Y-73399500D01*
X84177449Y-73440045D01*
X84056373Y-73517856D01*
X83962123Y-73626626D01*
X83962122Y-73626628D01*
X83902334Y-73757543D01*
X83881853Y-73900000D01*
X72220500Y-73900000D01*
X72220500Y-64631076D01*
X72240185Y-64564037D01*
X72292989Y-64518282D01*
X72362147Y-64508338D01*
X72425703Y-64537363D01*
X72445629Y-64559321D01*
X72643802Y-64838618D01*
X72643806Y-64838623D01*
X72883339Y-65106661D01*
X73056194Y-65261133D01*
X73151377Y-65346194D01*
X73330867Y-65473550D01*
X73444548Y-65554211D01*
X73759167Y-65728094D01*
X74091276Y-65865659D01*
X74436700Y-65965173D01*
X74791093Y-66025387D01*
X75150000Y-66045543D01*
X75508907Y-66025387D01*
X75863300Y-65965173D01*
X76208724Y-65865659D01*
X76540833Y-65728094D01*
X76855452Y-65554211D01*
X77030162Y-65430247D01*
X84837000Y-65430247D01*
X84837000Y-67169752D01*
X84848631Y-67228229D01*
X84848632Y-67228230D01*
X84892947Y-67294552D01*
X84959269Y-67338867D01*
X84959270Y-67338868D01*
X85017747Y-67350499D01*
X85017750Y-67350500D01*
X85017752Y-67350500D01*
X86757250Y-67350500D01*
X86757251Y-67350499D01*
X86772068Y-67347552D01*
X86815729Y-67338868D01*
X86815729Y-67338867D01*
X86815731Y-67338867D01*
X86882052Y-67294552D01*
X86926367Y-67228231D01*
X86926367Y-67228229D01*
X86926368Y-67228229D01*
X86937999Y-67169752D01*
X86938000Y-67169750D01*
X86938000Y-66060000D01*
X118584417Y-66060000D01*
X118604699Y-66265932D01*
X118604700Y-66265934D01*
X118664768Y-66463954D01*
X118762315Y-66646450D01*
X118788089Y-66677856D01*
X118893589Y-66806410D01*
X118990209Y-66885702D01*
X119053550Y-66937685D01*
X119236046Y-67035232D01*
X119434066Y-67095300D01*
X119434065Y-67095300D01*
X119452529Y-67097118D01*
X119640000Y-67115583D01*
X119845934Y-67095300D01*
X120043954Y-67035232D01*
X120226450Y-66937685D01*
X120386410Y-66806410D01*
X120517685Y-66646450D01*
X120615232Y-66463954D01*
X120675300Y-66265934D01*
X120695583Y-66060000D01*
X120675300Y-65854066D01*
X120615232Y-65656046D01*
X120517685Y-65473550D01*
X120434156Y-65371769D01*
X120386410Y-65313589D01*
X120236121Y-65190252D01*
X120226450Y-65182315D01*
X120043954Y-65084768D01*
X119845934Y-65024700D01*
X119845932Y-65024699D01*
X119845934Y-65024699D01*
X119640000Y-65004417D01*
X119434067Y-65024699D01*
X119236043Y-65084769D01*
X119195089Y-65106660D01*
X119053550Y-65182315D01*
X119053548Y-65182316D01*
X119053547Y-65182317D01*
X118893589Y-65313589D01*
X118762317Y-65473547D01*
X118664769Y-65656043D01*
X118604699Y-65854067D01*
X118584417Y-66060000D01*
X86938000Y-66060000D01*
X86938000Y-65725833D01*
X86957685Y-65658794D01*
X86974319Y-65638152D01*
X88640652Y-63971819D01*
X88701975Y-63938334D01*
X88728333Y-63935500D01*
X141186499Y-63935500D01*
X141253538Y-63955185D01*
X141280211Y-63978296D01*
X141313872Y-64017143D01*
X141434947Y-64094953D01*
X141434950Y-64094954D01*
X141434949Y-64094954D01*
X141542107Y-64126417D01*
X141557270Y-64130870D01*
X141573036Y-64135499D01*
X141573038Y-64135500D01*
X141573039Y-64135500D01*
X141716962Y-64135500D01*
X141716962Y-64135499D01*
X141855053Y-64094953D01*
X141976128Y-64017143D01*
X142070377Y-63908373D01*
X142130165Y-63777457D01*
X142150647Y-63635000D01*
X142130165Y-63492543D01*
X142070377Y-63361627D01*
X141976128Y-63252857D01*
X141855053Y-63175047D01*
X141855051Y-63175046D01*
X141855049Y-63175045D01*
X141855050Y-63175045D01*
X141716963Y-63134500D01*
X141716961Y-63134500D01*
X141573039Y-63134500D01*
X141573036Y-63134500D01*
X141434949Y-63175045D01*
X141313873Y-63252856D01*
X141280212Y-63291703D01*
X141221433Y-63329477D01*
X141186499Y-63334500D01*
X88512938Y-63334500D01*
X88474724Y-63344739D01*
X88436509Y-63354979D01*
X88436504Y-63354982D01*
X88367995Y-63394535D01*
X88367987Y-63394541D01*
X86549348Y-65213181D01*
X86488025Y-65246666D01*
X86461667Y-65249500D01*
X85017747Y-65249500D01*
X84959270Y-65261131D01*
X84959269Y-65261132D01*
X84892947Y-65305447D01*
X84848632Y-65371769D01*
X84848631Y-65371770D01*
X84837000Y-65430247D01*
X77030162Y-65430247D01*
X77148623Y-65346194D01*
X77416661Y-65106661D01*
X77656194Y-64838623D01*
X77864211Y-64545452D01*
X78038094Y-64230833D01*
X78175659Y-63898724D01*
X78275173Y-63553300D01*
X78335387Y-63198907D01*
X78355543Y-62840000D01*
X78335387Y-62481093D01*
X78275173Y-62126700D01*
X78175659Y-61781276D01*
X78038094Y-61449167D01*
X77864211Y-61134548D01*
X77857736Y-61125423D01*
X77656194Y-60841377D01*
X77416661Y-60573339D01*
X77148623Y-60333806D01*
X77110293Y-60306609D01*
X76855454Y-60125790D01*
X76778081Y-60083028D01*
X76728928Y-60033371D01*
X76714425Y-59965024D01*
X76739175Y-59899685D01*
X76795321Y-59858099D01*
X76838062Y-59850500D01*
X154334108Y-59850500D01*
X154396949Y-59850500D01*
X154403032Y-59850648D01*
G37*
%TD.AperFunction*%
%TD*%
%TA.AperFunction,Conductor*%
%TO.N,+5V*%
G36*
X98364777Y-71144075D02*
G01*
X98431278Y-71165506D01*
X98475636Y-71219489D01*
X98485201Y-71258960D01*
X98610267Y-72963735D01*
X98595540Y-73032035D01*
X98546225Y-73081531D01*
X98487257Y-73096806D01*
X96529226Y-73107193D01*
X96528685Y-73107195D01*
X86610627Y-73116534D01*
X85876678Y-73117224D01*
X85809620Y-73097602D01*
X85763815Y-73044841D01*
X85752712Y-72987103D01*
X85779553Y-72443981D01*
X85802523Y-72377995D01*
X85857521Y-72334903D01*
X85903402Y-72326102D01*
X94689978Y-72326102D01*
X95446712Y-71569367D01*
X95491275Y-71540788D01*
X96657545Y-71108318D01*
X96703892Y-71100625D01*
X98364777Y-71144075D01*
G37*
%TD.AperFunction*%
%TD*%
M02*
