%TF.GenerationSoftware,KiCad,Pcbnew,8.0.6*%
%TF.CreationDate,2025-05-12T11:17:16+07:00*%
%TF.ProjectId,DATN,4441544e-2e6b-4696-9361-645f70636258,rev?*%
%TF.SameCoordinates,Original*%
%TF.FileFunction,Legend,Top*%
%TF.FilePolarity,Positive*%
%FSLAX46Y46*%
G04 Gerber Fmt 4.6, Leading zero omitted, Abs format (unit mm)*
G04 Created by KiCad (PCBNEW 8.0.6) date 2025-05-12 11:17:16*
%MOMM*%
%LPD*%
G01*
G04 APERTURE LIST*
%ADD10C,0.250000*%
%ADD11C,0.200000*%
%ADD12C,0.150000*%
%ADD13C,0.120000*%
%ADD14C,0.260000*%
%ADD15C,0.660521*%
%ADD16C,0.100000*%
%ADD17C,0.127000*%
G04 APERTURE END LIST*
D10*
X89197431Y-62986333D02*
X88435527Y-62986333D01*
X88816479Y-62605380D02*
X88816479Y-63367285D01*
X80847431Y-63046333D02*
X80085527Y-63046333D01*
D11*
X128845863Y-63061695D02*
X129341101Y-63061695D01*
X129341101Y-63061695D02*
X129074435Y-63366457D01*
X129074435Y-63366457D02*
X129188720Y-63366457D01*
X129188720Y-63366457D02*
X129264911Y-63404552D01*
X129264911Y-63404552D02*
X129303006Y-63442647D01*
X129303006Y-63442647D02*
X129341101Y-63518838D01*
X129341101Y-63518838D02*
X129341101Y-63709314D01*
X129341101Y-63709314D02*
X129303006Y-63785504D01*
X129303006Y-63785504D02*
X129264911Y-63823600D01*
X129264911Y-63823600D02*
X129188720Y-63861695D01*
X129188720Y-63861695D02*
X128960149Y-63861695D01*
X128960149Y-63861695D02*
X128883958Y-63823600D01*
X128883958Y-63823600D02*
X128845863Y-63785504D01*
X129569673Y-63061695D02*
X129836340Y-63861695D01*
X129836340Y-63861695D02*
X130103006Y-63061695D01*
X130293482Y-63061695D02*
X130788720Y-63061695D01*
X130788720Y-63061695D02*
X130522054Y-63366457D01*
X130522054Y-63366457D02*
X130636339Y-63366457D01*
X130636339Y-63366457D02*
X130712530Y-63404552D01*
X130712530Y-63404552D02*
X130750625Y-63442647D01*
X130750625Y-63442647D02*
X130788720Y-63518838D01*
X130788720Y-63518838D02*
X130788720Y-63709314D01*
X130788720Y-63709314D02*
X130750625Y-63785504D01*
X130750625Y-63785504D02*
X130712530Y-63823600D01*
X130712530Y-63823600D02*
X130636339Y-63861695D01*
X130636339Y-63861695D02*
X130407768Y-63861695D01*
X130407768Y-63861695D02*
X130331577Y-63823600D01*
X130331577Y-63823600D02*
X130293482Y-63785504D01*
X119218304Y-62439197D02*
X119599257Y-62172530D01*
X119218304Y-61982054D02*
X120018304Y-61982054D01*
X120018304Y-61982054D02*
X120018304Y-62286816D01*
X120018304Y-62286816D02*
X119980209Y-62363006D01*
X119980209Y-62363006D02*
X119942114Y-62401101D01*
X119942114Y-62401101D02*
X119865923Y-62439197D01*
X119865923Y-62439197D02*
X119751638Y-62439197D01*
X119751638Y-62439197D02*
X119675447Y-62401101D01*
X119675447Y-62401101D02*
X119637352Y-62363006D01*
X119637352Y-62363006D02*
X119599257Y-62286816D01*
X119599257Y-62286816D02*
X119599257Y-61982054D01*
X119256400Y-62743958D02*
X119218304Y-62858244D01*
X119218304Y-62858244D02*
X119218304Y-63048720D01*
X119218304Y-63048720D02*
X119256400Y-63124911D01*
X119256400Y-63124911D02*
X119294495Y-63163006D01*
X119294495Y-63163006D02*
X119370685Y-63201101D01*
X119370685Y-63201101D02*
X119446876Y-63201101D01*
X119446876Y-63201101D02*
X119523066Y-63163006D01*
X119523066Y-63163006D02*
X119561161Y-63124911D01*
X119561161Y-63124911D02*
X119599257Y-63048720D01*
X119599257Y-63048720D02*
X119637352Y-62896339D01*
X119637352Y-62896339D02*
X119675447Y-62820149D01*
X119675447Y-62820149D02*
X119713542Y-62782054D01*
X119713542Y-62782054D02*
X119789733Y-62743958D01*
X119789733Y-62743958D02*
X119865923Y-62743958D01*
X119865923Y-62743958D02*
X119942114Y-62782054D01*
X119942114Y-62782054D02*
X119980209Y-62820149D01*
X119980209Y-62820149D02*
X120018304Y-62896339D01*
X120018304Y-62896339D02*
X120018304Y-63086816D01*
X120018304Y-63086816D02*
X119980209Y-63201101D01*
X120018304Y-63429673D02*
X120018304Y-63886816D01*
X119218304Y-63658244D02*
X120018304Y-63658244D01*
X122548304Y-62687768D02*
X122548304Y-63144911D01*
X121748304Y-62916339D02*
X122548304Y-62916339D01*
X122548304Y-63335387D02*
X121748304Y-63868721D01*
X122548304Y-63868721D02*
X121748304Y-63335387D01*
X127267352Y-63678720D02*
X127229257Y-63793006D01*
X127229257Y-63793006D02*
X127191161Y-63831101D01*
X127191161Y-63831101D02*
X127114971Y-63869197D01*
X127114971Y-63869197D02*
X127000685Y-63869197D01*
X127000685Y-63869197D02*
X126924495Y-63831101D01*
X126924495Y-63831101D02*
X126886400Y-63793006D01*
X126886400Y-63793006D02*
X126848304Y-63716816D01*
X126848304Y-63716816D02*
X126848304Y-63412054D01*
X126848304Y-63412054D02*
X127648304Y-63412054D01*
X127648304Y-63412054D02*
X127648304Y-63678720D01*
X127648304Y-63678720D02*
X127610209Y-63754911D01*
X127610209Y-63754911D02*
X127572114Y-63793006D01*
X127572114Y-63793006D02*
X127495923Y-63831101D01*
X127495923Y-63831101D02*
X127419733Y-63831101D01*
X127419733Y-63831101D02*
X127343542Y-63793006D01*
X127343542Y-63793006D02*
X127305447Y-63754911D01*
X127305447Y-63754911D02*
X127267352Y-63678720D01*
X127267352Y-63678720D02*
X127267352Y-63412054D01*
X117340209Y-62191101D02*
X117378304Y-62114911D01*
X117378304Y-62114911D02*
X117378304Y-62000625D01*
X117378304Y-62000625D02*
X117340209Y-61886339D01*
X117340209Y-61886339D02*
X117264019Y-61810149D01*
X117264019Y-61810149D02*
X117187828Y-61772054D01*
X117187828Y-61772054D02*
X117035447Y-61733958D01*
X117035447Y-61733958D02*
X116921161Y-61733958D01*
X116921161Y-61733958D02*
X116768780Y-61772054D01*
X116768780Y-61772054D02*
X116692590Y-61810149D01*
X116692590Y-61810149D02*
X116616400Y-61886339D01*
X116616400Y-61886339D02*
X116578304Y-62000625D01*
X116578304Y-62000625D02*
X116578304Y-62076816D01*
X116578304Y-62076816D02*
X116616400Y-62191101D01*
X116616400Y-62191101D02*
X116654495Y-62229197D01*
X116654495Y-62229197D02*
X116921161Y-62229197D01*
X116921161Y-62229197D02*
X116921161Y-62076816D01*
X116578304Y-62572054D02*
X117378304Y-62572054D01*
X117378304Y-62572054D02*
X116578304Y-63029197D01*
X116578304Y-63029197D02*
X117378304Y-63029197D01*
X116578304Y-63410149D02*
X117378304Y-63410149D01*
X117378304Y-63410149D02*
X117378304Y-63600625D01*
X117378304Y-63600625D02*
X117340209Y-63714911D01*
X117340209Y-63714911D02*
X117264019Y-63791101D01*
X117264019Y-63791101D02*
X117187828Y-63829196D01*
X117187828Y-63829196D02*
X117035447Y-63867292D01*
X117035447Y-63867292D02*
X116921161Y-63867292D01*
X116921161Y-63867292D02*
X116768780Y-63829196D01*
X116768780Y-63829196D02*
X116692590Y-63791101D01*
X116692590Y-63791101D02*
X116616400Y-63714911D01*
X116616400Y-63714911D02*
X116578304Y-63600625D01*
X116578304Y-63600625D02*
X116578304Y-63410149D01*
X124348304Y-63069197D02*
X124729257Y-62802530D01*
X124348304Y-62612054D02*
X125148304Y-62612054D01*
X125148304Y-62612054D02*
X125148304Y-62916816D01*
X125148304Y-62916816D02*
X125110209Y-62993006D01*
X125110209Y-62993006D02*
X125072114Y-63031101D01*
X125072114Y-63031101D02*
X124995923Y-63069197D01*
X124995923Y-63069197D02*
X124881638Y-63069197D01*
X124881638Y-63069197D02*
X124805447Y-63031101D01*
X124805447Y-63031101D02*
X124767352Y-62993006D01*
X124767352Y-62993006D02*
X124729257Y-62916816D01*
X124729257Y-62916816D02*
X124729257Y-62612054D01*
X125148304Y-63335863D02*
X124348304Y-63869197D01*
X125148304Y-63869197D02*
X124348304Y-63335863D01*
D10*
G36*
X124691235Y-109907681D02*
G01*
X124703645Y-109920092D01*
X124728996Y-109970793D01*
X124728996Y-110054633D01*
X124703644Y-110105336D01*
X124684713Y-110124268D01*
X124634012Y-110149619D01*
X124407568Y-110149619D01*
X124407568Y-109875809D01*
X124595618Y-109875809D01*
X124691235Y-109907681D01*
G37*
G36*
X124637094Y-109424969D02*
G01*
X124656026Y-109443902D01*
X124681377Y-109494603D01*
X124681377Y-109530824D01*
X124656026Y-109581525D01*
X124637094Y-109600458D01*
X124586393Y-109625809D01*
X124407568Y-109625809D01*
X124407568Y-109399619D01*
X124586393Y-109399619D01*
X124637094Y-109424969D01*
G37*
G36*
X125684714Y-109424970D02*
G01*
X125741125Y-109481381D01*
X125776615Y-109623341D01*
X125776615Y-109925896D01*
X125741125Y-110067855D01*
X125684711Y-110124269D01*
X125634012Y-110149619D01*
X125502553Y-110149619D01*
X125451852Y-110124268D01*
X125395438Y-110067855D01*
X125359949Y-109925896D01*
X125359949Y-109623341D01*
X125395439Y-109481381D01*
X125451849Y-109424970D01*
X125502553Y-109399619D01*
X125634012Y-109399619D01*
X125684714Y-109424970D01*
G37*
G36*
X126732333Y-109424970D02*
G01*
X126788744Y-109481381D01*
X126824234Y-109623341D01*
X126824234Y-109925896D01*
X126788744Y-110067855D01*
X126732330Y-110124269D01*
X126681631Y-110149619D01*
X126550172Y-110149619D01*
X126499471Y-110124268D01*
X126443057Y-110067855D01*
X126407568Y-109925896D01*
X126407568Y-109623341D01*
X126443058Y-109481381D01*
X126499468Y-109424970D01*
X126550172Y-109399619D01*
X126681631Y-109399619D01*
X126732333Y-109424970D01*
G37*
G36*
X128053975Y-110524619D02*
G01*
X124032568Y-110524619D01*
X124032568Y-109274619D01*
X124157568Y-109274619D01*
X124157568Y-110274619D01*
X124159970Y-110299005D01*
X124178634Y-110344065D01*
X124213122Y-110378553D01*
X124258182Y-110397217D01*
X124282568Y-110399619D01*
X124663520Y-110399619D01*
X124687906Y-110397217D01*
X124692054Y-110395498D01*
X124696536Y-110395180D01*
X124719422Y-110386422D01*
X124814659Y-110338804D01*
X124825155Y-110332196D01*
X124828205Y-110330933D01*
X124831638Y-110328114D01*
X124835397Y-110325749D01*
X124837559Y-110323255D01*
X124847147Y-110315387D01*
X124894766Y-110267768D01*
X124902633Y-110258180D01*
X124905126Y-110256019D01*
X124907492Y-110252259D01*
X124910311Y-110248825D01*
X124911573Y-110245776D01*
X124918180Y-110235282D01*
X124965799Y-110140044D01*
X124974557Y-110117158D01*
X124974875Y-110112677D01*
X124976594Y-110108528D01*
X124978996Y-110084142D01*
X124978996Y-109941285D01*
X124976594Y-109916899D01*
X124974875Y-109912749D01*
X124974557Y-109908269D01*
X124965799Y-109885383D01*
X124918180Y-109790145D01*
X124911573Y-109779650D01*
X124910310Y-109776600D01*
X124907491Y-109773165D01*
X124905126Y-109769408D01*
X124902634Y-109767246D01*
X124894765Y-109757658D01*
X124862435Y-109725329D01*
X124862691Y-109725018D01*
X124863954Y-109721967D01*
X124870561Y-109711473D01*
X124918180Y-109616235D01*
X124921350Y-109607952D01*
X125109949Y-109607952D01*
X125109949Y-109941285D01*
X125110368Y-109945539D01*
X125110097Y-109947361D01*
X125111446Y-109956489D01*
X125112351Y-109965671D01*
X125113055Y-109967372D01*
X125113681Y-109971602D01*
X125161300Y-110162078D01*
X125169545Y-110185153D01*
X125175077Y-110192619D01*
X125178634Y-110201207D01*
X125194179Y-110220149D01*
X125289417Y-110315388D01*
X125299005Y-110323257D01*
X125301167Y-110325749D01*
X125304924Y-110328114D01*
X125308359Y-110330933D01*
X125311409Y-110332196D01*
X125321904Y-110338803D01*
X125417142Y-110386422D01*
X125440028Y-110395180D01*
X125444508Y-110395498D01*
X125448658Y-110397217D01*
X125473044Y-110399619D01*
X125663520Y-110399619D01*
X125687906Y-110397217D01*
X125692054Y-110395498D01*
X125696536Y-110395180D01*
X125719422Y-110386422D01*
X125814659Y-110338804D01*
X125825155Y-110332196D01*
X125828205Y-110330933D01*
X125831639Y-110328114D01*
X125835397Y-110325749D01*
X125837558Y-110323257D01*
X125847147Y-110315388D01*
X125942385Y-110220149D01*
X125957930Y-110201207D01*
X125961487Y-110192618D01*
X125967019Y-110185153D01*
X125975264Y-110162078D01*
X126022883Y-109971602D01*
X126023508Y-109967372D01*
X126024213Y-109965671D01*
X126025117Y-109956491D01*
X126026467Y-109947362D01*
X126026195Y-109945539D01*
X126026615Y-109941285D01*
X126026615Y-109607952D01*
X126157568Y-109607952D01*
X126157568Y-109941285D01*
X126157987Y-109945539D01*
X126157716Y-109947361D01*
X126159065Y-109956489D01*
X126159970Y-109965671D01*
X126160674Y-109967372D01*
X126161300Y-109971602D01*
X126208919Y-110162078D01*
X126217164Y-110185153D01*
X126222696Y-110192619D01*
X126226253Y-110201207D01*
X126241798Y-110220149D01*
X126337036Y-110315388D01*
X126346624Y-110323257D01*
X126348786Y-110325749D01*
X126352543Y-110328114D01*
X126355978Y-110330933D01*
X126359028Y-110332196D01*
X126369523Y-110338803D01*
X126464761Y-110386422D01*
X126487647Y-110395180D01*
X126492127Y-110395498D01*
X126496277Y-110397217D01*
X126520663Y-110399619D01*
X126711139Y-110399619D01*
X126735525Y-110397217D01*
X126739673Y-110395498D01*
X126744155Y-110395180D01*
X126767041Y-110386422D01*
X126862278Y-110338804D01*
X126872774Y-110332196D01*
X126875824Y-110330933D01*
X126879258Y-110328114D01*
X126883016Y-110325749D01*
X126885177Y-110323257D01*
X126894766Y-110315388D01*
X126990004Y-110220149D01*
X127005549Y-110201207D01*
X127009106Y-110192618D01*
X127014638Y-110185153D01*
X127022883Y-110162078D01*
X127070502Y-109971602D01*
X127071127Y-109967372D01*
X127071832Y-109965671D01*
X127072736Y-109956491D01*
X127074086Y-109947362D01*
X127073814Y-109945539D01*
X127074234Y-109941285D01*
X127074234Y-109607952D01*
X127073814Y-109603697D01*
X127074086Y-109601875D01*
X127072736Y-109592745D01*
X127071832Y-109583566D01*
X127071127Y-109581864D01*
X127070502Y-109577635D01*
X127022883Y-109387159D01*
X127014638Y-109364084D01*
X127009104Y-109356615D01*
X127005548Y-109348030D01*
X126990003Y-109329088D01*
X126911148Y-109250233D01*
X127112351Y-109250233D01*
X127112351Y-109299005D01*
X127131015Y-109344065D01*
X127165503Y-109378553D01*
X127210563Y-109397217D01*
X127234949Y-109399619D01*
X127395663Y-109399619D01*
X127395663Y-110274619D01*
X127398065Y-110299005D01*
X127416729Y-110344065D01*
X127451217Y-110378553D01*
X127496277Y-110397217D01*
X127545049Y-110397217D01*
X127590109Y-110378553D01*
X127624597Y-110344065D01*
X127643261Y-110299005D01*
X127645663Y-110274619D01*
X127645663Y-109399619D01*
X127806377Y-109399619D01*
X127830763Y-109397217D01*
X127875823Y-109378553D01*
X127910311Y-109344065D01*
X127928975Y-109299005D01*
X127928975Y-109250233D01*
X127910311Y-109205173D01*
X127875823Y-109170685D01*
X127830763Y-109152021D01*
X127806377Y-109149619D01*
X127234949Y-109149619D01*
X127210563Y-109152021D01*
X127165503Y-109170685D01*
X127131015Y-109205173D01*
X127112351Y-109250233D01*
X126911148Y-109250233D01*
X126894765Y-109233850D01*
X126885179Y-109225983D01*
X126883016Y-109223489D01*
X126879254Y-109221120D01*
X126875823Y-109218305D01*
X126872776Y-109217043D01*
X126862278Y-109210434D01*
X126767041Y-109162816D01*
X126744155Y-109154058D01*
X126739673Y-109153739D01*
X126735525Y-109152021D01*
X126711139Y-109149619D01*
X126520663Y-109149619D01*
X126496277Y-109152021D01*
X126492127Y-109153739D01*
X126487647Y-109154058D01*
X126464761Y-109162816D01*
X126369523Y-109210435D01*
X126359026Y-109217042D01*
X126355979Y-109218305D01*
X126352547Y-109221121D01*
X126348786Y-109223489D01*
X126346622Y-109225983D01*
X126337037Y-109233850D01*
X126241799Y-109329088D01*
X126226254Y-109348030D01*
X126222697Y-109356615D01*
X126217164Y-109364084D01*
X126208919Y-109387159D01*
X126161300Y-109577635D01*
X126160674Y-109581864D01*
X126159970Y-109583566D01*
X126159065Y-109592747D01*
X126157716Y-109601876D01*
X126157987Y-109603697D01*
X126157568Y-109607952D01*
X126026615Y-109607952D01*
X126026195Y-109603697D01*
X126026467Y-109601875D01*
X126025117Y-109592745D01*
X126024213Y-109583566D01*
X126023508Y-109581864D01*
X126022883Y-109577635D01*
X125975264Y-109387159D01*
X125967019Y-109364084D01*
X125961485Y-109356615D01*
X125957929Y-109348030D01*
X125942384Y-109329088D01*
X125847146Y-109233850D01*
X125837560Y-109225983D01*
X125835397Y-109223489D01*
X125831635Y-109221120D01*
X125828204Y-109218305D01*
X125825157Y-109217043D01*
X125814659Y-109210434D01*
X125719422Y-109162816D01*
X125696536Y-109154058D01*
X125692054Y-109153739D01*
X125687906Y-109152021D01*
X125663520Y-109149619D01*
X125473044Y-109149619D01*
X125448658Y-109152021D01*
X125444508Y-109153739D01*
X125440028Y-109154058D01*
X125417142Y-109162816D01*
X125321904Y-109210435D01*
X125311407Y-109217042D01*
X125308360Y-109218305D01*
X125304928Y-109221121D01*
X125301167Y-109223489D01*
X125299003Y-109225983D01*
X125289418Y-109233850D01*
X125194180Y-109329088D01*
X125178635Y-109348030D01*
X125175078Y-109356615D01*
X125169545Y-109364084D01*
X125161300Y-109387159D01*
X125113681Y-109577635D01*
X125113055Y-109581864D01*
X125112351Y-109583566D01*
X125111446Y-109592747D01*
X125110097Y-109601876D01*
X125110368Y-109603697D01*
X125109949Y-109607952D01*
X124921350Y-109607952D01*
X124926938Y-109593349D01*
X124927256Y-109588868D01*
X124928975Y-109584719D01*
X124931377Y-109560333D01*
X124931377Y-109465095D01*
X124928975Y-109440709D01*
X124927256Y-109436559D01*
X124926938Y-109432079D01*
X124918180Y-109409193D01*
X124870561Y-109313955D01*
X124863954Y-109303460D01*
X124862691Y-109300410D01*
X124859872Y-109296975D01*
X124857507Y-109293218D01*
X124855015Y-109291056D01*
X124847146Y-109281468D01*
X124799527Y-109233850D01*
X124789941Y-109225983D01*
X124787778Y-109223489D01*
X124784016Y-109221120D01*
X124780585Y-109218305D01*
X124777538Y-109217043D01*
X124767040Y-109210434D01*
X124671803Y-109162816D01*
X124648917Y-109154058D01*
X124644435Y-109153739D01*
X124640287Y-109152021D01*
X124615901Y-109149619D01*
X124282568Y-109149619D01*
X124258182Y-109152021D01*
X124213122Y-109170685D01*
X124178634Y-109205173D01*
X124159970Y-109250233D01*
X124157568Y-109274619D01*
X124032568Y-109274619D01*
X124032568Y-109024619D01*
X128053975Y-109024619D01*
X128053975Y-110524619D01*
G37*
G36*
X136021235Y-117547681D02*
G01*
X136033645Y-117560092D01*
X136058996Y-117610793D01*
X136058996Y-117694633D01*
X136033644Y-117745336D01*
X136014713Y-117764268D01*
X135964012Y-117789619D01*
X135737568Y-117789619D01*
X135737568Y-117515809D01*
X135925618Y-117515809D01*
X136021235Y-117547681D01*
G37*
G36*
X135967094Y-117064969D02*
G01*
X135986026Y-117083902D01*
X136011377Y-117134603D01*
X136011377Y-117170824D01*
X135986026Y-117221525D01*
X135967094Y-117240458D01*
X135916393Y-117265809D01*
X135737568Y-117265809D01*
X135737568Y-117039619D01*
X135916393Y-117039619D01*
X135967094Y-117064969D01*
G37*
G36*
X137014714Y-117064970D02*
G01*
X137071125Y-117121381D01*
X137106615Y-117263341D01*
X137106615Y-117565896D01*
X137071125Y-117707855D01*
X137014711Y-117764269D01*
X136964012Y-117789619D01*
X136832553Y-117789619D01*
X136781852Y-117764268D01*
X136725438Y-117707855D01*
X136689949Y-117565896D01*
X136689949Y-117263341D01*
X136725439Y-117121381D01*
X136781849Y-117064970D01*
X136832553Y-117039619D01*
X136964012Y-117039619D01*
X137014714Y-117064970D01*
G37*
G36*
X138062333Y-117064970D02*
G01*
X138118744Y-117121381D01*
X138154234Y-117263341D01*
X138154234Y-117565896D01*
X138118744Y-117707855D01*
X138062330Y-117764269D01*
X138011631Y-117789619D01*
X137880172Y-117789619D01*
X137829471Y-117764268D01*
X137773057Y-117707855D01*
X137737568Y-117565896D01*
X137737568Y-117263341D01*
X137773058Y-117121381D01*
X137829468Y-117064970D01*
X137880172Y-117039619D01*
X138011631Y-117039619D01*
X138062333Y-117064970D01*
G37*
G36*
X139383975Y-118164619D02*
G01*
X135362568Y-118164619D01*
X135362568Y-116914619D01*
X135487568Y-116914619D01*
X135487568Y-117914619D01*
X135489970Y-117939005D01*
X135508634Y-117984065D01*
X135543122Y-118018553D01*
X135588182Y-118037217D01*
X135612568Y-118039619D01*
X135993520Y-118039619D01*
X136017906Y-118037217D01*
X136022054Y-118035498D01*
X136026536Y-118035180D01*
X136049422Y-118026422D01*
X136144659Y-117978804D01*
X136155155Y-117972196D01*
X136158205Y-117970933D01*
X136161638Y-117968114D01*
X136165397Y-117965749D01*
X136167559Y-117963255D01*
X136177147Y-117955387D01*
X136224766Y-117907768D01*
X136232633Y-117898180D01*
X136235126Y-117896019D01*
X136237492Y-117892259D01*
X136240311Y-117888825D01*
X136241573Y-117885776D01*
X136248180Y-117875282D01*
X136295799Y-117780044D01*
X136304557Y-117757158D01*
X136304875Y-117752677D01*
X136306594Y-117748528D01*
X136308996Y-117724142D01*
X136308996Y-117581285D01*
X136306594Y-117556899D01*
X136304875Y-117552749D01*
X136304557Y-117548269D01*
X136295799Y-117525383D01*
X136248180Y-117430145D01*
X136241573Y-117419650D01*
X136240310Y-117416600D01*
X136237491Y-117413165D01*
X136235126Y-117409408D01*
X136232634Y-117407246D01*
X136224765Y-117397658D01*
X136192435Y-117365329D01*
X136192691Y-117365018D01*
X136193954Y-117361967D01*
X136200561Y-117351473D01*
X136248180Y-117256235D01*
X136251350Y-117247952D01*
X136439949Y-117247952D01*
X136439949Y-117581285D01*
X136440368Y-117585539D01*
X136440097Y-117587361D01*
X136441446Y-117596489D01*
X136442351Y-117605671D01*
X136443055Y-117607372D01*
X136443681Y-117611602D01*
X136491300Y-117802078D01*
X136499545Y-117825153D01*
X136505077Y-117832619D01*
X136508634Y-117841207D01*
X136524179Y-117860149D01*
X136619417Y-117955388D01*
X136629005Y-117963257D01*
X136631167Y-117965749D01*
X136634924Y-117968114D01*
X136638359Y-117970933D01*
X136641409Y-117972196D01*
X136651904Y-117978803D01*
X136747142Y-118026422D01*
X136770028Y-118035180D01*
X136774508Y-118035498D01*
X136778658Y-118037217D01*
X136803044Y-118039619D01*
X136993520Y-118039619D01*
X137017906Y-118037217D01*
X137022054Y-118035498D01*
X137026536Y-118035180D01*
X137049422Y-118026422D01*
X137144659Y-117978804D01*
X137155155Y-117972196D01*
X137158205Y-117970933D01*
X137161639Y-117968114D01*
X137165397Y-117965749D01*
X137167558Y-117963257D01*
X137177147Y-117955388D01*
X137272385Y-117860149D01*
X137287930Y-117841207D01*
X137291487Y-117832618D01*
X137297019Y-117825153D01*
X137305264Y-117802078D01*
X137352883Y-117611602D01*
X137353508Y-117607372D01*
X137354213Y-117605671D01*
X137355117Y-117596491D01*
X137356467Y-117587362D01*
X137356195Y-117585539D01*
X137356615Y-117581285D01*
X137356615Y-117247952D01*
X137487568Y-117247952D01*
X137487568Y-117581285D01*
X137487987Y-117585539D01*
X137487716Y-117587361D01*
X137489065Y-117596489D01*
X137489970Y-117605671D01*
X137490674Y-117607372D01*
X137491300Y-117611602D01*
X137538919Y-117802078D01*
X137547164Y-117825153D01*
X137552696Y-117832619D01*
X137556253Y-117841207D01*
X137571798Y-117860149D01*
X137667036Y-117955388D01*
X137676624Y-117963257D01*
X137678786Y-117965749D01*
X137682543Y-117968114D01*
X137685978Y-117970933D01*
X137689028Y-117972196D01*
X137699523Y-117978803D01*
X137794761Y-118026422D01*
X137817647Y-118035180D01*
X137822127Y-118035498D01*
X137826277Y-118037217D01*
X137850663Y-118039619D01*
X138041139Y-118039619D01*
X138065525Y-118037217D01*
X138069673Y-118035498D01*
X138074155Y-118035180D01*
X138097041Y-118026422D01*
X138192278Y-117978804D01*
X138202774Y-117972196D01*
X138205824Y-117970933D01*
X138209258Y-117968114D01*
X138213016Y-117965749D01*
X138215177Y-117963257D01*
X138224766Y-117955388D01*
X138320004Y-117860149D01*
X138335549Y-117841207D01*
X138339106Y-117832618D01*
X138344638Y-117825153D01*
X138352883Y-117802078D01*
X138400502Y-117611602D01*
X138401127Y-117607372D01*
X138401832Y-117605671D01*
X138402736Y-117596491D01*
X138404086Y-117587362D01*
X138403814Y-117585539D01*
X138404234Y-117581285D01*
X138404234Y-117247952D01*
X138403814Y-117243697D01*
X138404086Y-117241875D01*
X138402736Y-117232745D01*
X138401832Y-117223566D01*
X138401127Y-117221864D01*
X138400502Y-117217635D01*
X138352883Y-117027159D01*
X138344638Y-117004084D01*
X138339104Y-116996615D01*
X138335548Y-116988030D01*
X138320003Y-116969088D01*
X138241148Y-116890233D01*
X138442351Y-116890233D01*
X138442351Y-116939005D01*
X138461015Y-116984065D01*
X138495503Y-117018553D01*
X138540563Y-117037217D01*
X138564949Y-117039619D01*
X138725663Y-117039619D01*
X138725663Y-117914619D01*
X138728065Y-117939005D01*
X138746729Y-117984065D01*
X138781217Y-118018553D01*
X138826277Y-118037217D01*
X138875049Y-118037217D01*
X138920109Y-118018553D01*
X138954597Y-117984065D01*
X138973261Y-117939005D01*
X138975663Y-117914619D01*
X138975663Y-117039619D01*
X139136377Y-117039619D01*
X139160763Y-117037217D01*
X139205823Y-117018553D01*
X139240311Y-116984065D01*
X139258975Y-116939005D01*
X139258975Y-116890233D01*
X139240311Y-116845173D01*
X139205823Y-116810685D01*
X139160763Y-116792021D01*
X139136377Y-116789619D01*
X138564949Y-116789619D01*
X138540563Y-116792021D01*
X138495503Y-116810685D01*
X138461015Y-116845173D01*
X138442351Y-116890233D01*
X138241148Y-116890233D01*
X138224765Y-116873850D01*
X138215179Y-116865983D01*
X138213016Y-116863489D01*
X138209254Y-116861120D01*
X138205823Y-116858305D01*
X138202776Y-116857043D01*
X138192278Y-116850434D01*
X138097041Y-116802816D01*
X138074155Y-116794058D01*
X138069673Y-116793739D01*
X138065525Y-116792021D01*
X138041139Y-116789619D01*
X137850663Y-116789619D01*
X137826277Y-116792021D01*
X137822127Y-116793739D01*
X137817647Y-116794058D01*
X137794761Y-116802816D01*
X137699523Y-116850435D01*
X137689026Y-116857042D01*
X137685979Y-116858305D01*
X137682547Y-116861121D01*
X137678786Y-116863489D01*
X137676622Y-116865983D01*
X137667037Y-116873850D01*
X137571799Y-116969088D01*
X137556254Y-116988030D01*
X137552697Y-116996615D01*
X137547164Y-117004084D01*
X137538919Y-117027159D01*
X137491300Y-117217635D01*
X137490674Y-117221864D01*
X137489970Y-117223566D01*
X137489065Y-117232747D01*
X137487716Y-117241876D01*
X137487987Y-117243697D01*
X137487568Y-117247952D01*
X137356615Y-117247952D01*
X137356195Y-117243697D01*
X137356467Y-117241875D01*
X137355117Y-117232745D01*
X137354213Y-117223566D01*
X137353508Y-117221864D01*
X137352883Y-117217635D01*
X137305264Y-117027159D01*
X137297019Y-117004084D01*
X137291485Y-116996615D01*
X137287929Y-116988030D01*
X137272384Y-116969088D01*
X137177146Y-116873850D01*
X137167560Y-116865983D01*
X137165397Y-116863489D01*
X137161635Y-116861120D01*
X137158204Y-116858305D01*
X137155157Y-116857043D01*
X137144659Y-116850434D01*
X137049422Y-116802816D01*
X137026536Y-116794058D01*
X137022054Y-116793739D01*
X137017906Y-116792021D01*
X136993520Y-116789619D01*
X136803044Y-116789619D01*
X136778658Y-116792021D01*
X136774508Y-116793739D01*
X136770028Y-116794058D01*
X136747142Y-116802816D01*
X136651904Y-116850435D01*
X136641407Y-116857042D01*
X136638360Y-116858305D01*
X136634928Y-116861121D01*
X136631167Y-116863489D01*
X136629003Y-116865983D01*
X136619418Y-116873850D01*
X136524180Y-116969088D01*
X136508635Y-116988030D01*
X136505078Y-116996615D01*
X136499545Y-117004084D01*
X136491300Y-117027159D01*
X136443681Y-117217635D01*
X136443055Y-117221864D01*
X136442351Y-117223566D01*
X136441446Y-117232747D01*
X136440097Y-117241876D01*
X136440368Y-117243697D01*
X136439949Y-117247952D01*
X136251350Y-117247952D01*
X136256938Y-117233349D01*
X136257256Y-117228868D01*
X136258975Y-117224719D01*
X136261377Y-117200333D01*
X136261377Y-117105095D01*
X136258975Y-117080709D01*
X136257256Y-117076559D01*
X136256938Y-117072079D01*
X136248180Y-117049193D01*
X136200561Y-116953955D01*
X136193954Y-116943460D01*
X136192691Y-116940410D01*
X136189872Y-116936975D01*
X136187507Y-116933218D01*
X136185015Y-116931056D01*
X136177146Y-116921468D01*
X136129527Y-116873850D01*
X136119941Y-116865983D01*
X136117778Y-116863489D01*
X136114016Y-116861120D01*
X136110585Y-116858305D01*
X136107538Y-116857043D01*
X136097040Y-116850434D01*
X136001803Y-116802816D01*
X135978917Y-116794058D01*
X135974435Y-116793739D01*
X135970287Y-116792021D01*
X135945901Y-116789619D01*
X135612568Y-116789619D01*
X135588182Y-116792021D01*
X135543122Y-116810685D01*
X135508634Y-116845173D01*
X135489970Y-116890233D01*
X135487568Y-116914619D01*
X135362568Y-116914619D01*
X135362568Y-116664619D01*
X139383975Y-116664619D01*
X139383975Y-118164619D01*
G37*
X80213190Y-112284574D02*
X80165571Y-112379812D01*
X80165571Y-112379812D02*
X80117952Y-112427431D01*
X80117952Y-112427431D02*
X80022714Y-112475050D01*
X80022714Y-112475050D02*
X79975095Y-112475050D01*
X79975095Y-112475050D02*
X79879857Y-112427431D01*
X79879857Y-112427431D02*
X79832238Y-112379812D01*
X79832238Y-112379812D02*
X79784619Y-112284574D01*
X79784619Y-112284574D02*
X79784619Y-112094098D01*
X79784619Y-112094098D02*
X79832238Y-111998860D01*
X79832238Y-111998860D02*
X79879857Y-111951241D01*
X79879857Y-111951241D02*
X79975095Y-111903622D01*
X79975095Y-111903622D02*
X80022714Y-111903622D01*
X80022714Y-111903622D02*
X80117952Y-111951241D01*
X80117952Y-111951241D02*
X80165571Y-111998860D01*
X80165571Y-111998860D02*
X80213190Y-112094098D01*
X80213190Y-112094098D02*
X80213190Y-112284574D01*
X80213190Y-112284574D02*
X80260809Y-112379812D01*
X80260809Y-112379812D02*
X80308428Y-112427431D01*
X80308428Y-112427431D02*
X80403666Y-112475050D01*
X80403666Y-112475050D02*
X80594142Y-112475050D01*
X80594142Y-112475050D02*
X80689380Y-112427431D01*
X80689380Y-112427431D02*
X80737000Y-112379812D01*
X80737000Y-112379812D02*
X80784619Y-112284574D01*
X80784619Y-112284574D02*
X80784619Y-112094098D01*
X80784619Y-112094098D02*
X80737000Y-111998860D01*
X80737000Y-111998860D02*
X80689380Y-111951241D01*
X80689380Y-111951241D02*
X80594142Y-111903622D01*
X80594142Y-111903622D02*
X80403666Y-111903622D01*
X80403666Y-111903622D02*
X80308428Y-111951241D01*
X80308428Y-111951241D02*
X80260809Y-111998860D01*
X80260809Y-111998860D02*
X80213190Y-112094098D01*
X80403666Y-111475050D02*
X80403666Y-110713146D01*
X80117952Y-110236955D02*
X80403666Y-109475051D01*
X80403666Y-109475051D02*
X80689380Y-110236955D01*
X79879857Y-109046479D02*
X79832238Y-108998860D01*
X79832238Y-108998860D02*
X79784619Y-108903622D01*
X79784619Y-108903622D02*
X79784619Y-108665527D01*
X79784619Y-108665527D02*
X79832238Y-108570289D01*
X79832238Y-108570289D02*
X79879857Y-108522670D01*
X79879857Y-108522670D02*
X79975095Y-108475051D01*
X79975095Y-108475051D02*
X80070333Y-108475051D01*
X80070333Y-108475051D02*
X80213190Y-108522670D01*
X80213190Y-108522670D02*
X80784619Y-109094098D01*
X80784619Y-109094098D02*
X80784619Y-108475051D01*
X80117952Y-107617908D02*
X80784619Y-107617908D01*
X79737000Y-107856003D02*
X80451285Y-108094098D01*
X80451285Y-108094098D02*
X80451285Y-107475051D01*
X79784619Y-107236955D02*
X80784619Y-106903622D01*
X80784619Y-106903622D02*
X79784619Y-106570289D01*
X80784619Y-106236955D02*
X79784619Y-106236955D01*
X79784619Y-106236955D02*
X79784619Y-105998860D01*
X79784619Y-105998860D02*
X79832238Y-105856003D01*
X79832238Y-105856003D02*
X79927476Y-105760765D01*
X79927476Y-105760765D02*
X80022714Y-105713146D01*
X80022714Y-105713146D02*
X80213190Y-105665527D01*
X80213190Y-105665527D02*
X80356047Y-105665527D01*
X80356047Y-105665527D02*
X80546523Y-105713146D01*
X80546523Y-105713146D02*
X80641761Y-105760765D01*
X80641761Y-105760765D02*
X80737000Y-105856003D01*
X80737000Y-105856003D02*
X80784619Y-105998860D01*
X80784619Y-105998860D02*
X80784619Y-106236955D01*
X80689380Y-104665527D02*
X80737000Y-104713146D01*
X80737000Y-104713146D02*
X80784619Y-104856003D01*
X80784619Y-104856003D02*
X80784619Y-104951241D01*
X80784619Y-104951241D02*
X80737000Y-105094098D01*
X80737000Y-105094098D02*
X80641761Y-105189336D01*
X80641761Y-105189336D02*
X80546523Y-105236955D01*
X80546523Y-105236955D02*
X80356047Y-105284574D01*
X80356047Y-105284574D02*
X80213190Y-105284574D01*
X80213190Y-105284574D02*
X80022714Y-105236955D01*
X80022714Y-105236955D02*
X79927476Y-105189336D01*
X79927476Y-105189336D02*
X79832238Y-105094098D01*
X79832238Y-105094098D02*
X79784619Y-104951241D01*
X79784619Y-104951241D02*
X79784619Y-104856003D01*
X79784619Y-104856003D02*
X79832238Y-104713146D01*
X79832238Y-104713146D02*
X79879857Y-104665527D01*
D12*
X102832271Y-87324999D02*
X102546557Y-87524999D01*
X102832271Y-87667856D02*
X102232271Y-87667856D01*
X102232271Y-87667856D02*
X102232271Y-87439285D01*
X102232271Y-87439285D02*
X102260842Y-87382142D01*
X102260842Y-87382142D02*
X102289414Y-87353571D01*
X102289414Y-87353571D02*
X102346557Y-87324999D01*
X102346557Y-87324999D02*
X102432271Y-87324999D01*
X102432271Y-87324999D02*
X102489414Y-87353571D01*
X102489414Y-87353571D02*
X102517985Y-87382142D01*
X102517985Y-87382142D02*
X102546557Y-87439285D01*
X102546557Y-87439285D02*
X102546557Y-87667856D01*
X102832271Y-86753571D02*
X102832271Y-87096428D01*
X102832271Y-86924999D02*
X102232271Y-86924999D01*
X102232271Y-86924999D02*
X102317985Y-86982142D01*
X102317985Y-86982142D02*
X102375128Y-87039285D01*
X102375128Y-87039285D02*
X102403700Y-87096428D01*
X89010585Y-102587857D02*
X89039157Y-102530714D01*
X89039157Y-102530714D02*
X89096300Y-102473571D01*
X89096300Y-102473571D02*
X89182014Y-102387857D01*
X89182014Y-102387857D02*
X89210585Y-102330714D01*
X89210585Y-102330714D02*
X89210585Y-102273571D01*
X89067728Y-102302142D02*
X89096300Y-102245000D01*
X89096300Y-102245000D02*
X89153442Y-102187857D01*
X89153442Y-102187857D02*
X89267728Y-102159285D01*
X89267728Y-102159285D02*
X89467728Y-102159285D01*
X89467728Y-102159285D02*
X89582014Y-102187857D01*
X89582014Y-102187857D02*
X89639157Y-102245000D01*
X89639157Y-102245000D02*
X89667728Y-102302142D01*
X89667728Y-102302142D02*
X89667728Y-102416428D01*
X89667728Y-102416428D02*
X89639157Y-102473571D01*
X89639157Y-102473571D02*
X89582014Y-102530714D01*
X89582014Y-102530714D02*
X89467728Y-102559285D01*
X89467728Y-102559285D02*
X89267728Y-102559285D01*
X89267728Y-102559285D02*
X89153442Y-102530714D01*
X89153442Y-102530714D02*
X89096300Y-102473571D01*
X89096300Y-102473571D02*
X89067728Y-102416428D01*
X89067728Y-102416428D02*
X89067728Y-102302142D01*
X89610585Y-102787856D02*
X89639157Y-102816428D01*
X89639157Y-102816428D02*
X89667728Y-102873571D01*
X89667728Y-102873571D02*
X89667728Y-103016428D01*
X89667728Y-103016428D02*
X89639157Y-103073571D01*
X89639157Y-103073571D02*
X89610585Y-103102142D01*
X89610585Y-103102142D02*
X89553442Y-103130713D01*
X89553442Y-103130713D02*
X89496300Y-103130713D01*
X89496300Y-103130713D02*
X89410585Y-103102142D01*
X89410585Y-103102142D02*
X89067728Y-102759285D01*
X89067728Y-102759285D02*
X89067728Y-103130713D01*
X92314771Y-70849642D02*
X92800485Y-70849642D01*
X92800485Y-70849642D02*
X92857628Y-70821071D01*
X92857628Y-70821071D02*
X92886200Y-70792500D01*
X92886200Y-70792500D02*
X92914771Y-70735357D01*
X92914771Y-70735357D02*
X92914771Y-70621071D01*
X92914771Y-70621071D02*
X92886200Y-70563928D01*
X92886200Y-70563928D02*
X92857628Y-70535357D01*
X92857628Y-70535357D02*
X92800485Y-70506785D01*
X92800485Y-70506785D02*
X92314771Y-70506785D01*
X92371914Y-70249643D02*
X92343342Y-70221071D01*
X92343342Y-70221071D02*
X92314771Y-70163929D01*
X92314771Y-70163929D02*
X92314771Y-70021071D01*
X92314771Y-70021071D02*
X92343342Y-69963929D01*
X92343342Y-69963929D02*
X92371914Y-69935357D01*
X92371914Y-69935357D02*
X92429057Y-69906786D01*
X92429057Y-69906786D02*
X92486200Y-69906786D01*
X92486200Y-69906786D02*
X92571914Y-69935357D01*
X92571914Y-69935357D02*
X92914771Y-70278214D01*
X92914771Y-70278214D02*
X92914771Y-69906786D01*
X91575595Y-88599819D02*
X91575595Y-89409342D01*
X91575595Y-89409342D02*
X91623214Y-89504580D01*
X91623214Y-89504580D02*
X91670833Y-89552200D01*
X91670833Y-89552200D02*
X91766071Y-89599819D01*
X91766071Y-89599819D02*
X91956547Y-89599819D01*
X91956547Y-89599819D02*
X92051785Y-89552200D01*
X92051785Y-89552200D02*
X92099404Y-89504580D01*
X92099404Y-89504580D02*
X92147023Y-89409342D01*
X92147023Y-89409342D02*
X92147023Y-88599819D01*
X92527976Y-88599819D02*
X93147023Y-88599819D01*
X93147023Y-88599819D02*
X92813690Y-88980771D01*
X92813690Y-88980771D02*
X92956547Y-88980771D01*
X92956547Y-88980771D02*
X93051785Y-89028390D01*
X93051785Y-89028390D02*
X93099404Y-89076009D01*
X93099404Y-89076009D02*
X93147023Y-89171247D01*
X93147023Y-89171247D02*
X93147023Y-89409342D01*
X93147023Y-89409342D02*
X93099404Y-89504580D01*
X93099404Y-89504580D02*
X93051785Y-89552200D01*
X93051785Y-89552200D02*
X92956547Y-89599819D01*
X92956547Y-89599819D02*
X92670833Y-89599819D01*
X92670833Y-89599819D02*
X92575595Y-89552200D01*
X92575595Y-89552200D02*
X92527976Y-89504580D01*
D11*
X106509524Y-117259695D02*
X106509524Y-116459695D01*
X106509524Y-116459695D02*
X106700000Y-116459695D01*
X106700000Y-116459695D02*
X106814286Y-116497790D01*
X106814286Y-116497790D02*
X106890476Y-116573980D01*
X106890476Y-116573980D02*
X106928571Y-116650171D01*
X106928571Y-116650171D02*
X106966667Y-116802552D01*
X106966667Y-116802552D02*
X106966667Y-116916838D01*
X106966667Y-116916838D02*
X106928571Y-117069219D01*
X106928571Y-117069219D02*
X106890476Y-117145409D01*
X106890476Y-117145409D02*
X106814286Y-117221600D01*
X106814286Y-117221600D02*
X106700000Y-117259695D01*
X106700000Y-117259695D02*
X106509524Y-117259695D01*
X107728571Y-117259695D02*
X107271428Y-117259695D01*
X107500000Y-117259695D02*
X107500000Y-116459695D01*
X107500000Y-116459695D02*
X107423809Y-116573980D01*
X107423809Y-116573980D02*
X107347619Y-116650171D01*
X107347619Y-116650171D02*
X107271428Y-116688266D01*
D12*
X76058333Y-104604819D02*
X75582143Y-104604819D01*
X75582143Y-104604819D02*
X75582143Y-103604819D01*
X76915476Y-104604819D02*
X76344048Y-104604819D01*
X76629762Y-104604819D02*
X76629762Y-103604819D01*
X76629762Y-103604819D02*
X76534524Y-103747676D01*
X76534524Y-103747676D02*
X76439286Y-103842914D01*
X76439286Y-103842914D02*
X76344048Y-103890533D01*
X85429166Y-105704819D02*
X85429166Y-106419104D01*
X85429166Y-106419104D02*
X85381547Y-106561961D01*
X85381547Y-106561961D02*
X85286309Y-106657200D01*
X85286309Y-106657200D02*
X85143452Y-106704819D01*
X85143452Y-106704819D02*
X85048214Y-106704819D01*
X86429166Y-106704819D02*
X85857738Y-106704819D01*
X86143452Y-106704819D02*
X86143452Y-105704819D01*
X86143452Y-105704819D02*
X86048214Y-105847676D01*
X86048214Y-105847676D02*
X85952976Y-105942914D01*
X85952976Y-105942914D02*
X85857738Y-105990533D01*
X147254924Y-111688200D02*
X147254924Y-110878677D01*
X147254924Y-110878677D02*
X147207305Y-110783439D01*
X147207305Y-110783439D02*
X147159686Y-110735820D01*
X147159686Y-110735820D02*
X147064448Y-110688200D01*
X147064448Y-110688200D02*
X146873972Y-110688200D01*
X146873972Y-110688200D02*
X146778734Y-110735820D01*
X146778734Y-110735820D02*
X146731115Y-110783439D01*
X146731115Y-110783439D02*
X146683496Y-110878677D01*
X146683496Y-110878677D02*
X146683496Y-111688200D01*
X146064448Y-111259629D02*
X146159686Y-111307248D01*
X146159686Y-111307248D02*
X146207305Y-111354867D01*
X146207305Y-111354867D02*
X146254924Y-111450105D01*
X146254924Y-111450105D02*
X146254924Y-111497724D01*
X146254924Y-111497724D02*
X146207305Y-111592962D01*
X146207305Y-111592962D02*
X146159686Y-111640581D01*
X146159686Y-111640581D02*
X146064448Y-111688200D01*
X146064448Y-111688200D02*
X145873972Y-111688200D01*
X145873972Y-111688200D02*
X145778734Y-111640581D01*
X145778734Y-111640581D02*
X145731115Y-111592962D01*
X145731115Y-111592962D02*
X145683496Y-111497724D01*
X145683496Y-111497724D02*
X145683496Y-111450105D01*
X145683496Y-111450105D02*
X145731115Y-111354867D01*
X145731115Y-111354867D02*
X145778734Y-111307248D01*
X145778734Y-111307248D02*
X145873972Y-111259629D01*
X145873972Y-111259629D02*
X146064448Y-111259629D01*
X146064448Y-111259629D02*
X146159686Y-111212010D01*
X146159686Y-111212010D02*
X146207305Y-111164391D01*
X146207305Y-111164391D02*
X146254924Y-111069153D01*
X146254924Y-111069153D02*
X146254924Y-110878677D01*
X146254924Y-110878677D02*
X146207305Y-110783439D01*
X146207305Y-110783439D02*
X146159686Y-110735820D01*
X146159686Y-110735820D02*
X146064448Y-110688200D01*
X146064448Y-110688200D02*
X145873972Y-110688200D01*
X145873972Y-110688200D02*
X145778734Y-110735820D01*
X145778734Y-110735820D02*
X145731115Y-110783439D01*
X145731115Y-110783439D02*
X145683496Y-110878677D01*
X145683496Y-110878677D02*
X145683496Y-111069153D01*
X145683496Y-111069153D02*
X145731115Y-111164391D01*
X145731115Y-111164391D02*
X145778734Y-111212010D01*
X145778734Y-111212010D02*
X145873972Y-111259629D01*
X97601914Y-80357142D02*
X97573342Y-80414285D01*
X97573342Y-80414285D02*
X97516200Y-80471428D01*
X97516200Y-80471428D02*
X97430485Y-80557142D01*
X97430485Y-80557142D02*
X97401914Y-80614285D01*
X97401914Y-80614285D02*
X97401914Y-80671428D01*
X97544771Y-80642857D02*
X97516200Y-80700000D01*
X97516200Y-80700000D02*
X97459057Y-80757142D01*
X97459057Y-80757142D02*
X97344771Y-80785714D01*
X97344771Y-80785714D02*
X97144771Y-80785714D01*
X97144771Y-80785714D02*
X97030485Y-80757142D01*
X97030485Y-80757142D02*
X96973342Y-80700000D01*
X96973342Y-80700000D02*
X96944771Y-80642857D01*
X96944771Y-80642857D02*
X96944771Y-80528571D01*
X96944771Y-80528571D02*
X96973342Y-80471428D01*
X96973342Y-80471428D02*
X97030485Y-80414285D01*
X97030485Y-80414285D02*
X97144771Y-80385714D01*
X97144771Y-80385714D02*
X97344771Y-80385714D01*
X97344771Y-80385714D02*
X97459057Y-80414285D01*
X97459057Y-80414285D02*
X97516200Y-80471428D01*
X97516200Y-80471428D02*
X97544771Y-80528571D01*
X97544771Y-80528571D02*
X97544771Y-80642857D01*
X96944771Y-80185714D02*
X96944771Y-79814286D01*
X96944771Y-79814286D02*
X97173342Y-80014286D01*
X97173342Y-80014286D02*
X97173342Y-79928571D01*
X97173342Y-79928571D02*
X97201914Y-79871429D01*
X97201914Y-79871429D02*
X97230485Y-79842857D01*
X97230485Y-79842857D02*
X97287628Y-79814286D01*
X97287628Y-79814286D02*
X97430485Y-79814286D01*
X97430485Y-79814286D02*
X97487628Y-79842857D01*
X97487628Y-79842857D02*
X97516200Y-79871429D01*
X97516200Y-79871429D02*
X97544771Y-79928571D01*
X97544771Y-79928571D02*
X97544771Y-80100000D01*
X97544771Y-80100000D02*
X97516200Y-80157143D01*
X97516200Y-80157143D02*
X97487628Y-80185714D01*
D11*
X110978400Y-99033332D02*
X110940304Y-99147618D01*
X110940304Y-99147618D02*
X110940304Y-99338094D01*
X110940304Y-99338094D02*
X110978400Y-99414285D01*
X110978400Y-99414285D02*
X111016495Y-99452380D01*
X111016495Y-99452380D02*
X111092685Y-99490475D01*
X111092685Y-99490475D02*
X111168876Y-99490475D01*
X111168876Y-99490475D02*
X111245066Y-99452380D01*
X111245066Y-99452380D02*
X111283161Y-99414285D01*
X111283161Y-99414285D02*
X111321257Y-99338094D01*
X111321257Y-99338094D02*
X111359352Y-99185713D01*
X111359352Y-99185713D02*
X111397447Y-99109523D01*
X111397447Y-99109523D02*
X111435542Y-99071428D01*
X111435542Y-99071428D02*
X111511733Y-99033332D01*
X111511733Y-99033332D02*
X111587923Y-99033332D01*
X111587923Y-99033332D02*
X111664114Y-99071428D01*
X111664114Y-99071428D02*
X111702209Y-99109523D01*
X111702209Y-99109523D02*
X111740304Y-99185713D01*
X111740304Y-99185713D02*
X111740304Y-99376190D01*
X111740304Y-99376190D02*
X111702209Y-99490475D01*
X111740304Y-99757142D02*
X110940304Y-99947618D01*
X110940304Y-99947618D02*
X111511733Y-100099999D01*
X111511733Y-100099999D02*
X110940304Y-100252380D01*
X110940304Y-100252380D02*
X111740304Y-100442857D01*
X110940304Y-101166666D02*
X110940304Y-100709523D01*
X110940304Y-100938095D02*
X111740304Y-100938095D01*
X111740304Y-100938095D02*
X111626019Y-100861904D01*
X111626019Y-100861904D02*
X111549828Y-100785714D01*
X111549828Y-100785714D02*
X111511733Y-100709523D01*
D12*
X77320833Y-76954819D02*
X76844643Y-76954819D01*
X76844643Y-76954819D02*
X76844643Y-75954819D01*
X78082738Y-76288152D02*
X78082738Y-76954819D01*
X77844643Y-75907200D02*
X77606548Y-76621485D01*
X77606548Y-76621485D02*
X78225595Y-76621485D01*
X74325000Y-91612628D02*
X74296428Y-91641200D01*
X74296428Y-91641200D02*
X74210714Y-91669771D01*
X74210714Y-91669771D02*
X74153571Y-91669771D01*
X74153571Y-91669771D02*
X74067857Y-91641200D01*
X74067857Y-91641200D02*
X74010714Y-91584057D01*
X74010714Y-91584057D02*
X73982143Y-91526914D01*
X73982143Y-91526914D02*
X73953571Y-91412628D01*
X73953571Y-91412628D02*
X73953571Y-91326914D01*
X73953571Y-91326914D02*
X73982143Y-91212628D01*
X73982143Y-91212628D02*
X74010714Y-91155485D01*
X74010714Y-91155485D02*
X74067857Y-91098342D01*
X74067857Y-91098342D02*
X74153571Y-91069771D01*
X74153571Y-91069771D02*
X74210714Y-91069771D01*
X74210714Y-91069771D02*
X74296428Y-91098342D01*
X74296428Y-91098342D02*
X74325000Y-91126914D01*
X74525000Y-91069771D02*
X74925000Y-91069771D01*
X74925000Y-91069771D02*
X74667857Y-91669771D01*
X133867305Y-109987791D02*
X133667305Y-109702077D01*
X133524448Y-109987791D02*
X133524448Y-109387791D01*
X133524448Y-109387791D02*
X133753019Y-109387791D01*
X133753019Y-109387791D02*
X133810162Y-109416362D01*
X133810162Y-109416362D02*
X133838733Y-109444934D01*
X133838733Y-109444934D02*
X133867305Y-109502077D01*
X133867305Y-109502077D02*
X133867305Y-109587791D01*
X133867305Y-109587791D02*
X133838733Y-109644934D01*
X133838733Y-109644934D02*
X133810162Y-109673505D01*
X133810162Y-109673505D02*
X133753019Y-109702077D01*
X133753019Y-109702077D02*
X133524448Y-109702077D01*
X134438733Y-109987791D02*
X134095876Y-109987791D01*
X134267305Y-109987791D02*
X134267305Y-109387791D01*
X134267305Y-109387791D02*
X134210162Y-109473505D01*
X134210162Y-109473505D02*
X134153019Y-109530648D01*
X134153019Y-109530648D02*
X134095876Y-109559220D01*
X134781591Y-109644934D02*
X134724448Y-109616362D01*
X134724448Y-109616362D02*
X134695877Y-109587791D01*
X134695877Y-109587791D02*
X134667305Y-109530648D01*
X134667305Y-109530648D02*
X134667305Y-109502077D01*
X134667305Y-109502077D02*
X134695877Y-109444934D01*
X134695877Y-109444934D02*
X134724448Y-109416362D01*
X134724448Y-109416362D02*
X134781591Y-109387791D01*
X134781591Y-109387791D02*
X134895877Y-109387791D01*
X134895877Y-109387791D02*
X134953020Y-109416362D01*
X134953020Y-109416362D02*
X134981591Y-109444934D01*
X134981591Y-109444934D02*
X135010162Y-109502077D01*
X135010162Y-109502077D02*
X135010162Y-109530648D01*
X135010162Y-109530648D02*
X134981591Y-109587791D01*
X134981591Y-109587791D02*
X134953020Y-109616362D01*
X134953020Y-109616362D02*
X134895877Y-109644934D01*
X134895877Y-109644934D02*
X134781591Y-109644934D01*
X134781591Y-109644934D02*
X134724448Y-109673505D01*
X134724448Y-109673505D02*
X134695877Y-109702077D01*
X134695877Y-109702077D02*
X134667305Y-109759220D01*
X134667305Y-109759220D02*
X134667305Y-109873505D01*
X134667305Y-109873505D02*
X134695877Y-109930648D01*
X134695877Y-109930648D02*
X134724448Y-109959220D01*
X134724448Y-109959220D02*
X134781591Y-109987791D01*
X134781591Y-109987791D02*
X134895877Y-109987791D01*
X134895877Y-109987791D02*
X134953020Y-109959220D01*
X134953020Y-109959220D02*
X134981591Y-109930648D01*
X134981591Y-109930648D02*
X135010162Y-109873505D01*
X135010162Y-109873505D02*
X135010162Y-109759220D01*
X135010162Y-109759220D02*
X134981591Y-109702077D01*
X134981591Y-109702077D02*
X134953020Y-109673505D01*
X134953020Y-109673505D02*
X134895877Y-109644934D01*
X138213734Y-109980391D02*
X138242306Y-109951820D01*
X138242306Y-109951820D02*
X138328020Y-109923248D01*
X138328020Y-109923248D02*
X138385163Y-109923248D01*
X138385163Y-109923248D02*
X138470877Y-109951820D01*
X138470877Y-109951820D02*
X138528020Y-110008962D01*
X138528020Y-110008962D02*
X138556591Y-110066105D01*
X138556591Y-110066105D02*
X138585163Y-110180391D01*
X138585163Y-110180391D02*
X138585163Y-110266105D01*
X138585163Y-110266105D02*
X138556591Y-110380391D01*
X138556591Y-110380391D02*
X138528020Y-110437534D01*
X138528020Y-110437534D02*
X138470877Y-110494677D01*
X138470877Y-110494677D02*
X138385163Y-110523248D01*
X138385163Y-110523248D02*
X138328020Y-110523248D01*
X138328020Y-110523248D02*
X138242306Y-110494677D01*
X138242306Y-110494677D02*
X138213734Y-110466105D01*
X137642306Y-109923248D02*
X137985163Y-109923248D01*
X137813734Y-109923248D02*
X137813734Y-110523248D01*
X137813734Y-110523248D02*
X137870877Y-110437534D01*
X137870877Y-110437534D02*
X137928020Y-110380391D01*
X137928020Y-110380391D02*
X137985163Y-110351820D01*
X137356591Y-109923248D02*
X137242305Y-109923248D01*
X137242305Y-109923248D02*
X137185162Y-109951820D01*
X137185162Y-109951820D02*
X137156591Y-109980391D01*
X137156591Y-109980391D02*
X137099448Y-110066105D01*
X137099448Y-110066105D02*
X137070877Y-110180391D01*
X137070877Y-110180391D02*
X137070877Y-110408962D01*
X137070877Y-110408962D02*
X137099448Y-110466105D01*
X137099448Y-110466105D02*
X137128020Y-110494677D01*
X137128020Y-110494677D02*
X137185162Y-110523248D01*
X137185162Y-110523248D02*
X137299448Y-110523248D01*
X137299448Y-110523248D02*
X137356591Y-110494677D01*
X137356591Y-110494677D02*
X137385162Y-110466105D01*
X137385162Y-110466105D02*
X137413734Y-110408962D01*
X137413734Y-110408962D02*
X137413734Y-110266105D01*
X137413734Y-110266105D02*
X137385162Y-110208962D01*
X137385162Y-110208962D02*
X137356591Y-110180391D01*
X137356591Y-110180391D02*
X137299448Y-110151820D01*
X137299448Y-110151820D02*
X137185162Y-110151820D01*
X137185162Y-110151820D02*
X137128020Y-110180391D01*
X137128020Y-110180391D02*
X137099448Y-110208962D01*
X137099448Y-110208962D02*
X137070877Y-110266105D01*
D11*
X85447195Y-100342619D02*
X85447195Y-99809285D01*
X85447195Y-99809285D02*
X86247195Y-100342619D01*
X86247195Y-100342619D02*
X86247195Y-99809285D01*
X85523385Y-99542619D02*
X85485290Y-99504523D01*
X85485290Y-99504523D02*
X85447195Y-99428333D01*
X85447195Y-99428333D02*
X85447195Y-99237857D01*
X85447195Y-99237857D02*
X85485290Y-99161666D01*
X85485290Y-99161666D02*
X85523385Y-99123571D01*
X85523385Y-99123571D02*
X85599576Y-99085476D01*
X85599576Y-99085476D02*
X85675766Y-99085476D01*
X85675766Y-99085476D02*
X85790052Y-99123571D01*
X85790052Y-99123571D02*
X86247195Y-99580714D01*
X86247195Y-99580714D02*
X86247195Y-99085476D01*
D12*
X77942319Y-88011904D02*
X78751842Y-88011904D01*
X78751842Y-88011904D02*
X78847080Y-87964285D01*
X78847080Y-87964285D02*
X78894700Y-87916666D01*
X78894700Y-87916666D02*
X78942319Y-87821428D01*
X78942319Y-87821428D02*
X78942319Y-87630952D01*
X78942319Y-87630952D02*
X78894700Y-87535714D01*
X78894700Y-87535714D02*
X78847080Y-87488095D01*
X78847080Y-87488095D02*
X78751842Y-87440476D01*
X78751842Y-87440476D02*
X77942319Y-87440476D01*
X78275652Y-86535714D02*
X78942319Y-86535714D01*
X77894700Y-86773809D02*
X78608985Y-87011904D01*
X78608985Y-87011904D02*
X78608985Y-86392857D01*
D11*
X113314695Y-109314285D02*
X112933742Y-109580952D01*
X113314695Y-109771428D02*
X112514695Y-109771428D01*
X112514695Y-109771428D02*
X112514695Y-109466666D01*
X112514695Y-109466666D02*
X112552790Y-109390476D01*
X112552790Y-109390476D02*
X112590885Y-109352381D01*
X112590885Y-109352381D02*
X112667076Y-109314285D01*
X112667076Y-109314285D02*
X112781361Y-109314285D01*
X112781361Y-109314285D02*
X112857552Y-109352381D01*
X112857552Y-109352381D02*
X112895647Y-109390476D01*
X112895647Y-109390476D02*
X112933742Y-109466666D01*
X112933742Y-109466666D02*
X112933742Y-109771428D01*
X112781361Y-108628571D02*
X113314695Y-108628571D01*
X112476600Y-108819047D02*
X113048028Y-109009524D01*
X113048028Y-109009524D02*
X113048028Y-108514285D01*
X112514695Y-108285714D02*
X112514695Y-107752380D01*
X112514695Y-107752380D02*
X113314695Y-108095238D01*
D12*
X84747080Y-77342857D02*
X84794700Y-77390476D01*
X84794700Y-77390476D02*
X84842319Y-77533333D01*
X84842319Y-77533333D02*
X84842319Y-77628571D01*
X84842319Y-77628571D02*
X84794700Y-77771428D01*
X84794700Y-77771428D02*
X84699461Y-77866666D01*
X84699461Y-77866666D02*
X84604223Y-77914285D01*
X84604223Y-77914285D02*
X84413747Y-77961904D01*
X84413747Y-77961904D02*
X84270890Y-77961904D01*
X84270890Y-77961904D02*
X84080414Y-77914285D01*
X84080414Y-77914285D02*
X83985176Y-77866666D01*
X83985176Y-77866666D02*
X83889938Y-77771428D01*
X83889938Y-77771428D02*
X83842319Y-77628571D01*
X83842319Y-77628571D02*
X83842319Y-77533333D01*
X83842319Y-77533333D02*
X83889938Y-77390476D01*
X83889938Y-77390476D02*
X83937557Y-77342857D01*
X84842319Y-76390476D02*
X84842319Y-76961904D01*
X84842319Y-76676190D02*
X83842319Y-76676190D01*
X83842319Y-76676190D02*
X83985176Y-76771428D01*
X83985176Y-76771428D02*
X84080414Y-76866666D01*
X84080414Y-76866666D02*
X84128033Y-76961904D01*
X84175652Y-75533333D02*
X84842319Y-75533333D01*
X83794700Y-75771428D02*
X84508985Y-76009523D01*
X84508985Y-76009523D02*
X84508985Y-75390476D01*
X105244771Y-107220714D02*
X104959057Y-107420714D01*
X105244771Y-107563571D02*
X104644771Y-107563571D01*
X104644771Y-107563571D02*
X104644771Y-107335000D01*
X104644771Y-107335000D02*
X104673342Y-107277857D01*
X104673342Y-107277857D02*
X104701914Y-107249286D01*
X104701914Y-107249286D02*
X104759057Y-107220714D01*
X104759057Y-107220714D02*
X104844771Y-107220714D01*
X104844771Y-107220714D02*
X104901914Y-107249286D01*
X104901914Y-107249286D02*
X104930485Y-107277857D01*
X104930485Y-107277857D02*
X104959057Y-107335000D01*
X104959057Y-107335000D02*
X104959057Y-107563571D01*
X105244771Y-106649286D02*
X105244771Y-106992143D01*
X105244771Y-106820714D02*
X104644771Y-106820714D01*
X104644771Y-106820714D02*
X104730485Y-106877857D01*
X104730485Y-106877857D02*
X104787628Y-106935000D01*
X104787628Y-106935000D02*
X104816200Y-106992143D01*
X104644771Y-106449285D02*
X104644771Y-106077857D01*
X104644771Y-106077857D02*
X104873342Y-106277857D01*
X104873342Y-106277857D02*
X104873342Y-106192142D01*
X104873342Y-106192142D02*
X104901914Y-106135000D01*
X104901914Y-106135000D02*
X104930485Y-106106428D01*
X104930485Y-106106428D02*
X104987628Y-106077857D01*
X104987628Y-106077857D02*
X105130485Y-106077857D01*
X105130485Y-106077857D02*
X105187628Y-106106428D01*
X105187628Y-106106428D02*
X105216200Y-106135000D01*
X105216200Y-106135000D02*
X105244771Y-106192142D01*
X105244771Y-106192142D02*
X105244771Y-106363571D01*
X105244771Y-106363571D02*
X105216200Y-106420714D01*
X105216200Y-106420714D02*
X105187628Y-106449285D01*
X143795000Y-65392628D02*
X143766428Y-65421200D01*
X143766428Y-65421200D02*
X143680714Y-65449771D01*
X143680714Y-65449771D02*
X143623571Y-65449771D01*
X143623571Y-65449771D02*
X143537857Y-65421200D01*
X143537857Y-65421200D02*
X143480714Y-65364057D01*
X143480714Y-65364057D02*
X143452143Y-65306914D01*
X143452143Y-65306914D02*
X143423571Y-65192628D01*
X143423571Y-65192628D02*
X143423571Y-65106914D01*
X143423571Y-65106914D02*
X143452143Y-64992628D01*
X143452143Y-64992628D02*
X143480714Y-64935485D01*
X143480714Y-64935485D02*
X143537857Y-64878342D01*
X143537857Y-64878342D02*
X143623571Y-64849771D01*
X143623571Y-64849771D02*
X143680714Y-64849771D01*
X143680714Y-64849771D02*
X143766428Y-64878342D01*
X143766428Y-64878342D02*
X143795000Y-64906914D01*
X144309286Y-64849771D02*
X144195000Y-64849771D01*
X144195000Y-64849771D02*
X144137857Y-64878342D01*
X144137857Y-64878342D02*
X144109286Y-64906914D01*
X144109286Y-64906914D02*
X144052143Y-64992628D01*
X144052143Y-64992628D02*
X144023571Y-65106914D01*
X144023571Y-65106914D02*
X144023571Y-65335485D01*
X144023571Y-65335485D02*
X144052143Y-65392628D01*
X144052143Y-65392628D02*
X144080714Y-65421200D01*
X144080714Y-65421200D02*
X144137857Y-65449771D01*
X144137857Y-65449771D02*
X144252143Y-65449771D01*
X144252143Y-65449771D02*
X144309286Y-65421200D01*
X144309286Y-65421200D02*
X144337857Y-65392628D01*
X144337857Y-65392628D02*
X144366428Y-65335485D01*
X144366428Y-65335485D02*
X144366428Y-65192628D01*
X144366428Y-65192628D02*
X144337857Y-65135485D01*
X144337857Y-65135485D02*
X144309286Y-65106914D01*
X144309286Y-65106914D02*
X144252143Y-65078342D01*
X144252143Y-65078342D02*
X144137857Y-65078342D01*
X144137857Y-65078342D02*
X144080714Y-65106914D01*
X144080714Y-65106914D02*
X144052143Y-65135485D01*
X144052143Y-65135485D02*
X144023571Y-65192628D01*
X159074819Y-76571904D02*
X159884342Y-76571904D01*
X159884342Y-76571904D02*
X159979580Y-76524285D01*
X159979580Y-76524285D02*
X160027200Y-76476666D01*
X160027200Y-76476666D02*
X160074819Y-76381428D01*
X160074819Y-76381428D02*
X160074819Y-76190952D01*
X160074819Y-76190952D02*
X160027200Y-76095714D01*
X160027200Y-76095714D02*
X159979580Y-76048095D01*
X159979580Y-76048095D02*
X159884342Y-76000476D01*
X159884342Y-76000476D02*
X159074819Y-76000476D01*
X159074819Y-75048095D02*
X159074819Y-75524285D01*
X159074819Y-75524285D02*
X159551009Y-75571904D01*
X159551009Y-75571904D02*
X159503390Y-75524285D01*
X159503390Y-75524285D02*
X159455771Y-75429047D01*
X159455771Y-75429047D02*
X159455771Y-75190952D01*
X159455771Y-75190952D02*
X159503390Y-75095714D01*
X159503390Y-75095714D02*
X159551009Y-75048095D01*
X159551009Y-75048095D02*
X159646247Y-75000476D01*
X159646247Y-75000476D02*
X159884342Y-75000476D01*
X159884342Y-75000476D02*
X159979580Y-75048095D01*
X159979580Y-75048095D02*
X160027200Y-75095714D01*
X160027200Y-75095714D02*
X160074819Y-75190952D01*
X160074819Y-75190952D02*
X160074819Y-75429047D01*
X160074819Y-75429047D02*
X160027200Y-75524285D01*
X160027200Y-75524285D02*
X159979580Y-75571904D01*
D10*
X155483904Y-80571905D02*
X155483904Y-80095715D01*
X155769619Y-80667143D02*
X154769619Y-80333810D01*
X154769619Y-80333810D02*
X155769619Y-80000477D01*
X155102952Y-79667143D02*
X155769619Y-79667143D01*
X155198190Y-79667143D02*
X155150571Y-79619524D01*
X155150571Y-79619524D02*
X155102952Y-79524286D01*
X155102952Y-79524286D02*
X155102952Y-79381429D01*
X155102952Y-79381429D02*
X155150571Y-79286191D01*
X155150571Y-79286191D02*
X155245809Y-79238572D01*
X155245809Y-79238572D02*
X155769619Y-79238572D01*
X155102952Y-78905238D02*
X155102952Y-78524286D01*
X154769619Y-78762381D02*
X155626761Y-78762381D01*
X155626761Y-78762381D02*
X155722000Y-78714762D01*
X155722000Y-78714762D02*
X155769619Y-78619524D01*
X155769619Y-78619524D02*
X155769619Y-78524286D01*
X155722000Y-77810000D02*
X155769619Y-77905238D01*
X155769619Y-77905238D02*
X155769619Y-78095714D01*
X155769619Y-78095714D02*
X155722000Y-78190952D01*
X155722000Y-78190952D02*
X155626761Y-78238571D01*
X155626761Y-78238571D02*
X155245809Y-78238571D01*
X155245809Y-78238571D02*
X155150571Y-78190952D01*
X155150571Y-78190952D02*
X155102952Y-78095714D01*
X155102952Y-78095714D02*
X155102952Y-77905238D01*
X155102952Y-77905238D02*
X155150571Y-77810000D01*
X155150571Y-77810000D02*
X155245809Y-77762381D01*
X155245809Y-77762381D02*
X155341047Y-77762381D01*
X155341047Y-77762381D02*
X155436285Y-78238571D01*
X155102952Y-77333809D02*
X155769619Y-77333809D01*
X155198190Y-77333809D02*
X155150571Y-77286190D01*
X155150571Y-77286190D02*
X155102952Y-77190952D01*
X155102952Y-77190952D02*
X155102952Y-77048095D01*
X155102952Y-77048095D02*
X155150571Y-76952857D01*
X155150571Y-76952857D02*
X155245809Y-76905238D01*
X155245809Y-76905238D02*
X155769619Y-76905238D01*
X155102952Y-76429047D02*
X155769619Y-76429047D01*
X155198190Y-76429047D02*
X155150571Y-76381428D01*
X155150571Y-76381428D02*
X155102952Y-76286190D01*
X155102952Y-76286190D02*
X155102952Y-76143333D01*
X155102952Y-76143333D02*
X155150571Y-76048095D01*
X155150571Y-76048095D02*
X155245809Y-76000476D01*
X155245809Y-76000476D02*
X155769619Y-76000476D01*
X155769619Y-75095714D02*
X155245809Y-75095714D01*
X155245809Y-75095714D02*
X155150571Y-75143333D01*
X155150571Y-75143333D02*
X155102952Y-75238571D01*
X155102952Y-75238571D02*
X155102952Y-75429047D01*
X155102952Y-75429047D02*
X155150571Y-75524285D01*
X155722000Y-75095714D02*
X155769619Y-75190952D01*
X155769619Y-75190952D02*
X155769619Y-75429047D01*
X155769619Y-75429047D02*
X155722000Y-75524285D01*
X155722000Y-75524285D02*
X155626761Y-75571904D01*
X155626761Y-75571904D02*
X155531523Y-75571904D01*
X155531523Y-75571904D02*
X155436285Y-75524285D01*
X155436285Y-75524285D02*
X155388666Y-75429047D01*
X155388666Y-75429047D02*
X155388666Y-75190952D01*
X155388666Y-75190952D02*
X155341047Y-75095714D01*
X155483904Y-73905237D02*
X155483904Y-73429047D01*
X155769619Y-74000475D02*
X154769619Y-73667142D01*
X154769619Y-73667142D02*
X155769619Y-73333809D01*
X155769619Y-73000475D02*
X155102952Y-73000475D01*
X155293428Y-73000475D02*
X155198190Y-72952856D01*
X155198190Y-72952856D02*
X155150571Y-72905237D01*
X155150571Y-72905237D02*
X155102952Y-72809999D01*
X155102952Y-72809999D02*
X155102952Y-72714761D01*
X155722000Y-72000475D02*
X155769619Y-72095713D01*
X155769619Y-72095713D02*
X155769619Y-72286189D01*
X155769619Y-72286189D02*
X155722000Y-72381427D01*
X155722000Y-72381427D02*
X155626761Y-72429046D01*
X155626761Y-72429046D02*
X155245809Y-72429046D01*
X155245809Y-72429046D02*
X155150571Y-72381427D01*
X155150571Y-72381427D02*
X155102952Y-72286189D01*
X155102952Y-72286189D02*
X155102952Y-72095713D01*
X155102952Y-72095713D02*
X155150571Y-72000475D01*
X155150571Y-72000475D02*
X155245809Y-71952856D01*
X155245809Y-71952856D02*
X155341047Y-71952856D01*
X155341047Y-71952856D02*
X155436285Y-72429046D01*
X155769619Y-71095713D02*
X155245809Y-71095713D01*
X155245809Y-71095713D02*
X155150571Y-71143332D01*
X155150571Y-71143332D02*
X155102952Y-71238570D01*
X155102952Y-71238570D02*
X155102952Y-71429046D01*
X155102952Y-71429046D02*
X155150571Y-71524284D01*
X155722000Y-71095713D02*
X155769619Y-71190951D01*
X155769619Y-71190951D02*
X155769619Y-71429046D01*
X155769619Y-71429046D02*
X155722000Y-71524284D01*
X155722000Y-71524284D02*
X155626761Y-71571903D01*
X155626761Y-71571903D02*
X155531523Y-71571903D01*
X155531523Y-71571903D02*
X155436285Y-71524284D01*
X155436285Y-71524284D02*
X155388666Y-71429046D01*
X155388666Y-71429046D02*
X155388666Y-71190951D01*
X155388666Y-71190951D02*
X155341047Y-71095713D01*
D12*
X77820833Y-95679580D02*
X77773214Y-95727200D01*
X77773214Y-95727200D02*
X77630357Y-95774819D01*
X77630357Y-95774819D02*
X77535119Y-95774819D01*
X77535119Y-95774819D02*
X77392262Y-95727200D01*
X77392262Y-95727200D02*
X77297024Y-95631961D01*
X77297024Y-95631961D02*
X77249405Y-95536723D01*
X77249405Y-95536723D02*
X77201786Y-95346247D01*
X77201786Y-95346247D02*
X77201786Y-95203390D01*
X77201786Y-95203390D02*
X77249405Y-95012914D01*
X77249405Y-95012914D02*
X77297024Y-94917676D01*
X77297024Y-94917676D02*
X77392262Y-94822438D01*
X77392262Y-94822438D02*
X77535119Y-94774819D01*
X77535119Y-94774819D02*
X77630357Y-94774819D01*
X77630357Y-94774819D02*
X77773214Y-94822438D01*
X77773214Y-94822438D02*
X77820833Y-94870057D01*
X78725595Y-94774819D02*
X78249405Y-94774819D01*
X78249405Y-94774819D02*
X78201786Y-95251009D01*
X78201786Y-95251009D02*
X78249405Y-95203390D01*
X78249405Y-95203390D02*
X78344643Y-95155771D01*
X78344643Y-95155771D02*
X78582738Y-95155771D01*
X78582738Y-95155771D02*
X78677976Y-95203390D01*
X78677976Y-95203390D02*
X78725595Y-95251009D01*
X78725595Y-95251009D02*
X78773214Y-95346247D01*
X78773214Y-95346247D02*
X78773214Y-95584342D01*
X78773214Y-95584342D02*
X78725595Y-95679580D01*
X78725595Y-95679580D02*
X78677976Y-95727200D01*
X78677976Y-95727200D02*
X78582738Y-95774819D01*
X78582738Y-95774819D02*
X78344643Y-95774819D01*
X78344643Y-95774819D02*
X78249405Y-95727200D01*
X78249405Y-95727200D02*
X78201786Y-95679580D01*
X138351352Y-112910820D02*
X138208495Y-112863200D01*
X138208495Y-112863200D02*
X137970400Y-112863200D01*
X137970400Y-112863200D02*
X137875162Y-112910820D01*
X137875162Y-112910820D02*
X137827543Y-112958439D01*
X137827543Y-112958439D02*
X137779924Y-113053677D01*
X137779924Y-113053677D02*
X137779924Y-113148915D01*
X137779924Y-113148915D02*
X137827543Y-113244153D01*
X137827543Y-113244153D02*
X137875162Y-113291772D01*
X137875162Y-113291772D02*
X137970400Y-113339391D01*
X137970400Y-113339391D02*
X138160876Y-113387010D01*
X138160876Y-113387010D02*
X138256114Y-113434629D01*
X138256114Y-113434629D02*
X138303733Y-113482248D01*
X138303733Y-113482248D02*
X138351352Y-113577486D01*
X138351352Y-113577486D02*
X138351352Y-113672724D01*
X138351352Y-113672724D02*
X138303733Y-113767962D01*
X138303733Y-113767962D02*
X138256114Y-113815581D01*
X138256114Y-113815581D02*
X138160876Y-113863200D01*
X138160876Y-113863200D02*
X137922781Y-113863200D01*
X137922781Y-113863200D02*
X137779924Y-113815581D01*
X137446590Y-113863200D02*
X137208495Y-112863200D01*
X137208495Y-112863200D02*
X137018019Y-113577486D01*
X137018019Y-113577486D02*
X136827543Y-112863200D01*
X136827543Y-112863200D02*
X136589448Y-113863200D01*
X136303733Y-113863200D02*
X135684686Y-113863200D01*
X135684686Y-113863200D02*
X136018019Y-113482248D01*
X136018019Y-113482248D02*
X135875162Y-113482248D01*
X135875162Y-113482248D02*
X135779924Y-113434629D01*
X135779924Y-113434629D02*
X135732305Y-113387010D01*
X135732305Y-113387010D02*
X135684686Y-113291772D01*
X135684686Y-113291772D02*
X135684686Y-113053677D01*
X135684686Y-113053677D02*
X135732305Y-112958439D01*
X135732305Y-112958439D02*
X135779924Y-112910820D01*
X135779924Y-112910820D02*
X135875162Y-112863200D01*
X135875162Y-112863200D02*
X136160876Y-112863200D01*
X136160876Y-112863200D02*
X136256114Y-112910820D01*
X136256114Y-112910820D02*
X136303733Y-112958439D01*
X152600162Y-99328605D02*
X152657305Y-99357177D01*
X152657305Y-99357177D02*
X152714448Y-99414320D01*
X152714448Y-99414320D02*
X152800162Y-99500034D01*
X152800162Y-99500034D02*
X152857305Y-99528605D01*
X152857305Y-99528605D02*
X152914448Y-99528605D01*
X152885877Y-99385748D02*
X152943020Y-99414320D01*
X152943020Y-99414320D02*
X153000162Y-99471462D01*
X153000162Y-99471462D02*
X153028734Y-99585748D01*
X153028734Y-99585748D02*
X153028734Y-99785748D01*
X153028734Y-99785748D02*
X153000162Y-99900034D01*
X153000162Y-99900034D02*
X152943020Y-99957177D01*
X152943020Y-99957177D02*
X152885877Y-99985748D01*
X152885877Y-99985748D02*
X152771591Y-99985748D01*
X152771591Y-99985748D02*
X152714448Y-99957177D01*
X152714448Y-99957177D02*
X152657305Y-99900034D01*
X152657305Y-99900034D02*
X152628734Y-99785748D01*
X152628734Y-99785748D02*
X152628734Y-99585748D01*
X152628734Y-99585748D02*
X152657305Y-99471462D01*
X152657305Y-99471462D02*
X152714448Y-99414320D01*
X152714448Y-99414320D02*
X152771591Y-99385748D01*
X152771591Y-99385748D02*
X152885877Y-99385748D01*
X152114449Y-99985748D02*
X152228734Y-99985748D01*
X152228734Y-99985748D02*
X152285877Y-99957177D01*
X152285877Y-99957177D02*
X152314449Y-99928605D01*
X152314449Y-99928605D02*
X152371591Y-99842891D01*
X152371591Y-99842891D02*
X152400163Y-99728605D01*
X152400163Y-99728605D02*
X152400163Y-99500034D01*
X152400163Y-99500034D02*
X152371591Y-99442891D01*
X152371591Y-99442891D02*
X152343020Y-99414320D01*
X152343020Y-99414320D02*
X152285877Y-99385748D01*
X152285877Y-99385748D02*
X152171591Y-99385748D01*
X152171591Y-99385748D02*
X152114449Y-99414320D01*
X152114449Y-99414320D02*
X152085877Y-99442891D01*
X152085877Y-99442891D02*
X152057306Y-99500034D01*
X152057306Y-99500034D02*
X152057306Y-99642891D01*
X152057306Y-99642891D02*
X152085877Y-99700034D01*
X152085877Y-99700034D02*
X152114449Y-99728605D01*
X152114449Y-99728605D02*
X152171591Y-99757177D01*
X152171591Y-99757177D02*
X152285877Y-99757177D01*
X152285877Y-99757177D02*
X152343020Y-99728605D01*
X152343020Y-99728605D02*
X152371591Y-99700034D01*
X152371591Y-99700034D02*
X152400163Y-99642891D01*
X107194771Y-107560714D02*
X106909057Y-107760714D01*
X107194771Y-107903571D02*
X106594771Y-107903571D01*
X106594771Y-107903571D02*
X106594771Y-107675000D01*
X106594771Y-107675000D02*
X106623342Y-107617857D01*
X106623342Y-107617857D02*
X106651914Y-107589286D01*
X106651914Y-107589286D02*
X106709057Y-107560714D01*
X106709057Y-107560714D02*
X106794771Y-107560714D01*
X106794771Y-107560714D02*
X106851914Y-107589286D01*
X106851914Y-107589286D02*
X106880485Y-107617857D01*
X106880485Y-107617857D02*
X106909057Y-107675000D01*
X106909057Y-107675000D02*
X106909057Y-107903571D01*
X107194771Y-106989286D02*
X107194771Y-107332143D01*
X107194771Y-107160714D02*
X106594771Y-107160714D01*
X106594771Y-107160714D02*
X106680485Y-107217857D01*
X106680485Y-107217857D02*
X106737628Y-107275000D01*
X106737628Y-107275000D02*
X106766200Y-107332143D01*
X106794771Y-106475000D02*
X107194771Y-106475000D01*
X106566200Y-106617857D02*
X106994771Y-106760714D01*
X106994771Y-106760714D02*
X106994771Y-106389285D01*
X87657271Y-95619999D02*
X87371557Y-95819999D01*
X87657271Y-95962856D02*
X87057271Y-95962856D01*
X87057271Y-95962856D02*
X87057271Y-95734285D01*
X87057271Y-95734285D02*
X87085842Y-95677142D01*
X87085842Y-95677142D02*
X87114414Y-95648571D01*
X87114414Y-95648571D02*
X87171557Y-95619999D01*
X87171557Y-95619999D02*
X87257271Y-95619999D01*
X87257271Y-95619999D02*
X87314414Y-95648571D01*
X87314414Y-95648571D02*
X87342985Y-95677142D01*
X87342985Y-95677142D02*
X87371557Y-95734285D01*
X87371557Y-95734285D02*
X87371557Y-95962856D01*
X87057271Y-95419999D02*
X87057271Y-95048571D01*
X87057271Y-95048571D02*
X87285842Y-95248571D01*
X87285842Y-95248571D02*
X87285842Y-95162856D01*
X87285842Y-95162856D02*
X87314414Y-95105714D01*
X87314414Y-95105714D02*
X87342985Y-95077142D01*
X87342985Y-95077142D02*
X87400128Y-95048571D01*
X87400128Y-95048571D02*
X87542985Y-95048571D01*
X87542985Y-95048571D02*
X87600128Y-95077142D01*
X87600128Y-95077142D02*
X87628700Y-95105714D01*
X87628700Y-95105714D02*
X87657271Y-95162856D01*
X87657271Y-95162856D02*
X87657271Y-95334285D01*
X87657271Y-95334285D02*
X87628700Y-95391428D01*
X87628700Y-95391428D02*
X87600128Y-95419999D01*
X85324871Y-95445000D02*
X85296300Y-95416428D01*
X85296300Y-95416428D02*
X85267728Y-95330714D01*
X85267728Y-95330714D02*
X85267728Y-95273571D01*
X85267728Y-95273571D02*
X85296300Y-95187857D01*
X85296300Y-95187857D02*
X85353442Y-95130714D01*
X85353442Y-95130714D02*
X85410585Y-95102143D01*
X85410585Y-95102143D02*
X85524871Y-95073571D01*
X85524871Y-95073571D02*
X85610585Y-95073571D01*
X85610585Y-95073571D02*
X85724871Y-95102143D01*
X85724871Y-95102143D02*
X85782014Y-95130714D01*
X85782014Y-95130714D02*
X85839157Y-95187857D01*
X85839157Y-95187857D02*
X85867728Y-95273571D01*
X85867728Y-95273571D02*
X85867728Y-95330714D01*
X85867728Y-95330714D02*
X85839157Y-95416428D01*
X85839157Y-95416428D02*
X85810585Y-95445000D01*
X85810585Y-95673571D02*
X85839157Y-95702143D01*
X85839157Y-95702143D02*
X85867728Y-95759286D01*
X85867728Y-95759286D02*
X85867728Y-95902143D01*
X85867728Y-95902143D02*
X85839157Y-95959286D01*
X85839157Y-95959286D02*
X85810585Y-95987857D01*
X85810585Y-95987857D02*
X85753442Y-96016428D01*
X85753442Y-96016428D02*
X85696300Y-96016428D01*
X85696300Y-96016428D02*
X85610585Y-95987857D01*
X85610585Y-95987857D02*
X85267728Y-95645000D01*
X85267728Y-95645000D02*
X85267728Y-96016428D01*
X155835877Y-99969934D02*
X155778734Y-99941362D01*
X155778734Y-99941362D02*
X155721591Y-99884220D01*
X155721591Y-99884220D02*
X155635877Y-99798505D01*
X155635877Y-99798505D02*
X155578734Y-99769934D01*
X155578734Y-99769934D02*
X155521591Y-99769934D01*
X155550162Y-99912791D02*
X155493020Y-99884220D01*
X155493020Y-99884220D02*
X155435877Y-99827077D01*
X155435877Y-99827077D02*
X155407305Y-99712791D01*
X155407305Y-99712791D02*
X155407305Y-99512791D01*
X155407305Y-99512791D02*
X155435877Y-99398505D01*
X155435877Y-99398505D02*
X155493020Y-99341362D01*
X155493020Y-99341362D02*
X155550162Y-99312791D01*
X155550162Y-99312791D02*
X155664448Y-99312791D01*
X155664448Y-99312791D02*
X155721591Y-99341362D01*
X155721591Y-99341362D02*
X155778734Y-99398505D01*
X155778734Y-99398505D02*
X155807305Y-99512791D01*
X155807305Y-99512791D02*
X155807305Y-99712791D01*
X155807305Y-99712791D02*
X155778734Y-99827077D01*
X155778734Y-99827077D02*
X155721591Y-99884220D01*
X155721591Y-99884220D02*
X155664448Y-99912791D01*
X155664448Y-99912791D02*
X155550162Y-99912791D01*
X156350162Y-99312791D02*
X156064448Y-99312791D01*
X156064448Y-99312791D02*
X156035876Y-99598505D01*
X156035876Y-99598505D02*
X156064448Y-99569934D01*
X156064448Y-99569934D02*
X156121591Y-99541362D01*
X156121591Y-99541362D02*
X156264448Y-99541362D01*
X156264448Y-99541362D02*
X156321591Y-99569934D01*
X156321591Y-99569934D02*
X156350162Y-99598505D01*
X156350162Y-99598505D02*
X156378733Y-99655648D01*
X156378733Y-99655648D02*
X156378733Y-99798505D01*
X156378733Y-99798505D02*
X156350162Y-99855648D01*
X156350162Y-99855648D02*
X156321591Y-99884220D01*
X156321591Y-99884220D02*
X156264448Y-99912791D01*
X156264448Y-99912791D02*
X156121591Y-99912791D01*
X156121591Y-99912791D02*
X156064448Y-99884220D01*
X156064448Y-99884220D02*
X156035876Y-99855648D01*
D10*
%TO.C,RV2*%
X99712500Y-90370000D02*
X99712500Y-93270000D01*
X99712500Y-93270000D02*
X100212500Y-93270000D01*
X101462500Y-89270000D02*
X101162500Y-89270000D01*
X102912500Y-90370000D02*
X102912500Y-93270000D01*
X102912500Y-93270000D02*
X102437500Y-93270000D01*
D11*
%TO.C,C46*%
X110620000Y-84000000D02*
X111220000Y-84000000D01*
X110620000Y-85000000D02*
X111220000Y-85000000D01*
%TO.C,R16*%
D10*
X95950000Y-89000000D02*
X98850000Y-89000000D01*
X98850000Y-90400000D01*
X95950000Y-90400000D01*
X95950000Y-89000000D01*
%TO.C,R1*%
X101862500Y-88675000D02*
X103262500Y-88675000D01*
X103262500Y-85775000D01*
X101862500Y-85775000D01*
X101862500Y-88675000D01*
%TO.C,Q2*%
X89655000Y-99937000D02*
X89020000Y-99937000D01*
X89693100Y-99302000D02*
X88981900Y-99302000D01*
X88981900Y-101588000D01*
X89693100Y-101588000D01*
X89693100Y-99302000D01*
%TO.C,R51*%
X118375000Y-93625000D02*
X118375000Y-93025000D01*
X119375000Y-93625000D02*
X119375000Y-93025000D01*
%TO.C,R4*%
X98912500Y-78600000D02*
X96012500Y-78600000D01*
X96012500Y-77200000D01*
X98912500Y-77200000D01*
X98912500Y-78600000D01*
%TO.C,C41*%
X116700000Y-85300000D02*
X116700000Y-85000000D01*
X117300000Y-85300000D02*
X117300000Y-85000000D01*
%TO.C,C8*%
X90374200Y-66625000D02*
X93275800Y-66625000D01*
X93275800Y-68025000D01*
X90374200Y-68025000D01*
X90374200Y-66625000D01*
%TO.C,R45*%
X108512500Y-75225000D02*
X108812500Y-75225000D01*
X108512500Y-75825000D02*
X108812500Y-75825000D01*
%TO.C,R10*%
X142345000Y-62960000D02*
X140945000Y-62960000D01*
X140945000Y-65860000D01*
X142345000Y-65860000D01*
X142345000Y-62960000D01*
%TO.C,C10*%
X100449200Y-68890000D02*
X103350800Y-68890000D01*
X103350800Y-70290000D01*
X100449200Y-70290000D01*
X100449200Y-68890000D01*
D13*
%TO.C,U2*%
X90977500Y-68840000D02*
X91452500Y-68840000D01*
X90977500Y-69315000D02*
X90977500Y-68840000D01*
X90977500Y-71585000D02*
X90977500Y-72060000D01*
X90977500Y-72060000D02*
X91452500Y-72060000D01*
X93722500Y-68840000D02*
X94197500Y-68840000D01*
X94197500Y-68840000D02*
X94197500Y-69315000D01*
X94197500Y-69315000D02*
X94197500Y-68840000D01*
X94197500Y-71585000D02*
X94197500Y-72060000D01*
X94197500Y-72060000D02*
X93722500Y-72060000D01*
D14*
X94717500Y-68450000D02*
G75*
G02*
X94457500Y-68450000I-130000J0D01*
G01*
X94457500Y-68450000D02*
G75*
G02*
X94717500Y-68450000I130000J0D01*
G01*
D11*
%TO.C,C48*%
X110620000Y-87900000D02*
X111220000Y-87900000D01*
X110620000Y-88900000D02*
X111220000Y-88900000D01*
%TO.C,R8*%
D10*
X92075000Y-77100000D02*
X94975000Y-77100000D01*
X94975000Y-78500000D01*
X92075000Y-78500000D01*
X92075000Y-77100000D01*
D11*
%TO.C,C49*%
X114870000Y-87900000D02*
X114270000Y-87900000D01*
X114870000Y-88900000D02*
X114270000Y-88900000D01*
D13*
%TO.C,U3*%
X90727500Y-88245000D02*
X90727500Y-90695000D01*
X93947500Y-90045000D02*
X93947500Y-88245000D01*
%TO.C,D1*%
D10*
X104700000Y-108900000D02*
X109500000Y-108900000D01*
X109500000Y-117900000D01*
X104700000Y-117900000D01*
X104700000Y-108900000D01*
%TO.C,R17*%
X121795000Y-71180000D02*
X118895000Y-71180000D01*
X118895000Y-69780000D01*
X121795000Y-69780000D01*
X121795000Y-71180000D01*
D13*
%TO.C,L1*%
X76250279Y-102065000D02*
X75924721Y-102065000D01*
X76250279Y-103085000D02*
X75924721Y-103085000D01*
%TO.C,BT1*%
X82787500Y-64400000D02*
X82787500Y-63600000D01*
X83987500Y-63600000D02*
X83987500Y-64400000D01*
X83987500Y-64400000D02*
X82787500Y-64400000D01*
X85287500Y-64400000D02*
X85287500Y-63600000D01*
X86487500Y-63600000D02*
X86487500Y-64400000D01*
X86487500Y-64400000D02*
X85287500Y-64400000D01*
X88287500Y-69000000D02*
X80787500Y-69000000D01*
X88287500Y-63550000D02*
X80787500Y-63550000D01*
X80787500Y-69850000D01*
X88287500Y-69850000D01*
X88287500Y-63550000D01*
D10*
%TO.C,U7*%
X133400000Y-90600000D02*
X133400000Y-91175000D01*
X133400000Y-93325000D02*
X133400000Y-92925000D01*
X133400000Y-95300000D02*
X133400000Y-94875000D01*
X133400000Y-97325000D02*
X133400000Y-96900000D01*
X133400000Y-99300000D02*
X133400000Y-98875000D01*
X133400000Y-101250000D02*
X133400000Y-100950000D01*
X133400000Y-103275000D02*
X133400000Y-102900000D01*
X133400000Y-105325000D02*
X133400000Y-104900000D01*
X133400000Y-106975000D02*
X133400000Y-107600000D01*
X149400000Y-90600000D02*
X133400000Y-90600000D01*
X149400000Y-90600000D02*
X149400000Y-91150000D01*
X149400000Y-93275000D02*
X149400000Y-92900000D01*
X149400000Y-95275000D02*
X149400000Y-94900000D01*
X149400000Y-97325000D02*
X149400000Y-96900000D01*
X149400000Y-99250000D02*
X149400000Y-98900000D01*
X149400000Y-101225000D02*
X149400000Y-100875000D01*
X149400000Y-103325000D02*
X149400000Y-102925000D01*
X149400000Y-105325000D02*
X149400000Y-104900000D01*
X149400000Y-107075000D02*
X149400000Y-107600000D01*
X149400000Y-107600000D02*
X133400000Y-107600000D01*
D15*
X150630780Y-107600520D02*
G75*
G02*
X149970260Y-107600520I-330260J0D01*
G01*
X149970260Y-107600520D02*
G75*
G02*
X150630780Y-107600520I330260J0D01*
G01*
D13*
%TO.C,J1*%
X81337500Y-102350000D02*
X81337500Y-103950000D01*
X81637500Y-102650000D02*
X83737500Y-102650000D01*
X81637500Y-117350000D02*
X81637500Y-102650000D01*
X83037500Y-102350000D02*
X81337500Y-102350000D01*
X88737500Y-102650000D02*
X90837500Y-102650000D01*
X90837500Y-102650000D02*
X90837500Y-104450000D01*
X90837500Y-108850000D02*
X90837500Y-117350000D01*
X90837500Y-117350000D02*
X81637500Y-117350000D01*
D10*
%TO.C,R56*%
X108812500Y-79300000D02*
X108512500Y-79300000D01*
X108812500Y-79900000D02*
X108512500Y-79900000D01*
%TO.C,C39*%
X124925000Y-93425000D02*
X124925000Y-93725000D01*
X125525000Y-93425000D02*
X125525000Y-93725000D01*
%TO.C,Y1*%
X126837500Y-79825000D02*
X123437500Y-79825000D01*
X123437500Y-84025000D01*
X126837500Y-84025000D01*
X126837500Y-79825000D01*
D16*
X123437500Y-80425000D02*
X123437500Y-79825000D01*
X124037500Y-79825000D01*
X123437500Y-80425000D01*
G36*
X123437500Y-80425000D02*
G01*
X123437500Y-79825000D01*
X124037500Y-79825000D01*
X123437500Y-80425000D01*
G37*
%TO.C,U8*%
D10*
X150443020Y-117743020D02*
X142243020Y-117743020D01*
X142243020Y-109543020D01*
X150443020Y-109543020D01*
X150443020Y-117743020D01*
%TO.C,R24*%
X151118020Y-96255520D02*
X154018020Y-96255520D01*
X154018020Y-97655520D01*
X151118020Y-97655520D01*
X151118020Y-96255520D01*
D13*
%TO.C,J3*%
X115770000Y-64730000D02*
X115770000Y-67390000D01*
X128530000Y-64730000D02*
X115770000Y-64730000D01*
X128530000Y-64730000D02*
X128530000Y-67390000D01*
X128530000Y-67390000D02*
X115770000Y-67390000D01*
X129800000Y-64730000D02*
X131130000Y-64730000D01*
X131130000Y-64730000D02*
X131130000Y-66060000D01*
D10*
%TO.C,R54*%
X122750000Y-93650000D02*
X122750000Y-93050000D01*
X123750000Y-93650000D02*
X123750000Y-93050000D01*
D13*
%TO.C,SW2*%
X114440000Y-68270000D02*
X117740000Y-68270000D01*
X114440000Y-68570000D02*
X114440000Y-68270000D01*
X114440000Y-70770000D02*
X114440000Y-71070000D01*
X114440000Y-71070000D02*
X117740000Y-71070000D01*
X117740000Y-68270000D02*
X117740000Y-68570000D01*
X117740000Y-71070000D02*
X117740000Y-70770000D01*
D10*
%TO.C,Z1*%
X98782500Y-84545000D02*
X99032500Y-84545000D01*
X98782500Y-87745000D02*
X98782500Y-84545000D01*
X98782500Y-87745000D02*
X99032500Y-87745000D01*
X100837500Y-84545000D02*
X101087500Y-84545000D01*
X101092500Y-84555000D02*
X101092500Y-87755000D01*
X101092500Y-87755000D02*
X100842500Y-87755000D01*
D13*
X98722500Y-86955000D02*
X101152500Y-86955000D01*
X101152500Y-86725000D01*
X98722500Y-86725000D01*
X98722500Y-86955000D01*
G36*
X98722500Y-86955000D02*
G01*
X101152500Y-86955000D01*
X101152500Y-86725000D01*
X98722500Y-86725000D01*
X98722500Y-86955000D01*
G37*
%TO.C,R5*%
D10*
X96062500Y-73150000D02*
X98962500Y-73150000D01*
X98962500Y-74550000D01*
X96062500Y-74550000D01*
X96062500Y-73150000D01*
%TO.C,Q3*%
X96957500Y-80808000D02*
X97592500Y-80808000D01*
X96919400Y-81443000D02*
X97630600Y-81443000D01*
X97630600Y-79157000D01*
X96919400Y-79157000D01*
X96919400Y-81443000D01*
%TO.C,C15*%
X97300000Y-69349200D02*
X95900000Y-69349200D01*
X95900000Y-72250800D01*
X97300000Y-72250800D01*
X97300000Y-69349200D01*
D11*
%TO.C,C45*%
X114870000Y-84000000D02*
X114270000Y-84000000D01*
X114870000Y-85000000D02*
X114270000Y-85000000D01*
D10*
%TO.C,R55*%
X126560000Y-93620000D02*
X126560000Y-93020000D01*
X127560000Y-93620000D02*
X127560000Y-93020000D01*
D13*
%TO.C,C52*%
X107015000Y-83482500D02*
X107015000Y-87392500D01*
X108885000Y-83482500D02*
X107015000Y-83482500D01*
X108885000Y-87392500D02*
X108885000Y-83482500D01*
%TO.C,SW1*%
X108800000Y-95850000D02*
X105300000Y-95850000D01*
X105300000Y-104350000D01*
X108800000Y-104350000D01*
X108800000Y-95850000D01*
%TO.C,L4*%
X72712500Y-72500000D02*
X75012500Y-72500000D01*
X72712500Y-79900000D02*
X72712500Y-72500000D01*
X75012500Y-79900000D02*
X72712500Y-79900000D01*
X77812500Y-72500000D02*
X80112500Y-72500000D01*
X80112500Y-72500000D02*
X80112500Y-79900000D01*
X80112500Y-79900000D02*
X77812500Y-79900000D01*
%TO.C,C23*%
D10*
X152418020Y-101750720D02*
X151018020Y-101750720D01*
X151018020Y-104652320D01*
X152418020Y-104652320D01*
X152418020Y-101750720D01*
%TO.C,R46*%
X130565000Y-109200000D02*
X130565000Y-108900000D01*
X131165000Y-109200000D02*
X131165000Y-108900000D01*
%TO.C,D3*%
X76237500Y-80720000D02*
X76237500Y-81120000D01*
X76237500Y-80720000D02*
X80887500Y-80720000D01*
X76287500Y-83470000D02*
X76287500Y-83870000D01*
X76287500Y-83870000D02*
X80837500Y-83870000D01*
X80837500Y-83870000D02*
X80837500Y-83470000D01*
X80887500Y-80720000D02*
X80887500Y-81120000D01*
X77187500Y-80720000D02*
X77537500Y-80720000D01*
X77537500Y-81170000D01*
X77187500Y-81170000D01*
X77187500Y-80720000D01*
G36*
X77187500Y-80720000D02*
G01*
X77537500Y-80720000D01*
X77537500Y-81170000D01*
X77187500Y-81170000D01*
X77187500Y-80720000D01*
G37*
X77187500Y-83470000D02*
X77537500Y-83470000D01*
X77537500Y-83870000D01*
X77187500Y-83870000D01*
X77187500Y-83470000D01*
G36*
X77187500Y-83470000D02*
G01*
X77537500Y-83470000D01*
X77537500Y-83870000D01*
X77187500Y-83870000D01*
X77187500Y-83470000D01*
G37*
%TO.C,R48*%
X113187500Y-93575000D02*
X113187500Y-93275000D01*
X113787500Y-93575000D02*
X113787500Y-93275000D01*
%TO.C,C18*%
X118899200Y-68220000D02*
X121800800Y-68220000D01*
X121800800Y-69620000D01*
X118899200Y-69620000D01*
X118899200Y-68220000D01*
%TO.C,C30*%
X125337500Y-78775000D02*
X125037500Y-78775000D01*
X125337500Y-79375000D02*
X125037500Y-79375000D01*
D12*
%TO.C,RV1*%
X91762500Y-95811670D02*
X91762500Y-100011670D01*
X91762500Y-95811670D02*
X103762500Y-95811670D01*
X91762500Y-100011670D02*
X103762500Y-100011670D01*
X103762500Y-95811670D02*
X103762500Y-100011670D01*
%TO.C,C7*%
D10*
X75875800Y-92100000D02*
X72974200Y-92100000D01*
X72974200Y-90700000D01*
X75875800Y-90700000D01*
X75875800Y-92100000D01*
%TO.C,R36*%
X122512500Y-78225000D02*
X122512500Y-78525000D01*
X123112500Y-78225000D02*
X123112500Y-78525000D01*
%TO.C,R18*%
X132918020Y-109118020D02*
X135818020Y-109118020D01*
X135818020Y-110518020D01*
X132918020Y-110518020D01*
X132918020Y-109118020D01*
D13*
%TO.C,L3*%
X99560000Y-72420000D02*
X100010000Y-72420000D01*
X99560000Y-78620000D02*
X99560000Y-72420000D01*
X99560000Y-78620000D02*
X100010000Y-78620000D01*
X105760000Y-72420000D02*
X105310000Y-72420000D01*
X105760000Y-72420000D02*
X105760000Y-78620000D01*
X105760000Y-78620000D02*
X105310000Y-78620000D01*
D10*
%TO.C,R38*%
X108812500Y-73900000D02*
X108512500Y-73900000D01*
X108812500Y-74500000D02*
X108512500Y-74500000D01*
D13*
%TO.C,C33*%
X120480000Y-87630000D02*
X120480000Y-90370000D01*
X120480000Y-87630000D02*
X130720000Y-87630000D01*
X120480000Y-90370000D02*
X130720000Y-90370000D01*
X130720000Y-87630000D02*
X130720000Y-90370000D01*
D10*
%TO.C,R37*%
X125012500Y-77350000D02*
X125312500Y-77350000D01*
X125012500Y-77950000D02*
X125312500Y-77950000D01*
%TO.C,C12*%
X97600000Y-95175800D02*
X99000000Y-95175800D01*
X99000000Y-92274200D01*
X97600000Y-92274200D01*
X97600000Y-95175800D01*
%TO.C,R50*%
X114837500Y-93575000D02*
X114837500Y-93275000D01*
X115437500Y-93575000D02*
X115437500Y-93275000D01*
%TO.C,C19*%
X136292220Y-109193020D02*
X139193820Y-109193020D01*
X139193820Y-110593020D01*
X136292220Y-110593020D01*
X136292220Y-109193020D01*
%TO.C,Z2*%
X84732500Y-98065000D02*
X84982500Y-98065000D01*
X84732500Y-101265000D02*
X84732500Y-98065000D01*
X84732500Y-101265000D02*
X84982500Y-101265000D01*
X86787500Y-98065000D02*
X87037500Y-98065000D01*
X87042500Y-98075000D02*
X87042500Y-101275000D01*
X87042500Y-101275000D02*
X86792500Y-101275000D01*
D13*
X84672500Y-100475000D02*
X87102500Y-100475000D01*
X87102500Y-100245000D01*
X84672500Y-100245000D01*
X84672500Y-100475000D01*
G36*
X84672500Y-100475000D02*
G01*
X87102500Y-100475000D01*
X87102500Y-100245000D01*
X84672500Y-100245000D01*
X84672500Y-100475000D01*
G37*
%TO.C,U4*%
X78487500Y-84690000D02*
X75037500Y-84690000D01*
X78487500Y-84690000D02*
X80437500Y-84690000D01*
X78487500Y-89810000D02*
X76537500Y-89810000D01*
X78487500Y-89810000D02*
X80437500Y-89810000D01*
D10*
%TO.C,R47*%
X111380000Y-109000000D02*
X111380000Y-108700000D01*
X111980000Y-109000000D02*
X111980000Y-108700000D01*
D13*
%TO.C,C14*%
X80977500Y-74354437D02*
X80977500Y-80110000D01*
X80977500Y-80110000D02*
X83327500Y-80110000D01*
X82041937Y-73290000D02*
X80977500Y-74354437D01*
X82041937Y-73290000D02*
X83327500Y-73290000D01*
X86235000Y-72262500D02*
X86235000Y-73050000D01*
X86628750Y-72656250D02*
X85841250Y-72656250D01*
X86733063Y-73290000D02*
X85447500Y-73290000D01*
X86733063Y-73290000D02*
X87797500Y-74354437D01*
X87797500Y-74354437D02*
X87797500Y-80110000D01*
X87797500Y-80110000D02*
X85447500Y-80110000D01*
%TO.C,C17*%
D10*
X148876600Y-64260000D02*
X151778200Y-64260000D01*
X151778200Y-65660000D01*
X148876600Y-65660000D01*
X148876600Y-64260000D01*
%TO.C,R23*%
X154418020Y-101655520D02*
X157318020Y-101655520D01*
X157318020Y-103055520D01*
X154418020Y-103055520D01*
X154418020Y-101655520D01*
%TO.C,C1*%
X93580000Y-77070800D02*
X94980000Y-77070800D01*
X94980000Y-74169200D01*
X93580000Y-74169200D01*
X93580000Y-77070800D01*
%TO.C,R12*%
X95150000Y-66300000D02*
X98050000Y-66300000D01*
X98050000Y-67700000D01*
X95150000Y-67700000D01*
X95150000Y-66300000D01*
%TO.C,R13*%
X104725000Y-108625000D02*
X106125000Y-108625000D01*
X106125000Y-105725000D01*
X104725000Y-105725000D01*
X104725000Y-108625000D01*
D11*
%TO.C,C50*%
X114860000Y-85940000D02*
X114260000Y-85940000D01*
X114860000Y-86940000D02*
X114260000Y-86940000D01*
%TO.C,C6*%
D10*
X145345800Y-65880000D02*
X142444200Y-65880000D01*
X142444200Y-64480000D01*
X145345800Y-64480000D01*
X145345800Y-65880000D01*
D13*
%TO.C,C51*%
X121077500Y-80815000D02*
X121077500Y-84725000D01*
X122947500Y-80815000D02*
X121077500Y-80815000D01*
X122947500Y-84725000D02*
X122947500Y-80815000D01*
D11*
%TO.C,C47*%
X110640000Y-85940000D02*
X111240000Y-85940000D01*
X110640000Y-86940000D02*
X111240000Y-86940000D01*
D10*
%TO.C,Q1*%
X96432500Y-87633000D02*
X97067500Y-87633000D01*
X96394400Y-88268000D02*
X97105600Y-88268000D01*
X97105600Y-85982000D01*
X96394400Y-85982000D01*
X96394400Y-88268000D01*
%TO.C,U5*%
X132820000Y-66810000D02*
X132820000Y-69310000D01*
X132820000Y-84810000D02*
X132820000Y-82310000D01*
X133570000Y-66810000D02*
X132820000Y-66810000D01*
X133570000Y-84810000D02*
X132820000Y-84810000D01*
X152380000Y-84810000D02*
X152380000Y-66810000D01*
X158320000Y-66810000D02*
X151570000Y-66810000D01*
X158320000Y-66810000D02*
X158320000Y-84810000D01*
X158320000Y-84810000D02*
X151570000Y-84810000D01*
D11*
%TO.C,C38*%
X128630000Y-93000000D02*
X128630000Y-93600000D01*
X129630000Y-93000000D02*
X129630000Y-93600000D01*
D13*
%TO.C,C5*%
X72712500Y-94510000D02*
X73712500Y-94510000D01*
X73212500Y-94010000D02*
X73212500Y-95010000D01*
X73952500Y-93724437D02*
X73952500Y-95510000D01*
X73952500Y-93724437D02*
X75016937Y-92660000D01*
X73952500Y-100315563D02*
X73952500Y-98530000D01*
X73952500Y-100315563D02*
X75016937Y-101380000D01*
X75016937Y-92660000D02*
X82672500Y-92660000D01*
X75016937Y-101380000D02*
X82672500Y-101380000D01*
X82672500Y-92660000D02*
X82672500Y-95510000D01*
X82672500Y-101380000D02*
X82672500Y-98530000D01*
D10*
%TO.C,SW3*%
X133768020Y-114068020D02*
X133768020Y-115818020D01*
X135018020Y-112068020D02*
X139518020Y-112068020D01*
X136268020Y-115818020D02*
X138268020Y-115818020D01*
X140768020Y-114068020D02*
X140768020Y-115818020D01*
%TO.C,Q6*%
X153051020Y-99973020D02*
X153051020Y-99338020D01*
X153686020Y-100011120D02*
X151400020Y-100011120D01*
X151400020Y-99299920D01*
X153686020Y-99299920D01*
X153686020Y-100011120D01*
%TO.C,R14*%
X106225000Y-108625000D02*
X107625000Y-108625000D01*
X107625000Y-105725000D01*
X106225000Y-105725000D01*
X106225000Y-108625000D01*
%TO.C,F1*%
X92737500Y-100475000D02*
X98737500Y-100475000D01*
X98737500Y-104475000D01*
X92737500Y-104475000D01*
X92737500Y-100475000D01*
%TO.C,C31*%
X119660000Y-82010000D02*
X119660000Y-82310000D01*
X120260000Y-82010000D02*
X120260000Y-82310000D01*
%TO.C,C13*%
X100449200Y-70390000D02*
X103350800Y-70390000D01*
X103350800Y-71790000D01*
X100449200Y-71790000D01*
X100449200Y-70390000D01*
D13*
%TO.C,FB1*%
X110752500Y-93577064D02*
X110752500Y-93122936D01*
X112222500Y-93577064D02*
X112222500Y-93122936D01*
D10*
%TO.C,C29*%
X125037500Y-75875000D02*
X125337500Y-75875000D01*
X125037500Y-76475000D02*
X125337500Y-76475000D01*
%TO.C,C34*%
X116487500Y-93600000D02*
X116487500Y-93300000D01*
X117087500Y-93600000D02*
X117087500Y-93300000D01*
%TO.C,R7*%
X99370000Y-82000000D02*
X100770000Y-82000000D01*
X100770000Y-79100000D01*
X99370000Y-79100000D01*
X99370000Y-82000000D01*
%TO.C,R6*%
X103980000Y-82020000D02*
X101080000Y-82020000D01*
X101080000Y-80620000D01*
X103980000Y-80620000D01*
X103980000Y-82020000D01*
%TO.C,C3*%
X88162500Y-75455800D02*
X89562500Y-75455800D01*
X89562500Y-72554200D01*
X88162500Y-72554200D01*
X88162500Y-75455800D01*
D13*
%TO.C,U12*%
X112427500Y-73340000D02*
X112427500Y-73790000D01*
X112427500Y-80560000D02*
X112427500Y-80110000D01*
X112877500Y-73340000D02*
X112427500Y-73340000D01*
X112877500Y-80560000D02*
X112427500Y-80560000D01*
X119197500Y-73340000D02*
X119647500Y-73340000D01*
X119197500Y-80560000D02*
X119647500Y-80560000D01*
X119647500Y-73340000D02*
X119647500Y-73790000D01*
X119647500Y-80560000D02*
X119647500Y-80110000D01*
X111837500Y-73790000D02*
X111497500Y-73320000D01*
X112177500Y-73320000D01*
X111837500Y-73790000D01*
G36*
X111837500Y-73790000D02*
G01*
X111497500Y-73320000D01*
X112177500Y-73320000D01*
X111837500Y-73790000D01*
G37*
D11*
%TO.C,C35*%
X120525000Y-93050000D02*
X120525000Y-93650000D01*
X121525000Y-93050000D02*
X121525000Y-93650000D01*
D10*
%TO.C,R53*%
X108512500Y-76575000D02*
X108812500Y-76575000D01*
X108512500Y-77175000D02*
X108812500Y-77175000D01*
%TO.C,C40*%
X118040000Y-85300000D02*
X118040000Y-85000000D01*
X118640000Y-85300000D02*
X118640000Y-85000000D01*
%TO.C,C21*%
X154043020Y-101754720D02*
X152643020Y-101754720D01*
X152643020Y-104656320D01*
X154043020Y-104656320D01*
X154043020Y-101754720D01*
%TO.C,R3*%
X86687500Y-96970000D02*
X88087500Y-96970000D01*
X88087500Y-94070000D01*
X86687500Y-94070000D01*
X86687500Y-96970000D01*
%TO.C,C2*%
X84837500Y-96995800D02*
X86237500Y-96995800D01*
X86237500Y-94094200D01*
X84837500Y-94094200D01*
X84837500Y-96995800D01*
D13*
%TO.C,J6*%
X113055000Y-99540000D02*
X113055000Y-101340000D01*
X113285000Y-96290000D02*
X113285000Y-102090000D01*
X113285000Y-96290000D02*
X129545000Y-96290000D01*
X113285000Y-105370000D02*
X113285000Y-112390000D01*
X129545000Y-96290000D02*
X129545000Y-102090000D01*
X129545000Y-105370000D02*
X129545000Y-112390000D01*
%TO.C,R9*%
D10*
X95150000Y-67825000D02*
X98050000Y-67825000D01*
X98050000Y-69225000D01*
X95150000Y-69225000D01*
X95150000Y-67825000D01*
%TO.C,C4*%
X90089200Y-83680000D02*
X92990800Y-83680000D01*
X92990800Y-85080000D01*
X90089200Y-85080000D01*
X90089200Y-83680000D01*
%TO.C,C11*%
X90349200Y-73200000D02*
X93250800Y-73200000D01*
X93250800Y-74600000D01*
X90349200Y-74600000D01*
X90349200Y-73200000D01*
%TO.C,JP1*%
X95887500Y-84725000D02*
X95887500Y-82725000D01*
X96387500Y-82225000D02*
X97612500Y-82225000D01*
X97612500Y-85225000D02*
X96387500Y-85225000D01*
X98112500Y-82750000D02*
X98112500Y-84725000D01*
X95887500Y-82725000D02*
G75*
G02*
X96387500Y-82225000I500000J0D01*
G01*
X96387500Y-85225000D02*
G75*
G02*
X95887500Y-84725000I1J500001D01*
G01*
X97612500Y-82225000D02*
G75*
G02*
X98112500Y-82725000I0J-500000D01*
G01*
X98112500Y-84725000D02*
G75*
G02*
X97612500Y-85225000I-500001J1D01*
G01*
%TO.C,R52*%
X108812500Y-77925000D02*
X108512500Y-77925000D01*
X108812500Y-78525000D02*
X108512500Y-78525000D01*
D13*
%TO.C,L2*%
X83312500Y-84570000D02*
X83762500Y-84570000D01*
X83312500Y-90770000D02*
X83312500Y-84570000D01*
X83312500Y-90770000D02*
X83762500Y-90770000D01*
X89512500Y-84570000D02*
X89062500Y-84570000D01*
X89512500Y-84570000D02*
X89512500Y-90770000D01*
X89512500Y-90770000D02*
X89062500Y-90770000D01*
%TO.C,R11*%
D10*
X142449200Y-62950000D02*
X145349200Y-62950000D01*
X145349200Y-64350000D01*
X142449200Y-64350000D01*
X142449200Y-62950000D01*
%TO.C,C16*%
X148864200Y-62710000D02*
X151765800Y-62710000D01*
X151765800Y-64110000D01*
X148864200Y-64110000D01*
X148864200Y-62710000D01*
%TO.C,R2*%
X101887500Y-85475000D02*
X103287500Y-85475000D01*
X103287500Y-82575000D01*
X101887500Y-82575000D01*
X101887500Y-85475000D01*
%TO.C,Q5*%
X155385020Y-99325520D02*
X155385020Y-99960520D01*
X154750020Y-99287420D02*
X157036020Y-99287420D01*
X157036020Y-99998620D01*
X154750020Y-99998620D01*
X154750020Y-99287420D01*
%TO.C,R15*%
X98850000Y-91900000D02*
X95950000Y-91900000D01*
X95950000Y-90500000D01*
X98850000Y-90500000D01*
X98850000Y-91900000D01*
D17*
%TO.C,U1*%
X96822500Y-74645000D02*
X98322500Y-74645000D01*
X96822500Y-77055000D02*
X98322500Y-77055000D01*
D11*
X95927500Y-75100000D02*
G75*
G02*
X95727500Y-75100000I-100000J0D01*
G01*
X95727500Y-75100000D02*
G75*
G02*
X95927500Y-75100000I100000J0D01*
G01*
D10*
%TO.C,Q4*%
X94045500Y-80917500D02*
X94045500Y-80282500D01*
X94680500Y-80955600D02*
X92394500Y-80955600D01*
X92394500Y-80244400D01*
X94680500Y-80244400D01*
X94680500Y-80955600D01*
%TO.C,C9*%
X95900000Y-95175800D02*
X97300000Y-95175800D01*
X97300000Y-92274200D01*
X95900000Y-92274200D01*
X95900000Y-95175800D01*
%TO.C,D2*%
X89475000Y-95020000D02*
X89475000Y-94620000D01*
X89525000Y-91870000D02*
X89525000Y-92270000D01*
X94075000Y-91870000D02*
X89525000Y-91870000D01*
X94075000Y-92270000D02*
X94075000Y-91870000D01*
X94125000Y-95020000D02*
X89475000Y-95020000D01*
X94125000Y-95020000D02*
X94125000Y-94620000D01*
X93175000Y-92270000D02*
X92825000Y-92270000D01*
X92825000Y-91870000D01*
X93175000Y-91870000D01*
X93175000Y-92270000D01*
G36*
X93175000Y-92270000D02*
G01*
X92825000Y-92270000D01*
X92825000Y-91870000D01*
X93175000Y-91870000D01*
X93175000Y-92270000D01*
G37*
X93175000Y-95020000D02*
X92825000Y-95020000D01*
X92825000Y-94570000D01*
X93175000Y-94570000D01*
X93175000Y-95020000D01*
G36*
X93175000Y-95020000D02*
G01*
X92825000Y-95020000D01*
X92825000Y-94570000D01*
X93175000Y-94570000D01*
X93175000Y-95020000D01*
G37*
%TO.C,J2*%
X92752500Y-105095000D02*
X102872500Y-105095000D01*
X102872500Y-117795000D01*
X92752500Y-117795000D01*
X92752500Y-105095000D01*
%TD*%
M02*
