%TF.GenerationSoftware,KiCad,Pcbnew,8.0.6*%
%TF.CreationDate,2025-05-12T11:17:16+07:00*%
%TF.ProjectId,DATN,4441544e-2e6b-4696-9361-645f70636258,rev?*%
%TF.SameCoordinates,Original*%
%TF.FileFunction,Soldermask,Bot*%
%TF.FilePolarity,Negative*%
%FSLAX46Y46*%
G04 Gerber Fmt 4.6, Leading zero omitted, Abs format (unit mm)*
G04 Created by KiCad (PCBNEW 8.0.6) date 2025-05-12 11:17:16*
%MOMM*%
%LPD*%
G01*
G04 APERTURE LIST*
G04 Aperture macros list*
%AMRoundRect*
0 Rectangle with rounded corners*
0 $1 Rounding radius*
0 $2 $3 $4 $5 $6 $7 $8 $9 X,Y pos of 4 corners*
0 Add a 4 corners polygon primitive as box body*
4,1,4,$2,$3,$4,$5,$6,$7,$8,$9,$2,$3,0*
0 Add four circle primitives for the rounded corners*
1,1,$1+$1,$2,$3*
1,1,$1+$1,$4,$5*
1,1,$1+$1,$6,$7*
1,1,$1+$1,$8,$9*
0 Add four rect primitives between the rounded corners*
20,1,$1+$1,$2,$3,$4,$5,0*
20,1,$1+$1,$4,$5,$6,$7,0*
20,1,$1+$1,$6,$7,$8,$9,0*
20,1,$1+$1,$8,$9,$2,$3,0*%
G04 Aperture macros list end*
%ADD10C,6.000000*%
%ADD11C,1.524000*%
%ADD12R,1.700000X1.700000*%
%ADD13O,1.700000X1.700000*%
%ADD14R,4.400000X1.800000*%
%ADD15O,4.000000X1.800000*%
%ADD16O,1.800000X4.000000*%
%ADD17RoundRect,0.200100X0.949900X0.949900X-0.949900X0.949900X-0.949900X-0.949900X0.949900X-0.949900X0*%
%ADD18C,2.500000*%
%ADD19C,1.800000*%
%ADD20C,1.600000*%
%ADD21C,2.000000*%
%ADD22C,3.250000*%
%ADD23RoundRect,0.250500X-0.499500X-0.499500X0.499500X-0.499500X0.499500X0.499500X-0.499500X0.499500X0*%
%ADD24C,1.500000*%
G04 APERTURE END LIST*
D10*
%TO.C,*%
X75230000Y-115460000D03*
%TD*%
D11*
%TO.C,D1*%
X105900000Y-112900000D03*
X108440000Y-112900000D03*
X105900000Y-110360000D03*
X108440000Y-110360000D03*
%TD*%
D12*
%TO.C,BT1*%
X85887500Y-66300000D03*
D13*
X83347500Y-66300000D03*
%TD*%
D14*
%TO.C,J1*%
X86237500Y-103650000D03*
D15*
X86237500Y-109450000D03*
D16*
X91037500Y-106650000D03*
%TD*%
D17*
%TO.C,U8*%
X146343020Y-113643020D03*
D18*
X148883020Y-116183020D03*
X148883020Y-111103020D03*
X143803020Y-116183020D03*
X143803020Y-111103020D03*
%TD*%
D12*
%TO.C,J3*%
X129800000Y-66060000D03*
D13*
X127260000Y-66060000D03*
X124720000Y-66060000D03*
X122180000Y-66060000D03*
X119640000Y-66060000D03*
X117100000Y-66060000D03*
%TD*%
D11*
%TO.C,SW1*%
X106300000Y-97600000D03*
X106300000Y-100100000D03*
X106300000Y-102600000D03*
%TD*%
D10*
%TO.C,*%
X75150000Y-62840000D03*
%TD*%
D19*
%TO.C,RV1*%
X94012500Y-97095000D03*
X101512500Y-98728330D03*
%TD*%
D20*
%TO.C,C33*%
X123100000Y-89000000D03*
X128100000Y-89000000D03*
%TD*%
D10*
%TO.C,*%
X154970000Y-115430000D03*
%TD*%
D21*
%TO.C,SW3*%
X139518020Y-115318020D03*
X135018020Y-115318020D03*
X140768020Y-112818020D03*
X133768020Y-112818020D03*
%TD*%
D22*
%TO.C,J6*%
X115700000Y-106800000D03*
X127130000Y-106800000D03*
D23*
X116975000Y-100440000D03*
D24*
X118235000Y-97900000D03*
X119515000Y-100440000D03*
X120775000Y-97900000D03*
X122055000Y-100440000D03*
X123315000Y-97900000D03*
X124595000Y-100440000D03*
X125855000Y-97900000D03*
X114790000Y-111700000D03*
X117330000Y-111700000D03*
X125500000Y-111700000D03*
X128040000Y-111700000D03*
D18*
X113670000Y-103750000D03*
X129160000Y-103750000D03*
%TD*%
%TO.C,J2*%
X95292500Y-107635000D03*
X100372500Y-107635000D03*
%TD*%
M02*
