M48
; DRILL file {KiCad 8.0.6} date 2025-05-12T11:17:20+0700
; FORMAT={-:-/ absolute / inch / decimal}
; #@! TF.CreationDate,2025-05-12T11:17:20+07:00
; #@! TF.GenerationSoftware,Kicad,Pcbnew,8.0.6
; #@! TF.FileFunction,Plated,1,2,PTH
FMAT,2
INCH
; #@! TA.AperFunction,Plated,PTH,ComponentDrill
T1C0.0079
; #@! TA.AperFunction,Plated,PTH,ViaDrill
T2C0.0118
; #@! TA.AperFunction,Plated,PTH,ComponentDrill
T3C0.0118
; #@! TA.AperFunction,Plated,PTH,ComponentDrill
T4C0.0300
; #@! TA.AperFunction,Plated,PTH,ComponentDrill
T5C0.0315
; #@! TA.AperFunction,Plated,PTH,ComponentDrill
T6C0.0350
; #@! TA.AperFunction,Plated,PTH,ComponentDrill
T7C0.0394
; #@! TA.AperFunction,Plated,PTH,ComponentDrill
T8C0.0402
; #@! TA.AperFunction,Plated,PTH,ComponentDrill
T9C0.0472
; #@! TA.AperFunction,Plated,PTH,ComponentDrill
T10C0.0512
; #@! TA.AperFunction,Plated,PTH,ComponentDrill
T11C0.0551
; #@! TA.AperFunction,Plated,PTH,ComponentDrill
T12C0.0642
; #@! TA.AperFunction,Plated,PTH,ComponentDrill
T13C0.1575
%
G90
G05
T1
X3.6235Y-2.752
X3.6235Y-2.7953
X3.6668Y-2.752
X3.6668Y-2.7953
T2
X2.928Y-2.7331
X2.9937Y-4.202
X3.0154Y-2.7252
X3.0543Y-3.4421
X3.0752Y-3.502
X3.0823Y-2.6606
X3.0874Y-4.2019
X3.0874Y-3.5925
X3.1047Y-3.2154
X3.1114Y-3.4835
X3.1122Y-3.2634
X3.1134Y-3.7913
X3.1146Y-3.3303
X3.1165Y-3.8638
X3.1173Y-3.5362
X3.1232Y-3.4264
X3.1248Y-2.7929
X3.15Y-3.6028
X3.1512Y-3.7508
X3.1535Y-3.3083
X3.1654Y-4.0854
X3.1677Y-3.9012
X3.174Y-3.2472
X3.1756Y-3.1898
X3.1933Y-3.7299
X3.1945Y-3.4594
X3.1949Y-3.5098
X3.1976Y-3.4083
X3.198Y-3.3598
X3.2157Y-3.0106
X3.2173Y-3.1138
X3.2252Y-2.9319
X3.228Y-3.5925
X3.2339Y-3.9028
X3.239Y-2.7921
X3.2496Y-3.0535
X3.2524Y-3.4197
X3.2539Y-2.9575
X3.2551Y-3.485
X3.2563Y-3.002
X3.2563Y-3.7358
X3.2579Y-3.3531
X3.2597Y-4.1091
X3.2602Y-3.5417
X3.2756Y-3.2925
X3.278Y-3.6114
X3.285Y-3.9417
X3.2921Y-3.702
X3.2925Y-3.9043
X3.2996Y-4.2012
X3.3154Y-3.6461
X3.3189Y-2.4307
X3.3223Y-2.9094
X3.3223Y-3.0197
X3.3374Y-3.265
X3.3795Y-3.9209
X3.3799Y-3.287
X3.3807Y-2.8252
X3.3831Y-3.2441
X3.3886Y-3.037
X3.3913Y-2.9886
X3.3953Y-2.8646
X3.4094Y-3.6638
X3.4165Y-2.9402
X3.4224Y-3.1929
X3.4272Y-3.263
X3.4315Y-3.1409
X3.4327Y-4.1949
X3.4331Y-3.2283
X3.4339Y-3.6122
X3.45Y-3.3016
X3.4535Y-3.1933
X3.4563Y-3.8547
X3.4591Y-2.8252
X3.4768Y-2.7717
X3.478Y-3.2591
X3.4949Y-3.1575
X3.4965Y-3.0028
X3.4985Y-2.8831
X3.5071Y-3.7831
X3.5075Y-3.0843
X3.5094Y-3.8575
X3.5193Y-3.1921
X3.5205Y-2.7492
X3.5232Y-2.8555
X3.5244Y-2.678
X3.5252Y-3.2709
X3.5276Y-3.1189
X3.5341Y-3.0517
X3.539Y-3.815
X3.5465Y-3.2311
X3.5535Y-3.4787
X3.5591Y-2.9862
X3.565Y-3.0972
X3.5665Y-3.9004
X3.5681Y-3.4083
X3.5705Y-2.539
X3.5752Y-3.7933
X3.5756Y-3.172
X3.5776Y-3.2697
X3.587Y-3.0488
X3.5878Y-2.7193
X3.6161Y-2.9709
X3.6201Y-4.0035
X3.635Y-3.5535
X3.6354Y-3.7642
X3.6709Y-2.3913
X3.6835Y-2.5413
X3.6846Y-3.9193
X3.698Y-3.3909
X3.7012Y-3.3413
X3.7118Y-2.9467
X3.7197Y-3.4744
X3.7213Y-3.3024
X3.7256Y-3.5224
X3.7307Y-2.5362
X3.739Y-4.3465
X3.7417Y-3.5839
X3.7547Y-2.8488
X3.7598Y-4.0185
X3.7606Y-3.0669
X3.7854Y-2.5465
X3.8024Y-2.8173
X3.8031Y-2.7569
X3.8031Y-3.7205
X3.8142Y-3.024
X3.8337Y-2.6978
X3.8512Y-2.8157
X3.8555Y-2.8472
X3.8654Y-3.5323
X3.8701Y-3.7205
X3.8772Y-2.4331
X3.8898Y-2.6921
X3.8898Y-2.7768
X3.9028Y-3.8787
X3.9165Y-3.2744
X3.9177Y-2.726
X3.922Y-2.7972
X3.9295Y-2.5748
X3.9402Y-4.1071
X3.9591Y-2.6441
X3.9626Y-3.2728
X3.9702Y-3.9839
X3.9764Y-4.0394
X3.9976Y-4.3354
X4.0059Y-2.6685
X4.0197Y-3.1469
X4.0197Y-3.8126
X4.028Y-4.0909
X4.0366Y-2.4177
X4.0394Y-3.4634
X4.0437Y-2.5862
X4.0681Y-3.135
X4.0815Y-2.6055
X4.1161Y-3.1358
X4.1169Y-4.1185
X4.126Y-2.7913
X4.1378Y-3.2933
X4.1429Y-3.7524
X4.1445Y-3.2421
X4.1465Y-3.6815
X4.1496Y-3.4358
X4.1504Y-2.4307
X4.1512Y-3.3756
X4.1539Y-3.6165
X4.1543Y-3.4917
X4.1559Y-3.1323
X4.1591Y-3.5299
X4.1768Y-2.7953
X4.1803Y-4.128
X4.1937Y-2.9071
X4.2146Y-2.8508
X4.2169Y-3.6622
X4.2283Y-3.7067
X4.2433Y-2.7929
X4.2445Y-2.9217
X4.2475Y-2.9734
X4.2475Y-3.0266
X4.2492Y-3.0799
X4.2531Y-3.5906
X4.2693Y-3.5315
X4.2728Y-3.3245
X4.274Y-3.6787
X4.2748Y-3.6307
X4.278Y-2.7224
X4.2902Y-2.6366
X4.2909Y-3.2134
X4.313Y-4.2079
X4.3236Y-3.5524
X4.324Y-3.6102
X4.3276Y-3.3984
X4.3287Y-3.2024
X4.3295Y-3.3161
X4.3299Y-3.4783
X4.3354Y-3.8634
X4.3465Y-2.8
X4.3543Y-3.0736
X4.3709Y-4.5165
X4.3756Y-2.6291
X4.3776Y-3.2173
X4.3815Y-3.9587
X4.3893Y-3.6393
X4.3893Y-3.7111
X4.3969Y-4.2549
X4.4024Y-3.8492
X4.405Y-3.3209
X4.4051Y-3.478
X4.4063Y-3.3972
X4.4224Y-2.776
X4.4366Y-3.5835
X4.4459Y-3.1181
X4.468Y-3.7087
X4.468Y-3.8157
X4.4701Y-2.6055
X4.4732Y-3.3268
X4.489Y-3.0008
X4.4965Y-3.0986
X4.5043Y-2.7421
X4.5051Y-3.9575
X4.5335Y-3.5795
X4.5406Y-3.0575
X4.5498Y-3.2462
X4.5516Y-3.3972
X4.5528Y-3.3264
X4.5559Y-3.1429
X4.5681Y-3.8555
X4.5743Y-3.2705
X4.613Y-3.4331
X4.637Y-3.4945
X4.6551Y-2.9465
X4.6661Y-4.039
X4.678Y-3.7116
X4.6823Y-4.1382
X4.6906Y-3.487
X4.6992Y-3.5874
X4.7055Y-3.3197
X4.7087Y-2.848
X4.735Y-4.5024
X4.7614Y-3.5539
X4.7648Y-3.6378
X4.7685Y-2.7748
X4.7685Y-3.1606
X4.776Y-4.1587
X4.7819Y-2.822
X4.7961Y-2.9283
X4.8028Y-2.9803
X4.8051Y-4.326
X4.8189Y-3.4075
X4.8311Y-3.0092
X4.8354Y-2.7354
X4.8445Y-4.211
X4.8449Y-2.9524
X4.8618Y-3.7783
X4.863Y-2.8843
X4.8941Y-3.7654
X4.9004Y-3.3638
X4.9217Y-3.5921
X4.9315Y-3.6543
X4.9764Y-2.8898
X4.9815Y-3.3602
X5.0024Y-3.5598
X5.0024Y-3.6366
X5.0067Y-4.0201
X5.0551Y-2.8843
X5.0602Y-3.0949
X5.0701Y-3.202
X5.0744Y-3.352
X5.0776Y-2.6831
X5.1102Y-2.7878
X5.1504Y-3.3657
X5.1512Y-3.5709
X5.1697Y-4.5386
X5.1709Y-3.0496
X5.1768Y-3.2165
X5.239Y-3.1594
X5.2398Y-3.5028
X5.2594Y-3.626
X5.2638Y-3.8622
X5.2874Y-2.7165
X5.2882Y-3.3291
X5.3012Y-3.4496
X5.3118Y-3.237
X5.3189Y-3.2697
X5.3382Y-3.3291
X5.348Y-4.1232
X5.3752Y-2.9547
X5.3924Y-4.3265
X5.3992Y-3.5083
X5.4433Y-2.8469
X5.4646Y-3.8126
X5.4868Y-3.6825
X5.508Y-3.847
X5.522Y-3.1067
X5.5382Y-3.3291
X5.5437Y-3.9744
X5.5766Y-2.5053
X5.587Y-2.8146
X5.5882Y-3.3291
X5.6083Y-3.1539
X5.6335Y-3.6437
X5.6378Y-3.4461
X5.6579Y-3.2685
X5.6591Y-3.8579
X5.6642Y-4.152
X5.7531Y-2.7406
X5.7551Y-3.5059
X5.7571Y-3.7055
X5.7583Y-3.6382
X5.7697Y-3.9685
X5.7701Y-3.2693
X5.8004Y-2.7638
X5.8382Y-2.6402
X5.885Y-3.2516
X5.9761Y-3.8171
X6.0205Y-3.6299
X6.1001Y-3.9677
X6.1201Y-3.6689
X6.1311Y-4.2504
X6.1437Y-3.7701
T3
X5.5933Y-2.8961
X5.5933Y-2.9354
X5.5933Y-2.9748
X5.5933Y-3.0142
X5.6327Y-2.8961
X5.6327Y-2.9354
X5.6327Y-2.9748
X5.6327Y-3.0142
X5.672Y-2.8961
X5.672Y-2.9354
X5.672Y-2.9748
X5.672Y-3.0142
X5.7114Y-2.8961
X5.7114Y-2.9354
X5.7114Y-2.9748
X5.7114Y-3.0142
T4
X4.1693Y-4.3449
X4.1693Y-4.4449
X4.185Y-3.8425
X4.185Y-3.9409
X4.185Y-4.0394
X4.2693Y-4.3449
X4.2693Y-4.4449
T5
X3.7013Y-3.8226
X3.9966Y-3.8869
X4.8465Y-3.5039
X5.0433Y-3.5039
T6
X4.6053Y-3.9543
X4.6549Y-3.8543
X4.7053Y-3.9543
X4.7549Y-3.8543
X4.8053Y-3.9543
X4.8549Y-3.8543
X4.9053Y-3.9543
X4.9549Y-3.8543
T7
X3.2814Y-2.6102
X3.3814Y-2.6102
X4.6102Y-2.6008
X4.7102Y-2.6008
X4.8102Y-2.6008
X4.9102Y-2.6008
X5.0102Y-2.6008
X5.1102Y-2.6008
T8
X4.5193Y-4.3976
X4.6193Y-4.3976
X4.9409Y-4.3976
X5.0409Y-4.3976
T9
X3.7517Y-4.2376
X3.9517Y-4.2376
T10
X5.2665Y-4.4417
X5.3157Y-4.5401
X5.4928Y-4.5401
X5.542Y-4.4417
T11
X5.6615Y-4.3741
X5.6615Y-4.5741
X5.7615Y-4.4741
X5.8615Y-4.3741
X5.8615Y-4.5741
T12
X4.4752Y-4.0846
X5.085Y-4.0846
T13
X2.9587Y-2.474
X2.9618Y-4.5457
X6.1012Y-4.5445
T5
G00X3.344Y-4.0807
M15
G01X3.4464Y-4.0807
M16
G05
G00X3.3519Y-4.3091
M15
G01X3.4385Y-4.3091
M16
G05
G00X3.5842Y-4.2421
M15
G01X3.5842Y-4.1555
M16
G05
M30
