%TF.GenerationSoftware,KiCad,Pcbnew,8.0.6*%
%TF.CreationDate,2025-05-12T11:17:16+07:00*%
%TF.ProjectId,DATN,4441544e-2e6b-4696-9361-645f70636258,rev?*%
%TF.SameCoordinates,Original*%
%TF.FileFunction,Paste,Top*%
%TF.FilePolarity,Positive*%
%FSLAX46Y46*%
G04 Gerber Fmt 4.6, Leading zero omitted, Abs format (unit mm)*
G04 Created by KiCad (PCBNEW 8.0.6) date 2025-05-12 11:17:16*
%MOMM*%
%LPD*%
G01*
G04 APERTURE LIST*
G04 Aperture macros list*
%AMRoundRect*
0 Rectangle with rounded corners*
0 $1 Rounding radius*
0 $2 $3 $4 $5 $6 $7 $8 $9 X,Y pos of 4 corners*
0 Add a 4 corners polygon primitive as box body*
4,1,4,$2,$3,$4,$5,$6,$7,$8,$9,$2,$3,0*
0 Add four circle primitives for the rounded corners*
1,1,$1+$1,$2,$3*
1,1,$1+$1,$4,$5*
1,1,$1+$1,$6,$7*
1,1,$1+$1,$8,$9*
0 Add four rect primitives between the rounded corners*
20,1,$1+$1,$2,$3,$4,$5,0*
20,1,$1+$1,$4,$5,$6,$7,0*
20,1,$1+$1,$6,$7,$8,$9,0*
20,1,$1+$1,$8,$9,$2,$3,0*%
%AMFreePoly0*
4,1,18,-0.700000,0.540000,-0.695433,0.562961,-0.682426,0.582426,-0.662961,0.595433,-0.640000,0.600000,0.640000,0.600000,0.662961,0.595433,0.682426,0.582426,0.695433,0.562961,0.700000,0.540000,0.700000,-0.540000,0.695433,-0.562961,0.682426,-0.582426,0.662961,-0.595433,0.640000,-0.600000,-0.400000,-0.600000,-0.700000,-0.300000,-0.700000,0.540000,-0.700000,0.540000,$1*%
G04 Aperture macros list end*
%ADD10R,1.200000X1.200000*%
%ADD11R,1.600000X1.500000*%
%ADD12RoundRect,0.150000X-0.350000X-0.525000X0.350000X-0.525000X0.350000X0.525000X-0.350000X0.525000X0*%
%ADD13RoundRect,0.127500X0.297500X0.322500X-0.297500X0.322500X-0.297500X-0.322500X0.297500X-0.322500X0*%
%ADD14RoundRect,0.127500X-0.322500X0.297500X-0.322500X-0.297500X0.322500X-0.297500X0.322500X0.297500X0*%
%ADD15RoundRect,0.090000X-0.410000X-0.210000X0.410000X-0.210000X0.410000X0.210000X-0.410000X0.210000X0*%
%ADD16RoundRect,0.150000X0.525000X-0.350000X0.525000X0.350000X-0.525000X0.350000X-0.525000X-0.350000X0*%
%ADD17RoundRect,0.127500X-0.297500X-0.322500X0.297500X-0.322500X0.297500X0.322500X-0.297500X0.322500X0*%
%ADD18RoundRect,0.085000X0.365000X-0.340000X0.365000X0.340000X-0.365000X0.340000X-0.365000X-0.340000X0*%
%ADD19RoundRect,0.085000X-0.340000X-0.365000X0.340000X-0.365000X0.340000X0.365000X-0.340000X0.365000X0*%
%ADD20RoundRect,0.127500X0.322500X-0.297500X0.322500X0.297500X-0.322500X0.297500X-0.322500X-0.297500X0*%
%ADD21RoundRect,0.172500X-0.172500X0.172500X-0.172500X-0.172500X0.172500X-0.172500X0.172500X0.172500X0*%
%ADD22RoundRect,0.062500X-0.062500X0.375000X-0.062500X-0.375000X0.062500X-0.375000X0.062500X0.375000X0*%
%ADD23RoundRect,0.062500X-0.375000X0.062500X-0.375000X-0.062500X0.375000X-0.062500X0.375000X0.062500X0*%
%ADD24RoundRect,0.150000X0.350000X0.525000X-0.350000X0.525000X-0.350000X-0.525000X0.350000X-0.525000X0*%
%ADD25R,0.650000X1.060000*%
%ADD26RoundRect,0.218750X0.218750X0.256250X-0.218750X0.256250X-0.218750X-0.256250X0.218750X-0.256250X0*%
%ADD27R,2.000000X1.100000*%
%ADD28R,2.600000X1.100000*%
%ADD29C,1.500000*%
%ADD30RoundRect,0.085000X0.340000X0.365000X-0.340000X0.365000X-0.340000X-0.365000X0.340000X-0.365000X0*%
%ADD31RoundRect,0.085000X-0.365000X0.340000X-0.365000X-0.340000X0.365000X-0.340000X0.365000X0.340000X0*%
%ADD32FreePoly0,270.000000*%
%ADD33RoundRect,0.060000X-0.540000X0.640000X-0.540000X-0.640000X0.540000X-0.640000X0.540000X0.640000X0*%
%ADD34R,0.900000X1.700000*%
%ADD35RoundRect,0.275000X0.275000X-0.275000X0.275000X0.275000X-0.275000X0.275000X-0.275000X-0.275000X0*%
%ADD36RoundRect,0.090000X0.410000X0.210000X-0.410000X0.210000X-0.410000X-0.210000X0.410000X-0.210000X0*%
%ADD37RoundRect,0.250000X-0.425000X0.450000X-0.425000X-0.450000X0.425000X-0.450000X0.425000X0.450000X0*%
%ADD38R,2.200000X1.500000*%
%ADD39RoundRect,0.180000X-1.020000X-0.720000X1.020000X-0.720000X1.020000X0.720000X-1.020000X0.720000X0*%
%ADD40R,5.100000X2.350000*%
%ADD41RoundRect,0.150000X-0.825000X-0.150000X0.825000X-0.150000X0.825000X0.150000X-0.825000X0.150000X0*%
%ADD42RoundRect,0.250000X-0.550000X1.500000X-0.550000X-1.500000X0.550000X-1.500000X0.550000X1.500000X0*%
%ADD43R,0.900000X1.500000*%
%ADD44R,1.500000X0.900000*%
%ADD45R,4.100000X4.100000*%
%ADD46RoundRect,0.150000X-0.525000X0.350000X-0.525000X-0.350000X0.525000X-0.350000X0.525000X0.350000X0*%
%ADD47RoundRect,0.250000X-1.950000X-1.000000X1.950000X-1.000000X1.950000X1.000000X-1.950000X1.000000X0*%
%ADD48RoundRect,0.090000X-0.210000X0.410000X-0.210000X-0.410000X0.210000X-0.410000X0.210000X0.410000X0*%
%ADD49RoundRect,0.250000X-0.312500X-1.450000X0.312500X-1.450000X0.312500X1.450000X-0.312500X1.450000X0*%
%ADD50RoundRect,0.250000X0.450000X-0.262500X0.450000X0.262500X-0.450000X0.262500X-0.450000X-0.262500X0*%
%ADD51RoundRect,0.075000X-0.662500X-0.075000X0.662500X-0.075000X0.662500X0.075000X-0.662500X0.075000X0*%
%ADD52RoundRect,0.075000X-0.075000X-0.662500X0.075000X-0.662500X0.075000X0.662500X-0.075000X0.662500X0*%
%ADD53RoundRect,0.090000X0.210000X-0.410000X0.210000X0.410000X-0.210000X0.410000X-0.210000X-0.410000X0*%
%ADD54RoundRect,0.008100X-0.421900X-0.126900X0.421900X-0.126900X0.421900X0.126900X-0.421900X0.126900X0*%
%ADD55RoundRect,0.180000X1.020000X0.720000X-1.020000X0.720000X-1.020000X-0.720000X1.020000X-0.720000X0*%
G04 APERTURE END LIST*
D10*
%TO.C,RV2*%
X102312500Y-89570000D03*
D11*
X101312500Y-92820000D03*
D10*
X100312500Y-89570000D03*
%TD*%
D12*
%TO.C,C46*%
X109970000Y-84500000D03*
X111870000Y-84500000D03*
%TD*%
D13*
%TO.C,R16*%
X96625000Y-89700000D03*
X98175000Y-89700000D03*
%TD*%
D14*
%TO.C,R1*%
X102562500Y-88000000D03*
X102562500Y-86450000D03*
%TD*%
D15*
%TO.C,Q2*%
X88200000Y-99495000D03*
X88200000Y-101395000D03*
X90475000Y-100445000D03*
%TD*%
D16*
%TO.C,R51*%
X118875000Y-94275000D03*
X118875000Y-92375000D03*
%TD*%
D17*
%TO.C,R4*%
X98237500Y-77900000D03*
X96687500Y-77900000D03*
%TD*%
D18*
%TO.C,C41*%
X117000000Y-85925000D03*
X117000000Y-84375000D03*
%TD*%
D13*
%TO.C,C8*%
X91050000Y-67325000D03*
X92600000Y-67325000D03*
%TD*%
D19*
%TO.C,R45*%
X107887500Y-75525000D03*
X109437500Y-75525000D03*
%TD*%
D20*
%TO.C,R10*%
X141645000Y-63635000D03*
X141645000Y-65185000D03*
%TD*%
D13*
%TO.C,C10*%
X101125000Y-69590000D03*
X102675000Y-69590000D03*
%TD*%
D21*
%TO.C,U2*%
X92987500Y-70050000D03*
X92187500Y-70050000D03*
X92987500Y-70850000D03*
X92187500Y-70850000D03*
D22*
X93337500Y-69012500D03*
X92837500Y-69012500D03*
X92337500Y-69012500D03*
X91837500Y-69012500D03*
D23*
X91150000Y-69700000D03*
X91150000Y-70200000D03*
X91150000Y-70700000D03*
X91150000Y-71200000D03*
D22*
X91837500Y-71887500D03*
X92337500Y-71887500D03*
X92837500Y-71887500D03*
X93337500Y-71887500D03*
D23*
X94025000Y-71200000D03*
X94025000Y-70700000D03*
X94025000Y-70200000D03*
X94025000Y-69700000D03*
%TD*%
D12*
%TO.C,C48*%
X109970000Y-88400000D03*
X111870000Y-88400000D03*
%TD*%
D13*
%TO.C,R8*%
X92750000Y-77800000D03*
X94300000Y-77800000D03*
%TD*%
D24*
%TO.C,C49*%
X115520000Y-88400000D03*
X113620000Y-88400000D03*
%TD*%
D25*
%TO.C,U3*%
X91387500Y-90245000D03*
X92337500Y-90245000D03*
X93287500Y-90245000D03*
X93287500Y-88045000D03*
X92337500Y-88045000D03*
X91387500Y-88045000D03*
%TD*%
D17*
%TO.C,R17*%
X121120000Y-70480000D03*
X119570000Y-70480000D03*
%TD*%
D26*
%TO.C,L1*%
X76875000Y-102575000D03*
X75300000Y-102575000D03*
%TD*%
D27*
%TO.C,U7*%
X149400000Y-106100000D03*
X149400000Y-104100000D03*
D28*
X149100000Y-102100000D03*
X149100000Y-100100000D03*
X149100000Y-98100000D03*
X149100000Y-96100000D03*
X149100000Y-94100000D03*
X149100000Y-92100000D03*
X133700000Y-92100000D03*
X133700000Y-94100000D03*
X133700000Y-96100000D03*
X133700000Y-98100000D03*
X133700000Y-100100000D03*
X133700000Y-102100000D03*
X133700000Y-104100000D03*
X133700000Y-106100000D03*
D29*
X146700000Y-104800000D03*
%TD*%
D30*
%TO.C,R56*%
X109437500Y-79600000D03*
X107887500Y-79600000D03*
%TD*%
D31*
%TO.C,C39*%
X125225000Y-92800000D03*
X125225000Y-94350000D03*
%TD*%
D32*
%TO.C,Y1*%
X124287500Y-80825000D03*
D33*
X124287500Y-83025000D03*
X125987500Y-83025000D03*
X125987500Y-80825000D03*
%TD*%
D13*
%TO.C,R24*%
X151793020Y-96955520D03*
X153343020Y-96955520D03*
%TD*%
D16*
%TO.C,R54*%
X123250000Y-94300000D03*
X123250000Y-92400000D03*
%TD*%
D34*
%TO.C,SW2*%
X114390000Y-69670000D03*
X117790000Y-69670000D03*
%TD*%
D35*
%TO.C,Z1*%
X99922500Y-84445000D03*
X99922500Y-87845000D03*
%TD*%
D13*
%TO.C,R5*%
X96737500Y-73850000D03*
X98287500Y-73850000D03*
%TD*%
D36*
%TO.C,Q3*%
X98412500Y-81250000D03*
X98412500Y-79350000D03*
X96137500Y-80300000D03*
%TD*%
D20*
%TO.C,C15*%
X96600000Y-70025000D03*
X96600000Y-71575000D03*
%TD*%
D24*
%TO.C,C45*%
X115520000Y-84500000D03*
X113620000Y-84500000D03*
%TD*%
D16*
%TO.C,R55*%
X127060000Y-94270000D03*
X127060000Y-92370000D03*
%TD*%
D37*
%TO.C,C52*%
X107950000Y-84442500D03*
X107950000Y-87142500D03*
%TD*%
D38*
%TO.C,L4*%
X76412500Y-79400000D03*
X76412500Y-73000000D03*
%TD*%
D20*
%TO.C,C23*%
X151718020Y-102426520D03*
X151718020Y-103976520D03*
%TD*%
D18*
%TO.C,R46*%
X130865000Y-109825000D03*
X130865000Y-108275000D03*
%TD*%
D39*
%TO.C,D3*%
X80537500Y-82320000D03*
X76487500Y-82320000D03*
%TD*%
D18*
%TO.C,R48*%
X113487500Y-94200000D03*
X113487500Y-92650000D03*
%TD*%
D13*
%TO.C,C18*%
X119575000Y-68920000D03*
X121125000Y-68920000D03*
%TD*%
D30*
%TO.C,C30*%
X125962500Y-79075000D03*
X124412500Y-79075000D03*
%TD*%
D17*
%TO.C,C7*%
X75200000Y-91400000D03*
X73650000Y-91400000D03*
%TD*%
D31*
%TO.C,R36*%
X122812500Y-77600000D03*
X122812500Y-79150000D03*
%TD*%
D13*
%TO.C,R18*%
X133593020Y-109818020D03*
X135143020Y-109818020D03*
%TD*%
D40*
%TO.C,L3*%
X102660000Y-77595000D03*
X102660000Y-73445000D03*
%TD*%
D30*
%TO.C,R38*%
X109437500Y-74200000D03*
X107887500Y-74200000D03*
%TD*%
D19*
%TO.C,R37*%
X124387500Y-77650000D03*
X125937500Y-77650000D03*
%TD*%
D14*
%TO.C,C12*%
X98300000Y-94500000D03*
X98300000Y-92950000D03*
%TD*%
D18*
%TO.C,R50*%
X115137500Y-94200000D03*
X115137500Y-92650000D03*
%TD*%
D13*
%TO.C,C19*%
X136968020Y-109893020D03*
X138518020Y-109893020D03*
%TD*%
D35*
%TO.C,Z2*%
X85872500Y-97965000D03*
X85872500Y-101365000D03*
%TD*%
D41*
%TO.C,U4*%
X76012500Y-85345000D03*
X76012500Y-86615000D03*
X76012500Y-87885000D03*
X76012500Y-89155000D03*
X80962500Y-89155000D03*
X80962500Y-87885000D03*
X80962500Y-86615000D03*
X80962500Y-85345000D03*
%TD*%
D18*
%TO.C,R47*%
X111680000Y-109625000D03*
X111680000Y-108075000D03*
%TD*%
D42*
%TO.C,C14*%
X84387500Y-73900000D03*
X84387500Y-79500000D03*
%TD*%
D13*
%TO.C,C17*%
X149552400Y-64960000D03*
X151102400Y-64960000D03*
%TD*%
%TO.C,R23*%
X155093020Y-102355520D03*
X156643020Y-102355520D03*
%TD*%
D14*
%TO.C,C1*%
X94280000Y-76395000D03*
X94280000Y-74845000D03*
%TD*%
D13*
%TO.C,R12*%
X95825000Y-67000000D03*
X97375000Y-67000000D03*
%TD*%
D14*
%TO.C,R13*%
X105425000Y-107950000D03*
X105425000Y-106400000D03*
%TD*%
D24*
%TO.C,C50*%
X115510000Y-86440000D03*
X113610000Y-86440000D03*
%TD*%
D17*
%TO.C,C6*%
X144670000Y-65180000D03*
X143120000Y-65180000D03*
%TD*%
D37*
%TO.C,C51*%
X122012500Y-81775000D03*
X122012500Y-84475000D03*
%TD*%
D12*
%TO.C,C47*%
X109990000Y-86440000D03*
X111890000Y-86440000D03*
%TD*%
D36*
%TO.C,Q1*%
X97887500Y-88075000D03*
X97887500Y-86175000D03*
X95612500Y-87125000D03*
%TD*%
D43*
%TO.C,U5*%
X150830000Y-67060000D03*
X149560000Y-67060000D03*
X148290000Y-67060000D03*
X147020000Y-67060000D03*
X145750000Y-67060000D03*
X144480000Y-67060000D03*
X143210000Y-67060000D03*
X141940000Y-67060000D03*
X140670000Y-67060000D03*
X139400000Y-67060000D03*
X138130000Y-67060000D03*
X136860000Y-67060000D03*
X135590000Y-67060000D03*
X134320000Y-67060000D03*
D44*
X133070000Y-70090000D03*
X133070000Y-71360000D03*
X133070000Y-72630000D03*
X133070000Y-73900000D03*
X133070000Y-75170000D03*
X133070000Y-76440000D03*
X133070000Y-77710000D03*
X133070000Y-78980000D03*
X133070000Y-80250000D03*
X133070000Y-81520000D03*
D43*
X134320000Y-84560000D03*
X135590000Y-84560000D03*
X136860000Y-84560000D03*
X138130000Y-84560000D03*
X139400000Y-84560000D03*
X140670000Y-84560000D03*
X141940000Y-84560000D03*
X143210000Y-84560000D03*
X144480000Y-84560000D03*
X145750000Y-84560000D03*
X147020000Y-84560000D03*
X148290000Y-84560000D03*
X149560000Y-84560000D03*
X150830000Y-84560000D03*
D45*
X143490000Y-75130000D03*
%TD*%
D46*
%TO.C,C38*%
X129130000Y-92350000D03*
X129130000Y-94250000D03*
%TD*%
D47*
%TO.C,C5*%
X74612500Y-97020000D03*
X82012500Y-97020000D03*
%TD*%
D48*
%TO.C,Q6*%
X153493020Y-98518020D03*
X151593020Y-98518020D03*
X152543020Y-100793020D03*
%TD*%
D14*
%TO.C,R14*%
X106925000Y-107950000D03*
X106925000Y-106400000D03*
%TD*%
D49*
%TO.C,F1*%
X93600000Y-102475000D03*
X97875000Y-102475000D03*
%TD*%
D31*
%TO.C,C31*%
X119960000Y-81385000D03*
X119960000Y-82935000D03*
%TD*%
D13*
%TO.C,C13*%
X101125000Y-71090000D03*
X102675000Y-71090000D03*
%TD*%
D50*
%TO.C,FB1*%
X111487500Y-94262500D03*
X111487500Y-92437500D03*
%TD*%
D19*
%TO.C,C29*%
X124412500Y-76175000D03*
X125962500Y-76175000D03*
%TD*%
D18*
%TO.C,C34*%
X116787500Y-94225000D03*
X116787500Y-92675000D03*
%TD*%
D14*
%TO.C,R7*%
X100070000Y-81325000D03*
X100070000Y-79775000D03*
%TD*%
D17*
%TO.C,R6*%
X103305000Y-81320000D03*
X101755000Y-81320000D03*
%TD*%
D14*
%TO.C,C3*%
X88862500Y-74780000D03*
X88862500Y-73230000D03*
%TD*%
D51*
%TO.C,U12*%
X111875000Y-74200000D03*
X111875000Y-74700000D03*
X111875000Y-75200000D03*
X111875000Y-75700000D03*
X111875000Y-76200000D03*
X111875000Y-76700000D03*
X111875000Y-77200000D03*
X111875000Y-77700000D03*
X111875000Y-78200000D03*
X111875000Y-78700000D03*
X111875000Y-79200000D03*
X111875000Y-79700000D03*
D52*
X113287500Y-81112500D03*
X113787500Y-81112500D03*
X114287500Y-81112500D03*
X114787500Y-81112500D03*
X115287500Y-81112500D03*
X115787500Y-81112500D03*
X116287500Y-81112500D03*
X116787500Y-81112500D03*
X117287500Y-81112500D03*
X117787500Y-81112500D03*
X118287500Y-81112500D03*
X118787500Y-81112500D03*
D51*
X120200000Y-79700000D03*
X120200000Y-79200000D03*
X120200000Y-78700000D03*
X120200000Y-78200000D03*
X120200000Y-77700000D03*
X120200000Y-77200000D03*
X120200000Y-76700000D03*
X120200000Y-76200000D03*
X120200000Y-75700000D03*
X120200000Y-75200000D03*
X120200000Y-74700000D03*
X120200000Y-74200000D03*
D52*
X118787500Y-72787500D03*
X118287500Y-72787500D03*
X117787500Y-72787500D03*
X117287500Y-72787500D03*
X116787500Y-72787500D03*
X116287500Y-72787500D03*
X115787500Y-72787500D03*
X115287500Y-72787500D03*
X114787500Y-72787500D03*
X114287500Y-72787500D03*
X113787500Y-72787500D03*
X113287500Y-72787500D03*
%TD*%
D46*
%TO.C,C35*%
X121025000Y-92400000D03*
X121025000Y-94300000D03*
%TD*%
D19*
%TO.C,R53*%
X107887500Y-76875000D03*
X109437500Y-76875000D03*
%TD*%
D18*
%TO.C,C40*%
X118340000Y-85925000D03*
X118340000Y-84375000D03*
%TD*%
D20*
%TO.C,C21*%
X153343020Y-102430520D03*
X153343020Y-103980520D03*
%TD*%
D14*
%TO.C,R3*%
X87387500Y-96295000D03*
X87387500Y-94745000D03*
%TD*%
%TO.C,C2*%
X85537500Y-96320000D03*
X85537500Y-94770000D03*
%TD*%
D13*
%TO.C,R9*%
X95825000Y-68525000D03*
X97375000Y-68525000D03*
%TD*%
%TO.C,C4*%
X90765000Y-84380000D03*
X92315000Y-84380000D03*
%TD*%
%TO.C,C11*%
X91025000Y-73900000D03*
X92575000Y-73900000D03*
%TD*%
D30*
%TO.C,R52*%
X109437500Y-78225000D03*
X107887500Y-78225000D03*
%TD*%
D40*
%TO.C,L2*%
X86412500Y-85595000D03*
X86412500Y-89745000D03*
%TD*%
D13*
%TO.C,R11*%
X143124200Y-63650000D03*
X144674200Y-63650000D03*
%TD*%
%TO.C,C16*%
X149540000Y-63410000D03*
X151090000Y-63410000D03*
%TD*%
D14*
%TO.C,R2*%
X102587500Y-84800000D03*
X102587500Y-83250000D03*
%TD*%
D53*
%TO.C,Q5*%
X154943020Y-100780520D03*
X156843020Y-100780520D03*
X155893020Y-98505520D03*
%TD*%
D17*
%TO.C,R15*%
X98175000Y-91200000D03*
X96625000Y-91200000D03*
%TD*%
D54*
%TO.C,U1*%
X96887500Y-75100000D03*
X96887500Y-75600000D03*
X96887500Y-76100000D03*
X96887500Y-76600000D03*
X98257500Y-76600000D03*
X98257500Y-76100000D03*
X98257500Y-75600000D03*
X98257500Y-75100000D03*
%TD*%
D48*
%TO.C,Q4*%
X94487500Y-79462500D03*
X92587500Y-79462500D03*
X93537500Y-81737500D03*
%TD*%
D14*
%TO.C,C9*%
X96600000Y-94500000D03*
X96600000Y-92950000D03*
%TD*%
D55*
%TO.C,D2*%
X89825000Y-93420000D03*
X93875000Y-93420000D03*
%TD*%
M02*
