%TF.GenerationSoftware,KiCad,Pcbnew,8.0.6*%
%TF.CreationDate,2025-04-11T21:40:20+07:00*%
%TF.ProjectId,DATN,4441544e-2e6b-4696-9361-645f70636258,rev?*%
%TF.SameCoordinates,Original*%
%TF.FileFunction,Soldermask,Top*%
%TF.FilePolarity,Negative*%
%FSLAX46Y46*%
G04 Gerber Fmt 4.6, Leading zero omitted, Abs format (unit mm)*
G04 Created by KiCad (PCBNEW 8.0.6) date 2025-04-11 21:40:20*
%MOMM*%
%LPD*%
G01*
G04 APERTURE LIST*
G04 Aperture macros list*
%AMRoundRect*
0 Rectangle with rounded corners*
0 $1 Rounding radius*
0 $2 $3 $4 $5 $6 $7 $8 $9 X,Y pos of 4 corners*
0 Add a 4 corners polygon primitive as box body*
4,1,4,$2,$3,$4,$5,$6,$7,$8,$9,$2,$3,0*
0 Add four circle primitives for the rounded corners*
1,1,$1+$1,$2,$3*
1,1,$1+$1,$4,$5*
1,1,$1+$1,$6,$7*
1,1,$1+$1,$8,$9*
0 Add four rect primitives between the rounded corners*
20,1,$1+$1,$2,$3,$4,$5,0*
20,1,$1+$1,$4,$5,$6,$7,0*
20,1,$1+$1,$6,$7,$8,$9,0*
20,1,$1+$1,$8,$9,$2,$3,0*%
%AMFreePoly0*
4,1,18,-0.700000,0.540000,-0.695433,0.562961,-0.682426,0.582426,-0.662961,0.595433,-0.640000,0.600000,0.640000,0.600000,0.662961,0.595433,0.682426,0.582426,0.695433,0.562961,0.700000,0.540000,0.700000,-0.540000,0.695433,-0.562961,0.682426,-0.582426,0.662961,-0.595433,0.640000,-0.600000,-0.400000,-0.600000,-0.700000,-0.300000,-0.700000,0.540000,-0.700000,0.540000,$1*%
%AMFreePoly1*
4,1,19,0.500000,-0.750000,0.000000,-0.750000,0.000000,-0.744911,-0.071157,-0.744911,-0.207708,-0.704816,-0.327430,-0.627875,-0.420627,-0.520320,-0.479746,-0.390866,-0.500000,-0.250000,-0.500000,0.250000,-0.479746,0.390866,-0.420627,0.520320,-0.327430,0.627875,-0.207708,0.704816,-0.071157,0.744911,0.000000,0.744911,0.000000,0.750000,0.500000,0.750000,0.500000,-0.750000,0.500000,-0.750000,
$1*%
%AMFreePoly2*
4,1,19,0.000000,0.744911,0.071157,0.744911,0.207708,0.704816,0.327430,0.627875,0.420627,0.520320,0.479746,0.390866,0.500000,0.250000,0.500000,-0.250000,0.479746,-0.390866,0.420627,-0.520320,0.327430,-0.627875,0.207708,-0.704816,0.071157,-0.744911,0.000000,-0.744911,0.000000,-0.750000,-0.500000,-0.750000,-0.500000,0.750000,0.000000,0.750000,0.000000,0.744911,0.000000,0.744911,
$1*%
G04 Aperture macros list end*
%ADD10RoundRect,0.127500X0.322500X-0.297500X0.322500X0.297500X-0.322500X0.297500X-0.322500X-0.297500X0*%
%ADD11R,1.200000X1.200000*%
%ADD12R,1.600000X1.500000*%
%ADD13C,6.000000*%
%ADD14RoundRect,0.150000X-0.350000X-0.525000X0.350000X-0.525000X0.350000X0.525000X-0.350000X0.525000X0*%
%ADD15RoundRect,0.127500X0.297500X0.322500X-0.297500X0.322500X-0.297500X-0.322500X0.297500X-0.322500X0*%
%ADD16RoundRect,0.127500X-0.297500X-0.322500X0.297500X-0.322500X0.297500X0.322500X-0.297500X0.322500X0*%
%ADD17RoundRect,0.250000X0.262500X0.450000X-0.262500X0.450000X-0.262500X-0.450000X0.262500X-0.450000X0*%
%ADD18RoundRect,0.127500X-0.322500X0.297500X-0.322500X-0.297500X0.322500X-0.297500X0.322500X0.297500X0*%
%ADD19RoundRect,0.090000X-0.410000X-0.210000X0.410000X-0.210000X0.410000X0.210000X-0.410000X0.210000X0*%
%ADD20RoundRect,0.150000X0.525000X-0.350000X0.525000X0.350000X-0.525000X0.350000X-0.525000X-0.350000X0*%
%ADD21RoundRect,0.085000X0.365000X-0.340000X0.365000X0.340000X-0.365000X0.340000X-0.365000X-0.340000X0*%
%ADD22RoundRect,0.090000X-0.210000X0.410000X-0.210000X-0.410000X0.210000X-0.410000X0.210000X0.410000X0*%
%ADD23RoundRect,0.085000X-0.340000X-0.365000X0.340000X-0.365000X0.340000X0.365000X-0.340000X0.365000X0*%
%ADD24RoundRect,0.218750X-0.256250X0.218750X-0.256250X-0.218750X0.256250X-0.218750X0.256250X0.218750X0*%
%ADD25RoundRect,0.062500X-0.062500X0.375000X-0.062500X-0.375000X0.062500X-0.375000X0.062500X0.375000X0*%
%ADD26RoundRect,0.062500X-0.375000X0.062500X-0.375000X-0.062500X0.375000X-0.062500X0.375000X0.062500X0*%
%ADD27R,1.600000X1.600000*%
%ADD28RoundRect,0.150000X0.350000X0.525000X-0.350000X0.525000X-0.350000X-0.525000X0.350000X-0.525000X0*%
%ADD29R,0.650000X1.060000*%
%ADD30C,1.524000*%
%ADD31RoundRect,0.218750X0.218750X0.256250X-0.218750X0.256250X-0.218750X-0.256250X0.218750X-0.256250X0*%
%ADD32R,1.700000X1.700000*%
%ADD33O,1.700000X1.700000*%
%ADD34R,2.000000X1.100000*%
%ADD35R,2.600000X1.100000*%
%ADD36C,1.500000*%
%ADD37R,4.400000X1.800000*%
%ADD38O,4.000000X1.800000*%
%ADD39O,1.800000X4.000000*%
%ADD40RoundRect,0.085000X0.340000X0.365000X-0.340000X0.365000X-0.340000X-0.365000X0.340000X-0.365000X0*%
%ADD41RoundRect,0.085000X-0.365000X0.340000X-0.365000X-0.340000X0.365000X-0.340000X0.365000X0.340000X0*%
%ADD42FreePoly0,270.000000*%
%ADD43RoundRect,0.060000X-0.540000X0.640000X-0.540000X-0.640000X0.540000X-0.640000X0.540000X0.640000X0*%
%ADD44RoundRect,0.200100X0.949900X0.949900X-0.949900X0.949900X-0.949900X-0.949900X0.949900X-0.949900X0*%
%ADD45C,2.500000*%
%ADD46RoundRect,0.099250X-0.297750X0.987750X-0.297750X-0.987750X0.297750X-0.987750X0.297750X0.987750X0*%
%ADD47R,0.900000X1.700000*%
%ADD48RoundRect,0.275000X-0.275000X-0.275000X0.275000X-0.275000X0.275000X0.275000X-0.275000X0.275000X0*%
%ADD49RoundRect,0.275000X0.275000X-0.275000X0.275000X0.275000X-0.275000X0.275000X-0.275000X-0.275000X0*%
%ADD50RoundRect,0.090000X0.410000X0.210000X-0.410000X0.210000X-0.410000X-0.210000X0.410000X-0.210000X0*%
%ADD51R,2.000000X2.000000*%
%ADD52C,2.000000*%
%ADD53RoundRect,0.250000X0.450000X0.425000X-0.450000X0.425000X-0.450000X-0.425000X0.450000X-0.425000X0*%
%ADD54RoundRect,0.100500X-0.986500X-0.301500X0.986500X-0.301500X0.986500X0.301500X-0.986500X0.301500X0*%
%ADD55R,2.200000X1.500000*%
%ADD56RoundRect,0.180000X-1.020000X-0.720000X1.020000X-0.720000X1.020000X0.720000X-1.020000X0.720000X0*%
%ADD57C,1.800000*%
%ADD58R,5.100000X2.350000*%
%ADD59RoundRect,0.102000X-0.611000X-0.611000X0.611000X-0.611000X0.611000X0.611000X-0.611000X0.611000X0*%
%ADD60C,1.426000*%
%ADD61C,1.600000*%
%ADD62C,1.674000*%
%ADD63RoundRect,0.102000X0.735000X0.735000X-0.735000X0.735000X-0.735000X-0.735000X0.735000X-0.735000X0*%
%ADD64RoundRect,0.218750X0.256250X-0.218750X0.256250X0.218750X-0.256250X0.218750X-0.256250X-0.218750X0*%
%ADD65RoundRect,0.150000X-0.825000X-0.150000X0.825000X-0.150000X0.825000X0.150000X-0.825000X0.150000X0*%
%ADD66RoundRect,0.025000X-0.525000X-0.100000X0.525000X-0.100000X0.525000X0.100000X-0.525000X0.100000X0*%
%ADD67RoundRect,0.250000X-0.550000X1.500000X-0.550000X-1.500000X0.550000X-1.500000X0.550000X1.500000X0*%
%ADD68C,0.602078*%
%ADD69RoundRect,0.250000X-0.425000X0.450000X-0.425000X-0.450000X0.425000X-0.450000X0.425000X0.450000X0*%
%ADD70R,0.900000X1.500000*%
%ADD71R,1.500000X0.900000*%
%ADD72C,0.600000*%
%ADD73R,4.100000X4.100000*%
%ADD74RoundRect,0.150000X-0.525000X0.350000X-0.525000X-0.350000X0.525000X-0.350000X0.525000X0.350000X0*%
%ADD75RoundRect,0.250000X-1.950000X-1.000000X1.950000X-1.000000X1.950000X1.000000X-1.950000X1.000000X0*%
%ADD76RoundRect,0.250000X-0.312500X-1.450000X0.312500X-1.450000X0.312500X1.450000X-0.312500X1.450000X0*%
%ADD77RoundRect,0.250000X-0.262500X-0.450000X0.262500X-0.450000X0.262500X0.450000X-0.262500X0.450000X0*%
%ADD78RoundRect,0.075000X-0.662500X-0.075000X0.662500X-0.075000X0.662500X0.075000X-0.662500X0.075000X0*%
%ADD79RoundRect,0.075000X-0.075000X-0.662500X0.075000X-0.662500X0.075000X0.662500X-0.075000X0.662500X0*%
%ADD80RoundRect,0.102000X0.545000X0.545000X-0.545000X0.545000X-0.545000X-0.545000X0.545000X-0.545000X0*%
%ADD81C,1.294000*%
%ADD82C,3.250000*%
%ADD83RoundRect,0.250500X-0.499500X-0.499500X0.499500X-0.499500X0.499500X0.499500X-0.499500X0.499500X0*%
%ADD84RoundRect,0.100500X0.986500X0.301500X-0.986500X0.301500X-0.986500X-0.301500X0.986500X-0.301500X0*%
%ADD85FreePoly1,90.000000*%
%ADD86FreePoly2,90.000000*%
%ADD87RoundRect,0.102000X-0.611000X0.611000X-0.611000X-0.611000X0.611000X-0.611000X0.611000X0.611000X0*%
%ADD88RoundRect,0.090000X0.210000X-0.410000X0.210000X0.410000X-0.210000X0.410000X-0.210000X-0.410000X0*%
%ADD89RoundRect,0.014220X-0.517780X-0.222780X0.517780X-0.222780X0.517780X0.222780X-0.517780X0.222780X0*%
%ADD90RoundRect,0.180000X1.020000X0.720000X-1.020000X0.720000X-1.020000X-0.720000X1.020000X-0.720000X0*%
G04 APERTURE END LIST*
D10*
%TO.C,R49*%
X115930000Y-79065000D03*
X115930000Y-80615000D03*
%TD*%
D11*
%TO.C,RV2*%
X95275000Y-99345000D03*
D12*
X94275000Y-102595000D03*
D11*
X93275000Y-99345000D03*
%TD*%
D13*
%TO.C,H1*%
X68775000Y-123550000D03*
%TD*%
D14*
%TO.C,C46*%
X132350000Y-114500000D03*
X134250000Y-114500000D03*
%TD*%
D15*
%TO.C,R16*%
X89150000Y-99300000D03*
X90700000Y-99300000D03*
%TD*%
D16*
%TO.C,R26*%
X125575000Y-83500000D03*
X124025000Y-83500000D03*
%TD*%
D17*
%TO.C,R25*%
X122417500Y-83035000D03*
X120592500Y-83035000D03*
%TD*%
D18*
%TO.C,R1*%
X95525000Y-97775000D03*
X95525000Y-96225000D03*
%TD*%
D19*
%TO.C,Q2*%
X81162500Y-109270000D03*
X81162500Y-111170000D03*
X83437500Y-110220000D03*
%TD*%
D20*
%TO.C,R51*%
X115850000Y-104300000D03*
X115850000Y-102400000D03*
%TD*%
D16*
%TO.C,R4*%
X91200000Y-87675000D03*
X89650000Y-87675000D03*
%TD*%
D10*
%TO.C,C28*%
X110725000Y-94060000D03*
X110725000Y-95610000D03*
%TD*%
D21*
%TO.C,C41*%
X139525000Y-116050000D03*
X139525000Y-114500000D03*
%TD*%
D15*
%TO.C,C8*%
X84975000Y-76570000D03*
X86525000Y-76570000D03*
%TD*%
D22*
%TO.C,Q8*%
X137325000Y-90362500D03*
X135425000Y-90362500D03*
X136375000Y-92637500D03*
%TD*%
D23*
%TO.C,R45*%
X130250000Y-105675000D03*
X131800000Y-105675000D03*
%TD*%
D24*
%TO.C,D5*%
X120100000Y-95650000D03*
X120100000Y-97225000D03*
%TD*%
D16*
%TO.C,R10*%
X162700000Y-69675000D03*
X161150000Y-69675000D03*
%TD*%
D15*
%TO.C,C10*%
X94125000Y-79800000D03*
X95675000Y-79800000D03*
%TD*%
D18*
%TO.C,R39*%
X121900000Y-97150000D03*
X121900000Y-95600000D03*
%TD*%
D25*
%TO.C,U2*%
X87262500Y-78257500D03*
X86762500Y-78257500D03*
X86262500Y-78257500D03*
X85762500Y-78257500D03*
D26*
X85075000Y-78945000D03*
X85075000Y-79445000D03*
X85075000Y-79945000D03*
X85075000Y-80445000D03*
D25*
X85762500Y-81132500D03*
X86262500Y-81132500D03*
X86762500Y-81132500D03*
X87262500Y-81132500D03*
D26*
X87950000Y-80445000D03*
X87950000Y-79945000D03*
X87950000Y-79445000D03*
X87950000Y-78945000D03*
D27*
X86512500Y-79695000D03*
%TD*%
D14*
%TO.C,C48*%
X132350000Y-118325000D03*
X134250000Y-118325000D03*
%TD*%
D15*
%TO.C,R8*%
X85225000Y-87075000D03*
X86775000Y-87075000D03*
%TD*%
D13*
%TO.C,H1*%
X176950000Y-61950000D03*
%TD*%
D28*
%TO.C,C49*%
X137900000Y-118325000D03*
X136000000Y-118325000D03*
%TD*%
D29*
%TO.C,U3*%
X84350000Y-100020000D03*
X85300000Y-100020000D03*
X86250000Y-100020000D03*
X86250000Y-97820000D03*
X85300000Y-97820000D03*
X84350000Y-97820000D03*
%TD*%
D16*
%TO.C,C20*%
X130375000Y-84100000D03*
X128825000Y-84100000D03*
%TD*%
D30*
%TO.C,D1*%
X100175000Y-122550000D03*
X102715000Y-122550000D03*
X100175000Y-120010000D03*
X102715000Y-120010000D03*
%TD*%
D10*
%TO.C,R42*%
X110675000Y-87610000D03*
X110675000Y-89160000D03*
%TD*%
D16*
%TO.C,R17*%
X149825000Y-65100000D03*
X148275000Y-65100000D03*
%TD*%
D31*
%TO.C,L1*%
X69837500Y-112350000D03*
X68262500Y-112350000D03*
%TD*%
D32*
%TO.C,BT1*%
X78850000Y-76075000D03*
D33*
X76310000Y-76075000D03*
%TD*%
D34*
%TO.C,U7*%
X167215000Y-109300000D03*
X167215000Y-107300000D03*
D35*
X166915000Y-105300000D03*
X166915000Y-103300000D03*
X166915000Y-101300000D03*
X166915000Y-99300000D03*
X166915000Y-97300000D03*
X166915000Y-95300000D03*
X151515000Y-95300000D03*
X151515000Y-97300000D03*
X151515000Y-99300000D03*
X151515000Y-101300000D03*
X151515000Y-103300000D03*
X151515000Y-105300000D03*
X151515000Y-107300000D03*
X151515000Y-109300000D03*
D36*
X164515000Y-108000000D03*
%TD*%
D37*
%TO.C,J1*%
X79200000Y-113425000D03*
D38*
X79200000Y-119225000D03*
D39*
X84000000Y-116425000D03*
%TD*%
D40*
%TO.C,R56*%
X131800000Y-109750000D03*
X130250000Y-109750000D03*
%TD*%
D41*
%TO.C,C39*%
X122200000Y-102825000D03*
X122200000Y-104375000D03*
%TD*%
D42*
%TO.C,Y1*%
X146650000Y-110975000D03*
D43*
X146650000Y-113175000D03*
X148350000Y-113175000D03*
X148350000Y-110975000D03*
%TD*%
D16*
%TO.C,C22*%
X158575000Y-72450000D03*
X157025000Y-72450000D03*
%TD*%
D44*
%TO.C,U8*%
X164400000Y-123175000D03*
D45*
X166940000Y-125715000D03*
X166940000Y-120635000D03*
X161860000Y-125715000D03*
X161860000Y-120635000D03*
%TD*%
D15*
%TO.C,R24*%
X170450000Y-103575000D03*
X172000000Y-103575000D03*
%TD*%
D32*
%TO.C,J3*%
X165590000Y-66100000D03*
D33*
X163050000Y-66100000D03*
X160510000Y-66100000D03*
X157970000Y-66100000D03*
X155430000Y-66100000D03*
X152890000Y-66100000D03*
%TD*%
D46*
%TO.C,U15*%
X140820000Y-76275000D03*
X139550000Y-76275000D03*
X138280000Y-76275000D03*
X137010000Y-76275000D03*
X137010000Y-81225000D03*
X138280000Y-81225000D03*
X139550000Y-81225000D03*
X140820000Y-81225000D03*
%TD*%
D17*
%TO.C,R27*%
X122527500Y-77710000D03*
X120702500Y-77710000D03*
%TD*%
D15*
%TO.C,R22*%
X128675000Y-78900000D03*
X130225000Y-78900000D03*
%TD*%
D20*
%TO.C,R54*%
X120225000Y-104325000D03*
X120225000Y-102425000D03*
%TD*%
D47*
%TO.C,SW2*%
X145550000Y-67775000D03*
X148950000Y-67775000D03*
%TD*%
D48*
%TO.C,Z3*%
X124980000Y-85860000D03*
X121580000Y-85860000D03*
%TD*%
D45*
%TO.C,J5*%
X101780000Y-89210000D03*
X106860000Y-89210000D03*
%TD*%
D49*
%TO.C,Z1*%
X92885000Y-94220000D03*
X92885000Y-97620000D03*
%TD*%
D15*
%TO.C,R5*%
X89700000Y-83625000D03*
X91250000Y-83625000D03*
%TD*%
D50*
%TO.C,Q3*%
X91375000Y-91025000D03*
X91375000Y-89125000D03*
X89100000Y-90075000D03*
%TD*%
D10*
%TO.C,C15*%
X90525000Y-79270000D03*
X90525000Y-80820000D03*
%TD*%
D28*
%TO.C,C45*%
X137900000Y-114500000D03*
X136000000Y-114500000D03*
%TD*%
D20*
%TO.C,R55*%
X124025000Y-104450000D03*
X124025000Y-102550000D03*
%TD*%
D10*
%TO.C,R41*%
X121925000Y-92385000D03*
X121925000Y-93935000D03*
%TD*%
D15*
%TO.C,R31*%
X132175000Y-94375000D03*
X133725000Y-94375000D03*
%TD*%
D51*
%TO.C,U10*%
X109230000Y-64630000D03*
D52*
X107840000Y-67990000D03*
X109230000Y-71350000D03*
X115950000Y-71350000D03*
X117340000Y-67990000D03*
X115950000Y-64630000D03*
%TD*%
D15*
%TO.C,C25*%
X137665000Y-83775000D03*
X139215000Y-83775000D03*
%TD*%
D53*
%TO.C,C52*%
X135275000Y-120425000D03*
X132575000Y-120425000D03*
%TD*%
D54*
%TO.C,U11*%
X108785000Y-79010000D03*
X108785000Y-80280000D03*
X108785000Y-81550000D03*
X108785000Y-82820000D03*
X113725000Y-82820000D03*
X113725000Y-81550000D03*
X113725000Y-80280000D03*
X113725000Y-79010000D03*
%TD*%
D30*
%TO.C,SW1*%
X103975000Y-106475000D03*
X101475000Y-106475000D03*
X98975000Y-106475000D03*
%TD*%
D48*
%TO.C,Z4*%
X125495000Y-80095000D03*
X122095000Y-80095000D03*
%TD*%
D55*
%TO.C,L4*%
X69375000Y-88220000D03*
X69375000Y-81820000D03*
%TD*%
D10*
%TO.C,C23*%
X170375000Y-109046000D03*
X170375000Y-110596000D03*
%TD*%
D21*
%TO.C,R46*%
X125225000Y-119500000D03*
X125225000Y-117950000D03*
%TD*%
D56*
%TO.C,D3*%
X73500000Y-92095000D03*
X69450000Y-92095000D03*
%TD*%
D21*
%TO.C,R48*%
X110925000Y-104225000D03*
X110925000Y-102675000D03*
%TD*%
D16*
%TO.C,C18*%
X146900000Y-65100000D03*
X145350000Y-65100000D03*
%TD*%
D40*
%TO.C,C30*%
X148325000Y-109225000D03*
X146775000Y-109225000D03*
%TD*%
D16*
%TO.C,C37*%
X142975000Y-99000000D03*
X141425000Y-99000000D03*
%TD*%
D57*
%TO.C,RV1*%
X86975000Y-106870000D03*
X94475000Y-108503330D03*
%TD*%
D16*
%TO.C,C7*%
X68625000Y-101195000D03*
X67075000Y-101195000D03*
%TD*%
D22*
%TO.C,Q7*%
X133925000Y-90362500D03*
X132025000Y-90362500D03*
X132975000Y-92637500D03*
%TD*%
D41*
%TO.C,R36*%
X145175000Y-107750000D03*
X145175000Y-109300000D03*
%TD*%
D15*
%TO.C,R18*%
X151825000Y-117725000D03*
X153375000Y-117725000D03*
%TD*%
D45*
%TO.C,J4*%
X139720000Y-68235000D03*
X134640000Y-68235000D03*
%TD*%
D18*
%TO.C,C26*%
X120100000Y-90385000D03*
X120100000Y-88835000D03*
%TD*%
D16*
%TO.C,R32*%
X137150000Y-94375000D03*
X135600000Y-94375000D03*
%TD*%
D58*
%TO.C,L3*%
X95700000Y-87800000D03*
X95700000Y-83650000D03*
%TD*%
D59*
%TO.C,VR1*%
X112935000Y-97100000D03*
D60*
X115475000Y-94560000D03*
X118015000Y-97100000D03*
%TD*%
D40*
%TO.C,R38*%
X131800000Y-104350000D03*
X130250000Y-104350000D03*
%TD*%
D61*
%TO.C,C33*%
X128675000Y-118550000D03*
X128675000Y-113550000D03*
%TD*%
D18*
%TO.C,C24*%
X164225000Y-72725000D03*
X164225000Y-71175000D03*
%TD*%
D23*
%TO.C,R37*%
X146750000Y-107800000D03*
X148300000Y-107800000D03*
%TD*%
D18*
%TO.C,C12*%
X91425000Y-104295000D03*
X91425000Y-102745000D03*
%TD*%
D21*
%TO.C,R50*%
X112575000Y-104225000D03*
X112575000Y-102675000D03*
%TD*%
D10*
%TO.C,R40*%
X120100000Y-92385000D03*
X120100000Y-93935000D03*
%TD*%
D15*
%TO.C,C19*%
X155200000Y-117800000D03*
X156750000Y-117800000D03*
%TD*%
D49*
%TO.C,Z2*%
X78835000Y-107740000D03*
X78835000Y-111140000D03*
%TD*%
D62*
%TO.C,Q9*%
X125350000Y-92990000D03*
D63*
X127890000Y-92990000D03*
%TD*%
D64*
%TO.C,D9*%
X115930000Y-83590000D03*
X115930000Y-82015000D03*
%TD*%
D65*
%TO.C,U4*%
X68975000Y-95120000D03*
X68975000Y-96390000D03*
X68975000Y-97660000D03*
X68975000Y-98930000D03*
X73925000Y-98930000D03*
X73925000Y-97660000D03*
X73925000Y-96390000D03*
X73925000Y-95120000D03*
%TD*%
D16*
%TO.C,C36*%
X142975000Y-100525000D03*
X141425000Y-100525000D03*
%TD*%
D21*
%TO.C,R47*%
X106400000Y-119575000D03*
X106400000Y-118025000D03*
%TD*%
D66*
%TO.C,U6*%
X128700000Y-80625000D03*
X128700000Y-81125000D03*
X128700000Y-81625000D03*
X128700000Y-82125000D03*
X128700000Y-82625000D03*
X133000000Y-82625000D03*
X133000000Y-82125000D03*
X133000000Y-81625000D03*
X133000000Y-81125000D03*
X133000000Y-80625000D03*
%TD*%
D67*
%TO.C,C14*%
X77350000Y-82720000D03*
X77350000Y-88320000D03*
%TD*%
D15*
%TO.C,C17*%
X167312400Y-72625000D03*
X168862400Y-72625000D03*
%TD*%
%TO.C,R23*%
X173750000Y-108975000D03*
X175300000Y-108975000D03*
%TD*%
D18*
%TO.C,C1*%
X88250000Y-86825000D03*
X88250000Y-85275000D03*
%TD*%
%TO.C,C43*%
X133545000Y-77050000D03*
X133545000Y-75500000D03*
%TD*%
D15*
%TO.C,R12*%
X89750000Y-76245000D03*
X91300000Y-76245000D03*
%TD*%
D18*
%TO.C,C42*%
X142340000Y-85325000D03*
X142340000Y-83775000D03*
%TD*%
D68*
%TO.C,TP1*%
X80300000Y-81475000D03*
%TD*%
D13*
%TO.C,H1*%
X68825000Y-61950000D03*
%TD*%
%TO.C,H1*%
X177025000Y-123600000D03*
%TD*%
D18*
%TO.C,R13*%
X99700000Y-117600000D03*
X99700000Y-116050000D03*
%TD*%
D28*
%TO.C,C50*%
X137900000Y-116425000D03*
X136000000Y-116425000D03*
%TD*%
D16*
%TO.C,C6*%
X162690000Y-72700000D03*
X161140000Y-72700000D03*
%TD*%
D69*
%TO.C,C51*%
X144375000Y-111925000D03*
X144375000Y-114625000D03*
%TD*%
D14*
%TO.C,C47*%
X132350000Y-116425000D03*
X134250000Y-116425000D03*
%TD*%
D50*
%TO.C,Q1*%
X90850000Y-97850000D03*
X90850000Y-95950000D03*
X88575000Y-96900000D03*
%TD*%
D10*
%TO.C,R34*%
X140765000Y-83750000D03*
X140765000Y-85300000D03*
%TD*%
D70*
%TO.C,U5*%
X168750000Y-74725000D03*
X167480000Y-74725000D03*
X166210000Y-74725000D03*
X164940000Y-74725000D03*
X163670000Y-74725000D03*
X162400000Y-74725000D03*
X161130000Y-74725000D03*
X159860000Y-74725000D03*
X158590000Y-74725000D03*
X157320000Y-74725000D03*
X156050000Y-74725000D03*
X154780000Y-74725000D03*
X153510000Y-74725000D03*
X152240000Y-74725000D03*
D71*
X150990000Y-77755000D03*
X150990000Y-79025000D03*
X150990000Y-80295000D03*
X150990000Y-81565000D03*
X150990000Y-82835000D03*
X150990000Y-84105000D03*
X150990000Y-85375000D03*
X150990000Y-86645000D03*
X150990000Y-87915000D03*
X150990000Y-89185000D03*
D70*
X152240000Y-92225000D03*
X153510000Y-92225000D03*
X154780000Y-92225000D03*
X156050000Y-92225000D03*
X157320000Y-92225000D03*
X158590000Y-92225000D03*
X159860000Y-92225000D03*
X161130000Y-92225000D03*
X162400000Y-92225000D03*
X163670000Y-92225000D03*
X164940000Y-92225000D03*
X166210000Y-92225000D03*
X167480000Y-92225000D03*
X168750000Y-92225000D03*
D72*
X162990000Y-81225000D03*
X161990000Y-81225000D03*
X160990000Y-81225000D03*
X159990000Y-81225000D03*
X162990000Y-82225000D03*
X161990000Y-82225000D03*
X160990000Y-82225000D03*
X159990000Y-82225000D03*
D73*
X161410000Y-82795000D03*
D72*
X162990000Y-83225000D03*
X161990000Y-83225000D03*
X160990000Y-83225000D03*
X159990000Y-83225000D03*
X162990000Y-84225000D03*
X161990000Y-84225000D03*
X160990000Y-84225000D03*
X159990000Y-84225000D03*
%TD*%
D74*
%TO.C,C38*%
X126475000Y-102425000D03*
X126475000Y-104325000D03*
%TD*%
D75*
%TO.C,C5*%
X67575000Y-106795000D03*
X74975000Y-106795000D03*
%TD*%
D52*
%TO.C,SW3*%
X157575000Y-124850000D03*
X153075000Y-124850000D03*
X158825000Y-122350000D03*
X151825000Y-122350000D03*
%TD*%
D22*
%TO.C,Q6*%
X172150000Y-105137500D03*
X170250000Y-105137500D03*
X171200000Y-107412500D03*
%TD*%
D15*
%TO.C,C27*%
X115850000Y-86860000D03*
X117400000Y-86860000D03*
%TD*%
D18*
%TO.C,R14*%
X101200000Y-117600000D03*
X101200000Y-116050000D03*
%TD*%
D16*
%TO.C,R44*%
X110350000Y-84675000D03*
X108800000Y-84675000D03*
%TD*%
D76*
%TO.C,F1*%
X86562500Y-112250000D03*
X90837500Y-112250000D03*
%TD*%
D41*
%TO.C,C31*%
X142525000Y-111550000D03*
X142525000Y-113100000D03*
%TD*%
D15*
%TO.C,C13*%
X94125000Y-81300000D03*
X95675000Y-81300000D03*
%TD*%
D77*
%TO.C,FB1*%
X123037500Y-99175000D03*
X124862500Y-99175000D03*
%TD*%
D23*
%TO.C,C29*%
X146775000Y-106325000D03*
X148325000Y-106325000D03*
%TD*%
D21*
%TO.C,C34*%
X114225000Y-104250000D03*
X114225000Y-102700000D03*
%TD*%
D18*
%TO.C,R7*%
X93050000Y-91650000D03*
X93050000Y-90100000D03*
%TD*%
D16*
%TO.C,R6*%
X96275000Y-91375000D03*
X94725000Y-91375000D03*
%TD*%
D18*
%TO.C,C3*%
X81825000Y-83600000D03*
X81825000Y-82050000D03*
%TD*%
D78*
%TO.C,U12*%
X134237500Y-104350000D03*
X134237500Y-104850000D03*
X134237500Y-105350000D03*
X134237500Y-105850000D03*
X134237500Y-106350000D03*
X134237500Y-106850000D03*
X134237500Y-107350000D03*
X134237500Y-107850000D03*
X134237500Y-108350000D03*
X134237500Y-108850000D03*
X134237500Y-109350000D03*
X134237500Y-109850000D03*
D79*
X135650000Y-111262500D03*
X136150000Y-111262500D03*
X136650000Y-111262500D03*
X137150000Y-111262500D03*
X137650000Y-111262500D03*
X138150000Y-111262500D03*
X138650000Y-111262500D03*
X139150000Y-111262500D03*
X139650000Y-111262500D03*
X140150000Y-111262500D03*
X140650000Y-111262500D03*
X141150000Y-111262500D03*
D78*
X142562500Y-109850000D03*
X142562500Y-109350000D03*
X142562500Y-108850000D03*
X142562500Y-108350000D03*
X142562500Y-107850000D03*
X142562500Y-107350000D03*
X142562500Y-106850000D03*
X142562500Y-106350000D03*
X142562500Y-105850000D03*
X142562500Y-105350000D03*
X142562500Y-104850000D03*
X142562500Y-104350000D03*
D79*
X141150000Y-102937500D03*
X140650000Y-102937500D03*
X140150000Y-102937500D03*
X139650000Y-102937500D03*
X139150000Y-102937500D03*
X138650000Y-102937500D03*
X138150000Y-102937500D03*
X137650000Y-102937500D03*
X137150000Y-102937500D03*
X136650000Y-102937500D03*
X136150000Y-102937500D03*
X135650000Y-102937500D03*
%TD*%
D24*
%TO.C,D6*%
X110675000Y-90860000D03*
X110675000Y-92435000D03*
%TD*%
D74*
%TO.C,C35*%
X118000000Y-102425000D03*
X118000000Y-104325000D03*
%TD*%
D23*
%TO.C,R53*%
X130250000Y-107025000D03*
X131800000Y-107025000D03*
%TD*%
D80*
%TO.C,U13*%
X146725000Y-93125000D03*
D81*
X144185000Y-90585000D03*
X141645000Y-93125000D03*
X144185000Y-95665000D03*
%TD*%
D21*
%TO.C,C40*%
X141000000Y-116050000D03*
X141000000Y-114500000D03*
%TD*%
D10*
%TO.C,C21*%
X172000000Y-109050000D03*
X172000000Y-110600000D03*
%TD*%
%TO.C,R33*%
X139190000Y-85325000D03*
X139190000Y-86875000D03*
%TD*%
D18*
%TO.C,R3*%
X80350000Y-106070000D03*
X80350000Y-104520000D03*
%TD*%
%TO.C,C2*%
X78500000Y-106095000D03*
X78500000Y-104545000D03*
%TD*%
D82*
%TO.C,J6*%
X110060000Y-116475000D03*
X121490000Y-116475000D03*
D83*
X111335000Y-110115000D03*
D36*
X112595000Y-107575000D03*
X113875000Y-110115000D03*
X115135000Y-107575000D03*
X116415000Y-110115000D03*
X117675000Y-107575000D03*
X118955000Y-110115000D03*
X120215000Y-107575000D03*
X109150000Y-121375000D03*
X111690000Y-121375000D03*
X119860000Y-121375000D03*
X122400000Y-121375000D03*
D45*
X108030000Y-113425000D03*
X123520000Y-113425000D03*
%TD*%
D16*
%TO.C,R28*%
X125615000Y-77760000D03*
X124065000Y-77760000D03*
%TD*%
D10*
%TO.C,R21*%
X126975000Y-79600000D03*
X126975000Y-81150000D03*
%TD*%
D15*
%TO.C,R9*%
X89750000Y-77770000D03*
X91300000Y-77770000D03*
%TD*%
D84*
%TO.C,U9*%
X117860000Y-92387500D03*
X117860000Y-91117500D03*
X117860000Y-89847500D03*
X117860000Y-88577500D03*
X112920000Y-88577500D03*
X112920000Y-89847500D03*
X112920000Y-91117500D03*
X112920000Y-92387500D03*
%TD*%
D10*
%TO.C,C4*%
X86775000Y-94475000D03*
X86775000Y-96025000D03*
%TD*%
%TO.C,R35*%
X143915000Y-83775000D03*
X143915000Y-85325000D03*
%TD*%
D15*
%TO.C,C11*%
X85200000Y-85225000D03*
X86750000Y-85225000D03*
%TD*%
D85*
%TO.C,JP1*%
X89975000Y-94175000D03*
D86*
X89975000Y-92875000D03*
%TD*%
D40*
%TO.C,R52*%
X131800000Y-108375000D03*
X130250000Y-108375000D03*
%TD*%
D18*
%TO.C,C32*%
X117680000Y-83590000D03*
X117680000Y-82040000D03*
%TD*%
D58*
%TO.C,L2*%
X79375000Y-95370000D03*
X79375000Y-99520000D03*
%TD*%
D16*
%TO.C,R29*%
X133750000Y-88650000D03*
X132200000Y-88650000D03*
%TD*%
D15*
%TO.C,R11*%
X161144200Y-71170000D03*
X162694200Y-71170000D03*
%TD*%
%TO.C,C16*%
X167300000Y-71075000D03*
X168850000Y-71075000D03*
%TD*%
D18*
%TO.C,R2*%
X95550000Y-94575000D03*
X95550000Y-93025000D03*
%TD*%
D87*
%TO.C,VR2*%
X103465000Y-79000000D03*
D60*
X106005000Y-81540000D03*
X103465000Y-84080000D03*
%TD*%
D18*
%TO.C,R20*%
X135200000Y-84825000D03*
X135200000Y-83275000D03*
%TD*%
D10*
%TO.C,R19*%
X135020000Y-78475000D03*
X135020000Y-80025000D03*
%TD*%
D88*
%TO.C,Q5*%
X173600000Y-107400000D03*
X175500000Y-107400000D03*
X174550000Y-105125000D03*
%TD*%
D16*
%TO.C,R15*%
X90675000Y-100925000D03*
X89125000Y-100925000D03*
%TD*%
D89*
%TO.C,U1*%
X89850000Y-84875000D03*
X89850000Y-85375000D03*
X89850000Y-85875000D03*
X89850000Y-86375000D03*
X91220000Y-86375000D03*
X91220000Y-85875000D03*
X91220000Y-85375000D03*
X91220000Y-84875000D03*
%TD*%
D18*
%TO.C,C44*%
X135025000Y-77050000D03*
X135025000Y-75500000D03*
%TD*%
D22*
%TO.C,Q4*%
X87450000Y-88650000D03*
X85550000Y-88650000D03*
X86500000Y-90925000D03*
%TD*%
D10*
%TO.C,R43*%
X117680000Y-79015000D03*
X117680000Y-80565000D03*
%TD*%
D18*
%TO.C,C9*%
X89725000Y-104295000D03*
X89725000Y-102745000D03*
%TD*%
D90*
%TO.C,D2*%
X82787500Y-103195000D03*
X86837500Y-103195000D03*
%TD*%
D16*
%TO.C,R30*%
X137225000Y-88625000D03*
X135675000Y-88625000D03*
%TD*%
D45*
%TO.C,J2*%
X88255000Y-117410000D03*
X93335000Y-117410000D03*
%TD*%
M02*
