M48
; DRILL file {KiCad 8.0.6} date 2025-04-11T21:40:23+0700
; FORMAT={-:-/ absolute / inch / decimal}
; #@! TF.CreationDate,2025-04-11T21:40:23+07:00
; #@! TF.GenerationSoftware,Kicad,Pcbnew,8.0.6
; #@! TF.FileFunction,Plated,1,2,PTH
FMAT,2
INCH
; #@! TA.AperFunction,Plated,PTH,ComponentDrill
T1C0.0079
; #@! TA.AperFunction,Plated,PTH,ViaDrill
T2C0.0118
; #@! TA.AperFunction,Plated,PTH,ComponentDrill
T3C0.0118
; #@! TA.AperFunction,Plated,PTH,ComponentDrill
T4C0.0272
; #@! TA.AperFunction,Plated,PTH,ComponentDrill
T5C0.0281
; #@! TA.AperFunction,Plated,PTH,ComponentDrill
T6C0.0300
; #@! TA.AperFunction,Plated,PTH,ComponentDrill
T7C0.0315
; #@! TA.AperFunction,Plated,PTH,ComponentDrill
T8C0.0350
; #@! TA.AperFunction,Plated,PTH,ComponentDrill
T9C0.0386
; #@! TA.AperFunction,Plated,PTH,ComponentDrill
T10C0.0394
; #@! TA.AperFunction,Plated,PTH,ComponentDrill
T11C0.0402
; #@! TA.AperFunction,Plated,PTH,ComponentDrill
T12C0.0472
; #@! TA.AperFunction,Plated,PTH,ComponentDrill
T13C0.0512
; #@! TA.AperFunction,Plated,PTH,ComponentDrill
T14C0.0551
; #@! TA.AperFunction,Plated,PTH,ComponentDrill
T15C0.0642
; #@! TA.AperFunction,Plated,PTH,ComponentDrill
T16C0.1575
%
G90
G05
T1
X3.3844Y-3.1159
X3.3844Y-3.1593
X3.4277Y-3.1159
X3.4277Y-3.1593
T2
X2.753Y-3.0
X2.7776Y-3.8435
X2.7982Y-3.9537
X2.8543Y-3.9862
X2.935Y-3.9911
X2.9774Y-3.6841
X3.0177Y-3.1142
X3.0266Y-4.0354
X3.0535Y-3.6212
X3.1073Y-4.0256
X3.1398Y-3.6073
X3.1732Y-3.2323
X3.1831Y-3.1959
X3.1954Y-4.2461
X3.2012Y-3.6553
X3.2112Y-3.5174
X3.2323Y-3.5994
X3.2382Y-4.1791
X3.2411Y-3.4035
X3.252Y-4.2402
X3.2559Y-3.4803
X3.2629Y-3.37
X3.2736Y-3.2333
X3.2746Y-3.1024
X3.2785Y-3.1624
X3.2982Y-4.1565
X3.3012Y-2.6848
X3.3022Y-3.6732
X3.3356Y-3.6289
X3.3455Y-3.0146
X3.3455Y-3.2874
X3.3494Y-3.0723
X3.3632Y-3.7028
X3.3671Y-3.3012
X3.4075Y-3.6368
X3.4163Y-3.7283
X3.4429Y-3.8465
X3.4498Y-3.8976
X3.4528Y-3.9774
X3.4577Y-3.3022
X3.4744Y-3.3573
X3.4744Y-3.4183
X3.4744Y-3.7343
X3.4754Y-3.6319
X3.5167Y-3.2362
X3.5295Y-3.4518
X3.5354Y-4.564
X3.5374Y-3.4059
X3.5453Y-2.5758
X3.564Y-3.1819
X3.5709Y-3.9094
X3.5768Y-3.2313
X3.5915Y-3.2904
X3.6043Y-4.2913
X3.6201Y-3.998
X3.624Y-2.8474
X3.6299Y-3.4911
X3.6319Y-3.4035
X3.6486Y-3.2116
X3.6624Y-4.1142
X3.6722Y-4.4409
X3.6841Y-3.0098
X3.7106Y-4.1949
X3.7421Y-4.4203
X3.7795Y-4.1585
X3.7815Y-4.3868
X3.7884Y-4.4734
X3.8012Y-2.4124
X3.8205Y-4.5868
X3.8287Y-4.6644
X3.8356Y-3.5974
X3.8406Y-4.5404
X3.8415Y-2.9823
X3.8533Y-3.7037
X3.8533Y-4.6043
X3.8593Y-3.6427
X3.8691Y-3.1398
X3.9124Y-3.939
X3.94Y-3.4409
X3.94Y-4.063
X3.9626Y-3.2234
X3.9724Y-3.8455
X3.9843Y-4.5689
X3.9951Y-3.9281
X3.997Y-3.0512
X4.002Y-2.8848
X4.0404Y-3.7136
X4.0482Y-3.2057
X4.0502Y-4.0492
X4.0797Y-3.4537
X4.1171Y-3.5591
X4.1358Y-3.8858
X4.1358Y-4.5915
X4.1378Y-4.6703
X4.1654Y-3.9862
X4.1772Y-3.127
X4.1821Y-3.3839
X4.189Y-4.6457
X4.2165Y-3.8189
X4.2829Y-3.2606
X4.2835Y-3.1112
X4.3356Y-3.0374
X4.3671Y-4.1033
X4.3848Y-3.1132
X4.3868Y-3.2904
X4.4134Y-3.0876
X4.4144Y-3.2343
X4.4183Y-3.1821
X4.4193Y-2.5502
X4.4281Y-2.9813
X4.4321Y-4.1033
X4.4596Y-3.3573
X4.4852Y-4.1683
X4.498Y-4.0423
X4.561Y-3.4197
X4.5642Y-3.2909
X4.5846Y-4.1888
X4.6053Y-2.9242
X4.6152Y-3.3612
X4.6331Y-3.2909
X4.6358Y-4.1644
X4.6402Y-3.5866
X4.6929Y-3.1112
X4.6959Y-3.3425
X4.7283Y-3.5585
X4.7323Y-3.1614
X4.7333Y-4.0325
X4.7333Y-4.1846
X4.7451Y-3.4163
X4.7521Y-3.0594
X4.8012Y-3.4626
X4.8021Y-3.6392
X4.8366Y-4.0108
X4.8366Y-4.2677
X4.8612Y-2.8711
X4.8809Y-4.1811
X4.8844Y-3.0614
X4.9185Y-4.178
X4.9301Y-4.3484
X4.9596Y-3.8681
X4.9793Y-4.2913
X4.9793Y-4.3996
X4.9805Y-2.968
X4.9813Y-4.5187
X4.999Y-3.1339
X5.002Y-2.6565
X5.0335Y-2.8878
X5.0354Y-4.1752
X5.0463Y-4.3012
X5.0709Y-4.2136
X5.0846Y-4.1713
X5.0929Y-2.6281
X5.0965Y-3.4537
X5.122Y-3.2539
X5.126Y-4.2677
X5.128Y-4.3209
X5.1289Y-3.7441
X5.1289Y-4.2136
X5.1299Y-4.1555
X5.1319Y-4.1063
X5.1329Y-3.311
X5.1329Y-3.5335
X5.1407Y-3.1919
X5.1407Y-3.4035
X5.1594Y-2.4006
X5.1683Y-3.9587
X5.186Y-4.0561
X5.1998Y-3.1378
X5.2047Y-3.8317
X5.2067Y-4.3976
X5.2293Y-4.1663
X5.2303Y-4.2697
X5.2372Y-3.6132
X5.247Y-3.8967
X5.2657Y-3.4902
X5.2776Y-3.2106
X5.2874Y-4.3799
X5.3075Y-2.8917
X5.3157Y-3.0896
X5.3157Y-3.1506
X5.3159Y-3.9065
X5.3228Y-3.2785
X5.3258Y-3.315
X5.3337Y-4.2875
X5.3415Y-3.4892
X5.3435Y-3.8593
X5.3524Y-4.4469
X5.3593Y-3.1299
X5.3671Y-3.2874
X5.3711Y-3.5856
X5.3842Y-3.9131
X5.3868Y-4.1575
X5.3947Y-3.0856
X5.3967Y-4.2165
X5.4016Y-3.4882
X5.4016Y-4.3091
X5.4082Y-3.5559
X5.4154Y-3.4183
X5.4199Y-3.2982
X5.4281Y-4.4518
X5.4301Y-4.6585
X5.4321Y-4.5059
X5.4321Y-4.5837
X5.4409Y-2.5709
X5.4557Y-3.685
X5.4566Y-2.6466
X5.4606Y-4.25
X5.4626Y-3.8638
X5.4665Y-3.7726
X5.4799Y-3.4203
X5.4823Y-3.9045
X5.4921Y-3.1319
X5.5315Y-4.315
X5.5394Y-3.3878
X5.5443Y-3.7116
X5.5472Y-3.4911
X5.5502Y-4.1949
X5.5679Y-3.9577
X5.5689Y-4.0413
X5.5768Y-3.5571
X5.6033Y-3.4124
X5.6132Y-4.3307
X5.6348Y-2.5098
X5.6358Y-4.0128
X5.6358Y-4.0935
X5.6619Y-2.9859
X5.6644Y-4.126
X5.6659Y-3.4124
X5.6683Y-3.1388
X5.6713Y-4.5915
X5.686Y-3.9311
X5.6909Y-3.8898
X5.6939Y-4.0659
X5.7028Y-3.688
X5.7234Y-3.9882
X5.7274Y-4.1929
X5.7333Y-3.1949
X5.7373Y-3.1249
X5.7589Y-3.747
X5.7598Y-3.2933
X5.7598Y-3.5689
X5.7598Y-4.5561
X5.7608Y-3.9508
X5.7638Y-3.8553
X5.7756Y-2.9754
X5.8108Y-3.8533
X5.812Y-3.1161
X5.815Y-3.9075
X5.8406Y-4.3002
X5.8465Y-3.9488
X5.8484Y-3.4616
X5.8622Y-2.9783
X5.8661Y-3.2943
X5.875Y-3.437
X5.878Y-3.6299
X5.8785Y-3.9391
X5.9016Y-4.4016
X5.9138Y-2.6101
X5.9445Y-3.4612
X5.9445Y-3.5512
X5.9478Y-4.1467
X5.9498Y-3.1152
X5.9652Y-3.9882
X5.9652Y-4.0669
X5.9652Y-4.2244
X5.9734Y-2.8514
X5.9937Y-3.3878
X5.9937Y-3.4656
X5.998Y-3.6949
X6.0157Y-2.6978
X6.0217Y-2.7835
X6.0404Y-3.2943
X6.0437Y-3.1703
X6.0437Y-3.6309
X6.0689Y-3.6959
X6.0817Y-3.2313
X6.0945Y-3.7441
X6.0955Y-3.8671
X6.1191Y-3.5758
X6.1193Y-2.8228
X6.122Y-3.7028
X6.122Y-4.0354
X6.1289Y-4.5226
X6.1437Y-3.5197
X6.1457Y-4.1191
X6.1604Y-2.7913
X6.1626Y-3.4945
X6.1654Y-2.9915
X6.1693Y-4.0098
X6.1752Y-3.8868
X6.1801Y-3.8041
X6.1801Y-4.1211
X6.1841Y-3.3346
X6.188Y-4.249
X6.19Y-4.1801
X6.2028Y-2.7844
X6.2055Y-2.7078
X6.2077Y-3.252
X6.2077Y-3.5758
X6.2087Y-4.0935
X6.2096Y-3.7106
X6.2333Y-3.1171
X6.2352Y-3.4134
X6.2402Y-4.0689
X6.2452Y-2.3774
X6.2559Y-4.1142
X6.2569Y-3.5266
X6.2589Y-2.7982
X6.2589Y-2.9911
X6.2874Y-2.7037
X6.2904Y-4.1476
X6.2943Y-3.1171
X6.314Y-4.2805
X6.3356Y-3.9843
X6.3375Y-3.8703
X6.3573Y-4.1713
X6.3602Y-2.376
X6.3622Y-4.5522
X6.373Y-3.4114
X6.3858Y-3.0994
X6.3917Y-4.2234
X6.4035Y-2.8041
X6.4055Y-2.7431
X6.4055Y-2.8642
X6.4417Y-3.5266
X6.4437Y-3.06
X6.4528Y-3.4665
X6.469Y-2.9899
X6.4911Y-3.4951
X6.4951Y-3.3593
X6.5437Y-3.0079
X6.5925Y-3.5305
X6.6486Y-3.1811
X6.6555Y-4.2982
X6.6604Y-3.3937
X6.6978Y-4.4587
X6.7106Y-4.0778
X6.8346Y-4.2283
T3
X6.2988Y-3.1978
X6.2988Y-3.2372
X6.2988Y-3.2766
X6.2988Y-3.3159
X6.3382Y-3.1978
X6.3382Y-3.2372
X6.3382Y-3.2766
X6.3382Y-3.3159
X6.3776Y-3.1978
X6.3776Y-3.2372
X6.3776Y-3.2766
X6.3776Y-3.3159
X6.4169Y-3.1978
X6.4169Y-3.2372
X6.4169Y-3.2766
X6.4169Y-3.3159
T4
X5.5766Y-3.6663
X5.6766Y-3.5663
X5.6766Y-3.7663
X5.7766Y-3.6663
T5
X4.0734Y-3.1102
X4.0734Y-3.3102
X4.1734Y-3.2102
X4.4463Y-3.8228
X4.5463Y-3.7228
X4.6463Y-3.8228
T6
X3.8967Y-4.1919
X3.9439Y-4.7248
X3.9439Y-4.8248
X3.9951Y-4.1919
X4.0439Y-4.7248
X4.0439Y-4.8248
X4.0935Y-4.1919
T7
X3.4242Y-4.2075
X3.7195Y-4.2718
X5.0659Y-4.4705
X5.0659Y-4.6673
T8
X4.3833Y-4.3352
X4.4329Y-4.2352
X4.4833Y-4.3352
X4.5329Y-4.2352
X4.5833Y-4.3352
X4.6329Y-4.2352
X4.6833Y-4.3352
X4.7329Y-4.2352
T9
X4.935Y-3.661
X5.035Y-3.661
T10
X3.0043Y-2.9951
X3.1043Y-2.9951
X4.2457Y-2.6768
X4.3004Y-2.5445
X4.3004Y-2.8091
X4.565Y-2.5445
X4.565Y-2.8091
X4.6197Y-2.6768
X6.0193Y-2.6024
X6.1193Y-2.6024
X6.2193Y-2.6024
X6.3193Y-2.6024
X6.4193Y-2.6024
X6.5193Y-2.6024
T11
X4.2972Y-4.7785
X4.3972Y-4.7785
X4.7189Y-4.7785
X4.8189Y-4.7785
T12
X3.4746Y-4.6224
X3.6746Y-4.6224
X4.0071Y-3.5122
X4.2071Y-3.5122
X5.3008Y-2.6864
X5.5008Y-2.6864
T13
X5.9774Y-4.8169
X6.0266Y-4.9154
X6.2037Y-4.9154
X6.253Y-4.8169
T14
X6.3724Y-4.7494
X6.3724Y-4.9494
X6.4724Y-4.8494
X6.5724Y-4.7494
X6.5724Y-4.9494
T15
X4.2531Y-4.4656
X4.863Y-4.4656
T16
X2.7077Y-4.8642
X2.7096Y-2.439
X6.9665Y-2.439
X6.9695Y-4.8661
T7
G00X3.0669Y-4.4656
M15
G01X3.1693Y-4.4656
M16
G05
G00X3.0748Y-4.6939
M15
G01X3.1614Y-4.6939
M16
G05
G00X3.3071Y-4.627
M15
G01X3.3071Y-4.5404
M16
G05
M30
